<?xml version="1.0" standalone="no"?>
<!DOCTYPE svg PUBLIC "-//W3C//DTD SVG 1.0//EN" "http://www.w3.org/TR/2001/REC-SVG-20010904/DTD/svg10.dtd">
<svg xmlns="http://www.w3.org/2000/svg" xmlns:xlink="http://www.w3.org/1999/xlink" id="body_1" width="311" height="388">

<defs>
    <clipPath  id="1">

    <path id=""  clip-rule="evenodd" transform="matrix(1 0 0 1 0 0)"  d="M0 291L0 -0.7629089L0 -0.7629089L233.2179 -0.7629089L233.2179 -0.7629089L233.2179 291L233.2179 291L0 291z" />    </clipPath>
    <clipPath  id="2">

    <path id=""  clip-rule="evenodd" transform="matrix(1 0 0 1 0 0)"  d="M0 -0.7629089L234 -0.7629089L234 -0.7629089L234 291.2371L234 291.2371L0 291.2371z" />    </clipPath>
    <clipPath  id="3">

    <path id=""  clip-rule="evenodd" transform="matrix(1 0 0 1 0 0)"  d="M0 -0.7629089L234 -0.7629089L234 -0.7629089L234 291.2371L234 291.2371L0 291.2371z" />    </clipPath>
    <clipPath  id="4">

    <path id=""  clip-rule="evenodd" transform="matrix(1 0 0 1 0 0)"  d="M0 -0.7629089L234 -0.7629089L234 -0.7629089L234 291.2371L234 291.2371L0 291.2371z" />    </clipPath>
    <clipPath  id="5">

    <path id=""  clip-rule="evenodd" transform="matrix(1 0 0 1 0 0)"  d="M0 -0.7629089L234 -0.7629089L234 -0.7629089L234 291.2371L234 291.2371L0 291.2371z" />    </clipPath>
    <clipPath  id="6">

    <path id=""  clip-rule="evenodd" transform="matrix(1 0 0 1 0 0)"  d="M0 -0.7629089L234 -0.7629089L234 -0.7629089L234 291.2371L234 291.2371L0 291.2371z" />    </clipPath>
    <clipPath  id="7">

    <path id=""  clip-rule="evenodd" transform="matrix(1 0 0 1 0 0)"  d="M0 -0.7629089L234 -0.7629089L234 -0.7629089L234 291.2371L234 291.2371L0 291.2371z" />    </clipPath>
    <clipPath  id="8">

    <path id=""  clip-rule="evenodd" transform="matrix(1 0 0 1 0 0)"  d="M0 -0.7629089L234 -0.7629089L234 -0.7629089L234 291.2371L234 291.2371L0 291.2371z" />    </clipPath>
    <clipPath  id="9">

    <path id=""  clip-rule="evenodd" transform="matrix(1 0 0 1 0 0)"  d="M0 -0.7629089L234 -0.7629089L234 -0.7629089L234 291.2371L234 291.2371L0 291.2371z" />    </clipPath>
    <clipPath  id="10">

    <path id=""  clip-rule="evenodd" transform="matrix(1 0 0 1 0 0)"  d="M0 -0.7629089L234 -0.7629089L234 -0.7629089L234 291.2371L234 291.2371L0 291.2371z" />    </clipPath>
    <clipPath  id="11">

    <path id=""  clip-rule="evenodd" transform="matrix(1 0 0 1 0 0)"  d="M0 -0.7629089L234 -0.7629089L234 -0.7629089L234 291.2371L234 291.2371L0 291.2371z" />    </clipPath>
    <clipPath  id="12">

    <path id=""  clip-rule="evenodd" transform="matrix(1 0 0 1 0 0)"  d="M0 -0.7629089L234 -0.7629089L234 -0.7629089L234 291.2371L234 291.2371L0 291.2371z" />    </clipPath>
    <clipPath  id="13">

    <path id=""  clip-rule="evenodd" transform="matrix(1 0 0 1 0 0)"  d="M0 -0.7629089L234 -0.7629089L234 -0.7629089L234 291.2371L234 291.2371L0 291.2371z" />    </clipPath>
    <clipPath  id="14">

    <path id=""  clip-rule="evenodd" transform="matrix(1 0 0 1 0 0)"  d="M0 -0.7629089L234 -0.7629089L234 -0.7629089L234 291.2371L234 291.2371L0 291.2371z" />    </clipPath>
    <clipPath  id="15">

    <path id=""  clip-rule="evenodd" transform="matrix(1 0 0 1 0 0)"  d="M0 -0.7629089L234 -0.7629089L234 -0.7629089L234 291.2371L234 291.2371L0 291.2371z" />    </clipPath>
    <clipPath  id="16">

    <path id=""  clip-rule="evenodd" transform="matrix(1 0 0 1 0 0)"  d="M0 -0.7629089L234 -0.7629089L234 -0.7629089L234 291.2371L234 291.2371L0 291.2371z" />    </clipPath>
    <clipPath  id="17">

    <path id=""  clip-rule="evenodd" transform="matrix(1 0 0 1 0 0)"  d="M0 -0.7629089L234 -0.7629089L234 -0.7629089L234 291.2371L234 291.2371L0 291.2371z" />    </clipPath>
    <clipPath  id="18">

    <path id=""  clip-rule="evenodd" transform="matrix(1 0 0 1 0 0)"  d="M0 -0.7629089L234 -0.7629089L234 -0.7629089L234 291.2371L234 291.2371L0 291.2371z" />    </clipPath>
    <clipPath  id="19">

    <path id=""  clip-rule="evenodd" transform="matrix(1 0 0 1 0 0)"  d="M0 -0.7629089L234 -0.7629089L234 -0.7629089L234 291.2371L234 291.2371L0 291.2371z" />    </clipPath>
    <clipPath  id="20">

    <path id=""  clip-rule="evenodd" transform="matrix(1 0 0 1 0 0)"  d="M0 -0.7629089L234 -0.7629089L234 -0.7629089L234 291.2371L234 291.2371L0 291.2371z" />    </clipPath>
    <clipPath  id="21">

    <path id=""  clip-rule="evenodd" transform="matrix(1 0 0 1 0 0)"  d="M0 -0.7629089L234 -0.7629089L234 -0.7629089L234 291.2371L234 291.2371L0 291.2371z" />    </clipPath>
    <clipPath  id="22">

    <path id=""  clip-rule="evenodd" transform="matrix(1 0 0 1 0 0)"  d="M0 -0.7629089L234 -0.7629089L234 -0.7629089L234 291.2371L234 291.2371L0 291.2371z" />    </clipPath>
    <clipPath  id="23">

    <path id=""  clip-rule="evenodd" transform="matrix(1 0 0 1 0 0)"  d="M0 -0.7629089L234 -0.7629089L234 -0.7629089L234 291.2371L234 291.2371L0 291.2371z" />    </clipPath>
    <clipPath  id="24">

    <path id=""  clip-rule="evenodd" transform="matrix(1 0 0 1 0 0)"  d="M0 -0.7629089L234 -0.7629089L234 -0.7629089L234 291.2371L234 291.2371L0 291.2371z" />    </clipPath>
    <clipPath  id="25">

    <path id=""  clip-rule="evenodd" transform="matrix(1 0 0 1 0 0)"  d="M0 -0.7629089L234 -0.7629089L234 -0.7629089L234 291.2371L234 291.2371L0 291.2371z" />    </clipPath>
    <clipPath  id="26">

    <path id=""  clip-rule="evenodd" transform="matrix(1 0 0 1 0 0)"  d="M0 -0.7629089L234 -0.7629089L234 -0.7629089L234 291.2371L234 291.2371L0 291.2371z" />    </clipPath>
    <clipPath  id="27">

    <path id=""  clip-rule="evenodd" transform="matrix(1 0 0 1 0 0)"  d="M0 -0.7629089L234 -0.7629089L234 -0.7629089L234 291.2371L234 291.2371L0 291.2371z" />    </clipPath>
    <clipPath  id="28">

    <path id=""  clip-rule="evenodd" transform="matrix(1 0 0 1 0 0)"  d="M0 -0.7629089L234 -0.7629089L234 -0.7629089L234 291.2371L234 291.2371L0 291.2371z" />    </clipPath>
    <clipPath  id="29">

    <path id=""  clip-rule="evenodd" transform="matrix(1 0 0 1 0 0)"  d="M0 -0.7629089L234 -0.7629089L234 -0.7629089L234 291.2371L234 291.2371L0 291.2371z" />    </clipPath>
    <clipPath  id="30">

    <path id=""  clip-rule="evenodd" transform="matrix(1 0 0 1 0 0)"  d="M0 -0.7629089L234 -0.7629089L234 -0.7629089L234 291.2371L234 291.2371L0 291.2371z" />    </clipPath>
    <clipPath  id="31">

    <path id=""  clip-rule="evenodd" transform="matrix(1 0 0 1 0 0)"  d="M0 -0.7629089L234 -0.7629089L234 -0.7629089L234 291.2371L234 291.2371L0 291.2371z" />    </clipPath>
    <clipPath  id="32">

    <path id=""  clip-rule="evenodd" transform="matrix(1 0 0 1 0 0)"  d="M0 -0.7629089L234 -0.7629089L234 -0.7629089L234 291.2371L234 291.2371L0 291.2371z" />    </clipPath>
    <clipPath  id="33">

    <path id=""  clip-rule="evenodd" transform="matrix(1 0 0 1 0 0)"  d="M0 -0.7629089L234 -0.7629089L234 -0.7629089L234 291.2371L234 291.2371L0 291.2371z" />    </clipPath>
    <clipPath  id="34">

    <path id=""  clip-rule="evenodd" transform="matrix(1 0 0 1 0 0)"  d="M0 -0.7629089L234 -0.7629089L234 -0.7629089L234 291.2371L234 291.2371L0 291.2371z" />    </clipPath>
    <clipPath  id="35">

    <path id=""  clip-rule="evenodd" transform="matrix(1 0 0 1 0 0)"  d="M0 -0.7629089L234 -0.7629089L234 -0.7629089L234 291.2371L234 291.2371L0 291.2371z" />    </clipPath>
    <clipPath  id="36">

    <path id=""  clip-rule="evenodd" transform="matrix(1 0 0 1 0 0)"  d="M0 -0.7629089L234 -0.7629089L234 -0.7629089L234 291.2371L234 291.2371L0 291.2371z" />    </clipPath>
    <clipPath  id="37">

    <path id=""  clip-rule="evenodd" transform="matrix(1 0 0 1 0 0)"  d="M0 -0.7629089L234 -0.7629089L234 -0.7629089L234 291.2371L234 291.2371L0 291.2371z" />    </clipPath>
    <clipPath  id="38">

    <path id=""  clip-rule="evenodd" transform="matrix(1 0 0 1 0 0)"  d="M0 -0.7629089L234 -0.7629089L234 -0.7629089L234 291.2371L234 291.2371L0 291.2371z" />    </clipPath>
    <clipPath  id="39">

    <path id=""  clip-rule="evenodd" transform="matrix(1 0 0 1 0 0)"  d="M0 -0.7629089L234 -0.7629089L234 -0.7629089L234 291.2371L234 291.2371L0 291.2371z" />    </clipPath>
    <clipPath  id="40">

    <path id=""  clip-rule="evenodd" transform="matrix(1 0 0 1 0 0)"  d="M0 -0.7629089L234 -0.7629089L234 -0.7629089L234 291.2371L234 291.2371L0 291.2371z" />    </clipPath>
    <clipPath  id="41">

    <path id=""  clip-rule="evenodd" transform="matrix(1 0 0 1 0 0)"  d="M0 -0.7629089L234 -0.7629089L234 -0.7629089L234 291.2371L234 291.2371L0 291.2371z" />    </clipPath>
    <clipPath  id="42">

    <path id=""  clip-rule="evenodd" transform="matrix(1 0 0 1 0 0)"  d="M0 -0.7629089L234 -0.7629089L234 -0.7629089L234 291.2371L234 291.2371L0 291.2371z" />    </clipPath>
    <clipPath  id="43">

    <path id=""  clip-rule="evenodd" transform="matrix(1 0 0 1 0 0)"  d="M0 -0.7629089L234 -0.7629089L234 -0.7629089L234 291.2371L234 291.2371L0 291.2371z" />    </clipPath>
    <clipPath  id="44">

    <path id=""  clip-rule="evenodd" transform="matrix(1 0 0 1 0 0)"  d="M0 -0.7629089L234 -0.7629089L234 -0.7629089L234 291.2371L234 291.2371L0 291.2371z" />    </clipPath>
    <clipPath  id="45">

    <path id=""  clip-rule="evenodd" transform="matrix(1 0 0 1 0 0)"  d="M0 -0.7629089L234 -0.7629089L234 -0.7629089L234 291.2371L234 291.2371L0 291.2371z" />    </clipPath>
    <clipPath  id="46">

    <path id=""  clip-rule="evenodd" transform="matrix(1 0 0 1 0 0)"  d="M0 -0.7629089L234 -0.7629089L234 -0.7629089L234 291.2371L234 291.2371L0 291.2371z" />    </clipPath>
    <clipPath  id="47">

    <path id=""  clip-rule="evenodd" transform="matrix(1 0 0 1 0 0)"  d="M0 -0.7629089L234 -0.7629089L234 -0.7629089L234 291.2371L234 291.2371L0 291.2371z" />    </clipPath>
    <clipPath  id="48">

    <path id=""  clip-rule="evenodd" transform="matrix(1 0 0 1 0 0)"  d="M0 -0.7629089L234 -0.7629089L234 -0.7629089L234 291.2371L234 291.2371L0 291.2371z" />    </clipPath>
    <clipPath  id="49">

    <path id=""  clip-rule="evenodd" transform="matrix(1 0 0 1 0 0)"  d="M0 -0.7629089L234 -0.7629089L234 -0.7629089L234 291.2371L234 291.2371L0 291.2371z" />    </clipPath>
    <clipPath  id="50">

    <path id=""  clip-rule="evenodd" transform="matrix(1 0 0 1 0 0)"  d="M0 -0.7629089L234 -0.7629089L234 -0.7629089L234 291.2371L234 291.2371L0 291.2371z" />    </clipPath>
    <clipPath  id="51">

    <path id=""  clip-rule="evenodd" transform="matrix(1 0 0 1 0 0)"  d="M0 -0.7629089L234 -0.7629089L234 -0.7629089L234 291.2371L234 291.2371L0 291.2371z" />    </clipPath>
    <clipPath  id="52">

    <path id=""  clip-rule="evenodd" transform="matrix(1 0 0 1 0 0)"  d="M0 -0.7629089L234 -0.7629089L234 -0.7629089L234 291.2371L234 291.2371L0 291.2371z" />    </clipPath>
    <clipPath  id="53">

    <path id=""  clip-rule="evenodd" transform="matrix(1 0 0 1 0 0)"  d="M0 -0.7629089L234 -0.7629089L234 -0.7629089L234 291.2371L234 291.2371L0 291.2371z" />    </clipPath>
</defs>

<g transform="matrix(1.3333 0 0 1.3333 0 0)">
	<g clip-path="url(#1)" >
		<g clip-path="url(#2)" >
    <path id=""  transform="matrix(1 0 0 -1 0 291)"  d="M121.68 291.7629L121.676 149.4189L121.676 149.4189L121.676 149.4149L121.676 149.4149L121.668 0.0009155273M233.109 149.0789L121.676 149.4149L121.676 149.4149L121.672 149.4149L121.672 149.4149L0.105 149.7829" stroke="#231F20" stroke-width="71.14397" stroke-linejoin="miter" fill="none" />
		</g>
		<g clip-path="url(#3)" >
    <path id=""  transform="matrix(1 0 0 -1 0 291)"  d="M121.68 291.7629L121.676 149.4189L121.676 149.4189L121.676 149.4149L121.676 149.4149L121.668 0.0009155273M233.109 149.0789L121.676 149.4149L121.676 149.4149L121.672 149.4149L121.672 149.4149L0.105 149.7829" stroke="#FFFFFF" stroke-width="65.08908" stroke-linejoin="miter" fill="none" />
		</g>
		<g clip-path="url(#4)" >
    <path id=""  transform="matrix(1 0 0 -1 0 291)"  d="M121.68 291.7629L121.676 149.4189L121.676 149.4189L121.676 149.4149L121.676 149.4149L121.668 0.0009155273M233.109 149.0789L121.676 149.4149L121.676 149.4149L121.672 149.4149L121.672 149.4149L0.105 149.7829" stroke="#231F20" stroke-width="62.06183" stroke-linejoin="miter" fill="none" />
		</g>
		<g clip-path="url(#5)" >
    <path id=""  transform="matrix(1 0 0 -1 0 291)"  d="M121.68 291.7629L121.676 149.4189L121.676 149.4189L121.676 149.4149L121.676 149.4149L121.668 0.0009155273M233.109 149.0789L121.676 149.4149L121.676 149.4149L121.672 149.4149L121.672 149.4149L0.105 149.7829" stroke="#FFFFFF" stroke-width="1.513701" stroke-linejoin="miter" stroke-dasharray="9.99999809265137,9.99999809265137" fill="none" />
		</g>
		<g clip-path="url(#6)" >
    <path id=""  transform="matrix(1 0 0 -1 0 291)"  d="M121.746 118.2629L121.938 181.8249" stroke="#231F20" stroke-width="62.06183" stroke-linejoin="miter" fill="none" />
		</g>
		<g clip-path="url(#7)" >
    <path id=""  transform="matrix(1 0 0 -1 0 291)"  d="M157.691 116.7589C 156.695 116.8369 155.781 116.4739 155.148 115.8409C 154.461 115.1539 154.156 114.2199 154.23 113.2979C 153.734 113.2829 153.238 113.2709 152.746 113.2589C 152.641 114.5869 153.082 115.9309 154.066 116.9189C 154.98 117.8329 156.297 118.3569 157.73 118.2429C 157.715 117.7469 157.73 118.2429 157.691 116.7589" stroke="none" fill="#FFFFFF" fill-rule="nonzero" />
		</g>
		<g clip-path="url(#8)" >
    <path id=""  transform="matrix(1 0 0 -1 0 291)"  d="M157.488 118.2789C 156.105 118.3879 154.844 117.8879 153.965 117.0089C 153.012 116.0559 152.59 114.7629 152.691 113.4859C 152.008 113.4659 151.32 113.4499 150.637 113.4309C 150.492 115.2709 151.102 117.1339 152.469 118.5009C 153.734 119.7709 155.555 120.4899 157.539 120.3329C 157.523 119.6499 157.539 120.3329 157.488 118.2789" stroke="none" fill="#231F20" fill-rule="nonzero" />
		</g>
		<g clip-path="url(#9)" >
    <path id=""  transform="matrix(1 0 0 -1 0 291)"  d="M157.488 118.2789C 156.105 118.3879 154.844 117.8879 153.965 117.0089C 153.012 116.0559 152.59 114.7629 152.691 113.4859C 152.008 113.4659 151.32 113.4499 150.637 113.4309C 150.492 115.2709 151.102 117.1339 152.469 118.5009C 153.734 119.7709 155.555 120.4899 157.539 120.3329C 157.523 119.6499 157.539 120.3329 157.488 118.2789" stroke="none" fill="#231F20" fill-rule="nonzero" />
		</g>
		<g clip-path="url(#10)" >
    <path id=""  transform="matrix(1 0 0 -1 0 291)"  d="M154.191 185.2899C 154.113 184.2939 154.477 183.3839 155.109 182.7469C 155.797 182.0639 156.73 181.7549 157.652 181.8289C 157.668 181.3329 157.68 180.8409 157.691 180.3449C 156.363 180.2429 155.02 180.6809 154.031 181.6689C 153.117 182.5829 152.594 183.8959 152.707 185.3289C 153.203 185.3179 152.707 185.3289 154.191 185.2899" stroke="none" fill="#FFFFFF" fill-rule="nonzero" />
		</g>
		<g clip-path="url(#11)" >
    <path id=""  transform="matrix(1 0 0 -1 0 291)"  d="M152.672 185.0869C 152.563 183.7079 153.063 182.4429 153.941 181.5639C 154.895 180.6149 156.188 180.1929 157.465 180.2899C 157.484 179.6069 157.5 178.9229 157.52 178.2359C 155.68 178.0909 153.816 178.6999 152.449 180.0679C 151.18 181.3369 150.461 183.1539 150.617 185.1419C 151.301 185.1219 150.617 185.1419 152.672 185.0869" stroke="none" fill="#231F20" fill-rule="nonzero" />
		</g>
		<g clip-path="url(#12)" >
    <path id=""  transform="matrix(1 0 0 -1 0 291)"  d="M85.688 182.0519C 86.684 181.9739 87.594 182.3329 88.23 182.9699C 88.914 183.6539 89.219 184.5909 89.148 185.5129C 89.641 185.5249 90.137 185.5359 90.629 185.5519C 90.734 184.2239 90.297 182.8759 89.309 181.8879C 88.395 180.9739 87.082 180.4539 85.648 180.5679C 85.66 181.0599 85.648 180.5679 85.688 182.0519" stroke="none" fill="#FFFFFF" fill-rule="nonzero" />
		</g>
		<g clip-path="url(#13)" >
    <path id=""  transform="matrix(1 0 0 -1 0 291)"  d="M85.891 180.5289C 87.27 180.4189 88.531 180.9229 89.414 181.8019C 90.363 182.7509 90.785 184.0479 90.684 185.3249C 91.371 185.3409 92.055 185.3609 92.738 185.3799C 92.883 183.5359 92.273 181.6729 90.906 180.3059C 89.641 179.0399 87.824 178.3179 85.836 178.4739C 85.852 179.1579 85.836 178.4739 85.891 180.5289" stroke="none" fill="#231F20" fill-rule="nonzero" />
		</g>
		<g clip-path="url(#14)" >
    <path id=""  transform="matrix(1 0 0 -1 0 291)"  d="M89.145 113.5129C 89.223 114.5089 88.859 115.4189 88.227 116.0559C 87.539 116.7399 86.605 117.0439 85.684 116.9739C 85.668 117.4659 85.656 117.9619 85.645 118.4579C 86.973 118.5599 88.316 118.1219 89.305 117.1339C 90.219 116.2199 90.738 114.9079 90.625 113.4739C 90.133 113.4859 90.625 113.4739 89.145 113.5129" stroke="none" fill="#FFFFFF" fill-rule="nonzero" />
		</g>
		<g clip-path="url(#15)" >
    <path id=""  transform="matrix(1 0 0 -1 0 291)"  d="M90.664 113.7159C 90.773 115.0949 90.273 116.3569 89.391 117.2399C 88.441 118.1889 87.148 118.6109 85.871 118.5089C 85.852 119.1969 85.832 119.8799 85.816 120.5639C 87.656 120.7079 89.52 120.1029 90.887 118.7319C 92.152 117.4659 92.875 115.6499 92.719 113.6609C 92.035 113.6809 92.719 113.6609 90.664 113.7159" stroke="none" fill="#231F20" fill-rule="nonzero" />
		</g>
		<g clip-path="url(#16)" >
    <path id=""  transform="matrix(1 0 0 -1 0 291)"  d="M154.184 116.7829L120.887 116.9269" stroke="#FFFFFF" stroke-width="3.027405" stroke-linejoin="miter" fill="none" />
		</g>
		<g clip-path="url(#17)" >
    <path id=""  transform="matrix(1 0 0 -1 0 291)"  d="M156.707 117.5329L153.801 117.5439" stroke="#FFFFFF" stroke-width="1.513701" stroke-linejoin="miter" fill="none" />
		</g>
		<g clip-path="url(#18)" >
    <path id=""  transform="matrix(1 0 0 -1 0 291)"  d="M122.457 181.9109L88.656 182.0559" stroke="#FFFFFF" stroke-width="3.027405" stroke-linejoin="miter" fill="none" />
		</g>
		<g clip-path="url(#19)" >
    <path id=""  transform="matrix(1 0 0 -1 0 291)"  d="M89.516 181.2979L86.613 181.3059" stroke="#FFFFFF" stroke-width="1.513701" stroke-linejoin="miter" fill="none" />
		</g>
		<g clip-path="url(#20)" >
    <path id=""  transform="matrix(1 0 0 -1 0 291)"  d="M73.039 231.1299C 72.887 231.1219 72.77 231.0679 72.684 230.9969L72.684 230.9969L69.848 228.1649L69.848 228.1649L69.809 228.1149C 69.75 228.0209 69.723 227.9619 69.715 227.8369L69.715 227.8369L69.715 223.8289C 69.73 223.6539 69.785 223.5829 69.871 223.4899L69.871 223.4899L72.66 220.6929C 72.766 220.5989 72.832 220.5599 73.008 220.5359L73.008 220.5359L77.016 220.5359C 77.172 220.5519 77.258 220.6029 77.355 220.6929L77.355 220.6929L80.152 223.4899C 80.258 223.6109 80.301 223.6929 80.309 223.8289L80.309 223.8289L80.309 227.8369C 80.293 227.9779 80.273 228.0599 80.176 228.1649L80.176 228.1649L77.34 230.9969C 77.25 231.0789 77.148 231.1259 77.016 231.1299L77.016 231.1299L73.039 231.1299" stroke="none" fill="#FFFFFF" fill-rule="evenodd" />
		</g>
		<g clip-path="url(#21)" >
    <path id=""  transform="matrix(1 0 0 -1 0 291)"  d="M73.039 231.1342C 72.887 231.1261 72.77 231.0672 72.68 230.9972L72.68 230.9972L69.848 228.1612L69.848 228.1612L69.809 228.1142C 69.75 228.0212 69.723 227.9622 69.715 227.8372L69.715 227.8372L69.715 223.8292C 69.73 223.6532 69.785 223.5832 69.871 223.4892L69.871 223.4892L72.66 220.6922C 72.766 220.5992 72.832 220.5602 73.008 220.5362L73.008 220.5362L77.016 220.5362C 77.172 220.5562 77.258 220.6032 77.355 220.6962L77.355 220.6962L80.148 223.4892C 80.258 223.6102 80.297 223.6922 80.309 223.8292L80.309 223.8292L80.309 227.8372C 80.293 227.9782 80.273 228.0602 80.176 228.1612L80.176 228.1612L77.34 230.9972C 77.25 231.0792 77.148 231.1261 77.016 231.1342L77.016 231.1342L73.039 231.1342" stroke="#000000" stroke-width="0.0530159" stroke-linejoin="miter" fill="none" />
		</g>
		<g clip-path="url(#22)" >
    <path id=""  transform="matrix(1 0 0 -1 0 291)"  d="M73.039 230.5989L70.246 227.8059L70.246 227.8059L70.246 223.8609L70.246 223.8609L73.039 221.0679L73.039 221.0679L76.984 221.0679L76.984 221.0679L79.777 223.8609L79.777 223.8609L79.777 227.8059L79.777 227.8059L76.984 230.5989L76.984 230.5989L73.039 230.5989" stroke="none" fill="#C1121C" fill-rule="evenodd" />
		</g>
		<g clip-path="url(#23)" >
    <path id=""  transform="matrix(1 0 0 -1 0 291)"  d="M77.871 224.4779C 78.191 224.4499 78.535 224.4469 78.57 224.8369C 78.613 225.5129 78.609 225.8099 77.871 225.7359L77.871 225.7359L77.871 224.4779M77.34 227.6889L77.34 223.9819C 78.074 223.9079 79.012 223.8879 79.063 224.8369C 79.168 225.7629 78.863 226.3139 77.871 226.2359L77.871 226.2359L77.871 227.6889zM75.555 226.8289L75.555 224.8219L75.555 224.8219L75.57 224.7279L75.57 224.7279L75.594 224.6849L75.594 224.6849L75.609 224.6459C 75.695 224.5399 75.734 224.5089 75.871 224.4779C 76.09 224.4539 76.285 224.6149 76.285 224.8369L76.285 224.8369L76.285 226.8529L76.285 226.8529L76.277 226.8919L76.277 226.8919L76.27 226.9389L76.27 226.9389L76.254 226.9819L76.254 226.9819L76.23 227.0209C 76.156 227.1299 76.098 227.1609 75.969 227.1849C 75.754 227.2199 75.555 227.0439 75.555 226.8289zM75.031 226.8289L75.031 224.7829L75.031 224.7829L75.039 224.6689L75.039 224.6689L75.07 224.5679L75.07 224.5679L75.109 224.4659L75.109 224.4659L75.168 224.3609C 75.289 224.1459 75.566 223.9779 75.809 223.9579C 76.348 223.8879 76.801 224.2979 76.816 224.8369L76.816 224.8369L76.816 226.8289L76.816 226.8289L76.809 226.8839L76.809 226.8839L76.801 226.9969L76.801 226.9969L76.77 227.1069L76.77 227.1069L76.73 227.2119L76.73 227.2119L76.676 227.3059C 76.551 227.5169 76.27 227.6969 76.031 227.7079C 75.52 227.7859 75.008 227.3529 75.031 226.8289zM73.602 227.6889L73.602 224.4779L73.602 224.4779L72.977 224.4779L72.977 224.4779L72.977 223.9819L72.977 223.9819L74.762 223.9819L74.762 223.9819L74.762 224.4779L74.762 224.4779L74.133 224.4779L74.133 224.4779L74.133 227.6889zM70.961 226.6299L71.484 226.6299C 71.422 226.9969 71.656 227.2939 72.031 227.1609C 72.164 227.1029 72.254 226.9859 72.262 226.8409C 72.25 226.8489 72.344 226.2749 72.039 226.0989C 71.602 225.9269 71.18 225.8289 71.031 225.3369C 70.945 225.0479 70.961 224.5129 71.191 224.2749C 71.813 223.5749 72.891 224.0679 72.777 225.0439L72.777 225.0439L72.246 225.0439C 72.254 224.8369 72.266 224.6299 72.055 224.5209C 71.93 224.4499 71.734 224.4659 71.633 224.5749C 71.48 224.7199 71.512 224.9499 71.523 225.1419C 71.582 225.4779 72.055 225.4779 72.27 225.6219C 72.594 225.7939 72.766 226.0679 72.777 226.4349C 72.797 226.9349 72.797 227.2859 72.348 227.5909C 71.645 227.9699 70.855 227.4739 70.961 226.6299z" stroke="none" fill="#FFFEFE" fill-rule="evenodd" />
		</g>
		<g clip-path="url(#24)" >
    <path id=""  transform="matrix(1 0 0 -1 0 291)"  d="M165.973 67.37991C 165.82 67.38791 165.703 67.44691 165.613 67.51691L165.613 67.51691L162.781 70.34891L162.781 70.34891L162.742 70.3959C 162.68 70.4929 162.656 70.55191 162.645 70.67291L162.645 70.67291L162.645 74.68091C 162.664 74.8569 162.719 74.93091 162.805 75.0249L162.805 75.0249L165.59 77.82191C 165.699 77.9109 165.766 77.9539 165.938 77.97791L165.938 77.97791L169.949 77.97791C 170.105 77.95792 170.191 77.90791 170.289 77.8179L170.289 77.8179L173.082 75.0249C 173.191 74.8999 173.23 74.8179 173.242 74.68091L173.242 74.68091L173.242 70.67291C 173.223 70.5359 173.203 70.4539 173.105 70.34891L173.105 70.34891L170.273 67.51691C 170.184 67.43491 170.082 67.38391 169.949 67.37991L169.949 67.37991L165.973 67.37991" stroke="none" fill="#FFFFFF" fill-rule="evenodd" />
		</g>
		<g clip-path="url(#25)" >
    <path id=""  transform="matrix(1 0 0 -1 0 291)"  d="M165.969 67.37981C 165.82 67.3878 165.703 67.44681 165.613 67.51682L165.613 67.51682L162.781 70.3488L162.781 70.3488L162.738 70.3958C 162.68 70.49379 162.652 70.55179 162.645 70.67279L162.645 70.67279L162.645 74.68079C 162.664 74.85678 162.719 74.93079 162.805 75.02478L162.805 75.02478L165.59 77.82176C 165.699 77.91176 165.766 77.95476 165.938 77.97777L165.938 77.97777L169.945 77.97777C 170.102 77.95877 170.191 77.90776 170.289 77.81776L170.289 77.81776L173.082 75.02478C 173.191 74.89978 173.23 74.81778 173.242 74.68079L173.242 74.68079L173.242 70.67279C 173.223 70.53679 173.203 70.45479 173.105 70.3488L173.105 70.3488L170.273 67.51682C 170.184 67.43481 170.078 67.3838 169.945 67.37981L169.945 67.37981L165.969 67.37981" stroke="#000000" stroke-width="0.0530159" stroke-linejoin="miter" fill="none" />
		</g>
		<g clip-path="url(#26)" >
    <path id=""  transform="matrix(1 0 0 -1 0 291)"  d="M165.973 67.9109L163.176 70.7039L163.176 70.7039L163.176 74.6499L163.176 74.6499L165.973 77.44691L165.973 77.44691L169.914 77.44691L169.914 77.44691L172.711 74.6499L172.711 74.6499L172.711 70.7039L172.711 70.7039L169.914 67.9109L169.914 67.9109L165.973 67.9109" stroke="none" fill="#C1121C" fill-rule="evenodd" />
		</g>
		<g clip-path="url(#27)" >
    <path id=""  transform="matrix(1 0 0 -1 0 291)"  d="M170.805 74.03291C 171.121 74.05991 171.465 74.0679 171.504 73.67291C 171.547 73.00092 171.539 72.7039 170.805 72.77892L170.805 72.77892L170.805 74.03291M170.273 70.82491L170.273 74.53291C 171.008 74.60291 171.941 74.62592 171.996 73.67291C 172.102 72.75092 171.793 72.19691 170.805 72.27892L170.805 72.27892L170.805 70.82491zM168.488 71.68091L168.488 73.6889L168.488 73.6889L168.496 73.73991L168.496 73.73991L168.504 73.7859L168.504 73.7859L168.527 73.82491L168.527 73.82491L168.543 73.86491C 168.629 73.97391 168.664 74.00491 168.805 74.03291C 169.023 74.05591 169.215 73.8959 169.219 73.67291L169.219 73.67291L169.219 71.65791L169.219 71.65791L169.211 71.6179L169.211 71.6179L169.203 71.57191L169.203 71.57191L169.184 71.53291L169.184 71.53291L169.16 71.4929C 169.086 71.38391 169.027 71.35291 168.898 71.32491C 168.688 71.2899 168.488 71.46991 168.488 71.68091zM167.965 71.68091L167.965 73.7319L167.965 73.7319L167.973 73.84091L167.973 73.84091L168.004 73.9429L168.004 73.9429L168.043 74.04791L168.043 74.04791L168.098 74.1499C 168.223 74.36491 168.5 74.5359 168.742 74.55591C 169.281 74.6219 169.734 74.21591 169.75 73.67291L169.75 73.67291L169.75 71.68091L169.75 71.68091L169.742 71.62592L169.742 71.62592L169.734 71.51691L169.734 71.51691L169.703 71.40392L169.703 71.40392L169.66 71.30191L169.66 71.30191L169.605 71.2039C 169.484 70.9969 169.203 70.8179 168.965 70.80191C 168.449 70.72391 167.938 71.15791 167.965 71.68091zM166.535 70.82491L166.535 74.03291L166.535 74.03291L165.906 74.03291L165.906 74.03291L165.906 74.53291L165.906 74.53291L167.691 74.53291L167.691 74.53291L167.691 74.03291L167.691 74.03291L167.066 74.03291L167.066 74.03291L167.066 70.82491zM163.891 71.87991L164.414 71.87991C 164.352 71.51291 164.586 71.21591 164.961 71.34891C 165.094 71.4109 165.188 71.52892 165.191 71.67291C 165.184 71.6609 165.277 72.23991 164.973 72.4109C 164.535 72.58292 164.113 72.68091 163.961 73.17291C 163.879 73.46591 163.891 73.9969 164.121 74.23991C 164.742 74.93491 165.82 74.44691 165.711 73.46991L165.711 73.46991L165.176 73.46991C 165.188 73.67691 165.195 73.87991 164.988 73.9929C 164.859 74.05991 164.664 74.04391 164.566 73.93491C 164.41 73.7899 164.441 73.55991 164.453 73.3719C 164.512 73.0359 164.984 73.03291 165.199 72.88791C 165.527 72.71991 165.699 72.44691 165.711 72.0789C 165.73 71.57491 165.727 71.22391 165.281 70.91891C 164.578 70.54391 163.789 71.0399 163.891 71.87991z" stroke="none" fill="#FFFEFE" fill-rule="evenodd" />
		</g>
		<g clip-path="url(#28)" >
    <path id=""  transform="matrix(1 0 0 -1 0 291)"  d="M167.836 77.9109L167 77.9109" stroke="#ED1C24" stroke-width="0.15137" stroke-linejoin="miter" fill="none" />
		</g>
		<g clip-path="url(#29)" >
    <path id=""  transform="matrix(1 0 0 -1 0 291)"  d="M151.641 115.5399L168.668 115.5399" stroke="#ED1C24" stroke-width="0.15137" stroke-linejoin="miter" fill="none" />
		</g>
		<g clip-path="url(#30)" >
    <path id=""  transform="matrix(1 0 0 -1 0 291)"  d="M167.836 114.7469L167.836 78.7039" stroke="#ED1C24" stroke-width="0.15137" stroke-linejoin="miter" fill="none" />
		</g>
		<g clip-path="url(#31)" >
    <path id=""  transform="matrix(1 0 0 -1 0 291)"  d="M167.41 113.9539L167.836 115.5399L167.836 115.5399L168.262 113.9539L168.262 113.9539L167.41 113.9539" stroke="none" fill="#ED1C24" fill-rule="evenodd" />
		</g>
		<g clip-path="url(#32)" >
    <path id=""  transform="matrix(1 0 0 -1 0 291)"  d="M167.41 79.4969L167.836 77.9109L167.836 77.9109L168.262 79.4969L168.262 79.4969L167.41 79.4969" stroke="none" fill="#ED1C24" fill-rule="evenodd" />
		</g>
		<g clip-path="url(#33)" >
    <path id=""  transform="matrix(1 0 0 -1 0 291)"  d="M211.234 93.07191C 211.234 91.80591 211.387 90.97391 211.68 90.55191C 211.973 90.14191 212.336 89.9429 212.77 89.9429C 213.191 89.9429 213.555 90.15392 213.848 90.55191C 214.141 90.97391 214.293 91.8179 214.293 93.07191C 214.293 94.32491 214.141 95.15791 213.848 95.5789C 213.566 95.98991 213.191 96.19991 212.758 96.19991C 212.324 96.19991 211.973 96.01291 211.715 95.6499C 211.398 95.18091 211.234 94.32491 211.234 93.07191zM210.273 93.07191C 210.273 93.97391 210.367 94.69991 210.555 95.25092C 210.742 95.8139 211.012 96.23592 211.387 96.52892C 211.75 96.82191 212.207 96.97391 212.77 96.97391C 213.168 96.97391 213.531 96.89191 213.848 96.72791C 214.152 96.55191 214.41 96.3179 214.609 96.01291C 214.809 95.70792 214.961 95.32191 215.078 94.87592C 215.195 94.43091 215.254 93.82191 215.254 93.07191C 215.254 92.16891 215.16 91.4429 214.973 90.90392C 214.797 90.34091 214.516 89.91891 214.152 89.61491C 213.789 89.32191 213.32 89.16891 212.77 89.16891C 212.031 89.16891 211.445 89.4389 211.035 89.9539C 210.531 90.59891 210.273 91.64191 210.273 93.07191zM205.297 93.07191C 205.297 91.80591 205.449 90.97391 205.742 90.55191C 206.035 90.14191 206.398 89.9429 206.832 89.9429C 207.254 89.9429 207.617 90.15392 207.91 90.55191C 208.203 90.97391 208.355 91.8179 208.355 93.07191C 208.355 94.32491 208.203 95.15791 207.91 95.5789C 207.629 95.98991 207.254 96.19991 206.82 96.19991C 206.387 96.19991 206.035 96.01291 205.777 95.6499C 205.461 95.18091 205.297 94.32491 205.297 93.07191zM204.336 93.07191C 204.336 93.97391 204.43 94.69991 204.617 95.25092C 204.805 95.8139 205.074 96.23592 205.449 96.52892C 205.813 96.82191 206.27 96.97391 206.832 96.97391C 207.23 96.97391 207.594 96.89191 207.91 96.72791C 208.215 96.55191 208.473 96.3179 208.672 96.01291C 208.871 95.70792 209.023 95.32191 209.141 94.87592C 209.258 94.43091 209.316 93.82191 209.316 93.07191C 209.316 92.16891 209.223 91.4429 209.035 90.90392C 208.859 90.34091 208.578 89.91891 208.215 89.61491C 207.852 89.32191 207.383 89.16891 206.832 89.16891C 206.094 89.16891 205.508 89.4389 205.098 89.9539C 204.594 90.59891 204.336 91.64191 204.336 93.07191zM198.398 91.30191L199.383 91.38391C 199.453 90.90392 199.629 90.55191 199.887 90.30591C 200.156 90.05991 200.473 89.9429 200.859 89.9429C 201.316 89.9429 201.691 90.1069 202.008 90.44691C 202.324 90.79791 202.465 91.2429 202.465 91.80591C 202.465 92.34491 202.324 92.76691 202.02 93.07191C 201.727 93.38791 201.34 93.5399 200.848 93.5399C 200.531 93.5399 200.273 93.46991 200.027 93.3289C 199.793 93.19991 199.594 93.01291 199.453 92.7899L199.453 92.7899L198.574 92.91891L198.574 92.91891L199.313 96.84491L199.313 96.84491L203.098 96.84491L203.098 96.84491L203.098 95.9539L203.098 95.9539L200.051 95.9539L200.051 95.9539L199.652 93.89191C 200.109 94.20792 200.59 94.3719 201.094 94.3719C 201.75 94.3719 202.324 94.13791 202.781 93.68091C 203.238 93.21191 203.461 92.61491 203.461 91.88791C 203.461 91.19691 203.262 90.59891 202.863 90.09491C 202.371 89.47391 201.703 89.16891 200.859 89.16891C 200.168 89.16891 199.594 89.3569 199.16 89.75491C 198.715 90.14191 198.469 90.66891 198.398 91.30191zM191.754 91.59491L191.754 92.53291L191.754 92.53291L194.66 92.53291L194.66 92.53291L194.66 91.59491zM183.926 93.07191C 183.926 91.80591 184.078 90.97391 184.371 90.55191C 184.664 90.14191 185.027 89.9429 185.461 89.9429C 185.883 89.9429 186.246 90.15392 186.539 90.55191C 186.832 90.97391 186.984 91.8179 186.984 93.07191C 186.984 94.32491 186.832 95.15791 186.539 95.5789C 186.258 95.98991 185.883 96.19991 185.449 96.19991C 185.016 96.19991 184.664 96.01291 184.406 95.6499C 184.09 95.18091 183.926 94.32491 183.926 93.07191zM182.965 93.07191C 182.965 93.97391 183.059 94.69991 183.246 95.25092C 183.434 95.8139 183.703 96.23592 184.078 96.52892C 184.441 96.82191 184.898 96.97391 185.461 96.97391C 185.859 96.97391 186.223 96.89191 186.539 96.72791C 186.844 96.55191 187.102 96.3179 187.301 96.01291C 187.5 95.70792 187.652 95.32191 187.77 94.87592C 187.887 94.43091 187.945 93.82191 187.945 93.07191C 187.945 92.16891 187.852 91.4429 187.664 90.90392C 187.488 90.34091 187.207 89.91891 186.844 89.61491C 186.48 89.32191 186.012 89.16891 185.461 89.16891C 184.723 89.16891 184.137 89.4389 183.727 89.9539C 183.223 90.59891 182.965 91.64191 182.965 93.07191zM177.988 93.07191C 177.988 91.80591 178.141 90.97391 178.434 90.55191C 178.727 90.14191 179.09 89.9429 179.523 89.9429C 179.945 89.9429 180.309 90.15392 180.602 90.55191C 180.895 90.97391 181.047 91.8179 181.047 93.07191C 181.047 94.32491 180.895 95.15791 180.602 95.5789C 180.32 95.98991 179.945 96.19991 179.512 96.19991C 179.078 96.19991 178.727 96.01291 178.469 95.6499C 178.152 95.18091 177.988 94.32491 177.988 93.07191zM177.027 93.07191C 177.027 93.97391 177.121 94.69991 177.309 95.25092C 177.496 95.8139 177.766 96.23592 178.141 96.52892C 178.504 96.82191 178.961 96.97391 179.523 96.97391C 179.922 96.97391 180.285 96.89191 180.602 96.72791C 180.906 96.55191 181.164 96.3179 181.363 96.01291C 181.563 95.70792 181.715 95.32191 181.832 94.87592C 181.949 94.43091 182.008 93.82191 182.008 93.07191C 182.008 92.16891 181.914 91.4429 181.727 90.90392C 181.551 90.34091 181.27 89.91891 180.906 89.61491C 180.543 89.32191 180.074 89.16891 179.523 89.16891C 178.785 89.16891 178.199 89.4389 177.789 89.9539C 177.285 90.59891 177.027 91.64191 177.027 93.07191zM171.09 91.32491L172.027 91.4539C 172.145 90.9149 172.32 90.5399 172.578 90.30591C 172.848 90.07191 173.152 89.9539 173.527 89.9539C 173.973 89.9539 174.348 90.09491 174.664 90.4109C 174.957 90.71591 175.109 91.09091 175.109 91.54791C 175.109 91.9819 174.969 92.33292 174.676 92.61491C 174.406 92.8959 174.055 93.0359 173.609 93.0359C 173.434 93.0359 173.211 93.00092 172.953 92.93091L172.953 92.93091L173.047 93.75092C 173.105 93.73991 173.164 93.73991 173.211 93.73991C 173.598 93.73991 173.961 93.84491 174.289 94.04391C 174.605 94.26691 174.77 94.58292 174.77 95.00491C 174.77 95.3569 174.652 95.63791 174.418 95.86092C 174.184 96.09491 173.879 96.19991 173.516 96.19991C 173.141 96.19991 172.848 96.08292 172.602 95.86092C 172.355 95.62592 172.203 95.2749 172.133 94.8179L172.133 94.8179L171.184 94.9929C 171.301 95.61491 171.559 96.1069 171.969 96.44691C 172.379 96.79791 172.883 96.97391 173.492 96.97391C 173.914 96.97391 174.301 96.89191 174.641 96.7039C 174.992 96.52892 175.262 96.28291 175.449 95.97791C 175.625 95.67291 175.73 95.34491 175.73 94.9929C 175.73 94.6649 175.637 94.3719 175.461 94.09091C 175.285 93.82191 175.027 93.61092 174.664 93.44691C 175.133 93.34091 175.484 93.12991 175.73 92.80191C 175.977 92.47391 176.105 92.0639 176.105 91.55991C 176.105 90.90392 175.859 90.3289 175.379 89.86092C 174.887 89.40392 174.266 89.16891 173.527 89.16891C 172.859 89.16891 172.297 89.3679 171.852 89.76691C 171.418 90.17691 171.16 90.68091 171.09 91.32491z" stroke="none" fill="#EF3221" fill-rule="nonzero" />
		</g>
		<g clip-path="url(#34)" >
    <path id=""  transform="matrix(1 0 0 -1 0 291)"  d="M197.559 190.7199L192.766 195.5169C 192.543 195.7359 192.617 196.0599 192.77 196.2199L192.77 196.2199L197.543 200.9899C 197.789 201.2359 198.125 201.1499 198.281 200.9929L198.281 200.9929L203.035 196.2509C 203.266 196.0249 203.27 195.7199 203.047 195.4969L203.047 195.4969L198.273 190.7199C 197.914 190.3609 197.559 190.7199 197.559 190.7199" stroke="none" fill="#FFFFFF" fill-rule="evenodd" />
		</g>
		<g clip-path="url(#35)" >
    <path id=""  transform="matrix(1 0 0 -1 0 291)"  d="M203.035 196.2509C 203.266 196.0249 203.27 195.7199 203.047 195.4969C 201.457 193.9039 199.863 192.3139 198.273 190.7199C 197.914 190.3609 197.559 190.7199 197.559 190.7199L197.559 190.7199L192.766 195.5169C 192.543 195.7359 192.617 196.0599 192.77 196.2199L192.77 196.2199L197.543 200.9899C 197.789 201.2359 198.125 201.1499 198.281 200.9929L198.281 200.9929L203.035 196.2509" stroke="none" fill="#FFFFFF" fill-rule="evenodd" />
		</g>
		<g clip-path="url(#36)" >
    <path id=""  transform="matrix(1 0 0 -1 0 291)"  d="M203.035 196.2509C 203.266 196.0249 203.27 195.7199 203.047 195.4969C 201.457 193.9039 199.863 192.3139 198.273 190.7199C 197.914 190.3609 197.559 190.7199 197.559 190.7199L197.559 190.7199L192.766 195.5169C 192.543 195.7359 192.617 196.0599 192.77 196.2199L192.77 196.2199L197.543 200.9899C 197.789 201.2359 198.125 201.1499 198.281 200.9929L198.281 200.9929L203.035 196.2509" stroke="none" fill="#FFFFFF" fill-rule="evenodd" />
		</g>
		<g clip-path="url(#37)" >
    <path id=""  transform="matrix(1 0 0 -1 0 291)"  d="M198.012 200.7429C 197.918 200.8329 197.824 200.7399 197.824 200.7399C 196.23 199.1459 194.633 197.5519 193.039 195.9539C 193.039 195.9539 192.941 195.8649 193.035 195.7709L193.035 195.7709L197.824 190.9859C 197.926 190.8919 198.008 190.9899 198.008 190.9899C 199.605 192.5789 201.199 194.1769 202.797 195.7749C 202.797 195.7749 202.895 195.8569 202.797 195.9539L202.797 195.9539L198.012 200.7429M198.148 200.8799L202.938 196.0909C 203.172 195.8569 202.941 195.6379 202.941 195.6379L202.941 195.6379L198.145 190.8449C 198.145 190.8449 197.922 190.6149 197.691 190.8489L197.691 190.8489L192.898 195.6339C 192.664 195.8679 192.898 196.0909 192.898 196.0909C 194.496 197.6889 196.094 199.2829 197.691 200.8799C 197.691 200.8799 197.91 201.1149 198.148 200.8799z" stroke="none" fill="#000000" fill-rule="evenodd" />
		</g>
		<g clip-path="url(#38)" >
    <path id=""  transform="matrix(1 0 0 -1 0 291)"  d="M197.918 192.9309L200.852 195.8649L200.852 195.8649L197.918 198.7979L197.918 198.7979L194.98 195.8649L194.98 195.8649L197.918 192.9309" stroke="none" fill="#F7BA0B" fill-rule="evenodd" />
		</g>
		<g clip-path="url(#39)" >
    <path id=""  transform="matrix(1 0 0 -1 0 291)"  d="M197.918 193.0209L200.762 195.8649L200.762 195.8649L197.918 198.7039L197.918 198.7039L195.074 195.8649L195.074 195.8649L197.918 193.0209M197.918 192.8369L194.891 195.8649L194.891 195.8649L197.918 198.8879L197.918 198.8879L200.945 195.8649z" stroke="none" fill="#000000" fill-rule="evenodd" />
		</g>
		<g clip-path="url(#40)" >
    <path id=""  transform="matrix(1 0 0 -1 0 291)"  d="M203.035 196.2509L198.281 200.9929C 198.125 201.1499 197.789 201.2359 197.543 200.9899L197.543 200.9899L192.77 196.2199C 192.617 196.0599 192.543 195.7359 192.766 195.5169L192.766 195.5169L197.559 190.7199C 197.559 190.7199 197.914 190.3609 198.273 190.7199C 199.863 192.3139 201.457 193.9039 203.047 195.4969C 203.27 195.7199 203.266 196.0249 203.035 196.2509M203.039 196.2549C 203.156 196.1419 203.215 196.0049 203.215 195.8719C 203.219 195.7359 203.164 195.6029 203.051 195.4929C 201.461 193.8999 199.871 192.3059 198.277 190.7159C 198.098 190.5329 197.914 190.5329 197.781 190.5789C 197.645 190.6259 197.555 190.7159 197.555 190.7159L197.555 190.7159L192.762 195.5089C 192.66 195.6109 192.621 195.7359 192.621 195.8529C 192.621 195.8649 192.621 195.8759 192.621 195.8919C 192.633 196.0209 192.688 196.1419 192.766 196.2239L192.766 196.2239L197.539 200.9929C 197.664 201.1179 197.809 201.1579 197.945 201.1499C 198.082 201.1379 198.207 201.0749 198.285 200.9969z" stroke="none" fill="#000000" fill-rule="evenodd" />
		</g>
		<g clip-path="url(#41)" >
    <path id=""  transform="matrix(1 0 0 -1 0 291)"  d="M191.91 196.7159L191.91 200.8489" stroke="#ED1C24" stroke-width="0.15137" stroke-linejoin="miter" fill="none" />
		</g>
		<g clip-path="url(#42)" >
    <path id=""  transform="matrix(1 0 0 -1 0 291)"  d="M152.449 180.9039L152.449 200.8489" stroke="#ED1C24" stroke-width="0.15137" stroke-linejoin="miter" fill="none" />
		</g>
		<g clip-path="url(#43)" >
    <path id=""  transform="matrix(1 0 0 -1 0 291)"  d="M153.242 200.0209L191.117 200.0209" stroke="#ED1C24" stroke-width="0.15137" stroke-linejoin="miter" fill="none" />
		</g>
		<g clip-path="url(#44)" >
    <path id=""  transform="matrix(1 0 0 -1 0 291)"  d="M154.035 199.5949L152.449 200.0209L152.449 200.0209L154.035 200.4469L154.035 200.4469L154.035 199.5949" stroke="none" fill="#ED1C24" fill-rule="evenodd" />
		</g>
		<g clip-path="url(#45)" >
    <path id=""  transform="matrix(1 0 0 -1 0 291)"  d="M190.324 199.5949L191.91 200.0209L191.91 200.0209L190.324 200.4469L190.324 200.4469L190.324 199.5949" stroke="none" fill="#ED1C24" fill-rule="evenodd" />
		</g>
		<g clip-path="url(#46)" >
    <path id=""  transform="matrix(1 0 0 -1 0 291)"  d="M201.492 207.0479C 201.492 205.7829 201.645 204.9499 201.938 204.5289C 202.23 204.1179 202.594 203.9189 203.027 203.9189C 203.449 203.9189 203.813 204.1299 204.105 204.5289C 204.398 204.9499 204.551 205.7939 204.551 207.0479C 204.551 208.3019 204.398 209.1339 204.105 209.5559C 203.824 209.9659 203.449 210.1769 203.016 210.1769C 202.582 210.1769 202.23 209.9899 201.973 209.6259C 201.656 209.1579 201.492 208.3019 201.492 207.0479zM200.531 207.0479C 200.531 207.9499 200.625 208.6769 200.813 209.2279C 201 209.7899 201.27 210.2119 201.645 210.5049C 202.008 210.7979 202.465 210.9499 203.027 210.9499C 203.426 210.9499 203.789 210.8679 204.105 210.7039C 204.41 210.5289 204.668 210.2939 204.867 209.9899C 205.066 209.6849 205.219 209.2979 205.336 208.8529C 205.453 208.4079 205.512 207.7979 205.512 207.0479C 205.512 206.1459 205.418 205.4189 205.23 204.8799C 205.055 204.3179 204.773 203.8959 204.41 203.5909C 204.047 203.2979 203.578 203.1459 203.027 203.1459C 202.289 203.1459 201.703 203.4149 201.293 203.9309C 200.789 204.5749 200.531 205.6179 200.531 207.0479zM195.555 207.0479C 195.555 205.7829 195.707 204.9499 196 204.5289C 196.293 204.1179 196.656 203.9189 197.09 203.9189C 197.512 203.9189 197.875 204.1299 198.168 204.5289C 198.461 204.9499 198.613 205.7939 198.613 207.0479C 198.613 208.3019 198.461 209.1339 198.168 209.5559C 197.887 209.9659 197.512 210.1769 197.078 210.1769C 196.645 210.1769 196.293 209.9899 196.035 209.6259C 195.719 209.1579 195.555 208.3019 195.555 207.0479zM194.594 207.0479C 194.594 207.9499 194.688 208.6769 194.875 209.2279C 195.063 209.7899 195.332 210.2119 195.707 210.5049C 196.07 210.7979 196.527 210.9499 197.09 210.9499C 197.488 210.9499 197.852 210.8679 198.168 210.7039C 198.473 210.5289 198.73 210.2939 198.93 209.9899C 199.129 209.6849 199.281 209.2979 199.398 208.8529C 199.516 208.4079 199.574 207.7979 199.574 207.0479C 199.574 206.1459 199.48 205.4189 199.293 204.8799C 199.117 204.3179 198.836 203.8959 198.473 203.5909C 198.109 203.2979 197.641 203.1459 197.09 203.1459C 196.352 203.1459 195.766 203.4149 195.355 203.9309C 194.852 204.5749 194.594 205.6179 194.594 207.0479zM188.66 205.2789L189.645 205.3609C 189.715 204.8799 189.891 204.5289 190.148 204.2829C 190.418 204.0359 190.734 203.9189 191.121 203.9189C 191.578 203.9189 191.953 204.0829 192.27 204.4229C 192.586 204.7749 192.727 205.2199 192.727 205.7829C 192.727 206.3219 192.586 206.7429 192.281 207.0479C 191.988 207.3649 191.602 207.5169 191.109 207.5169C 190.793 207.5169 190.535 207.4469 190.289 207.3059C 190.055 207.1769 189.855 206.9899 189.715 206.7669L189.715 206.7669L188.836 206.8959L188.836 206.8959L189.574 210.8219L189.574 210.8219L193.359 210.8219L193.359 210.8219L193.359 209.9309L193.359 209.9309L190.313 209.9309L190.313 209.9309L189.914 207.8679C 190.371 208.1849 190.852 208.3489 191.355 208.3489C 192.012 208.3489 192.586 208.1149 193.043 207.6579C 193.5 207.1889 193.723 206.5909 193.723 205.8649C 193.723 205.1729 193.523 204.5749 193.125 204.0719C 192.633 203.4499 191.965 203.1459 191.121 203.1459C 190.43 203.1459 189.855 203.3329 189.422 203.7319C 188.977 204.1179 188.73 204.6459 188.66 205.2789zM182.016 205.5719L182.016 206.5089L182.016 206.5089L184.922 206.5089L184.922 206.5089L184.922 205.5719zM174.188 207.0479C 174.188 205.7829 174.34 204.9499 174.633 204.5289C 174.926 204.1179 175.289 203.9189 175.723 203.9189C 176.145 203.9189 176.508 204.1299 176.801 204.5289C 177.094 204.9499 177.246 205.7939 177.246 207.0479C 177.246 208.3019 177.094 209.1339 176.801 209.5559C 176.52 209.9659 176.145 210.1769 175.711 210.1769C 175.277 210.1769 174.926 209.9899 174.668 209.6259C 174.352 209.1579 174.188 208.3019 174.188 207.0479zM173.227 207.0479C 173.227 207.9499 173.32 208.6769 173.508 209.2279C 173.695 209.7899 173.965 210.2119 174.34 210.5049C 174.703 210.7979 175.16 210.9499 175.723 210.9499C 176.121 210.9499 176.484 210.8679 176.801 210.7039C 177.105 210.5289 177.363 210.2939 177.563 209.9899C 177.762 209.6849 177.914 209.2979 178.031 208.8529C 178.148 208.4079 178.207 207.7979 178.207 207.0479C 178.207 206.1459 178.113 205.4189 177.926 204.8799C 177.75 204.3179 177.469 203.8959 177.105 203.5909C 176.742 203.2979 176.273 203.1459 175.723 203.1459C 174.984 203.1459 174.398 203.4149 173.988 203.9309C 173.484 204.5749 173.227 205.6179 173.227 207.0479zM168.246 207.0479C 168.246 205.7829 168.398 204.9499 168.691 204.5289C 168.984 204.1179 169.348 203.9189 169.781 203.9189C 170.203 203.9189 170.566 204.1299 170.859 204.5289C 171.152 204.9499 171.305 205.7939 171.305 207.0479C 171.305 208.3019 171.152 209.1339 170.859 209.5559C 170.578 209.9659 170.203 210.1769 169.77 210.1769C 169.336 210.1769 168.984 209.9899 168.727 209.6259C 168.41 209.1579 168.246 208.3019 168.246 207.0479zM167.285 207.0479C 167.285 207.9499 167.379 208.6769 167.566 209.2279C 167.754 209.7899 168.023 210.2119 168.398 210.5049C 168.762 210.7979 169.219 210.9499 169.781 210.9499C 170.18 210.9499 170.543 210.8679 170.859 210.7039C 171.164 210.5289 171.422 210.2939 171.621 209.9899C 171.82 209.6849 171.973 209.2979 172.09 208.8529C 172.207 208.4079 172.266 207.7979 172.266 207.0479C 172.266 206.1459 172.172 205.4189 171.984 204.8799C 171.809 204.3179 171.527 203.8959 171.164 203.5909C 170.801 203.2979 170.332 203.1459 169.781 203.1459C 169.043 203.1459 168.457 203.4149 168.047 203.9309C 167.543 204.5749 167.285 205.6179 167.285 207.0479zM161.348 205.3019L162.285 205.4309C 162.402 204.8919 162.578 204.5169 162.836 204.2829C 163.105 204.0479 163.41 203.9309 163.785 203.9309C 164.23 203.9309 164.605 204.0719 164.922 204.3879C 165.215 204.6929 165.367 205.0679 165.367 205.5249C 165.367 205.9579 165.227 206.3099 164.934 206.5909C 164.664 206.8719 164.313 207.0129 163.867 207.0129C 163.691 207.0129 163.469 206.9779 163.211 206.9079L163.211 206.9079L163.305 207.7279C 163.363 207.7159 163.422 207.7159 163.469 207.7159C 163.855 207.7159 164.219 207.8219 164.547 208.0209C 164.863 208.2429 165.027 208.5599 165.027 208.9819C 165.027 209.3329 164.91 209.6149 164.676 209.8369C 164.441 210.0719 164.137 210.1769 163.773 210.1769C 163.398 210.1769 163.105 210.0599 162.859 209.8369C 162.613 209.6029 162.461 209.2509 162.391 208.7939L162.391 208.7939L161.441 208.9699C 161.559 209.5909 161.816 210.0829 162.227 210.4229C 162.637 210.7749 163.141 210.9499 163.75 210.9499C 164.172 210.9499 164.559 210.8679 164.898 210.6809C 165.25 210.5049 165.52 210.2589 165.707 209.9539C 165.883 209.6499 165.988 209.3219 165.988 208.9699C 165.988 208.6419 165.895 208.3489 165.719 208.0679C 165.543 207.7979 165.285 207.5869 164.922 207.4229C 165.391 207.3179 165.742 207.1069 165.988 206.7789C 166.234 206.4499 166.363 206.0399 166.363 205.5359C 166.363 204.8799 166.117 204.3059 165.637 203.8369C 165.145 203.3799 164.523 203.1459 163.785 203.1459C 163.117 203.1459 162.555 203.3449 162.109 203.7429C 161.676 204.1539 161.418 204.6579 161.348 205.3019z" stroke="none" fill="#EF3221" fill-rule="nonzero" />
		</g>
		<g clip-path="url(#47)" >
    <path id=""  transform="matrix(1 0 0 -1 0 291)"  d="M45.305 97.79791L40.512 102.5909C 40.289 102.8099 40.363 103.1339 40.516 103.2979L40.516 103.2979L45.289 108.0679C 45.535 108.3099 45.871 108.2239 46.027 108.0679L46.027 108.0679L50.781 103.3249C 51.008 103.0989 51.012 102.7939 50.793 102.5719L50.793 102.5719L46.02 97.79391C 45.66 97.43491 45.305 97.79791 45.305 97.79791" stroke="none" fill="#FFFFFF" fill-rule="evenodd" />
		</g>
		<g clip-path="url(#48)" >
    <path id=""  transform="matrix(1 0 0 -1 0 291)"  d="M50.781 103.3249C 51.008 103.0989 51.012 102.7939 50.793 102.5719C 49.199 100.9819 47.609 99.38791 46.02 97.79391C 45.66 97.43491 45.305 97.79791 45.305 97.79791L45.305 97.79791L40.512 102.5909C 40.289 102.8099 40.363 103.1339 40.516 103.2979L40.516 103.2979L45.289 108.0679C 45.535 108.3099 45.871 108.2239 46.027 108.0679L46.027 108.0679L50.781 103.3249" stroke="none" fill="#FFFFFF" fill-rule="evenodd" />
		</g>
		<g clip-path="url(#49)" >
    <path id=""  transform="matrix(1 0 0 -1 0 291)"  d="M50.781 103.3249C 51.008 103.0989 51.012 102.7939 50.793 102.5719C 49.199 100.9819 47.609 99.38791 46.02 97.79391C 45.66 97.43491 45.305 97.79791 45.305 97.79791L45.305 97.79791L40.512 102.5909C 40.289 102.8099 40.363 103.1339 40.516 103.2979L40.516 103.2979L45.289 108.0679C 45.535 108.3099 45.871 108.2239 46.027 108.0679L46.027 108.0679L50.781 103.3249" stroke="none" fill="#FFFFFF" fill-rule="evenodd" />
		</g>
		<g clip-path="url(#50)" >
    <path id=""  transform="matrix(1 0 0 -1 0 291)"  d="M45.754 107.8179C 45.664 107.9109 45.57 107.8179 45.57 107.8179C 43.973 106.2239 42.379 104.6259 40.781 103.0329C 40.781 103.0329 40.688 102.9389 40.781 102.8489L40.781 102.8489L45.57 98.0639C 45.672 97.96591 45.754 98.0639 45.754 98.0639C 47.352 99.65791 48.945 101.2549 50.543 102.8489C 50.543 102.8489 50.637 102.9309 50.543 103.0329L50.543 103.0329L45.754 107.8179M45.891 107.9539L50.68 103.1689C 50.914 102.9349 50.684 102.7159 50.684 102.7159L50.684 102.7159L45.887 97.92291C 45.887 97.92291 45.668 97.6929 45.434 97.92691L45.434 97.92691L40.645 102.7119C 40.41 102.9469 40.645 103.1689 40.645 103.1689C 42.238 104.7629 43.836 106.3609 45.434 107.9539C 45.434 107.9539 45.656 108.1889 45.891 107.9539z" stroke="none" fill="#000000" fill-rule="evenodd" />
		</g>
		<g clip-path="url(#51)" >
    <path id=""  transform="matrix(1 0 0 -1 0 291)"  d="M45.664 100.0049L48.598 102.9389L48.598 102.9389L45.664 105.8719L45.664 105.8719L42.727 102.9389L42.727 102.9389L45.664 100.0049" stroke="none" fill="#F7BA0B" fill-rule="evenodd" />
		</g>
		<g clip-path="url(#52)" >
    <path id=""  transform="matrix(1 0 0 -1 0 291)"  d="M45.664 100.0989L48.508 102.9389L48.508 102.9389L45.664 105.7829L45.664 105.7829L42.82 102.9389L42.82 102.9389L45.664 100.0989M45.664 99.9149L45.617 99.96191L45.617 99.96191L42.637 102.9389L42.637 102.9389L45.664 105.9659L45.664 105.9659L48.691 102.9389z" stroke="none" fill="#000000" fill-rule="evenodd" />
		</g>
		<g clip-path="url(#53)" >
    <path id=""  transform="matrix(1 0 0 -1 0 291)"  d="M50.781 103.3249L46.027 108.0679C 45.871 108.2239 45.535 108.3099 45.289 108.0679L45.289 108.0679L40.516 103.2979C 40.363 103.1339 40.289 102.8099 40.512 102.5909L40.512 102.5909L45.305 97.79791C 45.305 97.79791 45.66 97.43491 46.02 97.79391C 47.609 99.38791 49.199 100.9819 50.793 102.5719C 51.012 102.7939 51.008 103.0989 50.781 103.3249M50.785 103.3289C 50.898 103.2159 50.957 103.0829 50.961 102.9469C 50.965 102.8139 50.906 102.6809 50.797 102.5679C 49.207 100.9779 47.613 99.38391 46.023 97.7899C 45.844 97.61092 45.66 97.61092 45.523 97.65392C 45.391 97.69991 45.301 97.79391 45.301 97.79391L45.301 97.79391L40.504 102.5869C 40.406 102.6889 40.363 102.8099 40.363 102.9309C 40.363 102.9429 40.367 102.9539 40.367 102.9659C 40.375 103.0949 40.434 103.2199 40.512 103.3019L40.512 103.3019L45.285 108.0719C 45.406 108.1969 45.555 108.2359 45.691 108.2239C 45.828 108.2119 45.953 108.1539 46.031 108.0719z" stroke="none" fill="#000000" fill-rule="evenodd" />
		</g>
	</g>
</g>
</svg>