<?xml version="1.0" standalone="no"?>
<!DOCTYPE svg PUBLIC "-//W3C//DTD SVG 1.0//EN" "http://www.w3.org/TR/2001/REC-SVG-20010904/DTD/svg10.dtd">
<svg xmlns="http://www.w3.org/2000/svg" xmlns:xlink="http://www.w3.org/1999/xlink" id="body_1" width="297" height="372">

<defs>
    <clipPath  id="1">

    <path id=""  clip-rule="evenodd" transform="matrix(1 0 0 1 0 0)"  d="M0 279L0 -0.9613037L0 -0.9613037L223.7844 -0.9613037L223.7844 -0.9613037L223.7844 279L223.7844 279L0 279z" />    </clipPath>
    <clipPath  id="2">

    <path id=""  clip-rule="evenodd" transform="matrix(1 0 0 1 0 0)"  d="M0 -0.9613037L224 -0.9613037L224 -0.9613037L224 279.0387L224 279.0387L0 279.0387z" />    </clipPath>
    <clipPath  id="3">

    <path id=""  clip-rule="evenodd" transform="matrix(1 0 0 1 0 0)"  d="M0 -0.9613037L224 -0.9613037L224 -0.9613037L224 279.0387L224 279.0387L0 279.0387z" />    </clipPath>
    <clipPath  id="4">

    <path id=""  clip-rule="evenodd" transform="matrix(1 0 0 1 0 0)"  d="M0 -0.9613037L224 -0.9613037L224 -0.9613037L224 279.0387L224 279.0387L0 279.0387z" />    </clipPath>
    <clipPath  id="5">

    <path id=""  clip-rule="evenodd" transform="matrix(1 0 0 1 0 0)"  d="M0 -0.9613037L224 -0.9613037L224 -0.9613037L224 279.0387L224 279.0387L0 279.0387z" />    </clipPath>
    <clipPath  id="6">

    <path id=""  clip-rule="evenodd" transform="matrix(1 0 0 1 0 0)"  d="M0 -0.9613037L224 -0.9613037L224 -0.9613037L224 279.0387L224 279.0387L0 279.0387z" />    </clipPath>
    <clipPath  id="7">

    <path id=""  clip-rule="evenodd" transform="matrix(1 0 0 1 0 0)"  d="M0 -0.9613037L224 -0.9613037L224 -0.9613037L224 279.0387L224 279.0387L0 279.0387z" />    </clipPath>
    <clipPath  id="8">

    <path id=""  clip-rule="evenodd" transform="matrix(1 0 0 1 0 0)"  d="M0 -0.9613037L224 -0.9613037L224 -0.9613037L224 279.0387L224 279.0387L0 279.0387z" />    </clipPath>
    <clipPath  id="9">

    <path id=""  clip-rule="evenodd" transform="matrix(1 0 0 1 0 0)"  d="M0 -0.9613037L224 -0.9613037L224 -0.9613037L224 279.0387L224 279.0387L0 279.0387z" />    </clipPath>
    <clipPath  id="10">

    <path id=""  clip-rule="evenodd" transform="matrix(1 0 0 1 0 0)"  d="M0 -0.9613037L224 -0.9613037L224 -0.9613037L224 279.0387L224 279.0387L0 279.0387z" />    </clipPath>
    <clipPath  id="11">

    <path id=""  clip-rule="evenodd" transform="matrix(1 0 0 1 0 0)"  d="M0 -0.9613037L224 -0.9613037L224 -0.9613037L224 279.0387L224 279.0387L0 279.0387z" />    </clipPath>
    <clipPath  id="12">

    <path id=""  clip-rule="evenodd" transform="matrix(1 0 0 1 0 0)"  d="M0 -0.9613037L224 -0.9613037L224 -0.9613037L224 279.0387L224 279.0387L0 279.0387z" />    </clipPath>
    <clipPath  id="13">

    <path id=""  clip-rule="evenodd" transform="matrix(1 0 0 1 0 0)"  d="M0 -0.9613037L224 -0.9613037L224 -0.9613037L224 279.0387L224 279.0387L0 279.0387z" />    </clipPath>
    <clipPath  id="14">

    <path id=""  clip-rule="evenodd" transform="matrix(1 0 0 1 0 0)"  d="M0 -0.9613037L224 -0.9613037L224 -0.9613037L224 279.0387L224 279.0387L0 279.0387z" />    </clipPath>
    <clipPath  id="15">

    <path id=""  clip-rule="evenodd" transform="matrix(1 0 0 1 0 0)"  d="M0 -0.9613037L224 -0.9613037L224 -0.9613037L224 279.0387L224 279.0387L0 279.0387z" />    </clipPath>
    <clipPath  id="16">

    <path id=""  clip-rule="evenodd" transform="matrix(1 0 0 1 0 0)"  d="M0 -0.9613037L224 -0.9613037L224 -0.9613037L224 279.0387L224 279.0387L0 279.0387z" />    </clipPath>
    <clipPath  id="17">

    <path id=""  clip-rule="evenodd" transform="matrix(1 0 0 1 0 0)"  d="M0 -0.9613037L224 -0.9613037L224 -0.9613037L224 279.0387L224 279.0387L0 279.0387z" />    </clipPath>
    <clipPath  id="18">

    <path id=""  clip-rule="evenodd" transform="matrix(1 0 0 1 0 0)"  d="M0 -0.9613037L224 -0.9613037L224 -0.9613037L224 279.0387L224 279.0387L0 279.0387z" />    </clipPath>
    <clipPath  id="19">

    <path id=""  clip-rule="evenodd" transform="matrix(1 0 0 1 0 0)"  d="M0 -0.9613037L224 -0.9613037L224 -0.9613037L224 279.0387L224 279.0387L0 279.0387z" />    </clipPath>
    <clipPath  id="20">

    <path id=""  clip-rule="evenodd" transform="matrix(1 0 0 1 0 0)"  d="M0 -0.9613037L224 -0.9613037L224 -0.9613037L224 279.0387L224 279.0387L0 279.0387z" />    </clipPath>
    <clipPath  id="21">

    <path id=""  clip-rule="evenodd" transform="matrix(1 0 0 1 0 0)"  d="M0 -0.9613037L224 -0.9613037L224 -0.9613037L224 279.0387L224 279.0387L0 279.0387z" />    </clipPath>
    <clipPath  id="22">

    <path id=""  clip-rule="evenodd" transform="matrix(1 0 0 1 0 0)"  d="M0 -0.9613037L224 -0.9613037L224 -0.9613037L224 279.0387L224 279.0387L0 279.0387z" />    </clipPath>
    <clipPath  id="23">

    <path id=""  clip-rule="evenodd" transform="matrix(1 0 0 1 0 0)"  d="M0 -0.9613037L224 -0.9613037L224 -0.9613037L224 279.0387L224 279.0387L0 279.0387z" />    </clipPath>
    <clipPath  id="24">

    <path id=""  clip-rule="evenodd" transform="matrix(1 0 0 1 0 0)"  d="M0 -0.9613037L224 -0.9613037L224 -0.9613037L224 279.0387L224 279.0387L0 279.0387z" />    </clipPath>
    <clipPath  id="25">

    <path id=""  clip-rule="evenodd" transform="matrix(1 0 0 1 0 0)"  d="M0 -0.9613037L224 -0.9613037L224 -0.9613037L224 279.0387L224 279.0387L0 279.0387z" />    </clipPath>
    <clipPath  id="26">

    <path id=""  clip-rule="evenodd" transform="matrix(1 0 0 1 0 0)"  d="M0 -0.9613037L224 -0.9613037L224 -0.9613037L224 279.0387L224 279.0387L0 279.0387z" />    </clipPath>
    <clipPath  id="27">

    <path id=""  clip-rule="evenodd" transform="matrix(1 0 0 1 0 0)"  d="M0 -0.9613037L224 -0.9613037L224 -0.9613037L224 279.0387L224 279.0387L0 279.0387z" />    </clipPath>
    <clipPath  id="28">

    <path id=""  clip-rule="evenodd" transform="matrix(1 0 0 1 0 0)"  d="M0 -0.9613037L224 -0.9613037L224 -0.9613037L224 279.0387L224 279.0387L0 279.0387z" />    </clipPath>
    <clipPath  id="29">

    <path id=""  clip-rule="evenodd" transform="matrix(1 0 0 1 0 0)"  d="M0 -0.9613037L224 -0.9613037L224 -0.9613037L224 279.0387L224 279.0387L0 279.0387z" />    </clipPath>
    <clipPath  id="30">

    <path id=""  clip-rule="evenodd" transform="matrix(1 0 0 1 0 0)"  d="M0 -0.9613037L224 -0.9613037L224 -0.9613037L224 279.0387L224 279.0387L0 279.0387z" />    </clipPath>
    <clipPath  id="31">

    <path id=""  clip-rule="evenodd" transform="matrix(1 0 0 1 0 0)"  d="M0 -0.9613037L224 -0.9613037L224 -0.9613037L224 279.0387L224 279.0387L0 279.0387z" />    </clipPath>
    <clipPath  id="32">

    <path id=""  clip-rule="evenodd" transform="matrix(1 0 0 1 0 0)"  d="M0 -0.9613037L224 -0.9613037L224 -0.9613037L224 279.0387L224 279.0387L0 279.0387z" />    </clipPath>
    <clipPath  id="33">

    <path id=""  clip-rule="evenodd" transform="matrix(1 0 0 1 0 0)"  d="M0 -0.9613037L224 -0.9613037L224 -0.9613037L224 279.0387L224 279.0387L0 279.0387z" />    </clipPath>
    <clipPath  id="34">

    <path id=""  clip-rule="evenodd" transform="matrix(1 0 0 1 0 0)"  d="M0 -0.9613037L224 -0.9613037L224 -0.9613037L224 279.0387L224 279.0387L0 279.0387z" />    </clipPath>
    <clipPath  id="35">

    <path id=""  clip-rule="evenodd" transform="matrix(1 0 0 1 0 0)"  d="M0 -0.9613037L224 -0.9613037L224 -0.9613037L224 279.0387L224 279.0387L0 279.0387z" />    </clipPath>
    <clipPath  id="36">

    <path id=""  clip-rule="evenodd" transform="matrix(1 0 0 1 0 0)"  d="M0 -0.9613037L224 -0.9613037L224 -0.9613037L224 279.0387L224 279.0387L0 279.0387z" />    </clipPath>
    <clipPath  id="37">

    <path id=""  clip-rule="evenodd" transform="matrix(1 0 0 1 0 0)"  d="M0 -0.9613037L224 -0.9613037L224 -0.9613037L224 279.0387L224 279.0387L0 279.0387z" />    </clipPath>
    <clipPath  id="38">

    <path id=""  clip-rule="evenodd" transform="matrix(1 0 0 1 0 0)"  d="M0 -0.9613037L224 -0.9613037L224 -0.9613037L224 279.0387L224 279.0387L0 279.0387z" />    </clipPath>
    <clipPath  id="39">

    <path id=""  clip-rule="evenodd" transform="matrix(1 0 0 1 0 0)"  d="M0 -0.9613037L224 -0.9613037L224 -0.9613037L224 279.0387L224 279.0387L0 279.0387z" />    </clipPath>
    <clipPath  id="40">

    <path id=""  clip-rule="evenodd" transform="matrix(1 0 0 1 0 0)"  d="M0 -0.9613037L224 -0.9613037L224 -0.9613037L224 279.0387L224 279.0387L0 279.0387z" />    </clipPath>
    <clipPath  id="41">

    <path id=""  clip-rule="evenodd" transform="matrix(1 0 0 1 0 0)"  d="M0 -0.9613037L224 -0.9613037L224 -0.9613037L224 279.0387L224 279.0387L0 279.0387z" />    </clipPath>
    <clipPath  id="42">

    <path id=""  clip-rule="evenodd" transform="matrix(1 0 0 1 0 0)"  d="M0 -0.9613037L224 -0.9613037L224 -0.9613037L224 279.0387L224 279.0387L0 279.0387z" />    </clipPath>
    <clipPath  id="43">

    <path id=""  clip-rule="evenodd" transform="matrix(1 0 0 1 0 0)"  d="M0 -0.9613037L224 -0.9613037L224 -0.9613037L224 279.0387L224 279.0387L0 279.0387z" />    </clipPath>
    <clipPath  id="44">

    <path id=""  clip-rule="evenodd" transform="matrix(1 0 0 1 0 0)"  d="M0 -0.9613037L224 -0.9613037L224 -0.9613037L224 279.0387L224 279.0387L0 279.0387z" />    </clipPath>
    <clipPath  id="45">

    <path id=""  clip-rule="evenodd" transform="matrix(1 0 0 1 0 0)"  d="M0 -0.9613037L224 -0.9613037L224 -0.9613037L224 279.0387L224 279.0387L0 279.0387z" />    </clipPath>
    <clipPath  id="46">

    <path id=""  clip-rule="evenodd" transform="matrix(1 0 0 1 0 0)"  d="M0 -0.9613037L224 -0.9613037L224 -0.9613037L224 279.0387L224 279.0387L0 279.0387z" />    </clipPath>
    <clipPath  id="47">

    <path id=""  clip-rule="evenodd" transform="matrix(1 0 0 1 0 0)"  d="M0 -0.9613037L224 -0.9613037L224 -0.9613037L224 279.0387L224 279.0387L0 279.0387z" />    </clipPath>
    <clipPath  id="48">

    <path id=""  clip-rule="evenodd" transform="matrix(1 0 0 1 0 0)"  d="M0 -0.9613037L224 -0.9613037L224 -0.9613037L224 279.0387L224 279.0387L0 279.0387z" />    </clipPath>
    <clipPath  id="49">

    <path id=""  clip-rule="evenodd" transform="matrix(1 0 0 1 0 0)"  d="M0 -0.9613037L224 -0.9613037L224 -0.9613037L224 279.0387L224 279.0387L0 279.0387z" />    </clipPath>
    <clipPath  id="50">

    <path id=""  clip-rule="evenodd" transform="matrix(1 0 0 1 0 0)"  d="M0 -0.9613037L224 -0.9613037L224 -0.9613037L224 279.0387L224 279.0387L0 279.0387z" />    </clipPath>
    <clipPath  id="51">

    <path id=""  clip-rule="evenodd" transform="matrix(1 0 0 1 0 0)"  d="M0 -0.9613037L224 -0.9613037L224 -0.9613037L224 279.0387L224 279.0387L0 279.0387z" />    </clipPath>
    <clipPath  id="52">

    <path id=""  clip-rule="evenodd" transform="matrix(1 0 0 1 0 0)"  d="M0 -0.9613037L224 -0.9613037L224 -0.9613037L224 279.0387L224 279.0387L0 279.0387z" />    </clipPath>
    <clipPath  id="53">

    <path id=""  clip-rule="evenodd" transform="matrix(1 0 0 1 0 0)"  d="M0 -0.9613037L224 -0.9613037L224 -0.9613037L224 279.0387L224 279.0387L0 279.0387z" />    </clipPath>
    <clipPath  id="54">

    <path id=""  clip-rule="evenodd" transform="matrix(1 0 0 1 0 0)"  d="M0 -0.9613037L224 -0.9613037L224 -0.9613037L224 279.0387L224 279.0387L0 279.0387z" />    </clipPath>
    <clipPath  id="55">

    <path id=""  clip-rule="evenodd" transform="matrix(1 0 0 1 0 0)"  d="M0 -0.9613037L224 -0.9613037L224 -0.9613037L224 279.0387L224 279.0387L0 279.0387z" />    </clipPath>
    <clipPath  id="56">

    <path id=""  clip-rule="evenodd" transform="matrix(1 0 0 1 0 0)"  d="M0 -0.9613037L224 -0.9613037L224 -0.9613037L224 279.0387L224 279.0387L0 279.0387z" />    </clipPath>
    <clipPath  id="57">

    <path id=""  clip-rule="evenodd" transform="matrix(1 0 0 1 0 0)"  d="M0 -0.9613037L224 -0.9613037L224 -0.9613037L224 279.0387L224 279.0387L0 279.0387z" />    </clipPath>
</defs>

<g transform="matrix(1.3333 0 0 1.3333 0 0)">
	<g clip-path="url(#1)" >
		<g clip-path="url(#2)" >
    <path id=""  transform="matrix(1 0 0 -1 0 279)"  d="M116.758 279.9613L116.754 143.3753L116.754 143.3753L116.754 143.3713L116.754 143.3713L116.746 0.0003051758M223.68 143.0513L116.754 143.3713L116.754 143.3713L116.75 143.3713L116.75 143.3713L0.102 143.7233" stroke="#231F20" stroke-width="68.26624" stroke-linejoin="miter" fill="none" />
		</g>
		<g clip-path="url(#3)" >
    <path id=""  transform="matrix(1 0 0 -1 0 279)"  d="M116.758 279.9613L116.754 143.3753L116.754 143.3753L116.754 143.3713L116.754 143.3713L116.746 0.0003051758M223.68 143.0513L116.754 143.3713L116.754 143.3713L116.75 143.3713L116.75 143.3713L0.102 143.7233" stroke="#FFFFFF" stroke-width="62.45627" stroke-linejoin="miter" fill="none" />
		</g>
		<g clip-path="url(#4)" >
    <path id=""  transform="matrix(1 0 0 -1 0 279)"  d="M116.758 279.9613L116.754 143.3753L116.754 143.3753L116.754 143.3713L116.754 143.3713L116.746 0.0003051758M223.68 143.0513L116.754 143.3713L116.754 143.3713L116.75 143.3713L116.75 143.3713L0.102 143.7233" stroke="#231F20" stroke-width="59.55148" stroke-linejoin="miter" fill="none" />
		</g>
		<g clip-path="url(#5)" >
    <path id=""  transform="matrix(1 0 0 -1 0 279)"  d="M116.758 279.9613L116.754 143.3753L116.754 143.3753L116.754 143.3713L116.754 143.3713L116.746 0.0003051758M223.68 143.0513L116.754 143.3713L116.754 143.3713L116.75 143.3713L116.75 143.3713L0.102 143.7233" stroke="#FFFFFF" stroke-width="1.452473" stroke-linejoin="miter" stroke-dasharray="9.99999713897705,9.99999713897705" fill="none" />
		</g>
		<g clip-path="url(#6)" >
    <path id=""  transform="matrix(1 0 0 -1 0 279)"  d="M116.82 113.4773L117.004 174.4693" stroke="#231F20" stroke-width="59.55148" stroke-linejoin="miter" fill="none" />
		</g>
		<g clip-path="url(#7)" >
    <path id=""  transform="matrix(1 0 0 -1 0 279)"  d="M151.313 112.0353C 150.355 112.1093 149.48 111.7663 148.871 111.1563C 148.215 110.4963 147.922 109.5983 147.988 108.7153C 147.516 108.7033 147.043 108.6883 146.566 108.6763C 146.469 109.9533 146.887 111.2423 147.836 112.1913C 148.715 113.0663 149.973 113.5663 151.348 113.4573C 151.336 112.9843 151.348 113.4573 151.313 112.0353" stroke="none" fill="#FFFFFF" fill-rule="nonzero" />
		</g>
		<g clip-path="url(#8)" >
    <path id=""  transform="matrix(1 0 0 -1 0 279)"  d="M151.117 113.4963C 149.793 113.6023 148.582 113.1173 147.734 112.2733C 146.824 111.3633 146.418 110.1213 146.516 108.8953C 145.859 108.8753 145.199 108.8593 144.543 108.8443C 144.406 110.6093 144.988 112.3983 146.301 113.7113C 147.516 114.9263 149.262 115.6173 151.168 115.4693C 151.152 114.8093 151.168 115.4693 151.117 113.4963" stroke="none" fill="#231F20" fill-rule="nonzero" />
		</g>
		<g clip-path="url(#9)" >
    <path id=""  transform="matrix(1 0 0 -1 0 279)"  d="M151.117 113.4963C 149.793 113.6023 148.582 113.1173 147.734 112.2733C 146.824 111.3633 146.418 110.1213 146.516 108.8953C 145.859 108.8753 145.199 108.8593 144.543 108.8443C 144.406 110.6093 144.988 112.3983 146.301 113.7113C 147.516 114.9263 149.262 115.6173 151.168 115.4693C 151.152 114.8093 151.168 115.4693 151.117 113.4963" stroke="none" fill="#231F20" fill-rule="nonzero" />
		</g>
		<g clip-path="url(#10)" >
    <path id=""  transform="matrix(1 0 0 -1 0 279)"  d="M147.953 177.7973C 147.879 176.8403 148.227 175.9653 148.836 175.3563C 149.496 174.6953 150.391 174.4063 151.277 174.4733C 151.289 174.0003 151.301 173.5233 151.313 173.0513C 150.039 172.9493 148.746 173.3713 147.801 174.3203C 146.922 175.1953 146.422 176.4573 146.531 177.8323C 147.008 177.8203 146.531 177.8323 147.953 177.7973" stroke="none" fill="#FFFFFF" fill-rule="nonzero" />
		</g>
		<g clip-path="url(#11)" >
    <path id=""  transform="matrix(1 0 0 -1 0 279)"  d="M146.496 177.6023C 146.391 176.2773 146.871 175.0633 147.715 174.2193C 148.629 173.3093 149.871 172.9023 151.098 173.0003C 151.113 172.3403 151.129 171.6843 151.148 171.0273C 149.383 170.8873 147.594 171.4733 146.281 172.7853C 145.066 174.0003 144.375 175.7463 144.523 177.6523C 145.18 177.6333 144.523 177.6523 146.496 177.6023" stroke="none" fill="#231F20" fill-rule="nonzero" />
		</g>
		<g clip-path="url(#12)" >
    <path id=""  transform="matrix(1 0 0 -1 0 279)"  d="M82.219 174.6883C 83.176 174.6093 84.051 174.9573 84.66 175.5663C 85.316 176.2273 85.609 177.1213 85.543 178.0083C 86.016 178.0203 86.488 178.0313 86.965 178.0473C 87.066 176.7703 86.645 175.4813 85.695 174.5313C 84.816 173.6563 83.559 173.1563 82.184 173.2623C 82.195 173.7383 82.184 173.2623 82.219 174.6883" stroke="none" fill="#FFFFFF" fill-rule="nonzero" />
		</g>
		<g clip-path="url(#13)" >
    <path id=""  transform="matrix(1 0 0 -1 0 279)"  d="M82.414 173.2273C 83.738 173.1213 84.953 173.6023 85.797 174.4493C 86.707 175.3593 87.113 176.6023 87.016 177.8283C 87.672 177.8443 88.332 177.8633 88.988 177.8793C 89.125 176.1133 88.543 174.3243 87.23 173.0123C 86.016 171.7973 84.27 171.1063 82.363 171.2543C 82.379 171.9103 82.363 171.2543 82.414 173.2273" stroke="none" fill="#231F20" fill-rule="nonzero" />
		</g>
		<g clip-path="url(#14)" >
    <path id=""  transform="matrix(1 0 0 -1 0 279)"  d="M85.539 108.9183C 85.613 109.8753 85.266 110.7503 84.656 111.3593C 84 112.0203 83.102 112.3133 82.215 112.2423C 82.203 112.7153 82.191 113.1913 82.18 113.6643C 83.453 113.7663 84.746 113.3443 85.691 112.3953C 86.57 111.5203 87.07 110.2583 86.961 108.8833C 86.488 108.8953 86.961 108.8833 85.539 108.9183" stroke="none" fill="#FFFFFF" fill-rule="nonzero" />
		</g>
		<g clip-path="url(#15)" >
    <path id=""  transform="matrix(1 0 0 -1 0 279)"  d="M86.996 109.1133C 87.102 110.4383 86.621 111.6523 85.777 112.4963C 84.863 113.4063 83.621 113.8133 82.395 113.7153C 82.379 114.3753 82.363 115.0313 82.344 115.6883C 84.109 115.8283 85.898 115.2423 87.211 113.9303C 88.426 112.7153 89.117 110.9693 88.969 109.0633C 88.313 109.0823 88.969 109.0633 86.996 109.1133" stroke="none" fill="#231F20" fill-rule="nonzero" />
		</g>
		<g clip-path="url(#16)" >
    <path id=""  transform="matrix(1 0 0 -1 0 279)"  d="M147.949 112.0593L115.996 112.1953" stroke="#FFFFFF" stroke-width="2.904949" stroke-linejoin="miter" fill="none" />
		</g>
		<g clip-path="url(#17)" >
    <path id=""  transform="matrix(1 0 0 -1 0 279)"  d="M150.367 112.7773L147.578 112.7893" stroke="#FFFFFF" stroke-width="1.452473" stroke-linejoin="miter" fill="none" />
		</g>
		<g clip-path="url(#18)" >
    <path id=""  transform="matrix(1 0 0 -1 0 279)"  d="M117.504 174.5513L85.07 174.6913" stroke="#FFFFFF" stroke-width="2.904949" stroke-linejoin="miter" fill="none" />
		</g>
		<g clip-path="url(#19)" >
    <path id=""  transform="matrix(1 0 0 -1 0 279)"  d="M85.898 173.9613L83.109 173.9733" stroke="#FFFFFF" stroke-width="1.452473" stroke-linejoin="miter" fill="none" />
		</g>
		<g clip-path="url(#20)" >
    <path id=""  transform="matrix(1 0 0 -1 0 279)"  d="M121.777 113.7583L126.156 113.7583L126.156 113.7583L126.156 110.5633L126.156 110.5633L121.777 110.5633z" stroke="none" fill="#231F20" fill-rule="evenodd" />
		</g>
		<g clip-path="url(#21)" >
    <path id=""  transform="matrix(1 0 0 -1 0 279)"  d="M131.98 113.8283L136.359 113.8283L136.359 113.8283L136.359 110.6333L136.359 110.6333L131.98 110.6333z" stroke="none" fill="#231F20" fill-rule="evenodd" />
		</g>
		<g clip-path="url(#22)" >
    <path id=""  transform="matrix(1 0 0 -1 0 279)"  d="M142.164 113.6723L146.547 113.6723L146.547 113.6723L146.547 110.4773L146.547 110.4773L142.164 110.4773z" stroke="none" fill="#231F20" fill-rule="evenodd" />
		</g>
		<g clip-path="url(#23)" >
    <path id=""  transform="matrix(1 0 0 -1 0 279)"  d="M86.977 176.1563L91.36 176.1563L91.36 176.1563L91.36 172.9613L91.36 172.9613L86.977 172.9613z" stroke="none" fill="#231F20" fill-rule="evenodd" />
		</g>
		<g clip-path="url(#24)" >
    <path id=""  transform="matrix(1 0 0 -1 0 279)"  d="M97.184 176.2273L101.563 176.2273L101.563 176.2273L101.563 173.0323L101.563 173.0323L97.184 173.0323z" stroke="none" fill="#231F20" fill-rule="evenodd" />
		</g>
		<g clip-path="url(#25)" >
    <path id=""  transform="matrix(1 0 0 -1 0 279)"  d="M107.367 176.0703L111.746 176.0703L111.746 176.0703L111.746 172.8753L111.746 172.8753L107.367 172.8753z" stroke="none" fill="#231F20" fill-rule="evenodd" />
		</g>
		<g clip-path="url(#26)" >
    <path id=""  transform="matrix(1 0 0 -1 0 279)"  d="M161.148 65.2773C 161.262 65.2773 161.375 65.3203 161.461 65.40631C 161.488 65.43431 161.512 65.4653 161.531 65.49631L161.531 65.49631L161.762 65.8913L161.762 65.8913L166.16 73.5123C 166.16 73.5123 166.16 73.5163 166.16 73.5163C 166.184 73.5513 166.199 73.5943 166.211 73.6373C 166.273 73.87131 166.137 74.1093 165.902 74.1763C 165.863 74.18431 165.824 74.18831 165.785 74.18831L165.785 74.18831L156.512 74.18831C 156.27 74.18831 156.07 73.99231 156.07 73.75031C 156.07 73.6683 156.094 73.5943 156.129 73.53131C 156.129 73.53131 156.133 73.5273 156.133 73.5273L156.133 73.5273L160.699 65.60231C 160.754 65.50031 160.781 65.4613 160.84 65.40631C 160.926 65.3203 161.039 65.2773 161.148 65.2773" stroke="none" fill="#FFFFFF" fill-rule="evenodd" />
		</g>
		<g clip-path="url(#27)" >
    <path id=""  transform="matrix(1 0 0 -1 0 279)"  d="M161.156 66.98131L157.617 73.1093L157.617 73.1093L164.695 73.1093L164.695 73.1093L161.156 66.98131M165.781 74.0703L165.805 74.0703zM161.148 65.3873C 161.258 65.3873 161.375 65.4413 161.434 65.5433L161.434 65.5433L166.07 73.58231C 166.098 73.6373 166.109 73.68431 166.109 73.7383C 166.109 73.8363 166.066 73.9303 165.992 73.99231C 165.926 74.0433 165.863 74.0703 165.781 74.0703L165.781 74.0703L156.512 74.0703C 156.453 74.0703 156.398 74.0553 156.348 74.0233C 156.25 73.9653 156.191 73.8593 156.191 73.74631C 156.191 73.68831 156.207 73.62531 156.234 73.58231L156.234 73.58231L160.871 65.5433C 160.871 65.53931 160.871 65.53931 160.871 65.53931C 160.871 65.53931 160.871 65.53931 160.875 65.53931C 160.891 65.5123 160.91 65.4883 160.934 65.4693C 160.988 65.4223 161.055 65.39531 161.125 65.3873C 161.133 65.3873 161.141 65.3873 161.148 65.3873z" stroke="none" fill="#C1121C" fill-rule="evenodd" />
		</g>
		<g clip-path="url(#28)" >
    <path id=""  transform="matrix(1 0 0 -1 0 279)"  d="M161.148 65.2773C 161.039 65.2773 160.926 65.3203 160.84 65.40631C 160.781 65.4613 160.754 65.50031 160.699 65.60231L160.699 65.60231L156.133 73.5273C 156.133 73.5273 156.129 73.53131 156.129 73.53131C 156.094 73.5943 156.07 73.6683 156.07 73.75031C 156.07 73.99231 156.27 74.18831 156.512 74.18831L156.512 74.18831L165.785 74.18831C 165.824 74.18831 165.863 74.18431 165.902 74.1763C 166.137 74.1093 166.273 73.87131 166.211 73.6373C 166.199 73.5943 166.184 73.5513 166.16 73.5163C 166.16 73.5163 166.16 73.5123 166.16 73.5123L166.16 73.5123L161.762 65.8913L161.762 65.8913L161.531 65.49631C 161.512 65.4653 161.488 65.43431 161.461 65.40631C 161.375 65.3203 161.262 65.2773 161.148 65.2773M161.148 65.27031C 161.266 65.27031 161.379 65.31331 161.465 65.4023C 161.492 65.4303 161.52 65.4613 161.535 65.49631L161.535 65.49631L161.766 65.8833L161.766 65.8833L166.164 73.5083C 166.164 73.5123 166.164 73.5123 166.168 73.5123C 166.188 73.5513 166.207 73.5903 166.219 73.6333C 166.281 73.87131 166.141 74.11731 165.902 74.1803C 165.863 74.1913 165.824 74.1953 165.785 74.1953L165.785 74.1953L156.512 74.1953C 156.266 74.1953 156.066 73.99631 156.066 73.75031C 156.066 73.6683 156.086 73.5943 156.125 73.5273L156.125 73.5273L160.691 65.5983C 160.75 65.50031 160.777 65.45731 160.836 65.4023C 160.922 65.31331 161.035 65.27031 161.148 65.27031z" stroke="none" fill="#000000" fill-rule="evenodd" />
		</g>
		<g clip-path="url(#29)" >
    <path id=""  transform="matrix(1 0 0 -1 0 279)"  d="M71.512 221.2733C 71.625 221.2733 71.734 221.2313 71.824 221.1453C 71.852 221.1173 71.875 221.0863 71.895 221.0513L71.895 221.0513L72.121 220.6603L72.121 220.6603L76.52 213.0393C 76.52 213.0353 76.52 213.0353 76.523 213.0353C 76.543 212.9963 76.563 212.9573 76.574 212.9143C 76.637 212.6803 76.496 212.4383 76.262 212.3753C 76.223 212.3673 76.184 212.3593 76.145 212.3593L76.145 212.3593L66.875 212.3593C 66.629 212.3593 66.434 212.5593 66.434 212.8013C 66.434 212.8833 66.453 212.9573 66.492 213.0203L66.492 213.0203L71.059 220.9493C 71.117 221.0473 71.145 221.0903 71.199 221.1453C 71.285 221.2313 71.398 221.2733 71.512 221.2733" stroke="none" fill="#FFFFFF" fill-rule="evenodd" />
		</g>
		<g clip-path="url(#30)" >
    <path id=""  transform="matrix(1 0 0 -1 0 279)"  d="M71.516 219.5703L67.98 213.4413L67.98 213.4413L75.059 213.4413L75.059 213.4413L71.516 219.5703M76.141 212.4813L76.164 212.4813zM71.512 221.1643C 71.617 221.1643 71.734 221.1093 71.793 221.0083L71.793 221.0083L76.434 212.9693C 76.461 212.9143 76.473 212.8633 76.473 212.8133C 76.473 212.7153 76.43 212.6213 76.352 212.5593C 76.289 212.5083 76.227 212.4813 76.141 212.4813L76.141 212.4813L66.871 212.4813C 66.816 212.4813 66.758 212.4963 66.707 212.5273C 66.609 212.5863 66.551 212.6913 66.551 212.8053C 66.555 212.8633 66.566 212.9223 66.594 212.9693L66.594 212.9693L71.23 221.0083C 71.23 221.0083 71.23 221.0083 71.234 221.0123C 71.25 221.0393 71.27 221.0633 71.293 221.0823C 71.348 221.1293 71.414 221.1563 71.488 221.1603C 71.496 221.1643 71.504 221.1643 71.512 221.1643z" stroke="none" fill="#C1121C" fill-rule="evenodd" />
		</g>
		<g clip-path="url(#31)" >
    <path id=""  transform="matrix(1 0 0 -1 0 279)"  d="M71.512 221.2733C 71.398 221.2733 71.285 221.2313 71.199 221.1453C 71.145 221.0903 71.117 221.0473 71.059 220.9493L71.059 220.9493L66.492 213.0203C 66.453 212.9573 66.434 212.8833 66.434 212.8013C 66.434 212.5593 66.629 212.3593 66.875 212.3593L66.875 212.3593L76.145 212.3593C 76.184 212.3593 76.223 212.3673 76.262 212.3753C 76.496 212.4383 76.637 212.6803 76.574 212.9143C 76.563 212.9573 76.543 212.9963 76.523 213.0353C 76.52 213.0353 76.52 213.0353 76.52 213.0393L76.52 213.0393L72.121 220.6603L72.121 220.6603L71.895 221.0513C 71.875 221.0863 71.852 221.1173 71.824 221.1453C 71.734 221.2313 71.625 221.2733 71.512 221.2733M71.512 221.2813C 71.625 221.2813 71.738 221.2343 71.828 221.1483C 71.855 221.1213 71.879 221.0903 71.898 221.0553L71.898 221.0553L72.125 220.6643L72.125 220.6643L76.523 213.0433C 76.527 213.0393 76.527 213.0393 76.527 213.0353C 76.551 213.0003 76.566 212.9613 76.578 212.9143C 76.645 212.6803 76.5 212.4343 76.262 212.3713C 76.223 212.3593 76.184 212.3563 76.145 212.3563L76.145 212.3563L66.875 212.3563C 66.629 212.3563 66.426 212.5553 66.426 212.8013C 66.426 212.8833 66.449 212.9573 66.488 213.0233L66.488 213.0233L71.055 220.9533C 71.113 221.0513 71.141 221.0943 71.195 221.1483C 71.281 221.2343 71.398 221.2813 71.512 221.2813z" stroke="none" fill="#000000" fill-rule="evenodd" />
		</g>
		<g clip-path="url(#32)" >
    <path id=""  transform="matrix(1 0 0 -1 0 279)"  d="M161.34 74.62531L162.141 74.62531" stroke="#ED1C24" stroke-width="0.145247" stroke-linejoin="miter" fill="none" />
		</g>
		<g clip-path="url(#33)" >
    <path id=""  transform="matrix(1 0 0 -1 0 279)"  d="M147.551 110.7193L162.141 110.7193" stroke="#ED1C24" stroke-width="0.145247" stroke-linejoin="miter" fill="none" />
		</g>
		<g clip-path="url(#34)" >
    <path id=""  transform="matrix(1 0 0 -1 0 279)"  d="M161.34 109.9573L161.34 75.3913" stroke="#ED1C24" stroke-width="0.145247" stroke-linejoin="miter" fill="none" />
		</g>
		<g clip-path="url(#35)" >
    <path id=""  transform="matrix(1 0 0 -1 0 279)"  d="M160.934 109.1953L161.34 110.7193L161.34 110.7193L161.75 109.1953L161.75 109.1953L160.934 109.1953" stroke="none" fill="#ED1C24" fill-rule="evenodd" />
		</g>
		<g clip-path="url(#36)" >
    <path id=""  transform="matrix(1 0 0 -1 0 279)"  d="M160.934 76.1523L161.34 74.62531L161.34 74.62531L161.75 76.1523L161.75 76.1523L160.934 76.1523" stroke="none" fill="#ED1C24" fill-rule="evenodd" />
		</g>
		<g clip-path="url(#37)" >
    <path id=""  transform="matrix(1 0 0 -1 0 279)"  d="M202.98 89.53531C 202.98 88.3163 203.133 87.52031 203.402 87.12131C 203.695 86.7233 204.035 86.5233 204.445 86.5233C 204.855 86.5233 205.207 86.7343 205.488 87.12131C 205.77 87.52031 205.91 88.32831 205.91 89.53531C 205.91 90.74231 205.77 91.53931 205.488 91.93831C 205.219 92.3363 204.855 92.53531 204.434 92.53531C 204.035 92.53531 203.695 92.3593 203.449 92.0083C 203.133 91.56331 202.98 90.74231 202.98 89.53531zM202.066 89.53531C 202.066 90.4023 202.16 91.0943 202.324 91.6333C 202.512 92.16031 202.77 92.5703 203.133 92.85231C 203.473 93.1333 203.918 93.2733 204.445 93.2733C 204.844 93.2733 205.184 93.1913 205.488 93.03931C 205.781 92.87531 206.027 92.6523 206.227 92.3593C 206.414 92.0553 206.555 91.6913 206.672 91.27031C 206.789 90.8363 206.836 90.2623 206.836 89.53531C 206.836 88.6683 206.742 87.97731 206.566 87.44931C 206.391 86.9223 206.133 86.5123 205.781 86.2193C 205.43 85.93831 204.984 85.7973 204.445 85.7973C 203.742 85.7973 203.191 86.0433 202.793 86.5473C 202.313 87.1683 202.066 88.1523 202.066 89.53531zM197.285 89.53531C 197.285 88.3163 197.438 87.52031 197.707 87.12131C 198 86.7233 198.34 86.5233 198.75 86.5233C 199.16 86.5233 199.512 86.7343 199.793 87.12131C 200.074 87.52031 200.215 88.32831 200.215 89.53531C 200.215 90.74231 200.074 91.53931 199.793 91.93831C 199.523 92.3363 199.16 92.53531 198.738 92.53531C 198.34 92.53531 198 92.3593 197.754 92.0083C 197.438 91.56331 197.285 90.74231 197.285 89.53531zM196.371 89.53531C 196.371 90.4023 196.465 91.0943 196.629 91.6333C 196.816 92.16031 197.074 92.5703 197.438 92.85231C 197.777 93.1333 198.223 93.2733 198.75 93.2733C 199.148 93.2733 199.488 93.1913 199.793 93.03931C 200.086 92.87531 200.332 92.6523 200.531 92.3593C 200.719 92.0553 200.859 91.6913 200.977 91.27031C 201.094 90.8363 201.141 90.2623 201.141 89.53531C 201.141 88.6683 201.047 87.97731 200.871 87.44931C 200.695 86.9223 200.438 86.5123 200.086 86.2193C 199.734 85.93831 199.289 85.7973 198.75 85.7973C 198.047 85.7973 197.496 86.0433 197.098 86.5473C 196.617 87.1683 196.371 88.1523 196.371 89.53531zM190.676 87.8363L191.613 87.90631C 191.684 87.44931 191.848 87.1093 192.094 86.87531C 192.352 86.6413 192.656 86.5233 193.031 86.5233C 193.465 86.5233 193.828 86.68831 194.133 87.0163C 194.426 87.3443 194.578 87.7773 194.578 88.3163C 194.578 88.83231 194.426 89.24231 194.145 89.53531C 193.863 89.8403 193.488 89.98131 193.02 89.98131C 192.727 89.98131 192.469 89.9223 192.234 89.78131C 192 89.6523 191.824 89.47731 191.684 89.2663L191.684 89.2663L190.84 89.3833L190.84 89.3833L191.543 93.15631L191.543 93.15631L195.176 93.15631L195.176 93.15631L195.176 92.28931L195.176 92.28931L192.258 92.28931L192.258 92.28931L191.871 90.3203C 192.316 90.62531 192.773 90.7773 193.254 90.7773C 193.887 90.7773 194.426 90.5553 194.871 90.1093C 195.316 89.6763 195.527 89.10231 195.527 88.3983C 195.527 87.74231 195.328 87.1683 194.953 86.68831C 194.484 86.0903 193.84 85.7973 193.031 85.7973C 192.363 85.7973 191.824 85.9733 191.402 86.3593C 190.969 86.7233 190.734 87.22731 190.676 87.8363zM184.293 88.11731L184.293 89.02031L184.293 89.02031L187.082 89.02031L187.082 89.02031L187.082 88.11731zM176.777 89.53531C 176.777 88.3163 176.93 87.52031 177.199 87.12131C 177.492 86.7233 177.832 86.5233 178.242 86.5233C 178.652 86.5233 179.004 86.7343 179.285 87.12131C 179.566 87.52031 179.707 88.32831 179.707 89.53531C 179.707 90.74231 179.566 91.53931 179.285 91.93831C 179.016 92.3363 178.652 92.53531 178.23 92.53531C 177.832 92.53531 177.492 92.3593 177.246 92.0083C 176.93 91.56331 176.777 90.74231 176.777 89.53531zM175.863 89.53531C 175.863 90.4023 175.957 91.0943 176.121 91.6333C 176.309 92.16031 176.566 92.5703 176.93 92.85231C 177.27 93.1333 177.715 93.2733 178.242 93.2733C 178.641 93.2733 178.98 93.1913 179.285 93.03931C 179.578 92.87531 179.824 92.6523 180.023 92.3593C 180.211 92.0553 180.352 91.6913 180.469 91.27031C 180.586 90.8363 180.633 90.2623 180.633 89.53531C 180.633 88.6683 180.539 87.97731 180.363 87.44931C 180.188 86.9223 179.93 86.5123 179.578 86.2193C 179.227 85.93831 178.781 85.7973 178.242 85.7973C 177.539 85.7973 176.988 86.0433 176.59 86.5473C 176.109 87.1683 175.863 88.1523 175.863 89.53531zM171.082 89.53531C 171.082 88.3163 171.234 87.52031 171.504 87.12131C 171.797 86.7233 172.137 86.5233 172.547 86.5233C 172.957 86.5233 173.309 86.7343 173.59 87.12131C 173.871 87.52031 174.012 88.32831 174.012 89.53531C 174.012 90.74231 173.871 91.53931 173.59 91.93831C 173.32 92.3363 172.957 92.53531 172.535 92.53531C 172.137 92.53531 171.797 92.3593 171.551 92.0083C 171.234 91.56331 171.082 90.74231 171.082 89.53531zM170.168 89.53531C 170.168 90.4023 170.262 91.0943 170.426 91.6333C 170.613 92.16031 170.871 92.5703 171.234 92.85231C 171.574 93.1333 172.02 93.2733 172.547 93.2733C 172.945 93.2733 173.285 93.1913 173.59 93.03931C 173.883 92.87531 174.129 92.6523 174.328 92.3593C 174.516 92.0553 174.656 91.6913 174.773 91.27031C 174.891 90.8363 174.938 90.2623 174.938 89.53531C 174.938 88.6683 174.844 87.97731 174.668 87.44931C 174.492 86.9223 174.234 86.5123 173.883 86.2193C 173.531 85.93831 173.086 85.7973 172.547 85.7973C 171.844 85.7973 171.293 86.0433 170.895 86.5473C 170.414 87.1683 170.168 88.1523 170.168 89.53531zM164.469 87.8593L165.371 87.9883C 165.465 87.4733 165.641 87.0983 165.887 86.87531C 166.145 86.6523 166.438 86.53531 166.801 86.53531C 167.234 86.53531 167.586 86.68831 167.891 86.98131C 168.172 87.2733 168.313 87.6373 168.313 88.0703C 168.313 88.48131 168.184 88.8203 167.902 89.10231C 167.645 89.37131 167.305 89.50031 166.883 89.50031C 166.707 89.50031 166.496 89.4653 166.25 89.39531L166.25 89.39531L166.344 90.1803C 166.402 90.1803 166.449 90.1803 166.496 90.1803C 166.871 90.1803 167.223 90.2733 167.527 90.4733C 167.832 90.6723 167.984 90.9883 167.984 91.3983C 167.984 91.72731 167.879 91.99631 167.656 92.2193C 167.422 92.4413 167.141 92.53531 166.789 92.53531C 166.438 92.53531 166.145 92.4303 165.91 92.2193C 165.676 91.9843 165.535 91.64531 165.453 91.2113L165.453 91.2113L164.563 91.37531C 164.668 91.9733 164.914 92.45331 165.301 92.78131C 165.699 93.1093 166.191 93.2733 166.766 93.2733C 167.164 93.2733 167.539 93.1913 167.867 93.0273C 168.207 92.85231 168.465 92.61731 168.641 92.32431C 168.816 92.03131 168.91 91.7153 168.91 91.37531C 168.91 91.0703 168.828 90.7773 168.652 90.5083C 168.488 90.2623 168.23 90.0513 167.891 89.8983C 168.336 89.7933 168.676 89.5943 168.91 89.2773C 169.145 88.9613 169.273 88.56331 169.273 88.08231C 169.273 87.44931 169.039 86.91031 168.57 86.45331C 168.102 86.02031 167.504 85.7973 166.801 85.7973C 166.156 85.7973 165.617 85.9843 165.195 86.3593C 164.773 86.7583 164.527 87.25031 164.469 87.8593z" stroke="none" fill="#EF3221" fill-rule="nonzero" />
		</g>
		<g clip-path="url(#38)" >
    <path id=""  transform="matrix(1 0 0 -1 0 279)"  d="M43.473 93.85231L38.871 98.45331C 38.66 98.66431 38.73 98.97731 38.875 99.1293L38.875 99.1293L43.457 103.7073C 43.691 103.9413 44.016 103.8593 44.164 103.7073L44.164 103.7073L48.727 99.16031C 48.945 98.9413 48.949 98.6483 48.738 98.43831L48.738 98.43831L44.16 93.85231C 43.813 93.5083 43.473 93.85231 43.473 93.85231" stroke="none" fill="#FFFFFF" fill-rule="evenodd" />
		</g>
		<g clip-path="url(#39)" >
    <path id=""  transform="matrix(1 0 0 -1 0 279)"  d="M48.727 99.16031C 48.945 98.9413 48.949 98.6483 48.738 98.43831C 47.211 96.90631 45.684 95.3793 44.16 93.85231C 43.813 93.5083 43.473 93.85231 43.473 93.85231L43.473 93.85231L38.871 98.45331C 38.66 98.66431 38.73 98.97731 38.875 99.1293L38.875 99.1293L43.457 103.7073C 43.691 103.9413 44.016 103.8593 44.164 103.7073L44.164 103.7073L48.727 99.16031" stroke="none" fill="#FFFFFF" fill-rule="evenodd" />
		</g>
		<g clip-path="url(#40)" >
    <path id=""  transform="matrix(1 0 0 -1 0 279)"  d="M48.727 99.16031C 48.945 98.9413 48.949 98.6483 48.738 98.43831C 47.211 96.90631 45.684 95.3793 44.16 93.85231C 43.813 93.5083 43.473 93.85231 43.473 93.85231L43.473 93.85231L38.871 98.45331C 38.66 98.66431 38.73 98.97731 38.875 99.1293L38.875 99.1293L43.457 103.7073C 43.691 103.9413 44.016 103.8593 44.164 103.7073L44.164 103.7073L48.727 99.16031" stroke="none" fill="#FFFFFF" fill-rule="evenodd" />
		</g>
		<g clip-path="url(#41)" >
    <path id=""  transform="matrix(1 0 0 -1 0 279)"  d="M43.906 103.4693C 43.816 103.5593 43.727 103.4693 43.727 103.4693C 42.195 101.9383 40.664 100.4063 39.133 98.87531C 39.133 98.87531 39.043 98.78531 39.133 98.69931L39.133 98.69931L43.727 94.1093C 43.824 94.0163 43.902 94.1093 43.902 94.1093C 45.438 95.6373 46.969 97.1683 48.496 98.70331C 48.496 98.70331 48.59 98.78131 48.5 98.87531L48.5 98.87531L43.906 103.4693M44.035 103.6023L48.629 99.0083C 48.855 98.78131 48.633 98.5703 48.633 98.5703L48.633 98.5703L44.031 93.9733C 44.031 93.9733 43.82 93.75031 43.598 93.97731L43.598 93.97731L39 98.5663C 38.773 98.7933 39 99.0043 39 99.0043C 40.531 100.5393 42.066 102.0703 43.598 103.6023C 43.598 103.6023 43.809 103.8243 44.035 103.6023z" stroke="none" fill="#000000" fill-rule="evenodd" />
		</g>
		<g clip-path="url(#42)" >
    <path id=""  transform="matrix(1 0 0 -1 0 279)"  d="M43.816 95.9733L46.633 98.78931L46.633 98.78931L43.816 101.6023L43.816 101.6023L41 98.78931L41 98.78931L43.816 95.9733" stroke="none" fill="#F7BA0B" fill-rule="evenodd" />
		</g>
		<g clip-path="url(#43)" >
    <path id=""  transform="matrix(1 0 0 -1 0 279)"  d="M43.816 96.06331L46.547 98.78931L46.547 98.78931L43.816 101.5163L43.816 101.5163L41.086 98.78931L41.086 98.78931L43.816 96.06331M43.816 95.8833L43.773 95.9303L43.773 95.9303L40.91 98.78931L40.91 98.78931L43.816 101.6913L43.816 101.6913L46.723 98.78931z" stroke="none" fill="#000000" fill-rule="evenodd" />
		</g>
		<g clip-path="url(#44)" >
    <path id=""  transform="matrix(1 0 0 -1 0 279)"  d="M48.727 99.16031L44.164 103.7073C 44.016 103.8593 43.691 103.9413 43.457 103.7073L43.457 103.7073L38.875 99.1293C 38.73 98.97731 38.66 98.66431 38.871 98.45331L38.871 98.45331L43.473 93.85231C 43.473 93.85231 43.813 93.5083 44.16 93.85231C 45.684 95.3793 47.211 96.90631 48.738 98.43831C 48.949 98.6483 48.945 98.9413 48.727 99.16031M48.73 99.16431C 48.84 99.0513 48.898 98.9223 48.898 98.7933C 48.902 98.6683 48.848 98.53931 48.742 98.4303C 47.215 96.9023 45.688 95.37531 44.164 93.8483C 43.988 93.6723 43.813 93.6723 43.684 93.7193C 43.555 93.7623 43.469 93.8483 43.469 93.8483L43.469 93.8483L38.867 98.44931C 38.77 98.5473 38.73 98.66431 38.734 98.7773C 38.734 98.78931 38.734 98.8013 38.734 98.81331C 38.742 98.93831 38.797 99.0553 38.871 99.1333L38.871 99.1333L43.453 103.7113C 43.57 103.8283 43.711 103.8673 43.844 103.8593C 43.973 103.8483 44.094 103.7893 44.172 103.7113z" stroke="none" fill="#000000" fill-rule="evenodd" />
		</g>
		<g clip-path="url(#45)" >
    <path id=""  transform="matrix(1 0 0 -1 0 279)"  d="M189.566 183.0083L184.969 187.6063C 184.758 187.8163 184.828 188.1293 184.973 188.2813L184.973 188.2813L189.555 192.8593C 189.789 193.0943 190.109 193.0123 190.262 192.8633L190.262 192.8633L194.824 188.3133C 195.043 188.0943 195.047 187.8013 194.832 187.5903L194.832 187.5903L190.254 183.0043C 189.91 182.6603 189.566 183.0083 189.566 183.0083" stroke="none" fill="#FFFFFF" fill-rule="evenodd" />
		</g>
		<g clip-path="url(#46)" >
    <path id=""  transform="matrix(1 0 0 -1 0 279)"  d="M194.824 188.3133C 195.043 188.0943 195.047 187.8013 194.832 187.5903C 193.309 186.0633 191.781 184.5313 190.254 183.0043C 189.91 182.6603 189.566 183.0083 189.566 183.0083L189.566 183.0083L184.969 187.6063C 184.758 187.8163 184.828 188.1293 184.973 188.2813L184.973 188.2813L189.555 192.8593C 189.789 193.0943 190.109 193.0123 190.262 192.8633L190.262 192.8633L194.824 188.3133" stroke="none" fill="#FFFFFF" fill-rule="evenodd" />
		</g>
		<g clip-path="url(#47)" >
    <path id=""  transform="matrix(1 0 0 -1 0 279)"  d="M194.824 188.3133C 195.043 188.0943 195.047 187.8013 194.832 187.5903C 193.309 186.0633 191.781 184.5313 190.254 183.0043C 189.91 182.6603 189.566 183.0083 189.566 183.0083L189.566 183.0083L184.969 187.6063C 184.758 187.8163 184.828 188.1293 184.973 188.2813L184.973 188.2813L189.555 192.8593C 189.789 193.0943 190.109 193.0123 190.262 192.8633L190.262 192.8633L194.824 188.3133" stroke="none" fill="#FFFFFF" fill-rule="evenodd" />
		</g>
		<g clip-path="url(#48)" >
    <path id=""  transform="matrix(1 0 0 -1 0 279)"  d="M190 192.6213C 189.914 192.7113 189.824 192.6213 189.824 192.6213C 188.293 191.0903 186.762 189.5593 185.23 188.0273C 185.23 188.0273 185.137 187.9413 185.227 187.8523L185.227 187.8523L189.824 183.2623C 189.918 183.1683 189.996 183.2623 189.996 183.2623C 191.531 184.7893 193.063 186.3243 194.594 187.8563C 194.594 187.8563 194.688 187.9343 194.594 188.0273L194.594 188.0273L190 192.6213M190.133 192.7543L194.727 188.1603C 194.953 187.9343 194.73 187.7233 194.73 187.7233L194.73 187.7233L190.129 183.1253C 190.129 183.1253 189.918 182.9063 189.691 183.1293L189.691 183.1293L185.098 187.7233C 184.871 187.9453 185.098 188.1603 185.098 188.1603C 186.629 189.6913 188.16 191.2233 189.695 192.7543C 189.695 192.7543 189.906 192.9773 190.133 192.7543z" stroke="none" fill="#000000" fill-rule="evenodd" />
		</g>
		<g clip-path="url(#49)" >
    <path id=""  transform="matrix(1 0 0 -1 0 279)"  d="M189.914 185.1253L192.73 187.9413L192.73 187.9413L189.914 190.7583L189.914 190.7583L187.094 187.9413L187.094 187.9413L189.914 185.1253" stroke="none" fill="#F7BA0B" fill-rule="evenodd" />
		</g>
		<g clip-path="url(#50)" >
    <path id=""  transform="matrix(1 0 0 -1 0 279)"  d="M189.914 185.2153L192.641 187.9413L192.641 187.9413L189.914 190.6683L189.914 190.6683L187.184 187.9413L187.184 187.9413L189.914 185.2153M189.914 185.0393L189.867 185.0823L189.867 185.0823L187.008 187.9413L187.008 187.9413L189.914 190.8443L189.914 190.8443L192.816 187.9413z" stroke="none" fill="#000000" fill-rule="evenodd" />
		</g>
		<g clip-path="url(#51)" >
    <path id=""  transform="matrix(1 0 0 -1 0 279)"  d="M194.824 188.3133L190.262 192.8633C 190.109 193.0123 189.789 193.0943 189.555 192.8593L189.555 192.8593L184.973 188.2813C 184.828 188.1293 184.758 187.8163 184.969 187.6063L184.969 187.6063L189.566 183.0083C 189.566 183.0083 189.91 182.6603 190.254 183.0043C 191.781 184.5313 193.309 186.0633 194.832 187.5903C 195.047 187.8013 195.043 188.0943 194.824 188.3133M194.828 188.3163C 194.938 188.2073 194.996 188.0783 194.996 187.9493C 195 187.8203 194.945 187.6913 194.836 187.5863C 193.313 186.0593 191.785 184.5273 190.258 183.0003C 190.086 182.8283 189.91 182.8283 189.781 182.8713C 189.648 182.9143 189.563 183.0003 189.563 183.0003L189.563 183.0003L184.965 187.6023C 184.867 187.6993 184.828 187.8163 184.828 187.9303C 184.828 187.9413 184.828 187.9533 184.828 187.9653C 184.84 188.0903 184.895 188.2073 184.969 188.2893L184.969 188.2893L189.547 192.8633C 189.668 192.9843 189.809 193.0233 189.938 193.0123C 190.07 193.0003 190.191 192.9413 190.266 192.8673z" stroke="none" fill="#000000" fill-rule="evenodd" />
		</g>
		<g clip-path="url(#52)" >
    <path id=""  transform="matrix(1 0 0 -1 0 279)"  d="M184.148 188.7583L184.148 192.7273" stroke="#ED1C24" stroke-width="0.145247" stroke-linejoin="miter" fill="none" />
		</g>
		<g clip-path="url(#53)" >
    <path id=""  transform="matrix(1 0 0 -1 0 279)"  d="M146.281 173.5823L146.281 192.7273" stroke="#ED1C24" stroke-width="0.145247" stroke-linejoin="miter" fill="none" />
		</g>
		<g clip-path="url(#54)" >
    <path id=""  transform="matrix(1 0 0 -1 0 279)"  d="M147.043 191.9303L183.387 191.9303" stroke="#ED1C24" stroke-width="0.145247" stroke-linejoin="miter" fill="none" />
		</g>
		<g clip-path="url(#55)" >
    <path id=""  transform="matrix(1 0 0 -1 0 279)"  d="M147.805 191.5203L146.281 191.9303L146.281 191.9303L147.805 192.3363L147.805 192.3363L147.805 191.5203" stroke="none" fill="#ED1C24" fill-rule="evenodd" />
		</g>
		<g clip-path="url(#56)" >
    <path id=""  transform="matrix(1 0 0 -1 0 279)"  d="M182.625 191.5203L184.148 191.9303L184.148 191.9303L182.625 192.3363L182.625 192.3363L182.625 191.5203" stroke="none" fill="#ED1C24" fill-rule="evenodd" />
		</g>
		<g clip-path="url(#57)" >
    <path id=""  transform="matrix(1 0 0 -1 0 279)"  d="M193.34 198.6763C 193.34 197.4573 193.492 196.6603 193.762 196.2623C 194.055 195.8633 194.395 195.6643 194.805 195.6643C 195.215 195.6643 195.566 195.8753 195.848 196.2623C 196.129 196.6603 196.27 197.4693 196.27 198.6763C 196.27 199.8833 196.129 200.6803 195.848 201.0783C 195.578 201.4773 195.215 201.6763 194.793 201.6763C 194.395 201.6763 194.055 201.5003 193.809 201.1483C 193.492 200.7033 193.34 199.8833 193.34 198.6763zM192.426 198.6763C 192.426 199.5433 192.52 200.2343 192.684 200.7733C 192.871 201.3013 193.129 201.7113 193.492 201.9923C 193.832 202.2733 194.277 202.4143 194.805 202.4143C 195.203 202.4143 195.543 202.3323 195.848 202.1803C 196.141 202.0163 196.387 201.7933 196.586 201.5003C 196.773 201.1953 196.914 200.8323 197.031 200.4103C 197.148 199.9773 197.195 199.4023 197.195 198.6763C 197.195 197.8093 197.102 197.1173 196.926 196.5903C 196.75 196.0633 196.492 195.6523 196.141 195.3593C 195.789 195.0783 195.344 194.9383 194.805 194.9383C 194.102 194.9383 193.551 195.1843 193.152 195.6883C 192.672 196.3093 192.426 197.2933 192.426 198.6763zM187.645 198.6763C 187.645 197.4573 187.797 196.6603 188.066 196.2623C 188.359 195.8633 188.699 195.6643 189.109 195.6643C 189.52 195.6643 189.871 195.8753 190.152 196.2623C 190.434 196.6603 190.574 197.4693 190.574 198.6763C 190.574 199.8833 190.434 200.6803 190.152 201.0783C 189.883 201.4773 189.52 201.6763 189.098 201.6763C 188.699 201.6763 188.359 201.5003 188.113 201.1483C 187.797 200.7033 187.645 199.8833 187.645 198.6763zM186.73 198.6763C 186.73 199.5433 186.824 200.2343 186.988 200.7733C 187.176 201.3013 187.434 201.7113 187.797 201.9923C 188.137 202.2733 188.582 202.4143 189.109 202.4143C 189.508 202.4143 189.848 202.3323 190.152 202.1803C 190.445 202.0163 190.691 201.7933 190.891 201.5003C 191.078 201.1953 191.219 200.8323 191.336 200.4103C 191.453 199.9773 191.5 199.4023 191.5 198.6763C 191.5 197.8093 191.406 197.1173 191.23 196.5903C 191.055 196.0633 190.797 195.6523 190.445 195.3593C 190.094 195.0783 189.648 194.9383 189.109 194.9383C 188.406 194.9383 187.855 195.1843 187.457 195.6883C 186.977 196.3093 186.73 197.2933 186.73 198.6763zM181.031 196.9773L181.969 197.0473C 182.039 196.5903 182.203 196.2503 182.449 196.0163C 182.707 195.7813 183.012 195.6643 183.387 195.6643C 183.82 195.6643 184.184 195.8283 184.488 196.1563C 184.781 196.4843 184.934 196.9183 184.934 197.4573C 184.934 197.9733 184.781 198.3833 184.5 198.6763C 184.219 198.9813 183.844 199.1213 183.375 199.1213C 183.082 199.1213 182.824 199.0633 182.59 198.9223C 182.355 198.7933 182.18 198.6173 182.039 198.4063L182.039 198.4063L181.195 198.5233L181.195 198.5233L181.898 202.2973L181.898 202.2973L185.531 202.2973L185.531 202.2973L185.531 201.4303L185.531 201.4303L182.613 201.4303L182.613 201.4303L182.227 199.4613C 182.672 199.7663 183.129 199.9183 183.609 199.9183C 184.242 199.9183 184.781 199.6953 185.227 199.2503C 185.672 198.8163 185.883 198.2423 185.883 197.5393C 185.883 196.8833 185.684 196.3093 185.309 195.8283C 184.84 195.2313 184.195 194.9383 183.387 194.9383C 182.719 194.9383 182.18 195.1133 181.758 195.5003C 181.324 195.8633 181.09 196.3673 181.031 196.9773zM174.656 197.2583L174.656 198.1603L174.656 198.1603L177.445 198.1603L177.445 198.1603L177.445 197.2583zM167.137 198.6763C 167.137 197.4573 167.289 196.6603 167.559 196.2623C 167.852 195.8633 168.191 195.6643 168.602 195.6643C 169.012 195.6643 169.363 195.8753 169.645 196.2623C 169.926 196.6603 170.066 197.4693 170.066 198.6763C 170.066 199.8833 169.926 200.6803 169.645 201.0783C 169.375 201.4773 169.012 201.6763 168.59 201.6763C 168.191 201.6763 167.852 201.5003 167.605 201.1483C 167.289 200.7033 167.137 199.8833 167.137 198.6763zM166.223 198.6763C 166.223 199.5433 166.316 200.2343 166.48 200.7733C 166.668 201.3013 166.926 201.7113 167.289 201.9923C 167.629 202.2733 168.074 202.4143 168.602 202.4143C 169 202.4143 169.34 202.3323 169.645 202.1803C 169.938 202.0163 170.184 201.7933 170.383 201.5003C 170.57 201.1953 170.711 200.8323 170.828 200.4103C 170.945 199.9773 170.992 199.4023 170.992 198.6763C 170.992 197.8093 170.898 197.1173 170.723 196.5903C 170.547 196.0633 170.289 195.6523 169.938 195.3593C 169.586 195.0783 169.141 194.9383 168.602 194.9383C 167.898 194.9383 167.348 195.1843 166.949 195.6883C 166.469 196.3093 166.223 197.2933 166.223 198.6763zM161.438 198.6763C 161.438 197.4573 161.59 196.6603 161.859 196.2623C 162.152 195.8633 162.492 195.6643 162.902 195.6643C 163.313 195.6643 163.664 195.8753 163.945 196.2623C 164.227 196.6603 164.367 197.4693 164.367 198.6763C 164.367 199.8833 164.227 200.6803 163.945 201.0783C 163.676 201.4773 163.313 201.6763 162.891 201.6763C 162.492 201.6763 162.152 201.5003 161.906 201.1483C 161.59 200.7033 161.438 199.8833 161.438 198.6763zM160.523 198.6763C 160.523 199.5433 160.617 200.2343 160.781 200.7733C 160.969 201.3013 161.227 201.7113 161.59 201.9923C 161.93 202.2733 162.375 202.4143 162.902 202.4143C 163.301 202.4143 163.641 202.3323 163.945 202.1803C 164.238 202.0163 164.484 201.7933 164.684 201.5003C 164.871 201.1953 165.012 200.8323 165.129 200.4103C 165.246 199.9773 165.293 199.4023 165.293 198.6763C 165.293 197.8093 165.199 197.1173 165.023 196.5903C 164.848 196.0633 164.59 195.6523 164.238 195.3593C 163.887 195.0783 163.441 194.9383 162.902 194.9383C 162.199 194.9383 161.648 195.1843 161.25 195.6883C 160.77 196.3093 160.523 197.2933 160.523 198.6763zM154.828 197.0003L155.73 197.1293C 155.824 196.6133 156 196.2383 156.246 196.0163C 156.504 195.7933 156.797 195.6763 157.16 195.6763C 157.594 195.6763 157.945 195.8283 158.25 196.1213C 158.531 196.4143 158.672 196.7773 158.672 197.2113C 158.672 197.6213 158.543 197.9613 158.262 198.2423C 158.004 198.5123 157.664 198.6413 157.242 198.6413C 157.066 198.6413 156.855 198.6063 156.609 198.5353L156.609 198.5353L156.703 199.3203C 156.762 199.3203 156.809 199.3203 156.855 199.3203C 157.23 199.3203 157.582 199.4143 157.887 199.6133C 158.191 199.8133 158.344 200.1293 158.344 200.5393C 158.344 200.8673 158.238 201.1373 158.016 201.3593C 157.781 201.5823 157.5 201.6763 157.148 201.6763C 156.797 201.6763 156.504 201.5703 156.27 201.3593C 156.035 201.1253 155.895 200.7853 155.813 200.3523L155.813 200.3523L154.922 200.5163C 155.027 201.1133 155.273 201.5943 155.66 201.9223C 156.059 202.2503 156.551 202.4143 157.125 202.4143C 157.523 202.4143 157.898 202.3323 158.227 202.1683C 158.566 201.9923 158.824 201.7583 159 201.4653C 159.176 201.1723 159.27 200.8563 159.27 200.5163C 159.27 200.2113 159.188 199.9183 159.012 199.6483C 158.848 199.4023 158.59 199.1913 158.25 199.0393C 158.695 198.9343 159.035 198.7343 159.27 198.4183C 159.504 198.1023 159.633 197.7033 159.633 197.2233C 159.633 196.5903 159.398 196.0513 158.93 195.5943C 158.461 195.1603 157.863 194.9383 157.16 194.9383C 156.516 194.9383 155.977 195.1253 155.555 195.5003C 155.133 195.8983 154.887 196.3913 154.828 197.0003z" stroke="none" fill="#EF3221" fill-rule="nonzero" />
		</g>
	</g>
</g>
</svg>