<?xml version="1.0" standalone="no"?>
<!DOCTYPE svg PUBLIC "-//W3C//DTD SVG 1.0//EN" "http://www.w3.org/TR/2001/REC-SVG-20010904/DTD/svg10.dtd">
<svg xmlns="http://www.w3.org/2000/svg" xmlns:xlink="http://www.w3.org/1999/xlink" id="body_1" width="297" height="372">

<defs>
    <clipPath  id="1">

    <path id=""  clip-rule="evenodd" transform="matrix(1 0 0 1 0 0)"  d="M0 279L0 -0.9606934L0 -0.9606934L223.7855 -0.9606934L223.7855 -0.9606934L223.7855 279L223.7855 279L0 279z" />    </clipPath>
    <clipPath  id="2">

    <path id=""  clip-rule="evenodd" transform="matrix(1 0 0 1 0 0)"  d="M0 -0.9606934L224 -0.9606934L224 -0.9606934L224 279.0393L224 279.0393L0 279.0393z" />    </clipPath>
    <clipPath  id="3">

    <path id=""  clip-rule="evenodd" transform="matrix(1 0 0 1 0 0)"  d="M0 -0.9606934L224 -0.9606934L224 -0.9606934L224 279.0393L224 279.0393L0 279.0393z" />    </clipPath>
    <clipPath  id="4">

    <path id=""  clip-rule="evenodd" transform="matrix(1 0 0 1 0 0)"  d="M0 -0.9606934L224 -0.9606934L224 -0.9606934L224 279.0393L224 279.0393L0 279.0393z" />    </clipPath>
    <clipPath  id="5">

    <path id=""  clip-rule="evenodd" transform="matrix(1 0 0 1 0 0)"  d="M0 -0.9606934L224 -0.9606934L224 -0.9606934L224 279.0393L224 279.0393L0 279.0393z" />    </clipPath>
    <clipPath  id="6">

    <path id=""  clip-rule="evenodd" transform="matrix(1 0 0 1 0 0)"  d="M0 -0.9606934L224 -0.9606934L224 -0.9606934L224 279.0393L224 279.0393L0 279.0393z" />    </clipPath>
    <clipPath  id="7">

    <path id=""  clip-rule="evenodd" transform="matrix(1 0 0 1 0 0)"  d="M0 -0.9606934L224 -0.9606934L224 -0.9606934L224 279.0393L224 279.0393L0 279.0393z" />    </clipPath>
    <clipPath  id="8">

    <path id=""  clip-rule="evenodd" transform="matrix(1 0 0 1 0 0)"  d="M0 -0.9606934L224 -0.9606934L224 -0.9606934L224 279.0393L224 279.0393L0 279.0393z" />    </clipPath>
    <clipPath  id="9">

    <path id=""  clip-rule="evenodd" transform="matrix(1 0 0 1 0 0)"  d="M0 -0.9606934L224 -0.9606934L224 -0.9606934L224 279.0393L224 279.0393L0 279.0393z" />    </clipPath>
    <clipPath  id="10">

    <path id=""  clip-rule="evenodd" transform="matrix(1 0 0 1 0 0)"  d="M0 -0.9606934L224 -0.9606934L224 -0.9606934L224 279.0393L224 279.0393L0 279.0393z" />    </clipPath>
    <clipPath  id="11">

    <path id=""  clip-rule="evenodd" transform="matrix(1 0 0 1 0 0)"  d="M0 -0.9606934L224 -0.9606934L224 -0.9606934L224 279.0393L224 279.0393L0 279.0393z" />    </clipPath>
    <clipPath  id="12">

    <path id=""  clip-rule="evenodd" transform="matrix(1 0 0 1 0 0)"  d="M0 -0.9606934L224 -0.9606934L224 -0.9606934L224 279.0393L224 279.0393L0 279.0393z" />    </clipPath>
    <clipPath  id="13">

    <path id=""  clip-rule="evenodd" transform="matrix(1 0 0 1 0 0)"  d="M0 -0.9606934L224 -0.9606934L224 -0.9606934L224 279.0393L224 279.0393L0 279.0393z" />    </clipPath>
    <clipPath  id="14">

    <path id=""  clip-rule="evenodd" transform="matrix(1 0 0 1 0 0)"  d="M0 -0.9606934L224 -0.9606934L224 -0.9606934L224 279.0393L224 279.0393L0 279.0393z" />    </clipPath>
    <clipPath  id="15">

    <path id=""  clip-rule="evenodd" transform="matrix(1 0 0 1 0 0)"  d="M0 -0.9606934L224 -0.9606934L224 -0.9606934L224 279.0393L224 279.0393L0 279.0393z" />    </clipPath>
    <clipPath  id="16">

    <path id=""  clip-rule="evenodd" transform="matrix(1 0 0 1 0 0)"  d="M0 -0.9606934L224 -0.9606934L224 -0.9606934L224 279.0393L224 279.0393L0 279.0393z" />    </clipPath>
    <clipPath  id="17">

    <path id=""  clip-rule="evenodd" transform="matrix(1 0 0 1 0 0)"  d="M0 -0.9606934L224 -0.9606934L224 -0.9606934L224 279.0393L224 279.0393L0 279.0393z" />    </clipPath>
    <clipPath  id="18">

    <path id=""  clip-rule="evenodd" transform="matrix(1 0 0 1 0 0)"  d="M0 -0.9606934L224 -0.9606934L224 -0.9606934L224 279.0393L224 279.0393L0 279.0393z" />    </clipPath>
    <clipPath  id="19">

    <path id=""  clip-rule="evenodd" transform="matrix(1 0 0 1 0 0)"  d="M0 -0.9606934L224 -0.9606934L224 -0.9606934L224 279.0393L224 279.0393L0 279.0393z" />    </clipPath>
    <clipPath  id="20">

    <path id=""  clip-rule="evenodd" transform="matrix(1 0 0 1 0 0)"  d="M0 -0.9606934L224 -0.9606934L224 -0.9606934L224 279.0393L224 279.0393L0 279.0393z" />    </clipPath>
    <clipPath  id="21">

    <path id=""  clip-rule="evenodd" transform="matrix(1 0 0 1 0 0)"  d="M0 -0.9606934L224 -0.9606934L224 -0.9606934L224 279.0393L224 279.0393L0 279.0393z" />    </clipPath>
    <clipPath  id="22">

    <path id=""  clip-rule="evenodd" transform="matrix(1 0 0 1 0 0)"  d="M0 -0.9606934L224 -0.9606934L224 -0.9606934L224 279.0393L224 279.0393L0 279.0393z" />    </clipPath>
    <clipPath  id="23">

    <path id=""  clip-rule="evenodd" transform="matrix(1 0 0 1 0 0)"  d="M0 -0.9606934L224 -0.9606934L224 -0.9606934L224 279.0393L224 279.0393L0 279.0393z" />    </clipPath>
    <clipPath  id="24">

    <path id=""  clip-rule="evenodd" transform="matrix(1 0 0 1 0 0)"  d="M0 -0.9606934L224 -0.9606934L224 -0.9606934L224 279.0393L224 279.0393L0 279.0393z" />    </clipPath>
    <clipPath  id="25">

    <path id=""  clip-rule="evenodd" transform="matrix(1 0 0 1 0 0)"  d="M0 -0.9606934L224 -0.9606934L224 -0.9606934L224 279.0393L224 279.0393L0 279.0393z" />    </clipPath>
    <clipPath  id="26">

    <path id=""  clip-rule="evenodd" transform="matrix(1 0 0 1 0 0)"  d="M0 -0.9606934L224 -0.9606934L224 -0.9606934L224 279.0393L224 279.0393L0 279.0393z" />    </clipPath>
    <clipPath  id="27">

    <path id=""  clip-rule="evenodd" transform="matrix(1 0 0 1 0 0)"  d="M0 -0.9606934L224 -0.9606934L224 -0.9606934L224 279.0393L224 279.0393L0 279.0393z" />    </clipPath>
    <clipPath  id="28">

    <path id=""  clip-rule="evenodd" transform="matrix(1 0 0 1 0 0)"  d="M0 -0.9606934L224 -0.9606934L224 -0.9606934L224 279.0393L224 279.0393L0 279.0393z" />    </clipPath>
    <clipPath  id="29">

    <path id=""  clip-rule="evenodd" transform="matrix(1 0 0 1 0 0)"  d="M0 -0.9606934L224 -0.9606934L224 -0.9606934L224 279.0393L224 279.0393L0 279.0393z" />    </clipPath>
    <clipPath  id="30">

    <path id=""  clip-rule="evenodd" transform="matrix(1 0 0 1 0 0)"  d="M0 -0.9606934L224 -0.9606934L224 -0.9606934L224 279.0393L224 279.0393L0 279.0393z" />    </clipPath>
    <clipPath  id="31">

    <path id=""  clip-rule="evenodd" transform="matrix(1 0 0 1 0 0)"  d="M0 -0.9606934L224 -0.9606934L224 -0.9606934L224 279.0393L224 279.0393L0 279.0393z" />    </clipPath>
    <clipPath  id="32">

    <path id=""  clip-rule="evenodd" transform="matrix(1 0 0 1 0 0)"  d="M0 -0.9606934L224 -0.9606934L224 -0.9606934L224 279.0393L224 279.0393L0 279.0393z" />    </clipPath>
    <clipPath  id="33">

    <path id=""  clip-rule="evenodd" transform="matrix(1 0 0 1 0 0)"  d="M0 -0.9606934L224 -0.9606934L224 -0.9606934L224 279.0393L224 279.0393L0 279.0393z" />    </clipPath>
    <clipPath  id="34">

    <path id=""  clip-rule="evenodd" transform="matrix(1 0 0 1 0 0)"  d="M0 -0.9606934L224 -0.9606934L224 -0.9606934L224 279.0393L224 279.0393L0 279.0393z" />    </clipPath>
    <clipPath  id="35">

    <path id=""  clip-rule="evenodd" transform="matrix(1 0 0 1 0 0)"  d="M0 -0.9606934L224 -0.9606934L224 -0.9606934L224 279.0393L224 279.0393L0 279.0393z" />    </clipPath>
    <clipPath  id="36">

    <path id=""  clip-rule="evenodd" transform="matrix(1 0 0 1 0 0)"  d="M0 -0.9606934L224 -0.9606934L224 -0.9606934L224 279.0393L224 279.0393L0 279.0393z" />    </clipPath>
    <clipPath  id="37">

    <path id=""  clip-rule="evenodd" transform="matrix(1 0 0 1 0 0)"  d="M0 -0.9606934L224 -0.9606934L224 -0.9606934L224 279.0393L224 279.0393L0 279.0393z" />    </clipPath>
    <clipPath  id="38">

    <path id=""  clip-rule="evenodd" transform="matrix(1 0 0 1 0 0)"  d="M0 -0.9606934L224 -0.9606934L224 -0.9606934L224 279.0393L224 279.0393L0 279.0393z" />    </clipPath>
    <clipPath  id="39">

    <path id=""  clip-rule="evenodd" transform="matrix(1 0 0 1 0 0)"  d="M0 -0.9606934L224 -0.9606934L224 -0.9606934L224 279.0393L224 279.0393L0 279.0393z" />    </clipPath>
    <clipPath  id="40">

    <path id=""  clip-rule="evenodd" transform="matrix(1 0 0 1 0 0)"  d="M0 -0.9606934L224 -0.9606934L224 -0.9606934L224 279.0393L224 279.0393L0 279.0393z" />    </clipPath>
    <clipPath  id="41">

    <path id=""  clip-rule="evenodd" transform="matrix(1 0 0 1 0 0)"  d="M0 -0.9606934L224 -0.9606934L224 -0.9606934L224 279.0393L224 279.0393L0 279.0393z" />    </clipPath>
    <clipPath  id="42">

    <path id=""  clip-rule="evenodd" transform="matrix(1 0 0 1 0 0)"  d="M0 -0.9606934L224 -0.9606934L224 -0.9606934L224 279.0393L224 279.0393L0 279.0393z" />    </clipPath>
    <clipPath  id="43">

    <path id=""  clip-rule="evenodd" transform="matrix(1 0 0 1 0 0)"  d="M0 -0.9606934L224 -0.9606934L224 -0.9606934L224 279.0393L224 279.0393L0 279.0393z" />    </clipPath>
    <clipPath  id="44">

    <path id=""  clip-rule="evenodd" transform="matrix(1 0 0 1 0 0)"  d="M0 -0.9606934L224 -0.9606934L224 -0.9606934L224 279.0393L224 279.0393L0 279.0393z" />    </clipPath>
    <clipPath  id="45">

    <path id=""  clip-rule="evenodd" transform="matrix(1 0 0 1 0 0)"  d="M0 -0.9606934L224 -0.9606934L224 -0.9606934L224 279.0393L224 279.0393L0 279.0393z" />    </clipPath>
    <clipPath  id="46">

    <path id=""  clip-rule="evenodd" transform="matrix(1 0 0 1 0 0)"  d="M0 -0.9606934L224 -0.9606934L224 -0.9606934L224 279.0393L224 279.0393L0 279.0393z" />    </clipPath>
    <clipPath  id="47">

    <path id=""  clip-rule="evenodd" transform="matrix(1 0 0 1 0 0)"  d="M0 -0.9606934L224 -0.9606934L224 -0.9606934L224 279.0393L224 279.0393L0 279.0393z" />    </clipPath>
    <clipPath  id="48">

    <path id=""  clip-rule="evenodd" transform="matrix(1 0 0 1 0 0)"  d="M0 -0.9606934L224 -0.9606934L224 -0.9606934L224 279.0393L224 279.0393L0 279.0393z" />    </clipPath>
    <clipPath  id="49">

    <path id=""  clip-rule="evenodd" transform="matrix(1 0 0 1 0 0)"  d="M0 -0.9606934L224 -0.9606934L224 -0.9606934L224 279.0393L224 279.0393L0 279.0393z" />    </clipPath>
    <clipPath  id="50">

    <path id=""  clip-rule="evenodd" transform="matrix(1 0 0 1 0 0)"  d="M0 -0.9606934L224 -0.9606934L224 -0.9606934L224 279.0393L224 279.0393L0 279.0393z" />    </clipPath>
    <clipPath  id="51">

    <path id=""  clip-rule="evenodd" transform="matrix(1 0 0 1 0 0)"  d="M0 -0.9606934L224 -0.9606934L224 -0.9606934L224 279.0393L224 279.0393L0 279.0393z" />    </clipPath>
    <clipPath  id="52">

    <path id=""  clip-rule="evenodd" transform="matrix(1 0 0 1 0 0)"  d="M0 -0.9606934L224 -0.9606934L224 -0.9606934L224 279.0393L224 279.0393L0 279.0393z" />    </clipPath>
    <clipPath  id="53">

    <path id=""  clip-rule="evenodd" transform="matrix(1 0 0 1 0 0)"  d="M0 -0.9606934L224 -0.9606934L224 -0.9606934L224 279.0393L224 279.0393L0 279.0393z" />    </clipPath>
    <clipPath  id="54">

    <path id=""  clip-rule="evenodd" transform="matrix(1 0 0 1 0 0)"  d="M0 -0.9606934L224 -0.9606934L224 -0.9606934L224 279.0393L224 279.0393L0 279.0393z" />    </clipPath>
    <clipPath  id="55">

    <path id=""  clip-rule="evenodd" transform="matrix(1 0 0 1 0 0)"  d="M0 -0.9606934L224 -0.9606934L224 -0.9606934L224 279.0393L224 279.0393L0 279.0393z" />    </clipPath>
    <clipPath  id="56">

    <path id=""  clip-rule="evenodd" transform="matrix(1 0 0 1 0 0)"  d="M0 -0.9606934L224 -0.9606934L224 -0.9606934L224 279.0393L224 279.0393L0 279.0393z" />    </clipPath>
    <clipPath  id="57">

    <path id=""  clip-rule="evenodd" transform="matrix(1 0 0 1 0 0)"  d="M0 -0.9606934L224 -0.9606934L224 -0.9606934L224 279.0393L224 279.0393L0 279.0393z" />    </clipPath>
    <clipPath  id="58">

    <path id=""  clip-rule="evenodd" transform="matrix(1 0 0 1 0 0)"  d="M0 -0.9606934L224 -0.9606934L224 -0.9606934L224 279.0393L224 279.0393L0 279.0393z" />    </clipPath>
    <clipPath  id="59">

    <path id=""  clip-rule="evenodd" transform="matrix(1 0 0 1 0 0)"  d="M0 -0.9606934L224 -0.9606934L224 -0.9606934L224 279.0393L224 279.0393L0 279.0393z" />    </clipPath>
    <clipPath  id="60">

    <path id=""  clip-rule="evenodd" transform="matrix(1 0 0 1 0 0)"  d="M0 -0.9606934L224 -0.9606934L224 -0.9606934L224 279.0393L224 279.0393L0 279.0393z" />    </clipPath>
    <clipPath  id="61">

    <path id=""  clip-rule="evenodd" transform="matrix(1 0 0 1 0 0)"  d="M0 -0.9606934L224 -0.9606934L224 -0.9606934L224 279.0393L224 279.0393L0 279.0393z" />    </clipPath>
    <clipPath  id="62">

    <path id=""  clip-rule="evenodd" transform="matrix(1 0 0 1 0 0)"  d="M0 -0.9606934L224 -0.9606934L224 -0.9606934L224 279.0393L224 279.0393L0 279.0393z" />    </clipPath>
    <clipPath  id="63">

    <path id=""  clip-rule="evenodd" transform="matrix(1 0 0 1 0 0)"  d="M0 -0.9606934L224 -0.9606934L224 -0.9606934L224 279.0393L224 279.0393L0 279.0393z" />    </clipPath>
    <clipPath  id="64">

    <path id=""  clip-rule="evenodd" transform="matrix(1 0 0 1 0 0)"  d="M0 -0.9606934L224 -0.9606934L224 -0.9606934L224 279.0393L224 279.0393L0 279.0393z" />    </clipPath>
    <clipPath  id="65">

    <path id=""  clip-rule="evenodd" transform="matrix(1 0 0 1 0 0)"  d="M0 -0.9606934L224 -0.9606934L224 -0.9606934L224 279.0393L224 279.0393L0 279.0393z" />    </clipPath>
    <clipPath  id="66">

    <path id=""  clip-rule="evenodd" transform="matrix(1 0 0 1 0 0)"  d="M0 -0.9606934L224 -0.9606934L224 -0.9606934L224 279.0393L224 279.0393L0 279.0393z" />    </clipPath>
    <clipPath  id="67">

    <path id=""  clip-rule="evenodd" transform="matrix(1 0 0 1 0 0)"  d="M0 -0.9606934L224 -0.9606934L224 -0.9606934L224 279.0393L224 279.0393L0 279.0393z" />    </clipPath>
    <clipPath  id="68">

    <path id=""  clip-rule="evenodd" transform="matrix(1 0 0 1 0 0)"  d="M0 -0.9606934L224 -0.9606934L224 -0.9606934L224 279.0393L224 279.0393L0 279.0393z" />    </clipPath>
    <clipPath  id="69">

    <path id=""  clip-rule="evenodd" transform="matrix(1 0 0 1 0 0)"  d="M0 -0.9606934L224 -0.9606934L224 -0.9606934L224 279.0393L224 279.0393L0 279.0393z" />    </clipPath>
    <clipPath  id="70">

    <path id=""  clip-rule="evenodd" transform="matrix(1 0 0 1 0 0)"  d="M0 -0.9606934L224 -0.9606934L224 -0.9606934L224 279.0393L224 279.0393L0 279.0393z" />    </clipPath>
    <clipPath  id="71">

    <path id=""  clip-rule="evenodd" transform="matrix(1 0 0 1 0 0)"  d="M0 -0.9606934L224 -0.9606934L224 -0.9606934L224 279.0393L224 279.0393L0 279.0393z" />    </clipPath>
    <clipPath  id="72">

    <path id=""  clip-rule="evenodd" transform="matrix(1 0 0 1 0 0)"  d="M0 -0.9606934L224 -0.9606934L224 -0.9606934L224 279.0393L224 279.0393L0 279.0393z" />    </clipPath>
    <clipPath  id="73">

    <path id=""  clip-rule="evenodd" transform="matrix(1 0 0 1 0 0)"  d="M0 -0.9606934L224 -0.9606934L224 -0.9606934L224 279.0393L224 279.0393L0 279.0393z" />    </clipPath>
    <clipPath  id="74">

    <path id=""  clip-rule="evenodd" transform="matrix(1 0 0 1 0 0)"  d="M0 -0.9606934L224 -0.9606934L224 -0.9606934L224 279.0393L224 279.0393L0 279.0393z" />    </clipPath>
    <clipPath  id="75">

    <path id=""  clip-rule="evenodd" transform="matrix(1 0 0 1 0 0)"  d="M0 -0.9606934L224 -0.9606934L224 -0.9606934L224 279.0393L224 279.0393L0 279.0393z" />    </clipPath>
    <clipPath  id="76">

    <path id=""  clip-rule="evenodd" transform="matrix(1 0 0 1 0 0)"  d="M0 -0.9606934L224 -0.9606934L224 -0.9606934L224 279.0393L224 279.0393L0 279.0393z" />    </clipPath>
    <clipPath  id="77">

    <path id=""  clip-rule="evenodd" transform="matrix(1 0 0 1 0 0)"  d="M0 -0.9606934L224 -0.9606934L224 -0.9606934L224 279.0393L224 279.0393L0 279.0393z" />    </clipPath>
    <clipPath  id="78">

    <path id=""  clip-rule="evenodd" transform="matrix(1 0 0 1 0 0)"  d="M0 -0.9606934L224 -0.9606934L224 -0.9606934L224 279.0393L224 279.0393L0 279.0393z" />    </clipPath>
</defs>

<g transform="matrix(1.3333 0 0 1.3333 0 0)">
	<g clip-path="url(#1)" >
		<g clip-path="url(#2)" >
    <path id=""  transform="matrix(1 0 0 -1 0 279)"  d="M116.758 279.9607L116.754 143.3747L116.754 143.3747L116.754 143.3707L116.754 143.3707L116.746 -0.0003051758M223.684 143.0507L116.754 143.3707L116.754 143.3707L116.75 143.3707L116.75 143.3707L0.102 143.7227" stroke="#231F20" stroke-width="68.26624" stroke-linejoin="miter" fill="none" />
		</g>
		<g clip-path="url(#3)" >
    <path id=""  transform="matrix(1 0 0 -1 0 279)"  d="M116.758 279.9607L116.754 143.3747L116.754 143.3747L116.754 143.3707L116.754 143.3707L116.746 -0.0003051758M223.684 143.0507L116.754 143.3707L116.754 143.3707L116.75 143.3707L116.75 143.3707L0.102 143.7227" stroke="#FFFFFF" stroke-width="62.45627" stroke-linejoin="miter" fill="none" />
		</g>
		<g clip-path="url(#4)" >
    <path id=""  transform="matrix(1 0 0 -1 0 279)"  d="M116.758 279.9607L116.754 143.3747L116.754 143.3747L116.754 143.3707L116.754 143.3707L116.746 -0.0003051758M223.684 143.0507L116.754 143.3707L116.754 143.3707L116.75 143.3707L116.75 143.3707L0.102 143.7227" stroke="#231F20" stroke-width="59.55148" stroke-linejoin="miter" fill="none" />
		</g>
		<g clip-path="url(#5)" >
    <path id=""  transform="matrix(1 0 0 -1 0 279)"  d="M116.758 279.9607L116.754 172.1477M0.102 143.7227L85.426 143.4687C 106.121 142.3787 115.539 131.7727 116.75 114.3477L116.75 114.3477L116.746 -0.0003051758M223.684 143.0507L149.781 143.2727" stroke="#FFFFFF" stroke-width="1.452473" stroke-linejoin="miter" stroke-dasharray="9.99999713897705,9.99999713897705" fill="none" />
		</g>
		<g clip-path="url(#6)" >
    <path id=""  transform="matrix(1 0 0 -1 0 279)"  d="M151.313 112.0347C 150.355 112.1127 149.48 111.7657 148.871 111.1557C 148.215 110.4957 147.922 109.6017 147.988 108.7147C 147.516 108.7027 147.043 108.6907 146.566 108.6757C 146.469 109.9527 146.887 111.2417 147.836 112.1907C 148.715 113.0657 149.973 113.5657 151.348 113.4607C 151.336 112.9837 151.348 113.4607 151.313 112.0347" stroke="none" fill="#FFFFFF" fill-rule="nonzero" />
		</g>
		<g clip-path="url(#7)" >
    <path id=""  transform="matrix(1 0 0 -1 0 279)"  d="M151.117 113.4957C 149.793 113.6017 148.582 113.1207 147.734 112.2727C 146.824 111.3627 146.418 110.1207 146.516 108.8947C 145.859 108.8787 145.199 108.8587 144.543 108.8437C 144.406 110.6087 144.988 112.3977 146.301 113.7107C 147.516 114.9257 149.262 115.6167 151.168 115.4687C 151.152 114.8127 151.168 115.4687 151.117 113.4957" stroke="none" fill="#231F20" fill-rule="nonzero" />
		</g>
		<g clip-path="url(#8)" >
    <path id=""  transform="matrix(1 0 0 -1 0 279)"  d="M151.117 113.4957C 149.793 113.6017 148.582 113.1207 147.734 112.2727C 146.824 111.3627 146.418 110.1207 146.516 108.8947C 145.859 108.8787 145.199 108.8587 144.543 108.8437C 144.406 110.6087 144.988 112.3977 146.301 113.7107C 147.516 114.9257 149.262 115.6167 151.168 115.4687C 151.152 114.8127 151.168 115.4687 151.117 113.4957" stroke="none" fill="#231F20" fill-rule="nonzero" />
		</g>
		<g clip-path="url(#9)" >
    <path id=""  transform="matrix(1 0 0 -1 0 279)"  d="M147.953 177.7967C 147.879 176.8397 148.227 175.9647 148.836 175.3557C 149.496 174.6987 150.391 174.4057 151.277 174.4727C 151.289 173.9997 151.301 173.5267 151.313 173.0507C 150.039 172.9527 148.746 173.3707 147.801 174.3197C 146.922 175.1987 146.422 176.4567 146.531 177.8317C 147.004 177.8197 146.531 177.8317 147.953 177.7967" stroke="none" fill="#FFFFFF" fill-rule="nonzero" />
		</g>
		<g clip-path="url(#10)" >
    <path id=""  transform="matrix(1 0 0 -1 0 279)"  d="M146.496 177.6017C 146.391 176.2767 146.871 175.0657 147.715 174.2187C 148.629 173.3087 149.871 172.9017 151.098 172.9997C 151.113 172.3437 151.129 171.6837 151.148 171.0267C 149.383 170.8907 147.594 171.4727 146.281 172.7847C 145.066 173.9997 144.375 175.7457 144.523 177.6517C 145.18 177.6367 144.523 177.6517 146.496 177.6017" stroke="none" fill="#231F20" fill-rule="nonzero" />
		</g>
		<g clip-path="url(#11)" >
    <path id=""  transform="matrix(1 0 0 -1 0 279)"  d="M82.219 174.6877C 83.176 174.6127 84.051 174.9567 84.66 175.5657C 85.316 176.2267 85.609 177.1247 85.543 178.0077C 86.016 178.0197 86.488 178.0307 86.965 178.0467C 87.066 176.7697 86.645 175.4807 85.695 174.5307C 84.816 173.6557 83.559 173.1557 82.184 173.2617C 82.195 173.7377 82.184 173.2617 82.219 174.6877" stroke="none" fill="#FFFFFF" fill-rule="nonzero" />
		</g>
		<g clip-path="url(#12)" >
    <path id=""  transform="matrix(1 0 0 -1 0 279)"  d="M82.414 173.2267C 83.738 173.1207 84.949 173.6057 85.797 174.4487C 86.707 175.3587 87.113 176.6017 87.016 177.8277C 87.672 177.8437 88.332 177.8627 88.988 177.8787C 89.125 176.1127 88.543 174.3237 87.23 173.0117C 86.016 171.7967 84.27 171.1057 82.363 171.2537C 82.379 171.9137 82.363 171.2537 82.414 173.2267" stroke="none" fill="#231F20" fill-rule="nonzero" />
		</g>
		<g clip-path="url(#13)" >
    <path id=""  transform="matrix(1 0 0 -1 0 279)"  d="M85.539 108.9217C 85.613 109.8747 85.266 110.7497 84.656 111.3587C 84 112.0197 83.102 112.3127 82.215 112.2417C 82.203 112.7147 82.191 113.1907 82.18 113.6637C 83.453 113.7657 84.746 113.3437 85.691 112.3947C 86.57 111.5197 87.07 110.2577 86.961 108.8827C 86.488 108.8947 86.961 108.8827 85.539 108.9217" stroke="none" fill="#FFFFFF" fill-rule="nonzero" />
		</g>
		<g clip-path="url(#14)" >
    <path id=""  transform="matrix(1 0 0 -1 0 279)"  d="M86.996 109.1167C 87.102 110.4407 86.621 111.6517 85.777 112.4957C 84.863 113.4057 83.621 113.8127 82.395 113.7187C 82.379 114.3747 82.363 115.0307 82.344 115.6877C 84.109 115.8277 85.898 115.2417 87.211 113.9297C 88.426 112.7147 89.117 110.9687 88.969 109.0627C 88.313 109.0817 88.969 109.0627 86.996 109.1167" stroke="none" fill="#231F20" fill-rule="nonzero" />
		</g>
		<g clip-path="url(#15)" >
    <path id=""  transform="matrix(1 0 0 -1 0 279)"  d="M147.98 174.3197L147.844 142.3667" stroke="#FFFFFF" stroke-width="2.904949" stroke-linejoin="miter" fill="none" />
		</g>
		<g clip-path="url(#16)" >
    <path id=""  transform="matrix(1 0 0 -1 0 279)"  d="M147.262 176.7377L147.25 173.9527" stroke="#FFFFFF" stroke-width="1.452473" stroke-linejoin="miter" fill="none" />
		</g>
		<g clip-path="url(#17)" >
    <path id=""  transform="matrix(1 0 0 -1 0 279)"  d="M117.504 174.5547L85.07 174.6907" stroke="#FFFFFF" stroke-width="2.904949" stroke-linejoin="miter" fill="none" />
		</g>
		<g clip-path="url(#18)" >
    <path id=""  transform="matrix(1 0 0 -1 0 279)"  d="M85.898 173.9647L83.109 173.9727" stroke="#FFFFFF" stroke-width="1.452473" stroke-linejoin="miter" fill="none" />
		</g>
		<g clip-path="url(#19)" >
    <path id=""  transform="matrix(1 0 0 -1 0 279)"  d="M86.813 173.9567C 126.043 172.4017 145.633 149.5387 147.27 113.0697" stroke="#FFFFFF" stroke-width="1.452473" stroke-linejoin="miter" stroke-dasharray="9.99999713897705,9.99999713897705" fill="none" />
		</g>
		<g clip-path="url(#20)" >
    <path id=""  transform="matrix(1 0 0 -1 0 279)"  d="M133.133 55.6017C 133.133 55.6017 133.445 75.79269 133.57 78.21069C 133.629 80.7027 132.418 81.58569 131.914 81.58569C 131.863 80.9917 131.914 74.7887 131.914 74.7887L131.914 74.7887L129.359 82.98369L129.359 82.98369L131.914 93.59369L131.914 93.59369L131.969 85.33969C 131.969 85.33969 133.555 85.42569 134.461 82.4807C 135.238 80.6597 134.672 64.52269 135.164 55.6017L135.164 55.6017L133.133 55.6017" stroke="none" fill="#FFFFFF" fill-rule="nonzero" />
		</g>
		<g clip-path="url(#21)" >
    <path id=""  transform="matrix(1 0 0 -1 0 279)"  d="M133.133 55.6017C 133.133 55.6017 133.445 75.79269 133.57 78.21069C 133.629 80.7027 132.418 81.58569 131.914 81.58569C 131.863 80.9917 131.914 74.7887 131.914 74.7887L131.914 74.7887L129.359 82.98369L129.359 82.98369L131.914 93.59369L131.914 93.59369L131.969 85.33969C 131.969 85.33969 133.555 85.42569 134.461 82.4807C 135.238 80.6597 134.672 64.52269 135.164 55.6017z" stroke="#000000" stroke-width="0.0576485" stroke-linejoin="miter" fill="none" />
		</g>
		<g clip-path="url(#22)" >
    <path id=""  transform="matrix(1 0 0 -1 0 279)"  d="M131.117 93.59369L79.68 93.59369" stroke="#ED1C24" stroke-width="0.145247" stroke-linejoin="miter" fill="none" />
		</g>
		<g clip-path="url(#23)" >
    <path id=""  transform="matrix(1 0 0 -1 0 279)"  d="M147.551 110.7187L79.68 110.7187" stroke="#ED1C24" stroke-width="0.145247" stroke-linejoin="miter" fill="none" />
		</g>
		<g clip-path="url(#24)" >
    <path id=""  transform="matrix(1 0 0 -1 0 279)"  d="M80.477 109.9567L80.477 94.3557" stroke="#ED1C24" stroke-width="0.145247" stroke-linejoin="miter" fill="none" />
		</g>
		<g clip-path="url(#25)" >
    <path id=""  transform="matrix(1 0 0 -1 0 279)"  d="M80.07 109.1947L80.477 110.7187L80.477 110.7187L80.887 109.1947L80.887 109.1947L80.07 109.1947" stroke="none" fill="#ED1C24" fill-rule="evenodd" />
		</g>
		<g clip-path="url(#26)" >
    <path id=""  transform="matrix(1 0 0 -1 0 279)"  d="M80.07 95.1167L80.477 93.59369L80.477 93.59369L80.887 95.1167L80.887 95.1167L80.07 95.1167" stroke="none" fill="#ED1C24" fill-rule="evenodd" />
		</g>
		<g clip-path="url(#27)" >
    <path id=""  transform="matrix(1 0 0 -1 0 279)"  d="M80.477 77.51169L80.477 93.59369" stroke="#ED1C24" stroke-width="0.145247" stroke-linejoin="miter" fill="none" />
		</g>
		<g clip-path="url(#28)" >
    <path id=""  transform="matrix(1 0 0 -1 0 279)"  d="M73.488 84.25769C 73.488 83.0387 73.641 82.2417 73.91 81.84369C 74.203 81.44469 74.543 81.2457 74.953 81.2457C 75.363 81.2457 75.715 81.4567 75.996 81.84369C 76.277 82.2417 76.418 83.05069 76.418 84.25769C 76.418 85.46469 76.277 86.26169 75.996 86.6597C 75.727 87.0587 75.363 87.25769 74.941 87.25769C 74.543 87.25769 74.203 87.0817 73.957 86.7307C 73.641 86.2847 73.488 85.46469 73.488 84.25769zM72.574 84.25769C 72.574 85.12469 72.668 85.81569 72.832 86.3557C 73.02 86.88269 73.277 87.29269 73.641 87.5737C 73.98 87.8557 74.426 87.9957 74.953 87.9957C 75.352 87.9957 75.691 87.9137 75.996 87.76169C 76.289 87.59769 76.535 87.37469 76.734 87.0817C 76.922 86.77669 77.063 86.4137 77.18 85.9917C 77.297 85.5587 77.344 84.98369 77.344 84.25769C 77.344 83.39069 77.25 82.6987 77.074 82.17169C 76.898 81.6447 76.641 81.23369 76.289 80.94069C 75.938 80.6597 75.492 80.5197 74.953 80.5197C 74.25 80.5197 73.699 80.76569 73.301 81.2697C 72.82 81.89069 72.574 82.87469 72.574 84.25769zM66.875 82.5587L67.813 82.62869C 67.883 82.17169 68.047 81.8317 68.293 81.59769C 68.551 81.36269 68.855 81.2457 69.23 81.2457C 69.664 81.2457 70.027 81.4097 70.332 81.73769C 70.625 82.06569 70.777 82.49969 70.777 83.0387C 70.777 83.55469 70.625 83.96469 70.344 84.25769C 70.063 84.5627 69.688 84.7027 69.219 84.7027C 68.926 84.7027 68.668 84.6447 68.434 84.50369C 68.199 84.37469 68.023 84.1987 67.883 83.98769L67.883 83.98769L67.039 84.1057L67.039 84.1057L67.742 87.87869L67.742 87.87869L71.375 87.87869L71.375 87.87869L71.375 87.01169L71.375 87.01169L68.457 87.01169L68.457 87.01169L68.07 85.04269C 68.516 85.34769 68.973 85.49969 69.453 85.49969C 70.086 85.49969 70.625 85.27669 71.07 84.8317C 71.516 84.39769 71.727 83.8237 71.727 83.1207C 71.727 82.46469 71.527 81.89069 71.152 81.4097C 70.684 80.8127 70.039 80.5197 69.23 80.5197C 68.563 80.5197 68.023 80.69469 67.602 81.0817C 67.168 81.44469 66.934 81.9487 66.875 82.5587zM65.902 81.4917L65.902 80.63669L65.902 80.63669L61.039 80.63669C 61.027 80.84769 61.074 81.06969 61.145 81.25769C 61.273 81.58569 61.473 81.9137 61.754 82.2307C 62.023 82.5587 62.41 82.9337 62.926 83.34369C 63.711 83.99969 64.262 84.51569 64.543 84.90169C 64.824 85.27669 64.965 85.64069 64.965 85.9807C 64.965 86.34369 64.848 86.63669 64.59 86.88269C 64.332 87.12869 63.992 87.25769 63.582 87.25769C 63.148 87.25769 62.797 87.1167 62.539 86.85869C 62.27 86.61269 62.141 86.24969 62.141 85.79269L62.141 85.79269L61.215 85.87469C 61.273 86.56569 61.52 87.09369 61.93 87.4567C 62.34 87.81969 62.902 87.9957 63.605 87.9957C 64.297 87.9957 64.859 87.8087 65.27 87.42169C 65.68 87.02269 65.891 86.5307 65.891 85.9567C 65.891 85.6637 65.832 85.38269 65.703 85.1017C 65.586 84.81969 65.387 84.51569 65.105 84.1987C 64.836 83.88269 64.367 83.4487 63.723 82.9097C 63.184 82.46469 62.832 82.14769 62.68 81.98369C 62.527 81.81969 62.398 81.6557 62.305 81.4917zM54.801 82.83969L54.801 83.7417L54.801 83.7417L57.59 83.7417L57.59 83.7417L57.59 82.83969zM47.285 84.25769C 47.285 83.0387 47.438 82.2417 47.707 81.84369C 48 81.44469 48.34 81.2457 48.75 81.2457C 49.16 81.2457 49.512 81.4567 49.793 81.84369C 50.074 82.2417 50.215 83.05069 50.215 84.25769C 50.215 85.46469 50.074 86.26169 49.793 86.6597C 49.523 87.0587 49.16 87.25769 48.738 87.25769C 48.34 87.25769 48 87.0817 47.754 86.7307C 47.438 86.2847 47.285 85.46469 47.285 84.25769zM46.371 84.25769C 46.371 85.12469 46.465 85.81569 46.629 86.3557C 46.816 86.88269 47.074 87.29269 47.438 87.5737C 47.777 87.8557 48.223 87.9957 48.75 87.9957C 49.148 87.9957 49.488 87.9137 49.793 87.76169C 50.086 87.59769 50.332 87.37469 50.531 87.0817C 50.719 86.77669 50.859 86.4137 50.977 85.9917C 51.094 85.5587 51.141 84.98369 51.141 84.25769C 51.141 83.39069 51.047 82.6987 50.871 82.17169C 50.695 81.6447 50.438 81.23369 50.086 80.94069C 49.734 80.6597 49.289 80.5197 48.75 80.5197C 48.047 80.5197 47.496 80.76569 47.098 81.2697C 46.617 81.89069 46.371 82.87469 46.371 84.25769zM40.672 82.5587L41.609 82.62869C 41.68 82.17169 41.844 81.8317 42.09 81.59769C 42.348 81.36269 42.652 81.2457 43.027 81.2457C 43.461 81.2457 43.824 81.4097 44.129 81.73769C 44.422 82.06569 44.574 82.49969 44.574 83.0387C 44.574 83.55469 44.422 83.96469 44.141 84.25769C 43.859 84.5627 43.484 84.7027 43.016 84.7027C 42.723 84.7027 42.465 84.6447 42.23 84.50369C 41.996 84.37469 41.82 84.1987 41.68 83.98769L41.68 83.98769L40.836 84.1057L40.836 84.1057L41.539 87.87869L41.539 87.87869L45.172 87.87869L45.172 87.87869L45.172 87.01169L45.172 87.01169L42.254 87.01169L42.254 87.01169L41.867 85.04269C 42.313 85.34769 42.77 85.49969 43.25 85.49969C 43.883 85.49969 44.422 85.27669 44.867 84.8317C 45.313 84.39769 45.523 83.8237 45.523 83.1207C 45.523 82.46469 45.324 81.89069 44.949 81.4097C 44.48 80.8127 43.836 80.5197 43.027 80.5197C 42.359 80.5197 41.82 80.69469 41.398 81.0817C 40.965 81.44469 40.73 81.9487 40.672 82.5587z" stroke="none" fill="#EF3221" fill-rule="nonzero" />
		</g>
		<g clip-path="url(#29)" >
    <path id=""  transform="matrix(1 0 0 -1 0 279)"  d="M26.523 129.4407C 26.523 129.4407 46.719 129.7537 49.137 129.8787C 51.629 129.9377 52.508 128.7267 52.508 128.2267C 51.914 128.1717 45.715 128.2267 45.715 128.2267L45.715 128.2267L53.91 125.6677L53.91 125.6677L64.516 128.2267L64.516 128.2267L56.266 128.2767C 56.266 128.2767 56.348 129.8627 53.406 130.7697C 51.582 131.5467 35.449 130.9807 26.523 131.4727L26.523 131.4727L26.523 129.4407" stroke="none" fill="#FFFFFF" fill-rule="nonzero" />
		</g>
		<g clip-path="url(#30)" >
    <path id=""  transform="matrix(1 0 0 -1 0 279)"  d="M26.523 129.4407C 26.523 129.4407 46.719 129.7537 49.137 129.8787C 51.629 129.9377 52.508 128.7267 52.508 128.2267C 51.914 128.1717 45.715 128.2267 45.715 128.2267L45.715 128.2267L53.91 125.6677L53.91 125.6677L64.516 128.2267L64.516 128.2267L56.266 128.2767C 56.266 128.2767 56.348 129.8627 53.406 130.7697C 51.582 131.5467 35.449 130.9807 26.523 131.4727z" stroke="#000000" stroke-width="0.0576485" stroke-linejoin="miter" fill="none" />
		</g>
		<g clip-path="url(#31)" >
    <path id=""  transform="matrix(1 0 0 -1 0 279)"  d="M69.969 222.2417C 69.824 222.2337 69.711 222.1797 69.625 222.1127L69.625 222.1127L66.906 219.3947L66.906 219.3947L66.867 219.3477C 66.813 219.2577 66.785 219.1987 66.777 219.0817L66.777 219.0817L66.777 215.2337C 66.797 215.0657 66.848 214.9997 66.93 214.9097L66.93 214.9097L69.605 212.2267C 69.707 212.1367 69.77 212.0977 69.938 212.0737L69.938 212.0737L73.785 212.0737C 73.934 212.0897 74.02 212.1407 74.109 212.2267L74.109 212.2267L76.793 214.9097C 76.895 215.0267 76.934 215.1017 76.945 215.2337L76.945 215.2337L76.945 219.0817C 76.93 219.2147 76.91 219.2927 76.816 219.3947L76.816 219.3947L74.098 222.1127C 74.008 222.1907 73.91 222.2377 73.785 222.2417L73.785 222.2417L69.969 222.2417" stroke="none" fill="#FFFFFF" fill-rule="evenodd" />
		</g>
		<g clip-path="url(#32)" >
    <path id=""  transform="matrix(1 0 0 -1 0 279)"  d="M69.969 222.2419C 69.824 222.2339 69.711 222.1799 69.625 222.1129L69.625 222.1129L66.906 219.3939L66.906 219.3939L66.867 219.3469C 66.813 219.2539 66.785 219.1989 66.777 219.0819L66.777 219.0819L66.777 215.2339C 66.797 215.0659 66.848 214.996 66.93 214.9059L66.93 214.9059L69.602 212.222C 69.707 212.133 69.77 212.097 69.938 212.074L69.938 212.074L73.785 212.074C 73.934 212.094 74.016 212.14 74.109 212.226L74.109 212.226L76.793 214.9059C 76.895 215.0269 76.934 215.1049 76.945 215.2339L76.945 215.2339L76.945 219.0819C 76.93 219.2149 76.91 219.2929 76.816 219.3939L76.816 219.3939L74.098 222.1129C 74.008 222.1909 73.91 222.2379 73.785 222.2419L73.785 222.2419L69.969 222.2419" stroke="#000000" stroke-width="0.0508714" stroke-linejoin="miter" fill="none" />
		</g>
		<g clip-path="url(#33)" >
    <path id=""  transform="matrix(1 0 0 -1 0 279)"  d="M69.969 221.7307L67.289 219.0507L67.289 219.0507L67.289 215.2657L67.289 215.2657L69.969 212.5857L69.969 212.5857L73.754 212.5857L73.754 212.5857L76.434 215.2657L76.434 215.2657L76.434 219.0507L76.434 219.0507L73.754 221.7307L73.754 221.7307L69.969 221.7307" stroke="none" fill="#C1121C" fill-rule="evenodd" />
		</g>
		<g clip-path="url(#34)" >
    <path id=""  transform="matrix(1 0 0 -1 0 279)"  d="M74.605 215.8587C 74.91 215.8317 75.242 215.8277 75.277 216.2027C 75.316 216.8477 75.313 217.1327 74.605 217.0627L74.605 217.0627L74.605 215.8587M74.098 218.9377L74.098 215.3787C 74.801 215.3127 75.699 215.2887 75.75 216.2027C 75.848 217.0897 75.555 217.6207 74.605 217.5427L74.605 217.5427L74.605 218.9377zM72.383 218.1127L72.383 216.1877L72.383 216.1877L72.391 216.1407L72.391 216.1407L72.398 216.0977L72.398 216.0977L72.422 216.0587L72.422 216.0587L72.438 216.0197C 72.52 215.9177 72.555 215.8867 72.688 215.8587C 72.898 215.8357 73.082 215.9877 73.082 216.2027L73.082 216.2027L73.082 218.1367L73.082 218.1367L73.074 218.1757L73.074 218.1757L73.066 218.2187L73.066 218.2187L73.051 218.2577L73.051 218.2577L73.031 218.2967C 72.957 218.3977 72.902 218.4337 72.777 218.4567C 72.574 218.4877 72.383 218.3197 72.383 218.1127zM71.879 218.1127L71.879 216.1477L71.879 216.1477L71.887 216.0427L71.887 216.0427L71.918 215.9407L71.918 215.9407L71.957 215.8437L71.957 215.8437L72.008 215.7457C 72.129 215.5387 72.395 215.3747 72.625 215.3557C 73.145 215.2927 73.578 215.6837 73.594 216.2027L73.594 216.2027L73.594 218.1127L73.594 218.1127L73.586 218.1677L73.586 218.1677L73.578 218.2727L73.578 218.2727L73.547 218.3787L73.547 218.3787L73.508 218.4807L73.508 218.4807L73.457 218.5697C 73.34 218.7727 73.07 218.9447 72.84 218.9567C 72.348 219.0347 71.855 218.6167 71.879 218.1127zM70.508 218.9377L70.508 215.8587L70.508 215.8587L69.906 215.8587L69.906 215.8587L69.906 215.3787L69.906 215.3787L71.621 215.3787L71.621 215.3787L71.621 215.8587L71.621 215.8587L71.02 215.8587L71.02 215.8587L71.02 218.9377zM67.973 217.9257L68.477 217.9257C 68.414 218.2767 68.641 218.5587 69 218.4337C 69.129 218.3747 69.215 218.2617 69.219 218.1207C 69.211 218.1327 69.301 217.5817 69.008 217.4137C 68.59 217.2497 68.184 217.1557 68.043 216.6837C 67.961 216.4017 67.973 215.8907 68.195 215.6637C 68.789 214.9917 69.824 215.4607 69.715 216.4017L69.715 216.4017L69.207 216.4017C 69.215 216.1987 69.223 216.0037 69.023 215.8977C 68.902 215.8317 68.715 215.8477 68.621 215.9487C 68.473 216.0897 68.5 216.3127 68.512 216.4917C 68.57 216.8157 69.023 216.8157 69.23 216.9567C 69.543 217.1207 69.707 217.3827 69.715 217.7337C 69.734 218.2147 69.734 218.5507 69.305 218.8477C 68.629 219.2067 67.875 218.7307 67.973 217.9257z" stroke="none" fill="#FFFEFE" fill-rule="evenodd" />
		</g>
		<g clip-path="url(#35)" >
    <path id=""  transform="matrix(1 0 0 -1 0 279)"  d="M195.359 186.0347C 195.352 185.8907 195.297 185.7767 195.23 185.6947L195.23 185.6947L192.512 182.9767L192.512 182.9767L192.465 182.9377C 192.375 182.8787 192.316 182.8557 192.199 182.8437L192.199 182.8437L188.352 182.8437C 188.184 182.8627 188.117 182.9137 188.027 182.9957L188.027 182.9957L185.344 185.6717C 185.254 185.7727 185.215 185.8397 185.191 186.0077L185.191 186.0077L185.191 189.8517C 185.211 190.0037 185.258 190.0857 185.344 190.1797L185.344 190.1797L188.027 192.8627C 188.145 192.9647 188.223 193.0037 188.352 193.0117L188.352 193.0117L192.199 193.0117C 192.332 192.9957 192.41 192.9767 192.512 192.8827L192.512 192.8827L195.23 190.1637C 195.309 190.0777 195.355 189.9807 195.359 189.8517L195.359 189.8517L195.359 186.0347" stroke="none" fill="#FFFFFF" fill-rule="evenodd" />
		</g>
		<g clip-path="url(#36)" >
    <path id=""  transform="matrix(1 0 0 -1 0 279)"  d="M195.3592 186.0347C 195.3512 185.8907 195.2972 185.7767 195.2302 185.6907L195.2302 185.6907L192.5112 182.9727L192.5112 182.9727L192.4652 182.9377C 192.3752 182.8787 192.3202 182.8557 192.1992 182.8437L192.1992 182.8437L188.3513 182.8437C 188.1833 182.8627 188.1172 182.9137 188.0273 182.9957L188.0273 182.9957L185.3432 185.6717C 185.2543 185.7727 185.2153 185.8397 185.1913 186.0037L185.1913 186.0037L185.1913 189.8517C 185.2113 190.0037 185.2583 190.0857 185.3432 190.1797L185.3432 190.1797L188.0273 192.8587C 188.1443 192.9607 188.2223 193.0037 188.3513 193.0117L188.3513 193.0117L192.1992 193.0117C 192.3322 192.9957 192.4142 192.9767 192.5112 192.8827L192.5112 192.8827L195.2302 190.1637C 195.3082 190.0777 195.3552 189.9807 195.3592 189.8517L195.3592 189.8517L195.3592 186.0347" stroke="#000000" stroke-width="0.0508714" stroke-linejoin="miter" fill="none" />
		</g>
		<g clip-path="url(#37)" >
    <path id=""  transform="matrix(1 0 0 -1 0 279)"  d="M194.852 186.0347L192.168 183.3557L192.168 183.3557L188.383 183.3557L188.383 183.3557L185.703 186.0347L185.703 186.0347L185.703 189.8197L185.703 189.8197L188.383 192.5037L188.383 192.5037L192.168 192.5037L192.168 192.5037L194.852 189.8197L194.852 189.8197L194.852 186.0347" stroke="none" fill="#C1121C" fill-rule="evenodd" />
		</g>
		<g clip-path="url(#38)" >
    <path id=""  transform="matrix(1 0 0 -1 0 279)"  d="M188.977 190.6757C 188.949 190.9807 188.945 191.3087 189.32 191.3437C 189.965 191.3867 190.254 191.3787 190.18 190.6757L190.18 190.6757L188.977 190.6757M192.055 190.1637L188.5 190.1637C 188.43 190.8667 188.41 191.7657 189.32 191.8157C 190.207 191.9177 190.738 191.6247 190.66 190.6757L190.66 190.6757L192.055 190.6757zM191.23 188.4487L189.305 188.4487L189.305 188.4487L189.258 188.4567L189.258 188.4567L189.215 188.4647L189.215 188.4647L189.176 188.4877L189.176 188.4877L189.137 188.5037C 189.035 188.5857 189.004 188.6207 188.977 188.7537C 188.953 188.9647 189.105 189.1517 189.32 189.1517L189.32 189.1517L191.254 189.1517L191.254 189.1517L191.293 189.1447L191.293 189.1447L191.34 189.1367L191.34 189.1367L191.375 189.1207L191.375 189.1207L191.414 189.0977C 191.52 189.0267 191.547 188.9687 191.574 188.8477C 191.609 188.6407 191.438 188.4527 191.23 188.4487zM191.23 187.9487L189.266 187.9487L189.266 187.9487L189.16 187.9567L189.16 187.9567L189.063 187.9837L189.063 187.9837L188.961 188.0227L188.961 188.0227L188.863 188.0777C 188.66 188.1947 188.492 188.4647 188.477 188.6947C 188.41 189.2107 188.801 189.6477 189.32 189.6597L189.32 189.6597L191.23 189.6597L191.23 189.6597L191.285 189.6517L191.285 189.6517L191.391 189.6477L191.391 189.6477L191.5 189.6167L191.5 189.6167L191.598 189.5777L191.598 189.5777L191.691 189.5227C 191.891 189.4097 192.063 189.1367 192.078 188.9057C 192.152 188.4177 191.734 187.9257 191.23 187.9487zM192.055 186.5777L188.977 186.5777L188.977 186.5777L188.977 185.9767L188.977 185.9767L188.5 185.9767L188.5 185.9767L188.5 187.6907L188.5 187.6907L188.977 187.6907L188.977 187.6907L188.977 187.0857L188.977 187.0857L192.055 187.0857zM191.043 184.0427L191.043 184.5427C 191.395 184.4837 191.68 184.7067 191.551 185.0697C 191.492 185.1947 191.379 185.2847 191.242 185.2887C 191.25 185.2807 190.699 185.3707 190.531 185.0777C 190.367 184.6597 190.273 184.2537 189.801 184.1087C 189.52 184.0267 189.008 184.0427 188.781 184.2617C 188.109 184.8587 188.578 185.8947 189.52 185.7847L189.52 185.7847L189.52 185.2727C 189.32 185.2847 189.121 185.2927 189.016 185.0937C 188.949 184.9727 188.965 184.7807 189.07 184.6877C 189.207 184.5387 189.43 184.5697 189.609 184.5817C 189.934 184.6367 189.934 185.0897 190.074 185.2967C 190.238 185.6087 190.5 185.7727 190.852 185.7847C 191.336 185.8047 191.672 185.8047 191.961 185.3747C 192.324 184.6987 191.852 183.9407 191.043 184.0427z" stroke="none" fill="#FFFEFE" fill-rule="evenodd" />
		</g>
		<g clip-path="url(#39)" >
    <path id=""  transform="matrix(1 0 0 -1 0 279)"  d="M185.242 188.7267L185.242 190.7107" stroke="#ED1C24" stroke-width="0.145247" stroke-linejoin="miter" fill="none" />
		</g>
		<g clip-path="url(#40)" >
    <path id=""  transform="matrix(1 0 0 -1 0 279)"  d="M149.418 174.0977L149.418 190.7107" stroke="#ED1C24" stroke-width="0.145247" stroke-linejoin="miter" fill="none" />
		</g>
		<g clip-path="url(#41)" >
    <path id=""  transform="matrix(1 0 0 -1 0 279)"  d="M150.18 189.9097L184.48 189.9097" stroke="#ED1C24" stroke-width="0.145247" stroke-linejoin="miter" fill="none" />
		</g>
		<g clip-path="url(#42)" >
    <path id=""  transform="matrix(1 0 0 -1 0 279)"  d="M150.941 189.5037L149.418 189.9097L149.418 189.9097L150.941 190.3197L150.941 190.3197L150.941 189.5037" stroke="none" fill="#ED1C24" fill-rule="evenodd" />
		</g>
		<g clip-path="url(#43)" >
    <path id=""  transform="matrix(1 0 0 -1 0 279)"  d="M183.719 189.5037L185.242 189.9097L185.242 189.9097L183.719 190.3197L183.719 190.3197L183.719 189.5037" stroke="none" fill="#ED1C24" fill-rule="evenodd" />
		</g>
		<g clip-path="url(#44)" >
    <path id=""  transform="matrix(1 0 0 -1 0 279)"  d="M192.91 196.7807C 192.91 195.5627 193.063 194.7657 193.332 194.3667C 193.625 193.9687 193.965 193.7697 194.375 193.7697C 194.785 193.7697 195.137 193.9807 195.418 194.3667C 195.699 194.7657 195.84 195.5737 195.84 196.7807C 195.84 197.9877 195.699 198.7847 195.418 199.1837C 195.148 199.5817 194.785 199.7807 194.363 199.7807C 193.965 199.7807 193.625 199.6057 193.379 199.2537C 193.063 198.8087 192.91 197.9877 192.91 196.7807zM191.996 196.7807C 191.996 197.6477 192.09 198.3397 192.254 198.8787C 192.441 199.4057 192.699 199.8157 193.063 200.0977C 193.402 200.3787 193.848 200.5197 194.375 200.5197C 194.773 200.5197 195.113 200.4377 195.418 200.2847C 195.711 200.1207 195.957 199.8977 196.156 199.6057C 196.344 199.3007 196.484 198.9377 196.602 198.5157C 196.719 198.0817 196.766 197.5077 196.766 196.7807C 196.766 195.9137 196.672 195.2227 196.496 194.6947C 196.32 194.1677 196.063 193.7577 195.711 193.4647C 195.359 193.1837 194.914 193.0427 194.375 193.0427C 193.672 193.0427 193.121 193.2887 192.723 193.7927C 192.242 194.4137 191.996 195.3977 191.996 196.7807zM187.211 196.7807C 187.211 195.5627 187.363 194.7657 187.633 194.3667C 187.926 193.9687 188.266 193.7697 188.676 193.7697C 189.086 193.7697 189.438 193.9807 189.719 194.3667C 190 194.7657 190.141 195.5737 190.141 196.7807C 190.141 197.9877 190 198.7847 189.719 199.1837C 189.449 199.5817 189.086 199.7807 188.664 199.7807C 188.266 199.7807 187.926 199.6057 187.68 199.2537C 187.363 198.8087 187.211 197.9877 187.211 196.7807zM186.297 196.7807C 186.297 197.6477 186.391 198.3397 186.555 198.8787C 186.742 199.4057 187 199.8157 187.363 200.0977C 187.703 200.3787 188.148 200.5197 188.676 200.5197C 189.074 200.5197 189.414 200.4377 189.719 200.2847C 190.012 200.1207 190.258 199.8977 190.457 199.6057C 190.645 199.3007 190.785 198.9377 190.902 198.5157C 191.02 198.0817 191.066 197.5077 191.066 196.7807C 191.066 195.9137 190.973 195.2227 190.797 194.6947C 190.621 194.1677 190.363 193.7577 190.012 193.4647C 189.66 193.1837 189.215 193.0427 188.676 193.0427C 187.973 193.0427 187.422 193.2887 187.023 193.7927C 186.543 194.4137 186.297 195.3977 186.297 196.7807zM180.598 195.0817L181.535 195.1517C 181.605 194.6947 181.77 194.3557 182.016 194.1207C 182.273 193.8867 182.578 193.7697 182.953 193.7697C 183.387 193.7697 183.75 193.9337 184.055 194.2617C 184.348 194.5897 184.5 195.0227 184.5 195.5627C 184.5 196.0777 184.348 196.4877 184.066 196.7807C 183.785 197.0857 183.41 197.2267 182.941 197.2267C 182.648 197.2267 182.391 197.1677 182.156 197.0267C 181.922 196.8977 181.746 196.7227 181.605 196.5117L181.605 196.5117L180.762 196.6287L180.762 196.6287L181.465 200.4017L181.465 200.4017L185.098 200.4017L185.098 200.4017L185.098 199.5347L185.098 199.5347L182.18 199.5347L182.18 199.5347L181.793 197.5657C 182.238 197.8707 182.695 198.0227 183.176 198.0227C 183.809 198.0227 184.348 197.8007 184.793 197.3557C 185.238 196.9217 185.449 196.3477 185.449 195.6447C 185.449 194.9877 185.25 194.4137 184.875 193.9337C 184.406 193.3357 183.762 193.0427 182.953 193.0427C 182.285 193.0427 181.746 193.2187 181.324 193.6057C 180.891 193.9687 180.656 194.4727 180.598 195.0817zM174.219 195.3627L174.219 196.2657L174.219 196.2657L177.008 196.2657L177.008 196.2657L177.008 195.3627zM166.707 196.7807C 166.707 195.5627 166.859 194.7657 167.129 194.3667C 167.422 193.9687 167.762 193.7697 168.172 193.7697C 168.582 193.7697 168.934 193.9807 169.215 194.3667C 169.496 194.7657 169.637 195.5737 169.637 196.7807C 169.637 197.9877 169.496 198.7847 169.215 199.1837C 168.945 199.5817 168.582 199.7807 168.16 199.7807C 167.762 199.7807 167.422 199.6057 167.176 199.2537C 166.859 198.8087 166.707 197.9877 166.707 196.7807zM165.793 196.7807C 165.793 197.6477 165.887 198.3397 166.051 198.8787C 166.238 199.4057 166.496 199.8157 166.859 200.0977C 167.199 200.3787 167.645 200.5197 168.172 200.5197C 168.57 200.5197 168.91 200.4377 169.215 200.2847C 169.508 200.1207 169.754 199.8977 169.953 199.6057C 170.141 199.3007 170.281 198.9377 170.398 198.5157C 170.516 198.0817 170.563 197.5077 170.563 196.7807C 170.563 195.9137 170.469 195.2227 170.293 194.6947C 170.117 194.1677 169.859 193.7577 169.508 193.4647C 169.156 193.1837 168.711 193.0427 168.172 193.0427C 167.469 193.0427 166.918 193.2887 166.52 193.7927C 166.039 194.4137 165.793 195.3977 165.793 196.7807zM161.008 196.7807C 161.008 195.5627 161.16 194.7657 161.43 194.3667C 161.723 193.9687 162.063 193.7697 162.473 193.7697C 162.883 193.7697 163.234 193.9807 163.516 194.3667C 163.797 194.7657 163.938 195.5737 163.938 196.7807C 163.938 197.9877 163.797 198.7847 163.516 199.1837C 163.246 199.5817 162.883 199.7807 162.461 199.7807C 162.063 199.7807 161.723 199.6057 161.477 199.2537C 161.16 198.8087 161.008 197.9877 161.008 196.7807zM160.094 196.7807C 160.094 197.6477 160.188 198.3397 160.352 198.8787C 160.539 199.4057 160.797 199.8157 161.16 200.0977C 161.5 200.3787 161.945 200.5197 162.473 200.5197C 162.871 200.5197 163.211 200.4377 163.516 200.2847C 163.809 200.1207 164.055 199.8977 164.254 199.6057C 164.441 199.3007 164.582 198.9377 164.699 198.5157C 164.816 198.0817 164.863 197.5077 164.863 196.7807C 164.863 195.9137 164.77 195.2227 164.594 194.6947C 164.418 194.1677 164.16 193.7577 163.809 193.4647C 163.457 193.1837 163.012 193.0427 162.473 193.0427C 161.77 193.0427 161.219 193.2887 160.82 193.7927C 160.34 194.4137 160.094 195.3977 160.094 196.7807zM154.395 195.1057L155.297 195.2337C 155.391 194.7187 155.566 194.3437 155.813 194.1207C 156.07 193.8977 156.363 193.7807 156.727 193.7807C 157.16 193.7807 157.512 193.9337 157.816 194.2267C 158.098 194.5197 158.238 194.8827 158.238 195.3157C 158.238 195.7267 158.109 196.0657 157.828 196.3477C 157.57 196.6167 157.23 196.7457 156.809 196.7457C 156.633 196.7457 156.422 196.7107 156.176 196.6407L156.176 196.6407L156.27 197.4257C 156.328 197.4257 156.375 197.4257 156.422 197.4257C 156.797 197.4257 157.148 197.5197 157.453 197.7187C 157.758 197.9177 157.91 198.2337 157.91 198.6447C 157.91 198.9727 157.805 199.2417 157.582 199.4647C 157.348 199.6877 157.066 199.7807 156.715 199.7807C 156.363 199.7807 156.07 199.6757 155.836 199.4647C 155.602 199.2307 155.461 198.8907 155.379 198.4567L155.379 198.4567L154.488 198.6207C 154.594 199.2187 154.84 199.6987 155.227 200.0267C 155.625 200.3557 156.117 200.5197 156.691 200.5197C 157.09 200.5197 157.465 200.4377 157.793 200.2727C 158.133 200.0977 158.391 199.8627 158.566 199.5697C 158.742 199.2767 158.836 198.9607 158.836 198.6207C 158.836 198.3157 158.754 198.0227 158.578 197.7537C 158.414 197.5077 158.156 197.2967 157.816 197.1447C 158.262 197.0387 158.602 196.8397 158.836 196.5227C 159.07 196.2067 159.199 195.8087 159.199 195.3277C 159.199 194.6947 158.965 194.1557 158.496 193.6987C 158.027 193.2657 157.43 193.0427 156.727 193.0427C 156.082 193.0427 155.543 193.2307 155.121 193.6057C 154.699 194.0037 154.453 194.4957 154.395 195.1057z" stroke="none" fill="#EF3221" fill-rule="nonzero" />
		</g>
		<g clip-path="url(#45)" >
    <path id=""  transform="matrix(1 0 0 -1 0 279)"  d="M43.469 94.09369L38.871 98.69069C 38.66 98.90169 38.73 99.21469 38.875 99.3707L38.875 99.3707L43.453 103.9447C 43.691 104.1797 44.012 104.0977 44.164 103.9487L44.164 103.9487L48.727 99.39769C 48.941 99.17969 48.949 98.88669 48.734 98.67569L48.734 98.67569L44.156 94.08969C 43.813 93.7457 43.469 94.09369 43.469 94.09369" stroke="none" fill="#FFFFFF" fill-rule="evenodd" />
		</g>
		<g clip-path="url(#46)" >
    <path id=""  transform="matrix(1 0 0 -1 0 279)"  d="M48.727 99.39769C 48.941 99.17969 48.949 98.88669 48.734 98.67569C 47.211 97.14769 45.684 95.6207 44.156 94.08969C 43.813 93.7457 43.469 94.09369 43.469 94.09369L43.469 94.09369L38.871 98.69069C 38.66 98.90169 38.73 99.21469 38.875 99.3707L38.875 99.3707L43.453 103.9447C 43.691 104.1797 44.012 104.0977 44.164 103.9487L44.164 103.9487L48.727 99.39769" stroke="none" fill="#FFFFFF" fill-rule="evenodd" />
		</g>
		<g clip-path="url(#47)" >
    <path id=""  transform="matrix(1 0 0 -1 0 279)"  d="M48.727 99.39769C 48.941 99.17969 48.949 98.88669 48.734 98.67569C 47.211 97.14769 45.684 95.6207 44.156 94.08969C 43.813 93.7457 43.469 94.09369 43.469 94.09369L43.469 94.09369L38.871 98.69069C 38.66 98.90169 38.73 99.21469 38.875 99.3707L38.875 99.3707L43.453 103.9447C 43.691 104.1797 44.012 104.0977 44.164 103.9487L44.164 103.9487L48.727 99.39769" stroke="none" fill="#FFFFFF" fill-rule="evenodd" />
		</g>
		<g clip-path="url(#48)" >
    <path id=""  transform="matrix(1 0 0 -1 0 279)"  d="M43.902 103.7067C 43.816 103.7967 43.727 103.7067 43.727 103.7067C 42.195 102.1757 40.664 100.6447 39.133 99.1167C 39.133 99.1167 39.039 99.02669 39.129 98.9377L39.129 98.9377L43.727 94.34769C 43.82 94.25769 43.898 94.34769 43.898 94.34769C 45.434 95.87869 46.965 97.4097 48.496 98.94069C 48.496 98.94069 48.59 99.0197 48.496 99.1167L48.496 99.1167L43.902 103.7067M44.035 103.8397L48.629 99.2457C 48.855 99.02269 48.633 98.8127 48.633 98.8127L48.633 98.8127L44.031 94.21069C 44.031 94.21069 43.82 93.9917 43.594 94.21469L43.594 94.21469L39 98.8087C 38.773 99.0307 38.996 99.2457 38.996 99.2457C 40.531 100.7767 42.063 102.3087 43.594 103.8397C 43.594 103.8397 43.809 104.0627 44.035 103.8397z" stroke="none" fill="#000000" fill-rule="evenodd" />
		</g>
		<g clip-path="url(#49)" >
    <path id=""  transform="matrix(1 0 0 -1 0 279)"  d="M43.813 96.21069L46.633 99.02669L46.633 99.02669L43.813 101.8437L43.813 101.8437L40.996 99.02669L40.996 99.02669L43.813 96.21069" stroke="none" fill="#F7BA0B" fill-rule="evenodd" />
		</g>
		<g clip-path="url(#50)" >
    <path id=""  transform="matrix(1 0 0 -1 0 279)"  d="M43.813 96.30069L46.543 99.02669L46.543 99.02669L43.813 101.7537L43.813 101.7537L41.086 99.02669L41.086 99.02669L43.813 96.30069M43.813 96.12469L40.91 99.02669L40.91 99.02669L43.813 101.9297L43.813 101.9297L46.719 99.02669z" stroke="none" fill="#000000" fill-rule="evenodd" />
		</g>
		<g clip-path="url(#51)" >
    <path id=""  transform="matrix(1 0 0 -1 0 279)"  d="M48.727 99.39769L44.164 103.9487C 44.012 104.0977 43.691 104.1797 43.453 103.9447L43.453 103.9447L38.875 99.3707C 38.73 99.21469 38.66 98.90169 38.871 98.69069L38.871 98.69069L43.469 94.09369C 43.469 94.09369 43.813 93.7457 44.156 94.08969C 45.684 95.6207 47.211 97.14769 48.734 98.67569C 48.949 98.88669 48.941 99.17969 48.727 99.39769M48.73 99.40169C 48.84 99.29269 48.895 99.1637 48.898 99.0347C 48.898 98.9057 48.848 98.77669 48.738 98.67169C 47.215 97.1447 45.688 95.61269 44.16 94.08569C 43.988 93.9137 43.813 93.9137 43.684 93.9567C 43.551 93.99969 43.465 94.08969 43.465 94.08969L43.465 94.08969L38.867 98.6877C 38.77 98.7847 38.73 98.90169 38.73 99.0197C 38.73 99.0307 38.73 99.04269 38.73 99.05469C 38.742 99.17969 38.797 99.29669 38.871 99.37469L38.871 99.37469L43.449 103.9487C 43.57 104.0697 43.711 104.1087 43.84 104.0977C 43.973 104.0897 44.094 104.0267 44.168 103.9527z" stroke="none" fill="#000000" fill-rule="evenodd" />
		</g>
		<g clip-path="url(#52)" >
    <path id=""  transform="matrix(1 0 0 -1 0 279)"  d="M160.805 64.80469L156.207 69.40169C 155.996 69.61269 156.063 69.92569 156.211 70.0817L156.211 70.0817L160.789 74.6557C 161.027 74.89069 161.348 74.8087 161.5 74.6597L161.5 74.6597L166.059 70.10869C 166.277 69.89069 166.285 69.59769 166.07 69.38669L166.07 69.38669L161.492 64.80069C 161.148 64.4567 160.805 64.80469 160.805 64.80469" stroke="none" fill="#FFFFFF" fill-rule="evenodd" />
		</g>
		<g clip-path="url(#53)" >
    <path id=""  transform="matrix(1 0 0 -1 0 279)"  d="M166.059 70.10869C 166.277 69.89069 166.285 69.59769 166.07 69.38669C 164.543 67.85869 163.02 66.3317 161.492 64.80069C 161.148 64.4567 160.805 64.80469 160.805 64.80469L160.805 64.80469L156.207 69.40169C 155.996 69.61269 156.063 69.92569 156.211 70.0817L156.211 70.0817L160.789 74.6557C 161.027 74.89069 161.348 74.8087 161.5 74.6597L161.5 74.6597L166.059 70.10869" stroke="none" fill="#FFFFFF" fill-rule="evenodd" />
		</g>
		<g clip-path="url(#54)" >
    <path id=""  transform="matrix(1 0 0 -1 0 279)"  d="M166.059 70.10869C 166.277 69.89069 166.285 69.59769 166.07 69.38669C 164.543 67.85869 163.02 66.3317 161.492 64.80069C 161.148 64.4567 160.805 64.80469 160.805 64.80469L160.805 64.80469L156.207 69.40169C 155.996 69.61269 156.063 69.92569 156.211 70.0817L156.211 70.0817L160.789 74.6557C 161.027 74.89069 161.348 74.8087 161.5 74.6597L161.5 74.6597L166.059 70.10869" stroke="none" fill="#FFFFFF" fill-rule="evenodd" />
		</g>
		<g clip-path="url(#55)" >
    <path id=""  transform="matrix(1 0 0 -1 0 279)"  d="M161.238 74.41769C 161.148 74.50769 161.063 74.41769 161.063 74.41769C 159.527 72.88669 157.996 71.3557 156.469 69.8277C 156.469 69.8277 156.375 69.73769 156.465 69.64769L156.465 69.64769L161.063 65.0587C 161.156 64.96869 161.234 65.0587 161.234 65.0587C 162.77 66.58969 164.301 68.1207 165.832 69.65169C 165.832 69.65169 165.926 69.7307 165.832 69.8237L165.832 69.8237L161.238 74.41769M161.371 74.55069L165.965 69.9567C 166.188 69.73369 165.969 69.52269 165.969 69.52269L165.969 69.52269L161.367 64.92169C 161.367 64.92169 161.156 64.7027 160.93 64.92569L160.93 64.92569L156.332 69.5197C 156.109 69.7417 156.332 69.9567 156.332 69.9567C 157.867 71.48769 159.398 73.0197 160.93 74.55069C 160.93 74.55069 161.145 74.77269 161.371 74.55069z" stroke="none" fill="#000000" fill-rule="evenodd" />
		</g>
		<g clip-path="url(#56)" >
    <path id=""  transform="matrix(1 0 0 -1 0 279)"  d="M161.148 66.92169L163.969 69.73769L163.969 69.73769L161.148 72.55469L161.148 72.55469L158.332 69.73769L158.332 69.73769L161.148 66.92169" stroke="none" fill="#F7BA0B" fill-rule="evenodd" />
		</g>
		<g clip-path="url(#57)" >
    <path id=""  transform="matrix(1 0 0 -1 0 279)"  d="M161.148 67.01169L163.879 69.73769L163.879 69.73769L161.148 72.46469L161.148 72.46469L158.422 69.73769L158.422 69.73769L161.148 67.01169M161.148 66.83569L158.246 69.73769L158.246 69.73769L161.148 72.64069L161.148 72.64069L164.055 69.73769z" stroke="none" fill="#000000" fill-rule="evenodd" />
		</g>
		<g clip-path="url(#58)" >
    <path id=""  transform="matrix(1 0 0 -1 0 279)"  d="M166.059 70.10869L161.5 74.6597C 161.348 74.8087 161.027 74.89069 160.789 74.6557L160.789 74.6557L156.211 70.0817C 156.063 69.92569 155.996 69.61269 156.207 69.40169L156.207 69.40169L160.805 64.80469C 160.805 64.80469 161.148 64.4567 161.492 64.80069C 163.02 66.3317 164.543 67.85869 166.07 69.38669C 166.285 69.59769 166.277 69.89069 166.059 70.10869M166.066 70.11269C 166.176 70.00369 166.23 69.87469 166.234 69.7457C 166.234 69.6167 166.184 69.48769 166.074 69.38269C 164.551 67.8557 163.023 66.3237 161.496 64.79669C 161.324 64.62469 161.148 64.62469 161.016 64.66769C 160.887 64.71069 160.801 64.80069 160.801 64.80069L160.801 64.80069L156.203 69.39769C 156.105 69.4957 156.066 69.61269 156.066 69.7267C 156.066 69.7417 156.066 69.75369 156.066 69.76569C 156.078 69.89069 156.133 70.00769 156.207 70.08569L156.207 70.08569L160.785 74.6597C 160.906 74.7807 161.047 74.81969 161.176 74.8087C 161.309 74.80069 161.426 74.73769 161.504 74.6637z" stroke="none" fill="#000000" fill-rule="evenodd" />
		</g>
		<g clip-path="url(#59)" >
    <path id=""  transform="matrix(1 0 0 -1 0 279)"  d="M161.234 75.44469L152.719 75.44469" stroke="#ED1C24" stroke-width="0.145247" stroke-linejoin="miter" fill="none" />
		</g>
		<g clip-path="url(#60)" >
    <path id=""  transform="matrix(1 0 0 -1 0 279)"  d="M147.551 110.7187L154.32 110.7187" stroke="#ED1C24" stroke-width="0.145247" stroke-linejoin="miter" fill="none" />
		</g>
		<g clip-path="url(#61)" >
    <path id=""  transform="matrix(1 0 0 -1 0 279)"  d="M153.52 109.9567L153.52 76.2067" stroke="#ED1C24" stroke-width="0.145247" stroke-linejoin="miter" fill="none" />
		</g>
		<g clip-path="url(#62)" >
    <path id=""  transform="matrix(1 0 0 -1 0 279)"  d="M153.109 109.1947L153.52 110.7187L153.52 110.7187L153.93 109.1947L153.93 109.1947L153.109 109.1947" stroke="none" fill="#ED1C24" fill-rule="evenodd" />
		</g>
		<g clip-path="url(#63)" >
    <path id=""  transform="matrix(1 0 0 -1 0 279)"  d="M153.109 76.96869L153.52 75.44469L153.52 75.44469L153.93 76.96869L153.93 76.96869L153.109 76.96869" stroke="none" fill="#ED1C24" fill-rule="evenodd" />
		</g>
		<g clip-path="url(#64)" >
    <path id=""  transform="matrix(1 0 0 -1 0 279)"  d="M195.16 80.56569C 195.16 79.34769 195.313 78.55069 195.582 78.15169C 195.875 77.75369 196.215 77.55469 196.625 77.55469C 197.035 77.55469 197.387 77.76569 197.668 78.15169C 197.949 78.55069 198.09 79.35869 198.09 80.56569C 198.09 81.77269 197.949 82.56969 197.668 82.96869C 197.398 83.3667 197.035 83.56569 196.613 83.56569C 196.215 83.56569 195.875 83.39069 195.629 83.0387C 195.313 82.59369 195.16 81.77269 195.16 80.56569zM194.246 80.56569C 194.246 81.4337 194.34 82.12469 194.504 82.6637C 194.691 83.19069 194.949 83.6017 195.313 83.88269C 195.652 84.1637 196.098 84.30469 196.625 84.30469C 197.023 84.30469 197.363 84.22269 197.668 84.06969C 197.961 83.9057 198.207 83.6837 198.406 83.39069C 198.594 83.08569 198.734 82.72269 198.852 82.30069C 198.969 81.8667 199.016 81.29269 199.016 80.56569C 199.016 79.6987 198.922 79.00769 198.746 78.4807C 198.57 77.9527 198.313 77.54269 197.961 77.24969C 197.609 76.96869 197.164 76.8277 196.625 76.8277C 195.922 76.8277 195.371 77.0737 194.973 77.5777C 194.492 78.1987 194.246 79.1837 194.246 80.56569zM189.465 80.56569C 189.465 79.34769 189.617 78.55069 189.887 78.15169C 190.18 77.75369 190.52 77.55469 190.93 77.55469C 191.34 77.55469 191.691 77.76569 191.973 78.15169C 192.254 78.55069 192.395 79.35869 192.395 80.56569C 192.395 81.77269 192.254 82.56969 191.973 82.96869C 191.703 83.3667 191.34 83.56569 190.918 83.56569C 190.52 83.56569 190.18 83.39069 189.934 83.0387C 189.617 82.59369 189.465 81.77269 189.465 80.56569zM188.551 80.56569C 188.551 81.4337 188.645 82.12469 188.809 82.6637C 188.996 83.19069 189.254 83.6017 189.617 83.88269C 189.957 84.1637 190.402 84.30469 190.93 84.30469C 191.328 84.30469 191.668 84.22269 191.973 84.06969C 192.266 83.9057 192.512 83.6837 192.711 83.39069C 192.898 83.08569 193.039 82.72269 193.156 82.30069C 193.273 81.8667 193.32 81.29269 193.32 80.56569C 193.32 79.6987 193.227 79.00769 193.051 78.4807C 192.875 77.9527 192.617 77.54269 192.266 77.24969C 191.914 76.96869 191.469 76.8277 190.93 76.8277C 190.227 76.8277 189.676 77.0737 189.277 77.5777C 188.797 78.1987 188.551 79.1837 188.551 80.56569zM182.855 78.8667L183.793 78.9377C 183.863 78.4807 184.027 78.14069 184.273 77.9057C 184.531 77.67169 184.836 77.55469 185.211 77.55469C 185.645 77.55469 186.008 77.71869 186.313 78.04669C 186.605 78.37469 186.758 78.8087 186.758 79.34769C 186.758 79.86269 186.605 80.27269 186.324 80.56569C 186.043 80.8707 185.668 81.01169 185.199 81.01169C 184.906 81.01169 184.648 80.9527 184.414 80.8127C 184.18 80.6837 184.004 80.50769 183.863 80.29669L183.863 80.29669L183.02 80.4137L183.02 80.4137L183.723 84.1877L183.723 84.1877L187.355 84.1877L187.355 84.1877L187.355 83.31969L187.355 83.31969L184.438 83.31969L184.438 83.31969L184.051 81.3517C 184.496 81.6557 184.953 81.8087 185.434 81.8087C 186.066 81.8087 186.605 81.58569 187.051 81.14069C 187.496 80.7067 187.707 80.13269 187.707 79.42969C 187.707 78.77269 187.508 78.1987 187.133 77.71869C 186.664 77.1207 186.02 76.8277 185.211 76.8277C 184.543 76.8277 184.004 77.00369 183.582 77.39069C 183.148 77.75369 182.914 78.25769 182.855 78.8667zM176.473 79.14769L176.473 80.05069L176.473 80.05069L179.262 80.05069L179.262 80.05069L179.262 79.14769zM168.957 80.56569C 168.957 79.34769 169.109 78.55069 169.379 78.15169C 169.672 77.75369 170.012 77.55469 170.422 77.55469C 170.832 77.55469 171.184 77.76569 171.465 78.15169C 171.746 78.55069 171.887 79.35869 171.887 80.56569C 171.887 81.77269 171.746 82.56969 171.465 82.96869C 171.195 83.3667 170.832 83.56569 170.41 83.56569C 170.012 83.56569 169.672 83.39069 169.426 83.0387C 169.109 82.59369 168.957 81.77269 168.957 80.56569zM168.043 80.56569C 168.043 81.4337 168.137 82.12469 168.301 82.6637C 168.488 83.19069 168.746 83.6017 169.109 83.88269C 169.449 84.1637 169.895 84.30469 170.422 84.30469C 170.82 84.30469 171.16 84.22269 171.465 84.06969C 171.758 83.9057 172.004 83.6837 172.203 83.39069C 172.391 83.08569 172.531 82.72269 172.648 82.30069C 172.766 81.8667 172.813 81.29269 172.813 80.56569C 172.813 79.6987 172.719 79.00769 172.543 78.4807C 172.367 77.9527 172.109 77.54269 171.758 77.24969C 171.406 76.96869 170.961 76.8277 170.422 76.8277C 169.719 76.8277 169.168 77.0737 168.77 77.5777C 168.289 78.1987 168.043 79.1837 168.043 80.56569zM163.262 80.56569C 163.262 79.34769 163.414 78.55069 163.684 78.15169C 163.977 77.75369 164.316 77.55469 164.727 77.55469C 165.137 77.55469 165.488 77.76569 165.77 78.15169C 166.051 78.55069 166.191 79.35869 166.191 80.56569C 166.191 81.77269 166.051 82.56969 165.77 82.96869C 165.5 83.3667 165.137 83.56569 164.715 83.56569C 164.316 83.56569 163.977 83.39069 163.73 83.0387C 163.414 82.59369 163.262 81.77269 163.262 80.56569zM162.348 80.56569C 162.348 81.4337 162.441 82.12469 162.605 82.6637C 162.793 83.19069 163.051 83.6017 163.414 83.88269C 163.754 84.1637 164.199 84.30469 164.727 84.30469C 165.125 84.30469 165.465 84.22269 165.77 84.06969C 166.063 83.9057 166.309 83.6837 166.508 83.39069C 166.695 83.08569 166.836 82.72269 166.953 82.30069C 167.07 81.8667 167.117 81.29269 167.117 80.56569C 167.117 79.6987 167.023 79.00769 166.848 78.4807C 166.672 77.9527 166.414 77.54269 166.063 77.24969C 165.711 76.96869 165.266 76.8277 164.727 76.8277C 164.023 76.8277 163.473 77.0737 163.074 77.5777C 162.594 78.1987 162.348 79.1837 162.348 80.56569zM156.648 78.89069L157.551 79.0197C 157.645 78.50369 157.82 78.12869 158.066 77.9057C 158.324 77.6837 158.617 77.56569 158.98 77.56569C 159.414 77.56569 159.766 77.71869 160.07 78.01169C 160.352 78.30469 160.492 78.66769 160.492 79.1017C 160.492 79.51169 160.363 79.8517 160.082 80.13269C 159.824 80.40169 159.484 80.5307 159.063 80.5307C 158.887 80.5307 158.676 80.4957 158.43 80.42569L158.43 80.42569L158.523 81.21069C 158.582 81.21069 158.629 81.21069 158.676 81.21069C 159.051 81.21069 159.402 81.30469 159.707 81.50369C 160.012 81.7027 160.164 82.0197 160.164 82.42969C 160.164 82.75769 160.059 83.02669 159.836 83.24969C 159.602 83.47269 159.32 83.56569 158.969 83.56569C 158.617 83.56569 158.324 83.46069 158.09 83.24969C 157.855 83.01569 157.715 82.67569 157.633 82.2417L157.633 82.2417L156.742 82.4057C 156.848 83.00369 157.094 83.48369 157.48 83.8127C 157.879 84.14069 158.371 84.30469 158.945 84.30469C 159.344 84.30469 159.719 84.22269 160.047 84.0587C 160.387 83.88269 160.645 83.64769 160.82 83.3557C 160.996 83.0627 161.09 82.7457 161.09 82.4057C 161.09 82.1017 161.008 81.8087 160.832 81.5387C 160.668 81.29269 160.41 81.0817 160.07 80.92969C 160.516 80.8237 160.855 80.62469 161.09 80.3087C 161.324 79.9917 161.453 79.59369 161.453 79.11269C 161.453 78.4807 161.219 77.94069 160.75 77.48369C 160.281 77.05069 159.684 76.8277 158.98 76.8277C 158.336 76.8277 157.797 77.01569 157.375 77.39069C 156.953 77.7887 156.707 78.2807 156.648 78.89069z" stroke="none" fill="#EE2822" fill-rule="nonzero" />
		</g>
		<g clip-path="url(#65)" >
    <path id=""  transform="matrix(1 0 0 -1 0 279)"  d="M156.258 93.76169C 156.258 90.9527 158.531 88.67969 161.34 88.67969C 164.148 88.67969 166.426 90.9527 166.426 93.76169C 166.426 96.56969 164.148 98.84369 161.34 98.84369C 158.531 98.84369 156.258 96.56969 156.258 93.76169" stroke="none" fill="#FFFFFF" fill-rule="evenodd" />
		</g>
		<g clip-path="url(#66)" >
    <path id=""  transform="matrix(1 0 0 -1 0 279)"  d="M156.258 93.76169C 156.258 90.9527 158.531 88.67969 161.34 88.67969C 164.148 88.67969 166.426 90.9527 166.426 93.76169C 166.426 96.56969 164.148 98.84369 161.34 98.84369C 158.531 98.84369 156.258 96.56969 156.258 93.76169z" stroke="#000000" stroke-width="0.0363089" stroke-linejoin="miter" fill="none" />
		</g>
		<g clip-path="url(#67)" >
    <path id=""  transform="matrix(1 0 0 -1 0 279)"  d="M156.574 93.76169C 156.574 91.12869 158.707 88.9957 161.34 88.9957C 163.973 88.9957 166.105 91.12869 166.105 93.76169C 166.105 96.3947 163.973 98.52669 161.34 98.52669C 158.707 98.52669 156.574 96.3947 156.574 93.76169" stroke="none" fill="#154889" fill-rule="evenodd" />
		</g>
		<g clip-path="url(#68)" >
    <path id=""  transform="matrix(1 0 0 -1 0 279)"  d="M161.035 97.01569L159.73 95.71469L159.73 95.71469L161.078 95.7067C 162.746 95.63669 163.156 94.1837 163.223 93.76169L163.223 93.76169L163.223 90.37869L163.223 90.37869L162.301 90.37869L162.301 90.37869L162.301 93.6207C 162.301 93.77669 162.164 94.63669 161.129 94.8127L161.129 94.8127L159.707 94.8087L159.707 94.8087L161.035 93.48369L161.035 93.48369L159.891 93.48369L159.891 93.48369L158.125 95.24969L158.125 95.24969L158.121 95.24969L158.121 95.24969L158.125 95.24969L158.125 95.24969L158.121 95.25369L158.121 95.25369L158.125 95.25369L158.125 95.25369L159.891 97.01569L159.891 97.01569L161.035 97.01569" stroke="none" fill="#FFFFFF" fill-rule="evenodd" />
		</g>
		<g clip-path="url(#69)" >
    <path id=""  transform="matrix(1 0 0 -1 0 279)"  d="M159.031 98.8237L162.188 98.8237" stroke="#ED1C24" stroke-width="0.145247" stroke-linejoin="miter" fill="none" />
		</g>
		<g clip-path="url(#70)" >
    <path id=""  transform="matrix(1 0 0 -1 0 279)"  d="M147.551 110.7187L162.188 110.7187" stroke="#ED1C24" stroke-width="0.145247" stroke-linejoin="miter" fill="none" />
		</g>
		<g clip-path="url(#71)" >
    <path id=""  transform="matrix(1 0 0 -1 0 279)"  d="M161.391 109.9567L161.391 99.58569" stroke="#ED1C24" stroke-width="0.145247" stroke-linejoin="miter" fill="none" />
		</g>
		<g clip-path="url(#72)" >
    <path id=""  transform="matrix(1 0 0 -1 0 279)"  d="M160.98 109.1947L161.391 110.7187L161.391 110.7187L161.801 109.1947L161.801 109.1947L160.98 109.1947" stroke="none" fill="#ED1C24" fill-rule="evenodd" />
		</g>
		<g clip-path="url(#73)" >
    <path id=""  transform="matrix(1 0 0 -1 0 279)"  d="M160.98 100.3477L161.391 98.8237L161.391 98.8237L161.801 100.3477L161.801 100.3477L160.98 100.3477" stroke="none" fill="#ED1C24" fill-rule="evenodd" />
		</g>
		<g clip-path="url(#74)" >
    <path id=""  transform="matrix(1 0 0 -1 0 279)"  d="M202.355 102.5627C 202.355 101.3437 202.508 100.5467 202.777 100.1477C 203.07 99.74969 203.41 99.55069 203.82 99.55069C 204.23 99.55069 204.582 99.76169 204.863 100.1477C 205.145 100.5467 205.285 101.3557 205.285 102.5627C 205.285 103.7697 205.145 104.5657 204.863 104.9647C 204.594 105.3627 204.23 105.5627 203.809 105.5627C 203.41 105.5627 203.07 105.3867 202.824 105.0347C 202.508 104.5897 202.355 103.7697 202.355 102.5627zM201.441 102.5627C 201.441 103.4297 201.535 104.1207 201.699 104.6597C 201.887 105.1877 202.145 105.5977 202.508 105.8787C 202.848 106.1597 203.293 106.3007 203.82 106.3007C 204.219 106.3007 204.559 106.2187 204.863 106.0657C 205.156 105.9017 205.402 105.6797 205.602 105.3867C 205.789 105.0817 205.93 104.7187 206.047 104.2967C 206.164 103.8627 206.211 103.2887 206.211 102.5627C 206.211 101.6947 206.117 101.0037 205.941 100.4767C 205.766 99.9487 205.508 99.5387 205.156 99.2457C 204.805 98.96469 204.359 98.8237 203.82 98.8237C 203.117 98.8237 202.566 99.06969 202.168 99.5737C 201.688 100.1947 201.441 101.1797 201.441 102.5627zM195.746 100.8627L196.684 100.9337C 196.754 100.4767 196.918 100.1367 197.164 99.90169C 197.422 99.66769 197.727 99.55069 198.102 99.55069C 198.535 99.55069 198.898 99.71469 199.203 100.0427C 199.496 100.3707 199.648 100.8047 199.648 101.3437C 199.648 101.8587 199.496 102.2697 199.215 102.5627C 198.934 102.8667 198.559 103.0077 198.09 103.0077C 197.797 103.0077 197.539 102.9487 197.305 102.8087C 197.07 102.6797 196.895 102.5037 196.754 102.2927L196.754 102.2927L195.91 102.4097L195.91 102.4097L196.613 106.1837L196.613 106.1837L200.246 106.1837L200.246 106.1837L200.246 105.3157L200.246 105.3157L197.328 105.3157L197.328 105.3157L196.941 103.3477C 197.387 103.6517 197.844 103.8047 198.324 103.8047C 198.957 103.8047 199.496 103.5817 199.941 103.1367C 200.387 102.7027 200.598 102.1287 200.598 101.4257C 200.598 100.7697 200.398 100.1947 200.023 99.71469C 199.555 99.1167 198.91 98.8237 198.102 98.8237C 197.434 98.8237 196.895 98.99969 196.473 99.38669C 196.039 99.74969 195.805 100.2537 195.746 100.8627zM194.77 99.79669L194.77 98.94069L194.77 98.94069L189.906 98.94069C 189.895 99.15169 189.941 99.37469 190.012 99.5627C 190.141 99.89069 190.34 100.2187 190.621 100.5347C 190.891 100.8627 191.277 101.2377 191.793 101.6477C 192.578 102.3047 193.129 102.8197 193.41 103.2067C 193.691 103.5817 193.832 103.9447 193.832 104.2847C 193.832 104.6477 193.715 104.9407 193.457 105.1877C 193.199 105.4337 192.859 105.5627 192.449 105.5627C 192.016 105.5627 191.664 105.4217 191.406 105.1637C 191.137 104.9177 191.008 104.5547 191.008 104.0977L191.008 104.0977L190.082 104.1797C 190.141 104.8707 190.387 105.3977 190.797 105.7617C 191.207 106.1247 191.77 106.3007 192.473 106.3007C 193.164 106.3007 193.727 106.1127 194.137 105.7267C 194.547 105.3277 194.758 104.8357 194.758 104.2617C 194.758 103.9687 194.699 103.6877 194.57 103.4057C 194.453 103.1247 194.254 102.8197 193.973 102.5037C 193.703 102.1877 193.234 101.7537 192.59 101.2147C 192.051 100.7697 191.699 100.4527 191.547 100.2887C 191.395 100.1247 191.266 99.96069 191.172 99.79669zM183.668 101.1447L183.668 102.0467L183.668 102.0467L186.457 102.0467L186.457 102.0467L186.457 101.1447zM176.152 102.5627C 176.152 101.3437 176.305 100.5467 176.574 100.1477C 176.867 99.74969 177.207 99.55069 177.617 99.55069C 178.027 99.55069 178.379 99.76169 178.66 100.1477C 178.941 100.5467 179.082 101.3557 179.082 102.5627C 179.082 103.7697 178.941 104.5657 178.66 104.9647C 178.391 105.3627 178.027 105.5627 177.605 105.5627C 177.207 105.5627 176.867 105.3867 176.621 105.0347C 176.305 104.5897 176.152 103.7697 176.152 102.5627zM175.238 102.5627C 175.238 103.4297 175.332 104.1207 175.496 104.6597C 175.684 105.1877 175.941 105.5977 176.305 105.8787C 176.645 106.1597 177.09 106.3007 177.617 106.3007C 178.016 106.3007 178.355 106.2187 178.66 106.0657C 178.953 105.9017 179.199 105.6797 179.398 105.3867C 179.586 105.0817 179.727 104.7187 179.844 104.2967C 179.961 103.8627 180.008 103.2887 180.008 102.5627C 180.008 101.6947 179.914 101.0037 179.738 100.4767C 179.563 99.9487 179.305 99.5387 178.953 99.2457C 178.602 98.96469 178.156 98.8237 177.617 98.8237C 176.914 98.8237 176.363 99.06969 175.965 99.5737C 175.484 100.1947 175.238 101.1797 175.238 102.5627zM169.543 100.8627L170.48 100.9337C 170.551 100.4767 170.715 100.1367 170.961 99.90169C 171.219 99.66769 171.523 99.55069 171.898 99.55069C 172.332 99.55069 172.695 99.71469 173 100.0427C 173.293 100.3707 173.445 100.8047 173.445 101.3437C 173.445 101.8587 173.293 102.2697 173.012 102.5627C 172.73 102.8667 172.355 103.0077 171.887 103.0077C 171.594 103.0077 171.336 102.9487 171.102 102.8087C 170.867 102.6797 170.691 102.5037 170.551 102.2927L170.551 102.2927L169.707 102.4097L169.707 102.4097L170.41 106.1837L170.41 106.1837L174.043 106.1837L174.043 106.1837L174.043 105.3157L174.043 105.3157L171.125 105.3157L171.125 105.3157L170.738 103.3477C 171.184 103.6517 171.641 103.8047 172.121 103.8047C 172.754 103.8047 173.293 103.5817 173.738 103.1367C 174.184 102.7027 174.395 102.1287 174.395 101.4257C 174.395 100.7697 174.195 100.1947 173.82 99.71469C 173.352 99.1167 172.707 98.8237 171.898 98.8237C 171.23 98.8237 170.691 98.99969 170.27 99.38669C 169.836 99.74969 169.602 100.2537 169.543 100.8627zM167.219 98.94069L166.316 98.94069L166.316 98.94069L166.316 104.6717C 166.105 104.4727 165.813 104.2617 165.473 104.0627C 165.109 103.8627 164.793 103.6987 164.512 103.5937L164.512 103.5937L164.512 104.4607C 165.016 104.6947 165.461 104.9877 165.836 105.3157C 166.211 105.6557 166.48 105.9837 166.633 106.3007L166.633 106.3007L167.219 106.3007z" stroke="none" fill="#EF3221" fill-rule="nonzero" />
		</g>
		<g clip-path="url(#75)" >
    <path id=""  transform="matrix(1 0 0 -1 0 279)"  d="M64.828 93.9337C 62.02 93.9337 59.742 96.21069 59.742 99.01569C 59.742 101.8237 62.02 104.1017 64.828 104.1017C 67.633 104.1017 69.91 101.8237 69.91 99.01569C 69.91 96.21069 67.633 93.9337 64.828 93.9337" stroke="none" fill="#FFFFFF" fill-rule="evenodd" />
		</g>
		<g clip-path="url(#76)" >
    <path id=""  transform="matrix(1 0 0 -1 0 279)"  d="M64.828 93.9337C 62.02 93.9337 59.742 96.21069 59.742 99.01569C 59.742 101.8237 62.02 104.1017 64.828 104.1017C 67.633 104.1017 69.91 101.8237 69.91 99.01569C 69.91 96.21069 67.633 93.9337 64.828 93.9337z" stroke="#000000" stroke-width="0.0363089" stroke-linejoin="miter" fill="none" />
		</g>
		<g clip-path="url(#77)" >
    <path id=""  transform="matrix(1 0 0 -1 0 279)"  d="M64.828 94.24969C 62.195 94.24969 60.059 96.38269 60.059 99.01569C 60.059 101.6477 62.195 103.7847 64.828 103.7847C 67.457 103.7847 69.594 101.6477 69.594 99.01569C 69.594 96.38269 67.457 94.24969 64.828 94.24969" stroke="none" fill="#154889" fill-rule="evenodd" />
		</g>
		<g clip-path="url(#78)" >
    <path id=""  transform="matrix(1 0 0 -1 0 279)"  d="M68.082 98.71069L66.781 97.4057L66.781 97.4057L66.773 98.75769C 66.703 100.4217 65.25 100.8357 64.828 100.8977L64.828 100.8977L61.445 100.8977L61.445 100.8977L61.445 99.9767L61.445 99.9767L64.688 99.9767C 64.844 99.9767 65.699 99.83969 65.879 98.80469L65.879 98.80469L65.875 97.38269L65.875 97.38269L64.547 98.71069L64.547 98.71069L64.547 97.56569L64.547 97.56569L66.313 95.80469L66.313 95.80469L66.313 95.79669L66.313 95.79669L68.082 97.56569L68.082 97.56569L68.082 98.71069" stroke="none" fill="#FFFFFF" fill-rule="evenodd" />
		</g>
	</g>
</g>
</svg>