<?xml version="1.0" standalone="no"?>
<!DOCTYPE svg PUBLIC "-//W3C//DTD SVG 1.0//EN" "http://www.w3.org/TR/2001/REC-SVG-20010904/DTD/svg10.dtd">
<svg xmlns="http://www.w3.org/2000/svg" xmlns:xlink="http://www.w3.org/1999/xlink" id="body_1" width="303" height="727">

<defs>
    <clipPath  id="1">

    <path id=""  clip-rule="evenodd" transform="matrix(1 0 0 1 0 0)"  d="M0 545L0 0L0 0L227 0L227 0L227 545L227 545L0 545z" />    </clipPath>
    <clipPath  id="2">

    <path id=""  clip-rule="evenodd" transform="matrix(1 0 0 1 0 0)"  d="M0 0L227 0L227 0L227 545L227 545L0 545z" />    </clipPath>
    <clipPath  id="3">

    <path id=""  clip-rule="evenodd" transform="matrix(1 0 0 1 0 0)"  d="M0 0L227 0L227 0L227 545L227 545L0 545z" />    </clipPath>
    <clipPath  id="4">

    <path id=""  clip-rule="evenodd" transform="matrix(1 0 0 1 0 0)"  d="M0 0L227 0L227 0L227 545L227 545L0 545z" />    </clipPath>
    <clipPath  id="5">

    <path id=""  clip-rule="evenodd" transform="matrix(1 0 0 1 0 0)"  d="M0 0L227 0L227 0L227 545L227 545L0 545z" />    </clipPath>
    <clipPath  id="6">

    <path id=""  clip-rule="evenodd" transform="matrix(1 0 0 1 0 0)"  d="M0 0L227 0L227 0L227 545L227 545L0 545z" />    </clipPath>
    <clipPath  id="7">

    <path id=""  clip-rule="evenodd" transform="matrix(1 0 0 1 0 0)"  d="M0 0L227 0L227 0L227 545L227 545L0 545z" />    </clipPath>
    <clipPath  id="8">

    <path id=""  clip-rule="evenodd" transform="matrix(1 0 0 1 0 0)"  d="M0 0L227 0L227 0L227 545L227 545L0 545z" />    </clipPath>
    <clipPath  id="9">

    <path id=""  clip-rule="evenodd" transform="matrix(1 0 0 1 0 0)"  d="M0 0L227 0L227 0L227 545L227 545L0 545z" />    </clipPath>
    <clipPath  id="10">

    <path id=""  clip-rule="evenodd" transform="matrix(1 0 0 1 0 0)"  d="M0 0L227 0L227 0L227 545L227 545L0 545z" />    </clipPath>
    <clipPath  id="11">

    <path id=""  clip-rule="evenodd" transform="matrix(1 0 0 1 0 0)"  d="M0 0L227 0L227 0L227 545L227 545L0 545z" />    </clipPath>
    <clipPath  id="12">

    <path id=""  clip-rule="evenodd" transform="matrix(1 0 0 1 0 0)"  d="M0 0L227 0L227 0L227 545L227 545L0 545z" />    </clipPath>
    <clipPath  id="13">

    <path id=""  clip-rule="evenodd" transform="matrix(1 0 0 1 0 0)"  d="M0 0L227 0L227 0L227 545L227 545L0 545z" />    </clipPath>
    <clipPath  id="14">

    <path id=""  clip-rule="evenodd" transform="matrix(1 0 0 1 0 0)"  d="M0 0L227 0L227 0L227 545L227 545L0 545z" />    </clipPath>
    <clipPath  id="15">

    <path id=""  clip-rule="evenodd" transform="matrix(1 0 0 1 0 0)"  d="M0 0L227 0L227 0L227 545L227 545L0 545z" />    </clipPath>
    <clipPath  id="16">

    <path id=""  clip-rule="evenodd" transform="matrix(1 0 0 1 0 0)"  d="M0 0L227 0L227 0L227 545L227 545L0 545z" />    </clipPath>
    <clipPath  id="17">

    <path id=""  clip-rule="evenodd" transform="matrix(1 0 0 1 0 0)"  d="M0 0L227 0L227 0L227 545L227 545L0 545z" />    </clipPath>
    <clipPath  id="18">

    <path id=""  clip-rule="evenodd" transform="matrix(1 0 0 1 0 0)"  d="M0 0L227 0L227 0L227 545L227 545L0 545z" />    </clipPath>
    <clipPath  id="19">

    <path id=""  clip-rule="evenodd" transform="matrix(1 0 0 1 0 0)"  d="M0 0L227 0L227 0L227 545L227 545L0 545z" />    </clipPath>
    <clipPath  id="20">

    <path id=""  clip-rule="evenodd" transform="matrix(1 0 0 1 0 0)"  d="M0 0L227 0L227 0L227 545L227 545L0 545z" />    </clipPath>
    <clipPath  id="21">

    <path id=""  clip-rule="evenodd" transform="matrix(1 0 0 1 0 0)"  d="M0 0L227 0L227 0L227 545L227 545L0 545z" />    </clipPath>
    <clipPath  id="22">

    <path id=""  clip-rule="evenodd" transform="matrix(1 0 0 1 0 0)"  d="M0 0L227 0L227 0L227 545L227 545L0 545z" />    </clipPath>
    <clipPath  id="23">

    <path id=""  clip-rule="evenodd" transform="matrix(1 0 0 1 0 0)"  d="M0 0L227 0L227 0L227 545L227 545L0 545z" />    </clipPath>
    <clipPath  id="24">

    <path id=""  clip-rule="evenodd" transform="matrix(1 0 0 1 0 0)"  d="M0 0L227 0L227 0L227 545L227 545L0 545z" />    </clipPath>
    <clipPath  id="25">

    <path id=""  clip-rule="evenodd" transform="matrix(1 0 0 1 0 0)"  d="M0 0L227 0L227 0L227 545L227 545L0 545z" />    </clipPath>
    <clipPath  id="26">

    <path id=""  clip-rule="evenodd" transform="matrix(1 0 0 1 0 0)"  d="M0 0L227 0L227 0L227 545L227 545L0 545z" />    </clipPath>
    <clipPath  id="27">

    <path id=""  clip-rule="evenodd" transform="matrix(1 0 0 1 0 0)"  d="M0 0L227 0L227 0L227 545L227 545L0 545z" />    </clipPath>
    <clipPath  id="28">

    <path id=""  clip-rule="evenodd" transform="matrix(1 0 0 1 0 0)"  d="M0 0L227 0L227 0L227 545L227 545L0 545z" />    </clipPath>
    <clipPath  id="29">

    <path id=""  clip-rule="evenodd" transform="matrix(1 0 0 1 0 0)"  d="M0 0L227 0L227 0L227 545L227 545L0 545z" />    </clipPath>
    <clipPath  id="30">

    <path id=""  clip-rule="evenodd" transform="matrix(1 0 0 1 0 0)"  d="M0 0L227 0L227 0L227 545L227 545L0 545z" />    </clipPath>
    <clipPath  id="31">

    <path id=""  clip-rule="evenodd" transform="matrix(1 0 0 1 0 0)"  d="M0 0L227 0L227 0L227 545L227 545L0 545z" />    </clipPath>
    <clipPath  id="32">

    <path id=""  clip-rule="evenodd" transform="matrix(1 0 0 1 0 0)"  d="M0 0L227 0L227 0L227 545L227 545L0 545z" />    </clipPath>
    <clipPath  id="33">

    <path id=""  clip-rule="evenodd" transform="matrix(1 0 0 1 0 0)"  d="M0 0L227 0L227 0L227 545L227 545L0 545z" />    </clipPath>
    <clipPath  id="34">

    <path id=""  clip-rule="evenodd" transform="matrix(1 0 0 1 0 0)"  d="M0 0L227 0L227 0L227 545L227 545L0 545z" />    </clipPath>
    <clipPath  id="35">

    <path id=""  clip-rule="evenodd" transform="matrix(1 0 0 1 0 0)"  d="M0 0L227 0L227 0L227 545L227 545L0 545z" />    </clipPath>
    <clipPath  id="36">

    <path id=""  clip-rule="evenodd" transform="matrix(1 0 0 1 0 0)"  d="M0 0L227 0L227 0L227 545L227 545L0 545z" />    </clipPath>
    <clipPath  id="37">

    <path id=""  clip-rule="evenodd" transform="matrix(1 0 0 1 0 0)"  d="M0 0L227 0L227 0L227 545L227 545L0 545z" />    </clipPath>
    <clipPath  id="38">

    <path id=""  clip-rule="evenodd" transform="matrix(1 0 0 1 0 0)"  d="M0 0L227 0L227 0L227 545L227 545L0 545z" />    </clipPath>
    <clipPath  id="39">

    <path id=""  clip-rule="evenodd" transform="matrix(1 0 0 1 0 0)"  d="M0 0L227 0L227 0L227 545L227 545L0 545z" />    </clipPath>
    <clipPath  id="40">

    <path id=""  clip-rule="evenodd" transform="matrix(1 0 0 1 0 0)"  d="M0 0L227 0L227 0L227 545L227 545L0 545z" />    </clipPath>
    <clipPath  id="41">

    <path id=""  clip-rule="evenodd" transform="matrix(1 0 0 1 0 0)"  d="M0 0L227 0L227 0L227 545L227 545L0 545z" />    </clipPath>
    <clipPath  id="42">

    <path id=""  clip-rule="evenodd" transform="matrix(1 0 0 1 0 0)"  d="M0 0L227 0L227 0L227 545L227 545L0 545z" />    </clipPath>
    <clipPath  id="43">

    <path id=""  clip-rule="evenodd" transform="matrix(1 0 0 1 0 0)"  d="M0 0L227 0L227 0L227 545L227 545L0 545z" />    </clipPath>
    <clipPath  id="44">

    <path id=""  clip-rule="evenodd" transform="matrix(1 0 0 1 0 0)"  d="M0 0L227 0L227 0L227 545L227 545L0 545z" />    </clipPath>
    <clipPath  id="45">

    <path id=""  clip-rule="evenodd" transform="matrix(1 0 0 1 0 0)"  d="M0 0L227 0L227 0L227 545L227 545L0 545z" />    </clipPath>
    <clipPath  id="46">

    <path id=""  clip-rule="evenodd" transform="matrix(1 0 0 1 0 0)"  d="M0 0L227 0L227 0L227 545L227 545L0 545z" />    </clipPath>
    <clipPath  id="47">

    <path id=""  clip-rule="evenodd" transform="matrix(1 0 0 1 0 0)"  d="M0 0L227 0L227 0L227 545L227 545L0 545z" />    </clipPath>
    <clipPath  id="48">

    <path id=""  clip-rule="evenodd" transform="matrix(1 0 0 1 0 0)"  d="M0 0L227 0L227 0L227 545L227 545L0 545z" />    </clipPath>
    <clipPath  id="49">

    <path id=""  clip-rule="evenodd" transform="matrix(1 0 0 1 0 0)"  d="M0 0L227 0L227 0L227 545L227 545L0 545z" />    </clipPath>
    <clipPath  id="50">

    <path id=""  clip-rule="evenodd" transform="matrix(1 0 0 1 0 0)"  d="M0 0L227 0L227 0L227 545L227 545L0 545z" />    </clipPath>
    <clipPath  id="51">

    <path id=""  clip-rule="evenodd" transform="matrix(1 0 0 1 0 0)"  d="M0 0L227 0L227 0L227 545L227 545L0 545z" />    </clipPath>
    <clipPath  id="52">

    <path id=""  clip-rule="evenodd" transform="matrix(1 0 0 1 0 0)"  d="M0 0L227 0L227 0L227 545L227 545L0 545z" />    </clipPath>
    <clipPath  id="53">

    <path id=""  clip-rule="evenodd" transform="matrix(1 0 0 1 0 0)"  d="M0 0L227 0L227 0L227 545L227 545L0 545z" />    </clipPath>
    <clipPath  id="54">

    <path id=""  clip-rule="evenodd" transform="matrix(1 0 0 1 0 0)"  d="M0 0L227 0L227 0L227 545L227 545L0 545z" />    </clipPath>
    <clipPath  id="55">

    <path id=""  clip-rule="evenodd" transform="matrix(1 0 0 1 0 0)"  d="M0 0L227 0L227 0L227 545L227 545L0 545z" />    </clipPath>
    <clipPath  id="56">

    <path id=""  clip-rule="evenodd" transform="matrix(1 0 0 1 0 0)"  d="M0 0L227 0L227 0L227 545L227 545L0 545z" />    </clipPath>
    <clipPath  id="57">

    <path id=""  clip-rule="evenodd" transform="matrix(1 0 0 1 0 0)"  d="M0 0L227 0L227 0L227 545L227 545L0 545z" />    </clipPath>
    <clipPath  id="58">

    <path id=""  clip-rule="evenodd" transform="matrix(1 0 0 1 0 0)"  d="M0 0L227 0L227 0L227 545L227 545L0 545z" />    </clipPath>
    <clipPath  id="59">

    <path id=""  clip-rule="evenodd" transform="matrix(1 0 0 1 0 0)"  d="M0 0L227 0L227 0L227 545L227 545L0 545z" />    </clipPath>
    <clipPath  id="60">

    <path id=""  clip-rule="evenodd" transform="matrix(1 0 0 1 0 0)"  d="M0 0L227 0L227 0L227 545L227 545L0 545z" />    </clipPath>
    <clipPath  id="61">

    <path id=""  clip-rule="evenodd" transform="matrix(1 0 0 1 0 0)"  d="M0 0L227 0L227 0L227 545L227 545L0 545z" />    </clipPath>
    <clipPath  id="62">

    <path id=""  clip-rule="evenodd" transform="matrix(1 0 0 1 0 0)"  d="M0 0L227 0L227 0L227 545L227 545L0 545z" />    </clipPath>
    <clipPath  id="63">

    <path id=""  clip-rule="evenodd" transform="matrix(1 0 0 1 0 0)"  d="M0 0L227 0L227 0L227 545L227 545L0 545z" />    </clipPath>
    <clipPath  id="64">

    <path id=""  clip-rule="evenodd" transform="matrix(1 0 0 1 0 0)"  d="M0 0L227 0L227 0L227 545L227 545L0 545z" />    </clipPath>
    <clipPath  id="65">

    <path id=""  clip-rule="evenodd" transform="matrix(1 0 0 1 0 0)"  d="M0 0L227 0L227 0L227 545L227 545L0 545z" />    </clipPath>
    <clipPath  id="66">

    <path id=""  clip-rule="evenodd" transform="matrix(1 0 0 1 0 0)"  d="M0 0L227 0L227 0L227 545L227 545L0 545z" />    </clipPath>
</defs>

<g transform="matrix(1.3333 0 0 1.3333 0 0)">
	<g clip-path="url(#1)" >
		<g clip-path="url(#2)" >
    <path id=""  transform="matrix(1 0 0 -1 0 545)"  d="M19.883 545L147.004 545L147.004 545L147.004 0L147.004 0L19.883 0z" stroke="none" fill="#1A1A18" fill-rule="nonzero" />
		</g>
		<g clip-path="url(#3)" >
    <path id=""  transform="matrix(1 0 0 -1 0 545)"  d="M136.879 123.4763C 137.414 153.3246 145.73 184.2579 147.563 190.8045C 149.156 196.5036 157.199 217.641 156.918 239.9652L156.918 239.9652L156.918 294.9998C 157.199 317.324 149.156 338.4613 147.563 344.1605C 145.73 350.7071 137.414 381.6404 136.879 411.4846" stroke="#1A1A18" stroke-width="20.2858" stroke-linejoin="miter" fill="none" />
		</g>
		<g clip-path="url(#4)" >
    <path id=""  transform="matrix(1 0 0 -1 0 545)"  d="M30.191 411.4846C 29.656 381.6404 21.336 350.7071 19.508 344.1605C 17.914 338.4613 9.867 317.324 10.148 294.9998L10.148 294.9998L10.148 239.9652C 9.867 217.641 17.914 196.5036 19.508 190.8045C 21.336 184.2579 29.656 153.3246 30.191 123.4763" stroke="#1A1A18" stroke-width="20.2858" stroke-linejoin="miter" fill="none" />
		</g>
		<g clip-path="url(#5)" >
    <path id=""  transform="matrix(1 0 0 -1 0 545)"  d="M82.09 46.68399L84.797 46.68399L84.797 46.68399L84.797 19.68402L84.797 19.68402L82.09 19.68402zM82.09 100.684L84.797 100.684L84.797 100.684L84.797 73.68399L84.797 73.68399L82.09 73.68399zM82.09 439.996L84.797 439.996L84.797 439.996L84.797 412.992L84.797 412.992L82.09 412.992zM82.09 493.996L84.797 493.996L84.797 493.996L84.797 466.996L84.797 466.996L82.09 466.996zM82.09 545L84.797 545L84.797 545L84.797 520.996L84.797 520.996L82.09 520.996z" stroke="none" fill="#FFFFFF" fill-rule="nonzero" />
		</g>
		<g clip-path="url(#6)" >
    <path id=""  transform="matrix(1 0 0 -1 0 545)"  d="M79.87891 154.961L91.75819 178.371" stroke="#FFFFFF" stroke-width="3.78669" stroke-linejoin="miter" fill="none" />
		</g>
		<g clip-path="url(#7)" >
    <path id=""  transform="matrix(1 0 0 -1 0 545)"  d="M27.949 0L25.258 0L25.258 0L25.285 123.484C 25.02 138.301 22.816 153.422 20.449 165.652C 18.082 177.902 15.559 187.223 14.648 190.477C 14.406 191.34 14.035 192.5 13.574 193.945C 10.844 202.5 5.008 220.781 5.246 239.992L5.246 239.992L5.246 295.027C 5.008 314.242 10.844 332.52 13.574 341.074C 14.035 342.52 14.406 343.68 14.648 344.547C 15.559 347.801 18.082 357.117 20.449 369.367C 22.816 381.598 25.02 396.719 25.285 411.535L25.285 411.535L25.34 545L25.34 545L28.035 545L28.035 545L27.98 411.492C 27.711 396.465 25.488 381.195 23.102 368.859C 20.723 356.547 18.168 347.121 17.246 343.828C 17.016 343 16.629 341.781 16.141 340.262C 13.453 331.836 7.703 313.832 7.938 295.043L7.938 295.043L7.938 239.977C 7.703 221.187 13.453 203.184 16.141 194.758C 16.629 193.238 17.016 192.023 17.246 191.191C 18.168 187.898 20.723 178.477 23.102 166.16C 25.488 153.828 27.711 138.559 27.98 123.527z" stroke="none" fill="#FFFFFF" fill-rule="nonzero" />
		</g>
		<g clip-path="url(#8)" >
    <path id=""  transform="matrix(1 0 0 -1 0 545)"  d="M141.582 123.453L141.551 0L141.551 0L138.855 0L138.855 0L138.887 123.473C 138.887 137.113 141.168 152.703 143.766 166.125C 146.145 178.441 148.699 187.867 149.617 191.16C 149.852 191.988 150.238 193.207 150.727 194.727C 153.414 203.148 159.164 221.156 158.926 239.945L158.926 239.945L158.926 295.012C 159.164 313.801 153.414 331.805 150.727 340.227C 150.238 341.746 149.852 342.965 149.617 343.793C 148.699 347.09 146.145 356.512 143.766 368.828C 141.379 381.16 139.156 396.43 138.887 411.461L138.887 411.461L139.188 545L139.188 545L141.883 545L141.883 545L141.602 410.547C 141.941 396.035 144.102 381.301 146.414 369.332C 148.785 357.082 151.309 347.766 152.219 344.512C 152.461 343.648 152.832 342.488 153.293 341.039C 156.023 332.484 161.859 314.207 161.621 294.996L161.621 294.996L161.621 239.961C 161.859 220.746 156.023 202.469 153.293 193.914C 152.832 192.465 152.461 191.305 152.219 190.441C 151.309 187.187 148.785 177.871 146.414 165.621C 144.051 153.387 141.848 138.27 141.582 123.453" stroke="none" fill="#FFFFFF" fill-rule="nonzero" />
		</g>
		<g clip-path="url(#9)" >
    <path id=""  transform="matrix(1 0 0 -1 0 545)"  d="M76.19543 177.043L103.9572 231.766" stroke="#FFFFFF" stroke-width="3.78669" stroke-linejoin="miter" fill="none" />
		</g>
		<g clip-path="url(#10)" >
    <path id=""  transform="matrix(1 0 0 -1 0 545)"  d="M71.19506 197L94.37864 242.695" stroke="#FFFFFF" stroke-width="3.78669" stroke-linejoin="miter" fill="none" />
		</g>
		<g clip-path="url(#11)" >
    <path id=""  transform="matrix(1 0 0 -1 0 545)"  d="M64.53142 213.75L78.46456 241.211" stroke="#FFFFFF" stroke-width="3.78669" stroke-linejoin="miter" fill="none" />
		</g>
		<g clip-path="url(#12)" >
    <path id=""  transform="matrix(1 0 0 -1 0 545)"  d="M88.73455 293.562L101.5976 318.91" stroke="#FFFFFF" stroke-width="3.78669" stroke-linejoin="miter" fill="none" />
		</g>
		<g clip-path="url(#13)" >
    <path id=""  transform="matrix(1 0 0 -1 0 545)"  d="M73.83234 293.676L96.33994 338.043" stroke="#FFFFFF" stroke-width="3.78669" stroke-linejoin="miter" fill="none" />
		</g>
		<g clip-path="url(#14)" >
    <path id=""  transform="matrix(1 0 0 -1 0 545)"  d="M62.92984 301.676L91.34377 357.684" stroke="#FFFFFF" stroke-width="3.78669" stroke-linejoin="miter" fill="none" />
		</g>
		<g clip-path="url(#15)" >
    <path id=""  transform="matrix(1 0 0 -1 0 545)"  d="M74.57422 354.121L87.34404 379.289" stroke="#FFFFFF" stroke-width="3.78669" stroke-linejoin="miter" fill="none" />
		</g>
		<g clip-path="url(#16)" >
    <path id=""  transform="matrix(1 0 0 -1 0 545)"  d="M85.84 123.3555C 86.379 153.1988 95.031 184.3787 96.887 190.9293C 98.496 196.6254 106.641 217.7617 106.355 240.086" stroke="#1A1A18" stroke-width="2.704772" stroke-linejoin="miter" fill="none" />
		</g>
		<g clip-path="url(#17)" >
    <path id=""  transform="matrix(1 0 0 -1 0 545)"  d="M81.285 123.3555C 80.746 153.1988 72.094 184.3787 70.242 190.9293C 68.629 196.6254 60.484 217.7617 60.77 240.086" stroke="#1A1A18" stroke-width="2.704772" stroke-linejoin="miter" fill="none" />
		</g>
		<g clip-path="url(#18)" >
    <path id=""  transform="matrix(1 0 0 -1 0 545)"  d="M85.84 412.9142C 86.379 383.0699 95.031 351.8911 96.887 345.3434C 98.496 339.6443 106.641 318.508 106.355 296.1837" stroke="#1A1A18" stroke-width="2.704772" stroke-linejoin="miter" fill="none" />
		</g>
		<g clip-path="url(#19)" >
    <path id=""  transform="matrix(1 0 0 -1 0 545)"  d="M81.285 412.9142C 80.746 383.0699 72.094 351.8911 70.242 345.3434C 68.629 339.6443 60.484 318.508 60.77 296.1837" stroke="#1A1A18" stroke-width="2.704772" stroke-linejoin="miter" fill="none" />
		</g>
		<g clip-path="url(#20)" >
    <path id=""  transform="matrix(1 0 0 -1 0 545)"  d="M159.094 240.9645L103.957 240.9645" stroke="#FFFFFF" stroke-width="2.704772" stroke-linejoin="miter" stroke-dasharray="2.00007390975952,2.00007390975952" fill="none" />
		</g>
		<g clip-path="url(#21)" >
    <path id=""  transform="matrix(1 0 0 -1 0 545)"  d="M159.094 294.9768L103.957 294.9768" stroke="#FFFFFF" stroke-width="2.704772" stroke-linejoin="miter" stroke-dasharray="2.00007390975952,2.00007390975952" fill="none" />
		</g>
		<g clip-path="url(#22)" >
    <path id=""  transform="matrix(1 0 0 -1 0 545)"  d="M7.777 240.9645L62.914 240.9645" stroke="#FFFFFF" stroke-width="2.704772" stroke-linejoin="miter" stroke-dasharray="2.00007390975952,2.00007390975952" fill="none" />
		</g>
		<g clip-path="url(#23)" >
    <path id=""  transform="matrix(1 0 0 -1 0 545)"  d="M7.777 294.9768L62.914 294.9768" stroke="#FFFFFF" stroke-width="2.704772" stroke-linejoin="miter" stroke-dasharray="2.00007390975952,2.00007390975952" fill="none" />
		</g>
		<g clip-path="url(#24)" >
    <path id=""  transform="matrix(1 0 0 -1 0 545)"  d="M83.434 123.3555C 82.898 153.1988 74.582 184.1371 72.75 190.6837C 71.156 196.3788 63.113 217.5192 63.395 239.8434" stroke="#FFFFFF" stroke-width="2.704772" stroke-linejoin="miter" fill="none" />
		</g>
		<g clip-path="url(#25)" >
    <path id=""  transform="matrix(1 0 0 -1 0 545)"  d="M83.434 123.3555C 83.977 153.1988 92.629 184.3787 94.48 190.9293C 96.094 196.6254 104.234 217.7617 103.949 240.086" stroke="#FFFFFF" stroke-width="2.704772" stroke-linejoin="miter" fill="none" />
		</g>
		<g clip-path="url(#26)" >
    <path id=""  transform="matrix(1 0 0 -1 0 545)"  d="M83.434 411.4846C 82.898 381.6404 74.582 350.7071 72.75 344.1605C 71.156 338.4613 63.113 317.324 63.395 294.9998" stroke="#FFFFFF" stroke-width="2.704772" stroke-linejoin="miter" fill="none" />
		</g>
		<g clip-path="url(#27)" >
    <path id=""  transform="matrix(1 0 0 -1 0 545)"  d="M83.434 411.4846C 83.977 381.6404 92.629 350.4605 94.48 343.9139C 96.094 338.2148 104.234 317.0784 103.949 294.7542" stroke="#FFFFFF" stroke-width="2.704772" stroke-linejoin="miter" fill="none" />
		</g>
		<g clip-path="url(#28)" >
    <path id=""  transform="matrix(1 0 0 -1 0 545)"  d="M63.387 294.9688L103.957 294.9688L103.957 294.9688L103.957 240.9645L103.957 240.9645L63.387 240.9645z" stroke="#FFFFFF" stroke-width="2.704772" stroke-linejoin="miter" fill="#1A1A18" fill-rule="evenodd" />
		</g>
		<g clip-path="url(#29)" >
    <path id=""  transform="matrix(1 0 0 -1 0 545)"  d="M105.445 294.9688L114.707 294.9688" stroke="#E3000F" stroke-width="0.270478" stroke-linejoin="miter" fill="none" />
		</g>
		<g clip-path="url(#30)" >
    <path id=""  transform="matrix(1 0 0 -1 0 545)"  d="M105.445 240.9645L114.707 240.9645" stroke="#E3000F" stroke-width="0.270478" stroke-linejoin="miter" fill="none" />
		</g>
		<g clip-path="url(#31)" >
    <path id=""  transform="matrix(1 0 0 -1 0 545)"  d="M113.98 292.133L112.457 292.133L112.457 292.133L113.219 294.969zM113.352 293.551L113.352 242.383L113.352 242.383L113.082 242.383L113.082 242.383L113.082 293.551zM113.98 243.801L113.219 240.965L113.219 240.965L112.457 243.801z" stroke="none" fill="#E3000F" fill-rule="nonzero" />
		</g>
		<g clip-path="url(#32)" >
    <path id=""  transform="matrix(1 0 0 -1 0 545)"  d="M103.957 239.4801L103.957 230.891" stroke="#E3000F" stroke-width="0.270478" stroke-linejoin="miter" fill="none" />
		</g>
		<g clip-path="url(#33)" >
    <path id=""  transform="matrix(1 0 0 -1 0 545)"  d="M63.387 239.4801L63.387 230.891" stroke="#E3000F" stroke-width="0.270478" stroke-linejoin="miter" fill="none" />
		</g>
		<g clip-path="url(#34)" >
    <path id=""  transform="matrix(1 0 0 -1 0 545)"  d="M101.117 231.617L101.117 233.137L101.117 233.137L103.957 232.375zM102.539 232.242L64.805 232.242L64.805 232.242L64.805 232.512L64.805 232.512L102.539 232.512zM66.227 231.617L63.387 232.375L63.387 232.375L66.227 233.137z" stroke="none" fill="#E3000F" fill-rule="nonzero" />
		</g>
		<g clip-path="url(#35)" >
    <path id=""  transform="matrix(1 0 0 -1 0 545)"  d="M108.961 222.785C 108.961 221.098 109.16 219.984 109.547 219.434C 109.945 218.871 110.426 218.602 111 218.602C 111.578 218.602 112.059 218.895 112.469 219.434C 112.844 219.984 113.055 221.121 113.055 222.785C 113.055 224.473 112.844 225.586 112.469 226.148C 112.082 226.699 111.578 226.969 110.988 226.969C 110.414 226.969 109.945 226.734 109.605 226.242C 109.172 225.621 108.961 224.473 108.961 222.785zM107.668 222.785C 107.668 224.004 107.797 224.977 108.043 225.715C 108.301 226.465 108.652 227.027 109.16 227.414C 109.641 227.812 110.262 228.012 111 228.012C 111.555 228.012 112.035 227.906 112.445 227.684C 112.867 227.461 113.211 227.145 113.48 226.734C 113.75 226.312 113.949 225.809 114.113 225.223C 114.266 224.613 114.336 223.805 114.336 222.785C 114.336 221.59 114.207 220.617 113.973 219.891C 113.727 219.141 113.352 218.578 112.867 218.176C 112.375 217.766 111.754 217.566 111 217.566C 110.016 217.566 109.242 217.93 108.688 218.637C 108.008 219.492 107.668 220.875 107.668 222.785zM99.707 220.43L101.023 220.535C 101.129 219.891 101.352 219.422 101.703 219.094C 102.055 218.766 102.488 218.602 103.008 218.602C 103.617 218.602 104.121 218.836 104.543 219.293C 104.969 219.75 105.168 220.348 105.168 221.098C 105.168 221.812 104.969 222.387 104.555 222.809C 104.18 223.219 103.641 223.418 102.984 223.418C 102.57 223.418 102.219 223.336 101.879 223.148C 101.574 222.961 101.316 222.715 101.129 222.422L101.129 222.422L99.941 222.586L99.941 222.586L100.93 227.848L100.93 227.848L106.012 227.848L106.012 227.848L106.012 226.641L106.012 226.641L101.926 226.641L101.926 226.641L101.387 223.887C 101.996 224.32 102.641 224.531 103.313 224.531C 104.203 224.531 104.969 224.215 105.578 223.605C 106.188 222.984 106.492 222.187 106.492 221.215C 106.492 220.289 106.223 219.492 105.695 218.812C 105.039 217.988 104.133 217.566 103.008 217.566C 102.066 217.566 101.316 217.824 100.73 218.352C 100.129 218.871 99.801 219.574 99.707 220.43zM91.746 220.465L93.004 220.629C 93.156 219.914 93.391 219.398 93.742 219.094C 94.094 218.777 94.508 218.613 95.012 218.613C 95.609 218.613 96.113 218.812 96.527 219.234C 96.926 219.645 97.137 220.148 97.137 220.758C 97.137 221.332 96.949 221.801 96.563 222.187C 96.184 222.562 95.715 222.75 95.129 222.75C 94.883 222.75 94.59 222.703 94.234 222.598L94.234 222.598L94.367 223.699C 94.461 223.687 94.531 223.687 94.59 223.687C 95.117 223.687 95.598 223.828 96.031 224.098C 96.457 224.391 96.68 224.812 96.68 225.387C 96.68 225.855 96.516 226.23 96.195 226.535C 95.879 226.84 95.48 226.992 95 226.992C 94.496 226.992 94.094 226.828 93.766 226.535C 93.438 226.219 93.238 225.75 93.133 225.129L93.133 225.129L91.875 225.363C 92.039 226.207 92.383 226.863 92.922 227.32C 93.461 227.789 94.152 228.012 94.965 228.012C 95.527 228.012 96.043 227.906 96.504 227.66C 96.973 227.414 97.348 227.086 97.594 226.687C 97.828 226.277 97.957 225.832 97.957 225.363C 97.957 224.93 97.84 224.531 97.605 224.156C 97.371 223.805 97.02 223.512 96.551 223.301C 97.16 223.16 97.629 222.879 97.957 222.434C 98.285 221.988 98.461 221.449 98.461 220.77C 98.461 219.891 98.133 219.129 97.488 218.508C 96.832 217.883 95.996 217.566 95.012 217.566C 94.105 217.566 93.367 217.848 92.77 218.375C 92.18 218.918 91.84 219.598 91.746 220.465zM82.855 220.816L82.855 222.07L82.855 222.07L86.738 222.07L86.738 222.07L86.738 220.816zM72.359 222.785C 72.359 221.098 72.559 219.984 72.949 219.434C 73.348 218.871 73.828 218.602 74.402 218.602C 74.98 218.602 75.461 218.895 75.871 219.434C 76.246 219.984 76.457 221.121 76.457 222.785C 76.457 224.473 76.246 225.586 75.871 226.148C 75.484 226.699 74.98 226.969 74.391 226.969C 73.816 226.969 73.348 226.734 73.008 226.242C 72.57 225.621 72.359 224.473 72.359 222.785zM71.07 222.785C 71.07 224.004 71.199 224.977 71.445 225.715C 71.703 226.465 72.055 227.027 72.559 227.414C 73.043 227.812 73.664 228.012 74.402 228.012C 74.953 228.012 75.438 227.906 75.848 227.684C 76.27 227.461 76.609 227.145 76.879 226.734C 77.152 226.312 77.352 225.809 77.516 225.223C 77.668 224.613 77.738 223.805 77.738 222.785C 77.738 221.59 77.609 220.617 77.375 219.891C 77.129 219.141 76.75 218.578 76.27 218.176C 75.777 217.766 75.156 217.566 74.402 217.566C 73.418 217.566 72.641 217.93 72.09 218.637C 71.41 219.492 71.07 220.875 71.07 222.785zM63.109 220.43L64.422 220.535C 64.531 219.891 64.754 219.422 65.105 219.094C 65.457 218.766 65.891 218.602 66.406 218.602C 67.02 218.602 67.523 218.836 67.945 219.293C 68.367 219.75 68.566 220.348 68.566 221.098C 68.566 221.812 68.367 222.387 67.957 222.809C 67.582 223.219 67.043 223.418 66.383 223.418C 65.973 223.418 65.621 223.336 65.281 223.148C 64.977 222.961 64.719 222.715 64.531 222.422L64.531 222.422L63.344 222.586L63.344 222.586L64.328 227.848L64.328 227.848L69.414 227.848L69.414 227.848L69.414 226.641L69.414 226.641L65.328 226.641L65.328 226.641L64.789 223.887C 65.398 224.32 66.043 224.531 66.715 224.531C 67.605 224.531 68.367 224.215 68.98 223.605C 69.59 222.984 69.895 222.187 69.895 221.215C 69.895 220.289 69.625 219.492 69.098 218.812C 68.438 217.988 67.535 217.566 66.406 217.566C 65.469 217.566 64.719 217.824 64.129 218.352C 63.531 218.871 63.203 219.574 63.109 220.43zM59.867 217.742L58.613 217.742L58.613 217.742L58.613 225.75C 58.32 225.457 57.906 225.176 57.426 224.883C 56.922 224.602 56.488 224.379 56.098 224.227L56.098 224.227L56.098 225.445C 56.793 225.773 57.414 226.172 57.941 226.641C 58.473 227.121 58.848 227.578 59.059 228.012L59.059 228.012L59.867 228.012z" stroke="none" fill="#E6330F" fill-rule="nonzero" />
		</g>
		<g clip-path="url(#36)" >
    <path id=""  transform="matrix(1 0 0 -1 0 545)"  d="M122.828 292.941C 124.52 292.941 125.633 293.141 126.188 293.527C 126.75 293.926 127.02 294.406 127.02 294.98C 127.02 295.555 126.727 296.035 126.188 296.445C 125.633 296.82 124.496 297.031 122.828 297.031C 121.137 297.031 120.023 296.82 119.457 296.445C 118.906 296.059 118.637 295.555 118.637 294.969C 118.637 294.395 118.871 293.926 119.363 293.586C 119.988 293.152 121.137 292.941 122.828 292.941zM122.828 291.652C 121.605 291.652 120.633 291.781 119.891 292.027C 119.141 292.285 118.578 292.637 118.191 293.141C 117.789 293.621 117.59 294.242 117.59 294.98C 117.59 295.531 117.695 296.012 117.922 296.422C 118.145 296.844 118.461 297.184 118.871 297.453C 119.293 297.723 119.797 297.922 120.387 298.086C 120.996 298.238 121.805 298.309 122.828 298.309C 124.023 298.309 125 298.18 125.727 297.945C 126.48 297.699 127.043 297.324 127.441 296.844C 127.852 296.352 128.051 295.73 128.051 294.98C 128.051 293.996 127.688 293.223 126.984 292.672C 126.125 291.992 124.742 291.652 122.828 291.652zM125.188 283.707L125.082 285.02C 125.727 285.125 126.199 285.348 126.527 285.699C 126.855 286.051 127.02 286.484 127.02 287C 127.02 287.609 126.785 288.113 126.328 288.535C 125.867 288.957 125.27 289.156 124.52 289.156C 123.801 289.156 123.227 288.957 122.805 288.547C 122.395 288.172 122.195 287.633 122.195 286.977C 122.195 286.566 122.277 286.215 122.465 285.875C 122.652 285.57 122.898 285.312 123.191 285.125L123.191 285.125L123.027 283.941L123.027 283.941L117.754 284.926L117.754 284.926L117.754 290L117.754 290L118.965 290L118.965 290L118.965 285.922L118.965 285.922L121.723 285.383C 121.289 285.992 121.078 286.637 121.078 287.305C 121.078 288.195 121.395 288.957 122.008 289.566C 122.629 290.176 123.426 290.48 124.402 290.48C 125.328 290.48 126.125 290.211 126.809 289.684C 127.629 289.027 128.051 288.125 128.051 287C 128.051 286.062 127.793 285.312 127.266 284.727C 126.75 284.129 126.043 283.801 125.188 283.707zM124.273 279.781L119.656 279.781L119.656 279.781L124.273 276.582zM127.875 279.781L125.434 279.781L125.434 279.781L125.434 275.34L125.434 275.34L124.273 275.34L124.273 275.34L117.625 280.004L117.625 280.004L117.625 281.035L117.625 281.035L124.273 281.035L124.273 281.035L124.273 282.418L124.273 282.418L125.434 282.418L125.434 282.418L125.434 281.035L125.434 281.035L127.875 281.035zM124.801 266.879L123.543 266.879L123.543 266.879L123.543 270.758L123.543 270.758L124.801 270.758zM122.828 256.402C 124.52 256.402 125.633 256.602 126.188 256.988C 126.75 257.387 127.02 257.867 127.02 258.441C 127.02 259.016 126.727 259.496 126.188 259.906C 125.633 260.281 124.496 260.492 122.828 260.492C 121.137 260.492 120.023 260.281 119.457 259.906C 118.906 259.52 118.637 259.016 118.637 258.43C 118.637 257.855 118.871 257.387 119.363 257.047C 119.988 256.613 121.137 256.402 122.828 256.402zM122.828 255.113C 121.605 255.113 120.633 255.242 119.891 255.488C 119.141 255.746 118.578 256.098 118.191 256.602C 117.789 257.082 117.59 257.703 117.59 258.441C 117.59 258.992 117.695 259.473 117.922 259.883C 118.145 260.305 118.461 260.645 118.871 260.914C 119.293 261.187 119.797 261.387 120.387 261.551C 120.996 261.703 121.805 261.773 122.828 261.773C 124.023 261.773 125 261.645 125.727 261.41C 126.48 261.164 127.043 260.785 127.441 260.305C 127.852 259.812 128.051 259.191 128.051 258.441C 128.051 257.457 127.688 256.684 126.984 256.133C 126.125 255.453 124.742 255.113 122.828 255.113zM122.828 248.457C 124.52 248.457 125.633 248.656 126.188 249.043C 126.75 249.441 127.02 249.922 127.02 250.496C 127.02 251.07 126.727 251.551 126.188 251.961C 125.633 252.336 124.496 252.547 122.828 252.547C 121.137 252.547 120.023 252.336 119.457 251.961C 118.906 251.574 118.637 251.07 118.637 250.484C 118.637 249.91 118.871 249.441 119.363 249.102C 119.988 248.668 121.137 248.457 122.828 248.457zM122.828 247.168C 121.605 247.168 120.633 247.297 119.891 247.543C 119.141 247.801 118.578 248.152 118.191 248.656C 117.789 249.137 117.59 249.758 117.59 250.496C 117.59 251.047 117.695 251.527 117.922 251.937C 118.145 252.359 118.461 252.699 118.871 252.969C 119.293 253.238 119.797 253.437 120.387 253.602C 120.996 253.754 121.805 253.824 122.828 253.824C 124.023 253.824 125 253.695 125.727 253.461C 126.48 253.215 127.043 252.84 127.441 252.359C 127.852 251.867 128.051 251.246 128.051 250.496C 128.051 249.512 127.688 248.738 126.984 248.187C 126.125 247.508 124.742 247.168 122.828 247.168zM124.273 243.242L119.656 243.242L119.656 243.242L124.273 240.043zM127.875 243.242L125.434 243.242L125.434 243.242L125.434 238.801L125.434 238.801L124.273 238.801L124.273 238.801L117.625 243.465L117.625 243.465L117.625 244.496L117.625 244.496L124.273 244.496L124.273 244.496L124.273 245.879L124.273 245.879L125.434 245.879L125.434 245.879L125.434 244.496L125.434 244.496L127.875 244.496z" stroke="none" fill="#E6330F" fill-rule="nonzero" />
		</g>
		<g clip-path="url(#37)" >
    <path id=""  transform="matrix(1 0 0 -1 0 545)"  d="M75.855 165.934C 74.457 167.328 73.586 168.832 73.074 170.738C 72.563 172.645 72.563 174.383 73.074 176.289C 73.586 178.191 74.457 179.695 75.855 181.09C 77.25 182.484 78.754 183.352 80.664 183.863C 82.574 184.375 84.313 184.375 86.223 183.863C 88.133 183.352 89.637 182.484 91.035 181.09C 92.43 179.695 93.301 178.191 93.813 176.289C 94.324 174.383 94.324 172.645 93.813 170.738C 93.301 168.832 92.434 167.332 91.035 165.937C 89.637 164.539 88.133 163.672 86.223 163.16C 84.313 162.652 82.574 162.652 80.664 163.16C 78.754 163.672 77.25 164.539 75.852 165.934M75.84 165.922C 77.238 164.527 78.746 163.656 80.66 163.145C 82.57 162.633 84.313 162.633 86.227 163.145C 88.137 163.656 89.648 164.527 91.047 165.922C 92.445 167.32 93.316 168.824 93.832 170.734C 94.34 172.645 94.344 174.383 93.828 176.293C 93.316 178.199 92.445 179.707 91.047 181.102C 89.648 182.5 88.137 183.371 86.227 183.883C 84.316 184.395 82.57 184.395 80.66 183.883C 78.75 183.371 77.238 182.5 75.84 181.102C 74.441 179.707 73.57 178.199 73.059 176.293C 72.543 174.383 72.543 172.645 73.055 170.734C 73.57 168.824 74.441 167.32 75.84 165.922z" stroke="none" fill="#000000" fill-rule="evenodd" />
		</g>
		<g clip-path="url(#38)" >
    <path id=""  transform="matrix(1 0 0 -1 0 545)"  d="M75.855 181.09C 74.457 179.695 73.586 178.191 73.074 176.289C 72.563 174.383 72.563 172.645 73.074 170.738C 73.586 168.832 74.457 167.328 75.855 165.934C 77.25 164.539 78.754 163.672 80.664 163.16C 82.574 162.652 84.313 162.652 86.223 163.16C 88.133 163.672 89.637 164.539 91.035 165.937C 92.434 167.332 93.301 168.832 93.813 170.738C 94.324 172.645 94.324 174.383 93.813 176.289C 93.301 178.191 92.434 179.695 91.035 181.09C 89.637 182.484 88.133 183.352 86.223 183.863C 84.313 184.375 82.574 184.375 80.664 183.863C 78.754 183.352 77.25 182.484 75.855 181.09" stroke="none" fill="#FFFFFF" fill-rule="evenodd" />
		</g>
		<g clip-path="url(#39)" >
    <path id=""  transform="matrix(1 0 0 -1 0 545)"  d="M76.207 180.734C 74.875 179.406 74.047 177.973 73.559 176.156C 73.07 174.34 73.07 172.684 73.559 170.867C 74.047 169.051 74.875 167.617 76.207 166.289C 77.539 164.957 78.977 164.133 80.793 163.645C 82.613 163.16 84.273 163.16 86.094 163.645C 87.91 164.133 89.348 164.961 90.68 166.289C 92.012 167.617 92.84 169.051 93.328 170.867C 93.816 172.684 93.816 174.34 93.328 176.156C 92.84 177.973 92.012 179.406 90.68 180.734C 89.348 182.066 87.91 182.895 86.09 183.379C 84.273 183.867 82.613 183.867 80.793 183.379C 78.977 182.895 77.539 182.066 76.207 180.734" stroke="none" fill="#154889" fill-rule="evenodd" />
		</g>
		<g clip-path="url(#40)" >
    <path id=""  transform="matrix(1 0 0 -1 0 545)"  d="M80.141 169.809L85.563 169.812L85.563 169.812L76.93 178.43L76.93 178.43L78.516 180.016L78.516 180.016L87.156 171.387L87.156 171.387L87.16 176.801L87.16 176.801L89.16 174.805L89.16 174.805L89.168 167.805L89.168 167.805L88.824 168.156L88.824 168.156L89.152 167.809L89.152 167.809L82.141 167.812z" stroke="none" fill="#FFFFFF" fill-rule="nonzero" />
		</g>
		<g clip-path="url(#41)" >
    <path id=""  transform="matrix(1 0 0 -1 0 545)"  d="M84.93 163.2813L101.055 163.2813" stroke="#E3000F" stroke-width="0.270478" stroke-linejoin="miter" fill="none" />
		</g>
		<g clip-path="url(#42)" >
    <path id=""  transform="matrix(1 0 0 -1 0 545)"  d="M84.93 143.3359L101.055 143.3359" stroke="#E3000F" stroke-width="0.270478" stroke-linejoin="miter" fill="none" />
		</g>
		<g clip-path="url(#43)" >
    <path id=""  transform="matrix(1 0 0 -1 0 545)"  d="M100.328 160.445L98.805 160.445L98.805 160.445L99.566 163.281zM99.703 161.863L99.703 144.754L99.703 144.754L99.43 144.754L99.43 144.754L99.43 161.863zM100.328 146.172L99.566 143.336L99.566 143.336L98.805 146.172z" stroke="none" fill="#E3000F" fill-rule="nonzero" />
		</g>
		<g clip-path="url(#44)" >
    <path id=""  transform="matrix(1 0 0 -1 0 545)"  d="M109.176 178.555C 110.867 178.555 111.98 178.754 112.535 179.141C 113.098 179.539 113.367 180.02 113.367 180.594C 113.367 181.168 113.074 181.648 112.535 182.059C 111.98 182.434 110.844 182.645 109.176 182.645C 107.484 182.645 106.371 182.434 105.809 182.059C 105.254 181.672 104.984 181.168 104.984 180.582C 104.984 180.008 105.219 179.539 105.711 179.199C 106.336 178.766 107.484 178.555 109.176 178.555zM109.176 177.266C 107.957 177.266 106.98 177.395 106.242 177.641C 105.488 177.898 104.926 178.25 104.539 178.754C 104.141 179.234 103.941 179.855 103.941 180.594C 103.941 181.145 104.047 181.625 104.27 182.035C 104.492 182.457 104.809 182.797 105.219 183.066C 105.641 183.336 106.148 183.535 106.734 183.699C 107.344 183.852 108.156 183.922 109.176 183.922C 110.375 183.922 111.348 183.793 112.078 183.559C 112.828 183.312 113.391 182.937 113.789 182.457C 114.203 181.965 114.402 181.344 114.402 180.594C 114.402 179.609 114.035 178.836 113.332 178.285C 112.477 177.605 111.09 177.266 109.176 177.266zM111.535 169.32L111.43 170.633C 112.078 170.738 112.547 170.961 112.875 171.312C 113.203 171.664 113.367 172.098 113.367 172.613C 113.367 173.223 113.133 173.727 112.676 174.148C 112.219 174.57 111.617 174.77 110.867 174.77C 110.152 174.77 109.574 174.57 109.152 174.16C 108.742 173.785 108.543 173.246 108.543 172.59C 108.543 172.18 108.625 171.828 108.813 171.488C 109 171.184 109.246 170.926 109.539 170.738L109.539 170.738L109.375 169.555L109.375 169.555L104.105 170.539L104.105 170.539L104.105 175.613L104.105 175.613L105.313 175.613L105.313 175.613L105.313 171.535L105.313 171.535L108.074 170.996C 107.637 171.605 107.426 172.25 107.426 172.918C 107.426 173.809 107.742 174.57 108.355 175.18C 108.977 175.789 109.773 176.094 110.75 176.094C 111.676 176.094 112.477 175.824 113.156 175.297C 113.977 174.641 114.402 173.738 114.402 172.613C 114.402 171.676 114.141 170.926 113.613 170.34C 113.098 169.742 112.395 169.414 111.535 169.32zM113.027 167.957L114.227 167.957L114.227 167.957L114.227 161.184C 113.918 161.172 113.625 161.23 113.355 161.336C 112.898 161.512 112.441 161.793 111.992 162.168C 111.535 162.555 111.02 163.105 110.445 163.82C 109.527 164.922 108.801 165.672 108.273 166.07C 107.742 166.457 107.227 166.656 106.758 166.656C 106.254 166.656 105.844 166.492 105.488 166.129C 105.148 165.777 104.984 165.297 104.984 164.734C 104.984 164.113 105.16 163.633 105.523 163.27C 105.879 162.906 106.383 162.719 107.027 162.719L107.027 162.719L106.898 161.43C 105.938 161.512 105.195 161.863 104.691 162.426C 104.188 163 103.941 163.785 103.941 164.758C 103.941 165.73 104.211 166.516 104.75 167.09C 105.289 167.664 105.984 167.945 106.781 167.945C 107.191 167.945 107.602 167.863 107.992 167.687C 108.391 167.535 108.801 167.242 109.246 166.855C 109.691 166.469 110.293 165.836 111.043 164.934C 111.676 164.172 112.113 163.691 112.336 163.469C 112.57 163.258 112.793 163.07 113.027 162.941zM111.148 152.492L109.891 152.492L109.891 152.492L109.891 156.371L109.891 156.371L111.148 156.371zM109.176 142.016C 110.867 142.016 111.98 142.215 112.535 142.602C 113.098 143 113.367 143.48 113.367 144.055C 113.367 144.629 113.074 145.109 112.535 145.52C 111.98 145.895 110.844 146.105 109.176 146.105C 107.484 146.105 106.371 145.895 105.809 145.52C 105.254 145.133 104.984 144.629 104.984 144.043C 104.984 143.469 105.219 143 105.711 142.66C 106.336 142.227 107.484 142.016 109.176 142.016zM109.176 140.727C 107.957 140.727 106.98 140.855 106.242 141.102C 105.488 141.359 104.926 141.711 104.539 142.215C 104.141 142.695 103.941 143.316 103.941 144.055C 103.941 144.605 104.047 145.086 104.27 145.496C 104.492 145.918 104.809 146.258 105.219 146.527C 105.641 146.797 106.148 146.996 106.734 147.16C 107.344 147.312 108.156 147.383 109.176 147.383C 110.375 147.383 111.348 147.254 112.078 147.02C 112.828 146.773 113.391 146.398 113.789 145.918C 114.203 145.426 114.402 144.805 114.402 144.055C 114.402 143.07 114.035 142.297 113.332 141.746C 112.477 141.066 111.09 140.727 109.176 140.727zM111.535 132.781L111.43 134.094C 112.078 134.199 112.547 134.422 112.875 134.773C 113.203 135.125 113.367 135.559 113.367 136.074C 113.367 136.684 113.133 137.187 112.676 137.609C 112.219 138.031 111.617 138.23 110.867 138.23C 110.152 138.23 109.574 138.031 109.152 137.621C 108.742 137.246 108.543 136.707 108.543 136.051C 108.543 135.641 108.625 135.289 108.813 134.949C 109 134.645 109.246 134.387 109.539 134.199L109.539 134.199L109.375 133.016L109.375 133.016L104.105 134L104.105 134L104.105 139.074L104.105 139.074L105.313 139.074L105.313 139.074L105.313 134.996L105.313 134.996L108.074 134.457C 107.637 135.066 107.426 135.711 107.426 136.379C 107.426 137.27 107.742 138.031 108.355 138.641C 108.977 139.25 109.773 139.555 110.75 139.555C 111.676 139.555 112.477 139.285 113.156 138.758C 113.977 138.102 114.402 137.199 114.402 136.074C 114.402 135.137 114.141 134.387 113.613 133.801C 113.098 133.203 112.395 132.875 111.535 132.781zM114.227 129.547L114.227 128.293L114.227 128.293L106.207 128.293C 106.5 128 106.781 127.59 107.074 127.109C 107.355 126.605 107.578 126.172 107.73 125.781L107.73 125.781L106.512 125.781C 106.184 126.477 105.781 127.098 105.313 127.625C 104.832 128.152 104.375 128.527 103.941 128.738L103.941 128.738L103.941 129.547z" stroke="none" fill="#E6330F" fill-rule="nonzero" />
		</g>
		<g clip-path="url(#45)" >
    <path id=""  transform="matrix(1 0 0 -1 0 545)"  d="M91.242 367.535C 92.641 366.141 93.512 364.637 94.023 362.73C 94.535 360.824 94.535 359.09 94.023 357.184C 93.512 355.277 92.641 353.773 91.242 352.379C 89.848 350.984 88.34 350.117 86.434 349.605C 84.523 349.094 82.785 349.094 80.875 349.605C 78.965 350.117 77.461 350.984 76.063 352.379C 74.664 353.773 73.797 355.277 73.285 357.184C 72.773 359.09 72.773 360.824 73.285 362.73C 73.797 364.637 74.664 366.137 76.063 367.535C 77.461 368.93 78.965 369.797 80.875 370.309C 82.785 370.816 84.523 370.816 86.434 370.309C 88.34 369.797 89.848 368.93 91.242 367.535M91.254 367.547C 89.855 368.945 88.348 369.812 86.438 370.324C 84.523 370.836 82.781 370.836 80.871 370.324C 78.957 369.812 77.449 368.945 76.051 367.547C 74.652 366.148 73.781 364.645 73.266 362.734C 72.754 360.828 72.754 359.086 73.266 357.176C 73.781 355.27 74.652 353.766 76.051 352.367C 77.449 350.969 78.957 350.102 80.871 349.59C 82.781 349.078 84.523 349.078 86.438 349.59C 88.348 350.102 89.855 350.969 91.254 352.367C 92.656 353.762 93.527 355.27 94.039 357.18C 94.551 359.086 94.551 360.828 94.039 362.734C 93.527 364.645 92.656 366.148 91.254 367.547z" stroke="none" fill="#000000" fill-rule="evenodd" />
		</g>
		<g clip-path="url(#46)" >
    <path id=""  transform="matrix(1 0 0 -1 0 545)"  d="M91.242 352.379C 92.641 353.773 93.512 355.277 94.023 357.184C 94.535 359.09 94.535 360.824 94.023 362.73C 93.512 364.637 92.641 366.141 91.242 367.535C 89.848 368.93 88.34 369.797 86.434 370.309C 84.523 370.82 82.785 370.82 80.875 370.309C 78.965 369.797 77.461 368.93 76.063 367.535C 74.664 366.137 73.797 364.637 73.285 362.73C 72.773 360.824 72.773 359.09 73.285 357.184C 73.797 355.277 74.664 353.773 76.063 352.379C 77.461 350.984 78.965 350.117 80.875 349.605C 82.785 349.094 84.523 349.094 86.434 349.605C 88.34 350.117 89.848 350.984 91.242 352.379" stroke="none" fill="#FFFFFF" fill-rule="evenodd" />
		</g>
		<g clip-path="url(#47)" >
    <path id=""  transform="matrix(1 0 0 -1 0 545)"  d="M90.891 352.734C 92.223 354.062 93.051 355.496 93.539 357.312C 94.027 359.129 94.027 360.785 93.539 362.602C 93.051 364.418 92.223 365.852 90.891 367.18C 89.559 368.512 88.121 369.336 86.305 369.824C 84.48 370.309 82.824 370.309 81.004 369.824C 79.184 369.336 77.75 368.512 76.418 367.18C 75.086 365.852 74.254 364.418 73.77 362.602C 73.281 360.785 73.281 359.129 73.77 357.312C 74.258 355.496 75.086 354.062 76.418 352.734C 77.75 351.402 79.184 350.574 81.004 350.09C 82.824 349.602 84.484 349.602 86.301 350.09C 88.121 350.574 89.559 351.402 90.891 352.734" stroke="none" fill="#154889" fill-rule="evenodd" />
		</g>
		<g clip-path="url(#48)" >
    <path id=""  transform="matrix(1 0 0 -1 0 545)"  d="M86.957 363.66L81.535 363.656L81.535 363.656L90.168 355.039L90.168 355.039L88.582 353.457L88.582 353.457L79.941 362.082L79.941 362.082L79.938 356.668L79.938 356.668L77.938 358.664L77.938 358.664L77.93 365.664L77.93 365.664L78.273 365.312L78.273 365.312L77.941 365.664L77.941 365.664L84.957 365.656z" stroke="none" fill="#FFFFFF" fill-rule="nonzero" />
		</g>
		<g clip-path="url(#49)" >
    <path id=""  transform="matrix(1 0 0 -1 0 545)"  d="M83.957 317.4767L61.293 317.4767" stroke="#E3000F" stroke-width="0.270478" stroke-linejoin="miter" fill="none" />
		</g>
		<g clip-path="url(#50)" >
    <path id=""  transform="matrix(1 0 0 -1 0 545)"  d="M83.957 337.7656L61.293 337.7656" stroke="#E3000F" stroke-width="0.270478" stroke-linejoin="miter" fill="none" />
		</g>
		<g clip-path="url(#51)" >
    <path id=""  transform="matrix(1 0 0 -1 0 545)"  d="M62.02 320.312L63.543 320.312L63.543 320.312L62.781 317.477zM62.645 318.895L62.645 336.348L62.645 336.348L62.914 336.348L62.914 336.348L62.914 318.895zM62.02 334.93L62.781 337.766L62.781 337.766L63.543 334.93z" stroke="none" fill="#E3000F" fill-rule="nonzero" />
		</g>
		<g clip-path="url(#52)" >
    <path id=""  transform="matrix(1 0 0 -1 0 545)"  d="M53.367 334.598C 55.059 334.598 56.172 334.797 56.727 335.184C 57.289 335.582 57.559 336.062 57.559 336.637C 57.559 337.211 57.266 337.691 56.727 338.102C 56.172 338.477 55.035 338.687 53.367 338.687C 51.676 338.687 50.563 338.477 49.996 338.102C 49.445 337.715 49.176 337.211 49.176 336.625C 49.176 336.051 49.41 335.582 49.902 335.242C 50.527 334.809 51.676 334.598 53.367 334.598zM53.367 333.309C 52.145 333.309 51.172 333.437 50.434 333.684C 49.68 333.941 49.117 334.293 48.73 334.797C 48.328 335.277 48.129 335.898 48.129 336.637C 48.129 337.187 48.234 337.668 48.461 338.078C 48.684 338.5 49 338.84 49.41 339.109C 49.832 339.379 50.336 339.578 50.926 339.742C 51.535 339.895 52.344 339.965 53.367 339.965C 54.563 339.965 55.539 339.836 56.266 339.602C 57.02 339.355 57.582 338.98 57.98 338.5C 58.391 338.008 58.59 337.387 58.59 336.637C 58.59 335.652 58.227 334.879 57.523 334.328C 56.664 333.648 55.281 333.309 53.367 333.309zM55.727 325.359L55.621 326.672C 56.266 326.777 56.738 327 57.066 327.352C 57.395 327.703 57.559 328.137 57.559 328.652C 57.559 329.262 57.324 329.766 56.867 330.187C 56.406 330.609 55.809 330.809 55.059 330.809C 54.34 330.809 53.766 330.609 53.344 330.199C 52.934 329.824 52.734 329.285 52.734 328.629C 52.734 328.219 52.816 327.867 53.004 327.527C 53.191 327.223 53.438 326.965 53.73 326.777L53.73 326.777L53.566 325.594L53.566 325.594L48.293 326.578L48.293 326.578L48.293 331.652L48.293 331.652L49.504 331.652L49.504 331.652L49.504 327.574L49.504 327.574L52.262 327.035C 51.828 327.645 51.617 328.289 51.617 328.957C 51.617 329.848 51.934 330.609 52.547 331.219C 53.168 331.828 53.965 332.137 54.941 332.137C 55.867 332.137 56.664 331.863 57.348 331.336C 58.168 330.68 58.59 329.777 58.59 328.652C 58.59 327.715 58.332 326.965 57.805 326.379C 57.289 325.781 56.582 325.453 55.727 325.359zM58.414 322.125L58.414 320.871L58.414 320.871L50.395 320.871C 50.691 320.578 50.973 320.168 51.266 319.687C 51.547 319.184 51.77 318.75 51.922 318.363L51.922 318.363L50.703 318.363C 50.371 319.055 49.973 319.676 49.504 320.203C 49.023 320.73 48.566 321.105 48.129 321.316L48.129 321.316L48.129 322.125z" stroke="none" fill="#E6330F" fill-rule="nonzero" />
		</g>
		<g clip-path="url(#53)" >
    <path id=""  transform="matrix(1 0 0 -1 0 545)"  d="M83.672 313.0704L83.672 294.9688" stroke="#E3000F" stroke-width="0.270478" stroke-linejoin="miter" fill="none" />
		</g>
		<g clip-path="url(#54)" >
    <path id=""  transform="matrix(1 0 0 -1 0 545)"  d="M83.672 313.0704L74.488 294.9688" stroke="#E3000F" stroke-width="0.270478" stroke-linejoin="miter" fill="none" />
		</g>
		<g clip-path="url(#55)" >
    <path id=""  transform="matrix(1 0 0 -1 0 545)"  d="M80.832 294.207L80.832 295.727L80.832 295.727L83.672 294.969zM83.672 295.102L83.672 294.832L83.672 294.832L83.402 294.836L83.402 294.836L83.137 294.84L83.137 294.84L82.598 294.863L82.598 294.863L82.066 294.902L82.066 294.902L81.797 294.93L81.797 294.93L81.531 294.957L81.531 294.957L81 295.027L81 295.027L80.738 295.07L80.738 295.07L80.473 295.113L80.473 295.113L79.949 295.215L79.949 295.215L79.688 295.273L79.688 295.273L79.43 295.332L79.43 295.332L79.168 295.395L79.168 295.395L78.652 295.535L78.652 295.535L78.398 295.609L78.398 295.609L78.141 295.687L78.141 295.687L77.887 295.77L77.887 295.77L77.633 295.859L77.633 295.859L77.383 295.949L77.383 295.949L77.133 296.043L77.133 296.043L76.883 296.141L76.883 296.141L76.637 296.238L76.637 296.238L76.391 296.344L76.391 296.344L76.145 296.453L76.145 296.453L75.898 296.566L75.898 296.566L75.656 296.68L75.656 296.68L75.418 296.801L75.418 296.801L75.539 297.043L75.539 297.043L76.016 296.809L76.016 296.809L76.254 296.699L76.254 296.699L76.738 296.488L76.738 296.488L77.23 296.293L77.23 296.293L77.477 296.199L77.477 296.199L77.723 296.113L77.723 296.113L77.973 296.027L77.973 296.027L78.223 295.945L78.223 295.945L78.477 295.867L78.477 295.867L78.727 295.793L78.727 295.793L78.98 295.723L78.98 295.723L79.234 295.656L79.234 295.656L79.492 295.594L79.492 295.594L79.746 295.535L79.746 295.535L80.004 295.48L80.004 295.48L80.262 295.43L80.262 295.43L80.523 295.379L80.523 295.379L80.781 295.336L80.781 295.336L81.043 295.297L81.043 295.297L81.301 295.258L81.301 295.258L81.563 295.227L81.563 295.227L81.824 295.199L81.824 295.199L82.09 295.172L82.09 295.172L82.613 295.133L82.613 295.133L83.145 295.109L83.145 295.109L83.406 295.105zM77.668 294.965L75.477 296.922L75.477 296.922L78.355 296.316z" stroke="none" fill="#E3000F" fill-rule="nonzero" />
		</g>
		<g clip-path="url(#56)" >
    <path id=""  transform="matrix(1 0 0 -1 0 545)"  d="M84.34 289.824C 84.34 289.496 84.457 289.203 84.68 288.98C 84.914 288.746 85.195 288.641 85.523 288.641C 85.84 288.641 86.137 288.746 86.359 288.98C 86.594 289.203 86.699 289.496 86.699 289.824C 86.699 290.141 86.594 290.422 86.359 290.656C 86.137 290.879 85.84 290.996 85.523 290.996C 85.195 290.996 84.914 290.879 84.68 290.656C 84.457 290.422 84.34 290.141 84.34 289.824zM83.586 289.824C 83.586 290.352 83.762 290.809 84.152 291.195C 84.527 291.57 84.984 291.746 85.512 291.746C 86.055 291.746 86.512 291.57 86.898 291.195C 87.273 290.809 87.461 290.352 87.461 289.824C 87.461 289.285 87.273 288.828 86.887 288.453C 86.512 288.066 86.055 287.879 85.512 287.879C 84.984 287.879 84.527 288.066 84.152 288.453C 83.762 288.828 83.586 289.285 83.586 289.824zM75.406 290.246L75.406 291.453L75.406 291.453L82.039 291.453L82.039 291.453L82.039 290.48C 81.395 289.789 80.738 288.863 80.102 287.727C 79.457 286.566 78.965 285.383 78.613 284.164C 78.355 283.309 78.203 282.371 78.133 281.352L78.133 281.352L76.84 281.352C 76.852 282.148 77.016 283.133 77.309 284.27C 77.613 285.406 78.059 286.508 78.613 287.574C 79.188 288.641 79.785 289.52 80.422 290.246zM73.977 282.547L73.977 281.352L73.977 281.352L67.188 281.352C 67.176 281.656 67.234 281.949 67.34 282.219C 67.516 282.676 67.801 283.133 68.176 283.578C 68.563 284.035 69.113 284.551 69.832 285.125C 70.934 286.039 71.684 286.766 72.086 287.293C 72.473 287.82 72.672 288.336 72.672 288.805C 72.672 289.309 72.508 289.719 72.145 290.07C 71.789 290.41 71.309 290.574 70.746 290.574C 70.125 290.574 69.641 290.398 69.277 290.035C 68.914 289.684 68.727 289.18 68.727 288.535L68.727 288.535L67.434 288.664C 67.516 289.625 67.871 290.363 68.434 290.867C 69.008 291.371 69.797 291.617 70.77 291.617C 71.742 291.617 72.531 291.348 73.105 290.809C 73.68 290.27 73.965 289.578 73.965 288.781C 73.965 288.371 73.879 287.961 73.703 287.574C 73.551 287.176 73.258 286.766 72.871 286.32C 72.484 285.875 71.852 285.277 70.945 284.527C 70.184 283.895 69.699 283.461 69.477 283.238C 69.266 283.004 69.078 282.781 68.949 282.547z" stroke="none" fill="#E6330F" fill-rule="nonzero" />
		</g>
		<g clip-path="url(#57)" >
    <path id=""  transform="matrix(1 0 0 -1 0 545)"  d="M202.172 520.172L205.176 520.172L205.176 520.172L205.176 515.703L205.176 515.703L202.172 515.703z" stroke="none" fill="#8E8C8A" fill-rule="evenodd" />
		</g>
		<g clip-path="url(#58)" >
    <path id=""  transform="matrix(1 0 0 -1 0 545)"  d="M201.527 516.039L205.82 516.039L205.82 516.039L205.82 513.316L205.82 513.316L201.527 513.316z" stroke="none" fill="#1A1A18" fill-rule="evenodd" />
		</g>
		<g clip-path="url(#59)" >
    <path id=""  transform="matrix(1 0 0 -1 0 545)"  d="M195.977 522.742C 194.578 524.137 193.707 525.641 193.195 527.547C 192.688 529.453 192.684 531.187 193.199 533.094C 193.707 535 194.578 536.504 195.977 537.898C 197.375 539.293 198.879 540.16 200.789 540.672C 202.695 541.184 204.438 541.184 206.344 540.672C 208.254 540.16 209.758 539.293 211.156 537.895C 212.555 536.5 213.422 535 213.934 533.094C 214.445 531.187 214.445 529.453 213.938 527.547C 213.422 525.641 212.555 524.137 211.156 522.742C 209.758 521.348 208.254 520.48 206.344 519.969C 204.434 519.457 202.699 519.457 200.785 519.969C 198.879 520.48 197.375 521.348 195.977 522.742M195.965 522.727C 197.363 521.332 198.871 520.461 200.781 519.953C 202.695 519.441 204.438 519.441 206.352 519.953C 208.262 520.461 209.77 521.332 211.172 522.73C 212.57 524.125 213.441 525.633 213.953 527.539C 214.465 529.449 214.465 531.191 213.953 533.098C 213.441 535.008 212.57 536.512 211.172 537.91C 209.77 539.305 208.262 540.176 206.348 540.687C 204.438 541.199 202.695 541.199 200.781 540.687C 198.871 540.176 197.363 539.309 195.965 537.91C 194.563 536.512 193.691 535.008 193.18 533.098C 192.668 531.191 192.668 529.449 193.18 527.543C 193.691 525.633 194.563 524.125 195.965 522.727z" stroke="none" fill="#000000" fill-rule="evenodd" />
		</g>
		<g clip-path="url(#60)" >
    <path id=""  transform="matrix(1 0 0 -1 0 545)"  d="M195.977 537.898C 194.578 536.504 193.707 535 193.199 533.094C 192.684 531.187 192.688 529.453 193.195 527.547C 193.707 525.641 194.578 524.137 195.977 522.742C 197.375 521.348 198.879 520.48 200.785 519.969C 202.699 519.457 204.434 519.457 206.344 519.969C 208.254 520.48 209.758 521.348 211.156 522.742C 212.555 524.137 213.422 525.641 213.938 527.547C 214.445 529.453 214.449 531.187 213.934 533.094C 213.422 535 212.555 536.5 211.156 537.895C 209.758 539.293 208.254 540.16 206.344 540.672C 204.438 541.184 202.695 541.184 200.789 540.672C 198.879 540.16 197.375 539.293 195.977 537.898" stroke="none" fill="#FFFFFF" fill-rule="evenodd" />
		</g>
		<g clip-path="url(#61)" >
    <path id=""  transform="matrix(1 0 0 -1 0 545)"  d="M196.328 537.543C 195 536.215 194.168 534.781 193.684 532.965C 193.195 531.148 193.195 529.492 193.684 527.676C 194.168 525.859 195 524.426 196.332 523.094C 197.664 521.766 199.098 520.937 200.918 520.453C 202.738 519.965 204.395 519.965 206.215 520.453C 208.035 520.937 209.473 521.766 210.801 523.094C 212.137 524.426 212.965 525.859 213.449 527.676C 213.938 529.492 213.938 531.148 213.449 532.965C 212.965 534.781 212.137 536.211 210.805 537.543C 209.473 538.871 208.035 539.699 206.215 540.187C 204.395 540.672 202.738 540.672 200.918 540.187C 199.098 539.699 197.664 538.871 196.328 537.543" stroke="none" fill="#154889" fill-rule="evenodd" />
		</g>
		<g clip-path="url(#62)" >
    <path id=""  transform="matrix(1 0 0 -1 0 545)"  d="M200.262 526.617L205.684 526.617L205.684 526.617L197.051 535.238L197.051 535.238L198.637 536.82L198.637 536.82L207.281 528.195L207.281 528.195L207.285 533.609L207.285 533.609L209.281 531.613L209.281 531.613L209.289 524.609L209.289 524.609L208.945 524.965L208.945 524.965L209.277 524.613L209.277 524.613L202.262 524.621z" stroke="none" fill="#FFFFFF" fill-rule="nonzero" />
		</g>
		<g clip-path="url(#63)" >
    <path id=""  transform="matrix(1 0 0 -1 0 545)"  d="M205.055 519.5661L213.652 519.5661" stroke="#E3000F" stroke-width="0.270478" stroke-linejoin="miter" fill="none" />
		</g>
		<g clip-path="url(#64)" >
    <path id=""  transform="matrix(1 0 0 -1 0 545)"  d="M205.16 513.316L213.652 513.316" stroke="#E3000F" stroke-width="0.270478" stroke-linejoin="miter" fill="none" />
		</g>
		<g clip-path="url(#65)" >
    <path id=""  transform="matrix(1 0 0 -1 0 545)"  d="M212.926 516.734L211.406 516.734L211.406 516.734L212.164 519.566zM212.301 518.148L212.301 514.734L212.301 514.734L212.031 514.734L212.031 514.734L212.031 518.148zM212.926 516.148L212.164 513.316L212.164 513.316L211.406 516.148z" stroke="none" fill="#E3000F" fill-rule="nonzero" />
		</g>
		<g clip-path="url(#66)" >
    <path id=""  transform="matrix(1 0 0 -1 0 545)"  d="M224.137 517.531L224.031 518.844C 224.676 518.949 225.145 519.172 225.473 519.523C 225.801 519.875 225.969 520.309 225.969 520.824C 225.969 521.434 225.73 521.937 225.273 522.359C 224.816 522.781 224.219 522.98 223.465 522.98C 222.75 522.98 222.176 522.781 221.75 522.371C 221.34 521.996 221.141 521.457 221.141 520.801C 221.141 520.391 221.223 520.039 221.41 519.699C 221.598 519.395 221.848 519.137 222.141 518.949L222.141 518.949L221.977 517.766L221.977 517.766L216.703 518.75L216.703 518.75L216.703 523.824L216.703 523.824L217.914 523.824L217.914 523.824L217.914 519.746L217.914 519.746L220.672 519.207C 220.238 519.816 220.027 520.461 220.027 521.129C 220.027 522.02 220.344 522.781 220.953 523.391C 221.574 524 222.375 524.305 223.348 524.305C 224.277 524.305 225.074 524.035 225.754 523.508C 226.578 522.852 227 521.949 227 520.824C 227 519.887 226.742 519.137 226.215 518.551C 225.695 517.953 224.992 517.625 224.137 517.531zM225.625 516.172L226.824 516.172L226.824 516.172L226.824 509.398C 226.52 509.387 226.227 509.445 225.953 509.551C 225.496 509.727 225.039 510.008 224.594 510.383C 224.137 510.77 223.617 511.32 223.043 512.035C 222.129 513.137 221.398 513.887 220.871 514.285C 220.344 514.672 219.828 514.871 219.355 514.871C 218.852 514.871 218.441 514.707 218.09 514.344C 217.75 513.992 217.582 513.512 217.582 512.949C 217.582 512.328 217.762 511.848 218.125 511.484C 218.477 511.121 218.98 510.934 219.625 510.934L219.625 510.934L219.496 509.645C 218.535 509.727 217.797 510.078 217.289 510.641C 216.785 511.215 216.539 512 216.539 512.973C 216.539 513.945 216.809 514.73 217.348 515.305C 217.891 515.879 218.582 516.16 219.379 516.16C 219.793 516.16 220.203 516.078 220.59 515.902C 220.988 515.75 221.398 515.457 221.848 515.07C 222.293 514.684 222.891 514.051 223.641 513.148C 224.277 512.387 224.711 511.906 224.934 511.684C 225.168 511.473 225.391 511.285 225.625 511.156z" stroke="none" fill="#E6330F" fill-rule="nonzero" />
		</g>
	</g>
</g>
</svg>