<?xml version="1.0" standalone="no"?>
<!DOCTYPE svg PUBLIC "-//W3C//DTD SVG 1.0//EN" "http://www.w3.org/TR/2001/REC-SVG-20010904/DTD/svg10.dtd">
<svg xmlns="http://www.w3.org/2000/svg" xmlns:xlink="http://www.w3.org/1999/xlink" id="body_1" width="233" height="528">

<defs>
    <clipPath  id="1">

    <path id=""  clip-rule="evenodd" transform="matrix(1 0 0 1 0 0)"  d="M0 396L0 -0.2030334L0 -0.2030334L175.8408 -0.2030334L175.8408 -0.2030334L175.8408 396L175.8408 396L0 396z" />    </clipPath>
    <clipPath  id="2">

    <path id=""  clip-rule="evenodd" transform="matrix(1 0 0 1 0 0)"  d="M0 -0.2030334L176 -0.2030334L176 -0.2030334L176 396.797L176 396.797L0 396.797z" />    </clipPath>
    <clipPath  id="3">

    <path id=""  clip-rule="evenodd" transform="matrix(1 0 0 1 0 0)"  d="M0 -0.2030334L176 -0.2030334L176 -0.2030334L176 396.797L176 396.797L0 396.797z" />    </clipPath>
    <clipPath  id="4">

    <path id=""  clip-rule="evenodd" transform="matrix(1 0 0 1 0 0)"  d="M0 -0.2030334L176 -0.2030334L176 -0.2030334L176 396.797L176 396.797L0 396.797z" />    </clipPath>
    <clipPath  id="5">

    <path id=""  clip-rule="evenodd" transform="matrix(1 0 0 1 0 0)"  d="M0 -0.2030334L176 -0.2030334L176 -0.2030334L176 396.797L176 396.797L0 396.797z" />    </clipPath>
    <clipPath  id="6">

    <path id=""  clip-rule="evenodd" transform="matrix(1 0 0 1 0 0)"  d="M0 -0.2030334L176 -0.2030334L176 -0.2030334L176 396.797L176 396.797L0 396.797z" />    </clipPath>
    <clipPath  id="7">

    <path id=""  clip-rule="evenodd" transform="matrix(1 0 0 1 0 0)"  d="M0 -0.2030334L176 -0.2030334L176 -0.2030334L176 396.797L176 396.797L0 396.797z" />    </clipPath>
    <clipPath  id="8">

    <path id=""  clip-rule="evenodd" transform="matrix(1 0 0 1 0 0)"  d="M0 -0.2030334L176 -0.2030334L176 -0.2030334L176 396.797L176 396.797L0 396.797z" />    </clipPath>
    <clipPath  id="9">

    <path id=""  clip-rule="evenodd" transform="matrix(1 0 0 1 0 0)"  d="M0 -0.2030334L176 -0.2030334L176 -0.2030334L176 396.797L176 396.797L0 396.797z" />    </clipPath>
    <clipPath  id="10">

    <path id=""  clip-rule="evenodd" transform="matrix(1 0 0 1 0 0)"  d="M0 -0.2030334L176 -0.2030334L176 -0.2030334L176 396.797L176 396.797L0 396.797z" />    </clipPath>
    <clipPath  id="11">

    <path id=""  clip-rule="evenodd" transform="matrix(1 0 0 1 0 0)"  d="M0 -0.2030334L176 -0.2030334L176 -0.2030334L176 396.797L176 396.797L0 396.797z" />    </clipPath>
    <clipPath  id="12">

    <path id=""  clip-rule="evenodd" transform="matrix(1 0 0 1 0 0)"  d="M0 -0.2030334L176 -0.2030334L176 -0.2030334L176 396.797L176 396.797L0 396.797z" />    </clipPath>
    <clipPath  id="13">

    <path id=""  clip-rule="evenodd" transform="matrix(1 0 0 1 0 0)"  d="M0 -0.2030334L176 -0.2030334L176 -0.2030334L176 396.797L176 396.797L0 396.797z" />    </clipPath>
    <clipPath  id="14">

    <path id=""  clip-rule="evenodd" transform="matrix(1 0 0 1 0 0)"  d="M0 -0.2030334L176 -0.2030334L176 -0.2030334L176 396.797L176 396.797L0 396.797z" />    </clipPath>
    <clipPath  id="15">

    <path id=""  clip-rule="evenodd" transform="matrix(1 0 0 1 0 0)"  d="M0 -0.2030334L176 -0.2030334L176 -0.2030334L176 396.797L176 396.797L0 396.797z" />    </clipPath>
    <clipPath  id="16">

    <path id=""  clip-rule="evenodd" transform="matrix(1 0 0 1 0 0)"  d="M0 -0.2030334L176 -0.2030334L176 -0.2030334L176 396.797L176 396.797L0 396.797z" />    </clipPath>
    <clipPath  id="17">

    <path id=""  clip-rule="evenodd" transform="matrix(1 0 0 1 0 0)"  d="M0 -0.2030334L176 -0.2030334L176 -0.2030334L176 396.797L176 396.797L0 396.797z" />    </clipPath>
    <clipPath  id="18">

    <path id=""  clip-rule="evenodd" transform="matrix(1 0 0 1 0 0)"  d="M0 -0.2030334L176 -0.2030334L176 -0.2030334L176 396.797L176 396.797L0 396.797z" />    </clipPath>
    <clipPath  id="19">

    <path id=""  clip-rule="evenodd" transform="matrix(1 0 0 1 0 0)"  d="M0 -0.2030334L176 -0.2030334L176 -0.2030334L176 396.797L176 396.797L0 396.797z" />    </clipPath>
    <clipPath  id="20">

    <path id=""  clip-rule="evenodd" transform="matrix(1 0 0 1 0 0)"  d="M0 -0.2030334L176 -0.2030334L176 -0.2030334L176 396.797L176 396.797L0 396.797z" />    </clipPath>
    <clipPath  id="21">

    <path id=""  clip-rule="evenodd" transform="matrix(1 0 0 1 0 0)"  d="M0 -0.2030334L176 -0.2030334L176 -0.2030334L176 396.797L176 396.797L0 396.797z" />    </clipPath>
    <clipPath  id="22">

    <path id=""  clip-rule="evenodd" transform="matrix(1 0 0 1 0 0)"  d="M0 -0.2030334L176 -0.2030334L176 -0.2030334L176 396.797L176 396.797L0 396.797z" />    </clipPath>
    <clipPath  id="23">

    <path id=""  clip-rule="evenodd" transform="matrix(1 0 0 1 0 0)"  d="M0 -0.2030334L176 -0.2030334L176 -0.2030334L176 396.797L176 396.797L0 396.797z" />    </clipPath>
    <clipPath  id="24">

    <path id=""  clip-rule="evenodd" transform="matrix(1 0 0 1 0 0)"  d="M0 -0.2030334L176 -0.2030334L176 -0.2030334L176 396.797L176 396.797L0 396.797z" />    </clipPath>
    <clipPath  id="25">

    <path id=""  clip-rule="evenodd" transform="matrix(1 0 0 1 0 0)"  d="M0 -0.2030334L176 -0.2030334L176 -0.2030334L176 396.797L176 396.797L0 396.797z" />    </clipPath>
    <clipPath  id="26">

    <path id=""  clip-rule="evenodd" transform="matrix(1 0 0 1 0 0)"  d="M0 -0.2030334L176 -0.2030334L176 -0.2030334L176 396.797L176 396.797L0 396.797z" />    </clipPath>
    <clipPath  id="27">

    <path id=""  clip-rule="evenodd" transform="matrix(1 0 0 1 0 0)"  d="M0 -0.2030334L176 -0.2030334L176 -0.2030334L176 396.797L176 396.797L0 396.797z" />    </clipPath>
    <clipPath  id="28">

    <path id=""  clip-rule="evenodd" transform="matrix(1 0 0 1 0 0)"  d="M0 -0.2030334L176 -0.2030334L176 -0.2030334L176 396.797L176 396.797L0 396.797z" />    </clipPath>
    <clipPath  id="29">

    <path id=""  clip-rule="evenodd" transform="matrix(1 0 0 1 0 0)"  d="M0 -0.2030334L176 -0.2030334L176 -0.2030334L176 396.797L176 396.797L0 396.797z" />    </clipPath>
    <clipPath  id="30">

    <path id=""  clip-rule="evenodd" transform="matrix(1 0 0 1 0 0)"  d="M0 -0.2030334L176 -0.2030334L176 -0.2030334L176 396.797L176 396.797L0 396.797z" />    </clipPath>
    <clipPath  id="31">

    <path id=""  clip-rule="evenodd" transform="matrix(1 0 0 1 0 0)"  d="M0 -0.2030334L176 -0.2030334L176 -0.2030334L176 396.797L176 396.797L0 396.797z" />    </clipPath>
    <clipPath  id="32">

    <path id=""  clip-rule="evenodd" transform="matrix(1 0 0 1 0 0)"  d="M0 -0.2030334L176 -0.2030334L176 -0.2030334L176 396.797L176 396.797L0 396.797z" />    </clipPath>
    <clipPath  id="33">

    <path id=""  clip-rule="evenodd" transform="matrix(1 0 0 1 0 0)"  d="M0 -0.2030334L176 -0.2030334L176 -0.2030334L176 396.797L176 396.797L0 396.797z" />    </clipPath>
    <clipPath  id="34">

    <path id=""  clip-rule="evenodd" transform="matrix(1 0 0 1 0 0)"  d="M0 -0.2030334L176 -0.2030334L176 -0.2030334L176 396.797L176 396.797L0 396.797z" />    </clipPath>
    <clipPath  id="35">

    <path id=""  clip-rule="evenodd" transform="matrix(1 0 0 1 0 0)"  d="M0 -0.2030334L176 -0.2030334L176 -0.2030334L176 396.797L176 396.797L0 396.797z" />    </clipPath>
    <clipPath  id="36">

    <path id=""  clip-rule="evenodd" transform="matrix(1 0 0 1 0 0)"  d="M0 -0.2030334L176 -0.2030334L176 -0.2030334L176 396.797L176 396.797L0 396.797z" />    </clipPath>
</defs>

<g transform="matrix(1.3333 0 0 1.3333 0 0)">
	<g clip-path="url(#1)" >
		<g clip-path="url(#2)" >
    <path id=""  transform="matrix(1 0 0 -1 0 396)"  d="M73.477 3.051758E-05L73.477 396.203" stroke="#231F20" stroke-width="146.9507" stroke-linejoin="miter" fill="none" />
		</g>
		<g clip-path="url(#3)" >
    <path id=""  transform="matrix(1 0 0 -1 0 396)"  d="M73.477 3.051758E-05L73.477 396.203" stroke="#FFFFFF" stroke-width="134.4442" stroke-linejoin="miter" fill="none" />
		</g>
		<g clip-path="url(#4)" >
    <path id=""  transform="matrix(1 0 0 -1 0 396)"  d="M73.477 3.051758E-05L73.477 396.203" stroke="#231F20" stroke-width="128.1911" stroke-linejoin="miter" fill="none" />
		</g>
		<g clip-path="url(#5)" >
    <path id=""  transform="matrix(1 0 0 -1 0 396)"  d="M73.477 3.051758E-05L73.477 396.203" stroke="#FFFFFF" stroke-width="3.126617" stroke-linejoin="miter" stroke-dasharray="10,10" fill="none" />
		</g>
		<g clip-path="url(#6)" >
    <path id=""  transform="matrix(1 0 0 -1 0 396)"  d="M152.656 28.52304C 151.742 28.52304 151.004 29.26505 151.004 30.18002L151.004 30.18002L151.004 51.70303C 151.004 52.61703 151.742 53.35904 152.656 53.35904L152.656 53.35904L174.18 53.35904C 175.094 53.35904 175.836 52.61703 175.836 51.70303L175.836 51.70303L175.836 30.18002C 175.836 29.26505 175.094 28.52304 174.18 28.52304L174.18 28.52304L152.656 28.52304" stroke="none" fill="#FFFFFF" fill-rule="nonzero" />
		</g>
		<g clip-path="url(#7)" >
    <path id=""  transform="matrix(1 0 0 -1 0 396)"  d="M152.656 28.52304C 151.742 28.52304 151.004 29.26505 151.004 30.18002L151.004 30.18002L151.004 51.70303C 151.004 52.61703 151.742 53.35904 152.656 53.35904L152.656 53.35904L174.18 53.35904C 175.094 53.35904 175.836 52.61703 175.836 51.70303L175.836 51.70303L175.836 30.18002C 175.836 29.26505 175.094 28.52304 174.18 28.52304z" stroke="#231F20" stroke-width="0.0119124" stroke-linejoin="miter" fill="none" />
		</g>
		<g clip-path="url(#8)" >
    <path id=""  transform="matrix(1 0 0 -1 0 396)"  d="M152.656 28.93704C 151.973 28.93704 151.414 29.49603 151.414 30.18002L151.414 30.18002L151.414 51.70303C 151.414 52.38702 151.973 52.94504 152.656 52.94504L152.656 52.94504L174.18 52.94504C 174.863 52.94504 175.422 52.38702 175.422 51.70303L175.422 51.70303L175.422 30.18002C 175.422 29.49603 174.863 28.93704 174.18 28.93704L174.18 28.93704L152.656 28.93704" stroke="none" fill="#231F20" fill-rule="nonzero" />
		</g>
		<g clip-path="url(#9)" >
    <path id=""  transform="matrix(1 0 0 -1 0 396)"  d="M152.656 29.55804C 152.316 29.55804 152.035 29.83603 152.035 30.18002L152.035 30.18002L152.035 51.70303C 152.035 52.04703 152.316 52.32404 152.656 52.32404L152.656 52.32404L174.18 52.32404C 174.523 52.32404 174.801 52.04703 174.801 51.70303L174.801 51.70303L174.801 30.18002C 174.801 29.83603 174.523 29.55804 174.18 29.55804L174.18 29.55804L152.656 29.55804" stroke="none" fill="#FFFFFF" fill-rule="nonzero" />
		</g>
		<g clip-path="url(#10)" >
    <path id=""  transform="matrix(1 0 0 -1 0 396)"  d="M171.281 43.29303C 171.281 38.94904 167.762 35.43002 163.418 35.43002C 159.074 35.43002 155.555 38.94904 155.555 43.29303C 155.555 47.63702 159.074 51.15604 163.418 51.15604C 167.762 51.15604 171.281 47.63702 171.281 43.29303" stroke="none" fill="#C12026" fill-rule="nonzero" />
		</g>
		<g clip-path="url(#11)" >
    <path id=""  transform="matrix(1 0 0 -1 0 396)"  d="M169.211 43.29303C 169.211 40.09402 166.617 37.50003 163.418 37.50003C 160.219 37.50003 157.625 40.09402 157.625 43.29303C 157.625 46.49203 160.219 49.09003 163.418 49.09003C 166.617 49.09003 169.211 46.49203 169.211 43.29303" stroke="none" fill="#FFFFFF" fill-rule="nonzero" />
		</g>
		<g clip-path="url(#12)" >
    <path id=""  transform="matrix(1 0 0 -1 0 396)"  d="M158.969 41.60504L159.945 41.60504C 160.059 41.14404 160.469 40.82004 160.945 40.82004C 161.512 40.82004 161.969 41.27704 161.969 41.84402L161.969 41.84402L161.969 41.96503C 161.969 42.53104 161.512 42.99203 160.945 42.99203L160.945 42.99203L160.52 42.99203L160.52 42.99203L160.52 43.83603L160.52 43.83603L160.945 43.83603C 161.477 43.83603 161.91 44.26904 161.91 44.80103C 161.91 45.33603 161.477 45.76904 160.945 45.76904C 160.48 45.76904 160.082 45.43704 159.996 44.98404L159.996 44.98404L159.02 44.98404C 159.113 45.97604 159.945 46.73404 160.945 46.73404C 162.012 46.73404 162.875 45.87103 162.875 44.80103C 162.875 44.25403 162.609 43.73804 162.16 43.42203C 162.645 43.09802 162.938 42.55103 162.938 41.96503L162.938 41.96503L162.938 41.84402C 162.938 40.74603 162.043 39.85104 160.945 39.85104C 159.938 39.85104 159.09 40.60504 158.969 41.60504" stroke="none" fill="#231F20" fill-rule="nonzero" />
		</g>
		<g clip-path="url(#13)" >
    <path id=""  transform="matrix(1 0 0 -1 0 396)"  d="M164.867 41.78503C 164.867 41.25003 165.301 40.82004 165.832 40.82004C 166.367 40.82004 166.797 41.25003 166.797 41.78503L166.797 41.78503L166.797 44.80103C 166.797 45.33603 166.367 45.76904 165.832 45.76904C 165.301 45.76904 164.867 45.33603 164.867 44.80103L164.867 44.80103L164.867 41.78503M163.902 41.78503L163.902 44.80103C 163.902 45.87103 164.766 46.73404 165.832 46.73404C 166.898 46.73404 167.766 45.87103 167.766 44.80103L167.766 44.80103L167.766 41.78503C 167.766 40.71902 166.898 39.85104 165.832 39.85104C 164.766 39.85104 163.902 40.71902 163.902 41.78503z" stroke="none" fill="#231F20" fill-rule="nonzero" />
		</g>
		<g clip-path="url(#14)" >
    <path id=""  transform="matrix(1 0 0 -1 0 396)"  d="M166.957 30.72604L166.957 34.20303L166.957 34.20303L169.191 34.20303L169.191 34.20303L169.191 33.70703L169.191 33.70703L167.484 33.70703L167.484 33.70703L167.484 32.71103L167.484 32.71103L168.945 32.71103L168.945 32.71103L168.945 32.24603L168.945 32.24603L167.484 32.24603L167.484 32.24603L167.484 31.22302L167.484 31.22302L169.191 31.22302L169.191 31.22302L169.191 30.72604L169.191 30.72604L166.957 30.72604M163.543 30.72604L163.543 34.20303L163.543 34.20303L164.039 34.20303L164.039 34.20303L165.621 31.71902L165.621 31.71902L165.621 34.20303L165.621 34.20303L166.148 34.20303L166.148 34.20303L166.148 30.72604L166.148 30.72604L165.652 30.72604L165.652 30.72604L164.07 33.20703L164.07 33.20703L164.07 30.72604zM160.902 31.93704C 160.902 31.54303 161.223 31.22302 161.617 31.22302C 162.012 31.22302 162.332 31.54303 162.332 31.93704L162.332 31.93704L162.332 32.99203C 162.332 33.38702 162.012 33.70703 161.617 33.70703C 161.223 33.70703 160.902 33.38702 160.902 32.99203zM160.375 31.93704L160.375 32.99203C 160.375 33.67603 160.934 34.23404 161.617 34.23404C 162.305 34.23404 162.859 33.67603 162.859 32.99203L162.859 32.99203L162.859 31.93704C 162.859 31.25003 162.305 30.69504 161.617 30.69504C 160.934 30.69504 160.375 31.25003 160.375 31.93704zM157.645 30.72604L157.645 31.16003L157.645 31.16003L159.227 33.73804L159.227 33.73804L157.707 33.73804L157.707 33.73804L157.707 34.20303L157.707 34.20303L159.879 34.20303L159.879 34.20303L159.879 33.79703L159.879 33.79703L158.297 31.22302L158.297 31.22302L159.879 31.22302L159.879 31.22302L159.879 30.72604z" stroke="none" fill="#231F20" fill-rule="nonzero" />
		</g>
		<g clip-path="url(#15)" >
    <path id=""  transform="matrix(1 0 0 -1 0 396)"  d="M152.57 229.75C 151.656 229.75 150.914 230.492 150.914 231.406L150.914 231.406L150.914 252.949C 150.914 253.863 151.656 254.605 152.57 254.605L152.57 254.605L174.113 254.605C 175.027 254.605 175.77 253.863 175.77 252.949L175.77 252.949L175.77 231.406C 175.77 230.492 175.027 229.75 174.113 229.75L174.113 229.75L152.57 229.75" stroke="none" fill="#FFFFFF" fill-rule="nonzero" />
		</g>
		<g clip-path="url(#16)" >
    <path id=""  transform="matrix(1 0 0 -1 0 396)"  d="M152.57 229.75C 151.656 229.75 150.914 230.492 150.914 231.406L150.914 231.406L150.914 252.949C 150.914 253.863 151.656 254.605 152.57 254.605L152.57 254.605L174.113 254.605C 175.027 254.605 175.77 253.863 175.77 252.949L175.77 252.949L175.77 231.406C 175.77 230.492 175.027 229.75 174.113 229.75z" stroke="#231F20" stroke-width="0.0119124" stroke-linejoin="miter" fill="none" />
		</g>
		<g clip-path="url(#17)" >
    <path id=""  transform="matrix(1 0 0 -1 0 396)"  d="M152.57 230.164C 151.887 230.164 151.328 230.719 151.328 231.406L151.328 231.406L151.328 252.949C 151.328 253.633 151.887 254.191 152.57 254.191L152.57 254.191L174.113 254.191C 174.801 254.191 175.355 253.633 175.355 252.949L175.355 252.949L175.355 231.406C 175.355 230.719 174.801 230.164 174.113 230.164L174.113 230.164L152.57 230.164" stroke="none" fill="#231F20" fill-rule="nonzero" />
		</g>
		<g clip-path="url(#18)" >
    <path id=""  transform="matrix(1 0 0 -1 0 396)"  d="M154.719 230.785L174.734 250.801L174.734 250.801L174.734 231.406C 174.734 231.062 174.457 230.785 174.113 230.785L174.113 230.785L154.719 230.785" stroke="none" fill="#FFFFFF" fill-rule="nonzero" />
		</g>
		<g clip-path="url(#19)" >
    <path id=""  transform="matrix(1 0 0 -1 0 396)"  d="M154.102 230.785L153.488 230.785L153.488 230.785L174.734 252.031L174.734 252.031L174.734 251.418L174.734 251.418L154.102 230.785" stroke="none" fill="#FFFFFF" fill-rule="nonzero" />
		</g>
		<g clip-path="url(#20)" >
    <path id=""  transform="matrix(1 0 0 -1 0 396)"  d="M152.875 230.785L152.57 230.785C 152.484 230.785 152.395 230.805 152.313 230.84L152.313 230.84L174.68 253.207C 174.715 253.125 174.734 253.039 174.734 252.949L174.734 252.949L174.734 252.648L174.734 252.648L152.875 230.785" stroke="none" fill="#FFFFFF" fill-rule="nonzero" />
		</g>
		<g clip-path="url(#21)" >
    <path id=""  transform="matrix(1 0 0 -1 0 396)"  d="M151.949 231.707L173.813 253.57L173.813 253.57L174.113 253.57C 174.203 253.57 174.289 253.551 174.371 253.515L174.371 253.515L152.008 231.148C 151.969 231.23 151.949 231.316 151.949 231.406L151.949 231.406L151.949 231.707" stroke="none" fill="#FFFFFF" fill-rule="nonzero" />
		</g>
		<g clip-path="url(#22)" >
    <path id=""  transform="matrix(1 0 0 -1 0 396)"  d="M151.949 232.324L151.949 232.937L151.949 232.937L172.582 253.57L172.582 253.57L173.199 253.57L173.199 253.57L151.949 232.324" stroke="none" fill="#FFFFFF" fill-rule="nonzero" />
		</g>
		<g clip-path="url(#23)" >
    <path id=""  transform="matrix(1 0 0 -1 0 396)"  d="M151.949 233.555L151.949 252.949C 151.949 253.293 152.227 253.57 152.57 253.57L152.57 253.57L171.969 253.57L171.969 253.57L151.949 233.555" stroke="none" fill="#FFFFFF" fill-rule="nonzero" />
		</g>
		<g clip-path="url(#24)" >
    <path id=""  transform="matrix(1 0 0 -1 0 396)"  d="M158.199 238.574C 158.09 238.668 157.984 238.765 157.879 238.867L157.879 238.867L159.344 240.332C 159.449 240.23 159.559 240.133 159.672 240.043L159.672 240.043L158.199 238.574M169.301 249.676L167.832 248.203C 167.738 248.316 167.645 248.426 167.543 248.531L167.543 248.531L169.008 249.996C 169.109 249.89 169.207 249.785 169.301 249.676zM158.895 238.039C 158.773 238.121 158.656 238.207 158.539 238.297L158.539 238.297L160.02 239.777C 160.141 239.691 160.266 239.613 160.395 239.535zM169.836 248.98L168.336 247.48C 168.262 247.609 168.184 247.73 168.098 247.855L168.098 247.855L169.578 249.336C 169.668 249.219 169.754 249.101 169.836 248.98zM159.664 237.574C 159.527 237.644 159.398 237.719 159.27 237.797L159.27 237.797L160.793 239.32C 160.934 239.254 161.078 239.191 161.223 239.133zM170.301 248.211L168.742 246.652C 168.684 246.797 168.621 246.941 168.555 247.078L168.555 247.078L170.078 248.605C 170.156 248.476 170.23 248.344 170.301 248.211zM160.508 237.187C 160.363 237.246 160.219 237.305 160.074 237.371L160.074 237.371L161.68 238.976C 161.84 238.926 162.004 238.887 162.172 238.851zM170.688 247.367L169.023 245.703C 168.988 245.871 168.949 246.035 168.898 246.195L168.898 246.195L170.504 247.801C 170.57 247.656 170.629 247.512 170.688 247.367zM168.699 250.301L167.23 248.836C 166.164 249.797 164.781 250.332 163.344 250.332C 160.141 250.332 157.543 247.734 157.543 244.531C 157.543 243.094 158.078 241.707 159.039 240.644L159.039 240.644L157.574 239.176C 156.223 240.633 155.473 242.547 155.473 244.531C 155.473 248.879 158.996 252.402 163.344 252.402C 165.328 252.402 167.242 251.652 168.699 250.301zM170.848 246.91C 171.09 246.14 171.215 245.34 171.215 244.531C 171.215 240.183 167.691 236.66 163.344 236.66C 162.535 236.66 161.734 236.785 160.965 237.027L160.965 237.027L162.703 238.765C 162.914 238.742 163.129 238.73 163.344 238.73C 166.547 238.73 169.145 241.328 169.145 244.531C 169.145 244.746 169.133 244.961 169.105 245.172z" stroke="none" fill="#828487" fill-rule="nonzero" />
		</g>
		<g clip-path="url(#25)" >
    <path id=""  transform="matrix(1 0 0 -1 0 396)"  d="M163.828 244.199L163.828 244.812L163.828 244.812L164.793 245.781L164.793 245.781L164.793 245.164L164.793 245.164L163.828 244.199M163.828 242.969L163.828 243.582L163.828 243.582L164.793 244.551L164.793 244.551L164.793 243.933zM164.793 243.32L164.793 243.019C 164.793 242.926 164.805 242.836 164.832 242.746L164.832 242.746L164.105 242.019C 164.027 242.152 163.961 242.293 163.914 242.441zM165.059 242.355C 165.164 242.246 165.289 242.164 165.43 242.113L165.43 242.113L164.715 241.394C 164.59 241.473 164.477 241.566 164.375 241.672zM167.691 243.758L167.691 243.019C 167.691 241.953 166.828 241.09 165.758 241.09C 165.543 241.09 165.332 241.125 165.129 241.195L165.129 241.195L166.027 242.094C 166.348 242.183 166.598 242.433 166.688 242.754zM166.727 243.406L166.727 244.023L166.727 244.023L167.691 244.988L167.691 244.988L167.691 244.375zM166.727 244.637L166.727 245.254L166.727 245.254L167.684 246.211C 167.691 246.156 167.691 246.098 167.691 246.043L167.691 246.043L167.691 245.605zM166.727 245.867L166.727 246.043C 166.727 246.168 166.703 246.293 166.652 246.41L166.652 246.41L167.363 247.121C 167.449 246.996 167.52 246.859 167.574 246.715zM166.727 247.715C 166.855 247.64 166.973 247.555 167.082 247.453L167.082 247.453L166.398 246.769C 166.281 246.871 166.141 246.941 165.992 246.98zM163.828 245.43L163.828 246.043C 163.828 247.109 164.691 247.976 165.758 247.976C 165.941 247.976 166.121 247.949 166.297 247.898L166.297 247.898L165.277 246.879C 165.129 246.793 165.008 246.672 164.922 246.523zM162.785 242.543C 162.598 241.875 162.074 241.351 161.406 241.164zM162.859 243.23L160.723 241.094C 160.547 241.105 160.375 241.14 160.211 241.199L160.211 241.199L161.094 242.078C 161.48 242.168 161.781 242.469 161.867 242.855L161.867 242.855L162.77 243.758C 162.828 243.578 162.859 243.39 162.859 243.203zM161.859 243.461C 161.742 243.914 161.332 244.23 160.867 244.23L160.867 244.23L160.441 244.23L160.441 244.23L160.441 245.074L160.441 245.074L160.867 245.074C 161.398 245.074 161.832 245.508 161.832 246.043C 161.832 246.574 161.398 247.008 160.867 247.008C 160.402 247.008 160.004 246.68 159.918 246.223L159.918 246.223L158.941 246.223C 159.035 247.215 159.867 247.976 160.867 247.976C 161.934 247.976 162.801 247.109 162.801 246.043C 162.801 245.492 162.531 244.976 162.082 244.66C 162.273 244.531 162.441 244.363 162.566 244.172zM158.887 242.84L159.867 242.84C 159.949 242.508 160.191 242.234 160.516 242.117L160.516 242.117L159.797 241.398C 159.293 241.719 158.961 242.246 158.887 242.84z" stroke="none" fill="#828487" fill-rule="nonzero" />
		</g>
		<g clip-path="url(#26)" >
    <path id=""  transform="matrix(1 0 0 -1 0 396)"  d="M166.887 231.953L166.887 235.43L166.887 235.43L169.121 235.43L169.121 235.43L169.121 234.933L169.121 234.933L167.414 234.933L167.414 234.933L167.414 233.941L167.414 233.941L168.875 233.941L168.875 233.941L168.875 233.473L168.875 233.473L167.414 233.473L167.414 233.473L167.414 232.449L167.414 232.449L169.121 232.449L169.121 232.449L169.121 231.953L169.121 231.953L166.887 231.953M163.469 231.953L163.469 235.43L163.469 235.43L163.965 235.43L163.965 235.43L165.551 232.945L165.551 232.945L165.551 235.43L165.551 235.43L166.078 235.43L166.078 235.43L166.078 231.953L166.078 231.953L165.578 231.953L165.578 231.953L163.996 234.437L163.996 234.437L163.996 231.953zM160.828 233.164C 160.828 232.769 161.145 232.449 161.539 232.449C 161.934 232.449 162.254 232.769 162.254 233.164L162.254 233.164L162.254 234.219C 162.254 234.613 161.934 234.933 161.539 234.933C 161.145 234.933 160.828 234.613 160.828 234.219zM160.297 233.164L160.297 234.219C 160.297 234.906 160.855 235.461 161.539 235.461C 162.227 235.461 162.785 234.906 162.785 234.219L162.785 234.219L162.785 233.164C 162.785 232.476 162.227 231.922 161.539 231.922C 160.855 231.922 160.297 232.476 160.297 233.164zM158.285 234.965L157.668 234.965L157.668 234.965L158.137 235.43L158.137 235.43L158.75 235.43zM157.563 231.953L157.563 232.387L157.563 232.387L159.148 234.965L159.148 234.965L158.898 234.965L158.898 234.965L159.367 235.43L159.367 235.43L159.801 235.43L159.801 235.43L159.801 235.027L159.801 235.027L158.215 232.449L158.215 232.449L159.801 232.449L159.801 232.449L159.801 231.953z" stroke="none" fill="#828487" fill-rule="nonzero" />
		</g>
		<g clip-path="url(#27)" >
    <path id=""  transform="matrix(1 0 0 -1 0 396)"  d="M157.297 191.387L157.297 195.383C 156.699 195.324 156.254 195.172 155.949 194.926C 155.48 194.539 155.246 194.035 155.246 193.414C 155.246 192.863 155.422 192.394 155.797 192.031C 156.172 191.644 156.676 191.433 157.297 191.387zM159.242 195.359L159.406 196.613C 160.145 196.426 160.707 196.051 161.105 195.523C 161.504 194.996 161.715 194.316 161.715 193.484C 161.715 192.441 161.398 191.609 160.754 191C 160.098 190.379 159.207 190.086 158.047 190.086C 156.84 190.086 155.902 190.379 155.246 191C 154.578 191.621 154.25 192.43 154.25 193.414C 154.25 194.375 154.566 195.148 155.234 195.746C 155.879 196.355 156.793 196.66 157.977 196.66C 158.047 196.66 158.152 196.66 158.293 196.66L158.293 196.66L158.293 191.316C 159.078 191.363 159.676 191.586 160.098 191.984C 160.52 192.383 160.719 192.875 160.719 193.484C 160.719 193.93 160.602 194.305 160.367 194.621C 160.133 194.937 159.758 195.183 159.242 195.359zM161.563 182.816L154.402 182.816L154.402 182.816L154.402 183.906L154.402 183.906L155.422 183.906C 154.637 184.422 154.25 185.183 154.25 186.18C 154.25 186.601 154.332 187 154.484 187.363C 154.637 187.726 154.848 187.996 155.094 188.183C 155.34 188.359 155.645 188.476 155.984 188.547C 156.207 188.594 156.605 188.617 157.168 188.617L157.168 188.617L161.563 188.617L161.563 188.617L161.563 187.41L161.563 187.41L157.215 187.41C 156.723 187.41 156.348 187.363 156.102 187.269C 155.867 187.176 155.656 187 155.516 186.765C 155.375 186.519 155.305 186.25 155.305 185.922C 155.305 185.406 155.469 184.961 155.797 184.598C 156.113 184.223 156.734 184.023 157.66 184.023L157.66 184.023L161.563 184.023zM157.988 175.937C 158.902 175.937 159.594 176.137 160.027 176.547C 160.484 176.945 160.719 177.437 160.719 178.047C 160.719 178.656 160.484 179.148 160.027 179.558C 159.582 179.957 158.891 180.156 157.953 180.156C 157.063 180.156 156.395 179.945 155.938 179.547C 155.48 179.148 155.258 178.656 155.258 178.047C 155.258 177.437 155.48 176.945 155.938 176.547C 156.395 176.137 157.063 175.937 157.988 175.937zM157.977 174.695C 156.664 174.695 155.691 175.07 155.035 175.797C 154.52 176.418 154.25 177.168 154.25 178.047C 154.25 179.043 154.566 179.84 155.223 180.461C 155.855 181.082 156.746 181.398 157.883 181.398C 158.809 181.398 159.523 181.258 160.051 180.988C 160.566 180.707 160.988 180.308 161.27 179.781C 161.574 179.242 161.715 178.68 161.715 178.047C 161.715 177.051 161.398 176.242 160.754 175.621C 160.109 175 159.195 174.695 157.977 174.695zM161.563 167.629L160.566 167.629L160.566 167.629L155.34 172.152C 155.375 171.637 155.387 171.18 155.387 170.793L155.387 170.793L155.387 167.898L155.387 167.898L154.402 167.898L154.402 167.898L154.402 173.734L154.402 173.734L155.199 173.734L155.199 173.734L159.746 169.844L159.746 169.844L160.578 169.094C 160.543 169.656 160.52 170.16 160.52 170.629L160.52 170.629L160.52 173.957L160.52 173.957L161.563 173.957zM160.473 163.219L161.551 163.394C 161.621 163.043 161.656 162.738 161.656 162.48C 161.656 162.035 161.586 161.695 161.457 161.461C 161.316 161.215 161.117 161.051 160.906 160.945C 160.66 160.851 160.191 160.793 159.465 160.793L159.465 160.793L155.34 160.793L155.34 160.793L155.34 159.902L155.34 159.902L154.402 159.902L154.402 159.902L154.402 160.793L154.402 160.793L152.633 160.793L152.633 160.793L151.906 162.012L151.906 162.012L154.402 162.012L154.402 162.012L154.402 163.219L154.402 163.219L155.34 163.219L155.34 163.219L155.34 162.012L155.34 162.012L159.535 162.012C 159.875 162.012 160.098 162.035 160.191 162.082C 160.309 162.117 160.379 162.187 160.449 162.281C 160.496 162.387 160.531 162.515 160.531 162.703C 160.531 162.82 160.52 163.008 160.473 163.219zM161.563 157.531L154.402 157.531L154.402 157.531L154.402 158.738L154.402 158.738L161.563 158.738zM153.066 157.531L151.684 157.531L151.684 157.531L151.684 158.738L151.684 158.738L153.066 158.738zM161.563 146.047L154.402 146.047L154.402 146.047L154.402 147.137L154.402 147.137L155.41 147.137C 155.07 147.348 154.777 147.652 154.566 148.027C 154.367 148.402 154.25 148.824 154.25 149.293C 154.25 149.82 154.367 150.265 154.578 150.594C 154.801 150.945 155.105 151.18 155.504 151.308C 154.66 151.894 154.25 152.621 154.25 153.535C 154.25 154.25 154.449 154.801 154.848 155.176C 155.234 155.562 155.844 155.75 156.652 155.75L156.652 155.75L161.563 155.75L161.563 155.75L161.563 154.543L161.563 154.543L157.051 154.543C 156.57 154.543 156.23 154.496 156.008 154.414C 155.797 154.344 155.633 154.191 155.492 153.992C 155.375 153.781 155.305 153.547 155.305 153.254C 155.305 152.762 155.469 152.328 155.797 152C 156.137 151.672 156.664 151.508 157.414 151.508L157.414 151.508L161.563 151.508L161.563 151.508L161.563 150.289L161.563 150.289L156.91 150.289C 156.371 150.289 155.973 150.195 155.703 149.996C 155.434 149.797 155.305 149.48 155.305 149.023C 155.305 148.695 155.387 148.379 155.563 148.086C 155.738 147.793 156.008 147.594 156.359 147.453C 156.711 147.324 157.203 147.254 157.848 147.254L157.848 147.254L161.563 147.254zM161.563 142.988L154.402 142.988L154.402 142.988L154.402 144.195L154.402 144.195L161.563 144.195zM153.066 142.988L151.684 142.988L151.684 142.988L151.684 144.195L151.684 144.195L153.066 144.195zM161.563 139.89L151.684 139.89L151.684 139.89L151.684 141.109L151.684 141.109L161.563 141.109zM157.988 129.215C 158.902 129.215 159.594 129.402 160.051 129.789C 160.496 130.176 160.719 130.633 160.719 131.172C 160.719 131.699 160.496 132.144 160.074 132.519C 159.641 132.894 158.984 133.07 158.082 133.07C 157.121 133.07 156.406 132.883 155.949 132.508C 155.48 132.133 155.258 131.664 155.258 131.113C 155.258 130.562 155.48 130.117 155.926 129.754C 156.348 129.39 157.051 129.215 157.988 129.215zM161.563 133.047L160.648 133.047C 161.352 132.59 161.715 131.933 161.715 131.043C 161.715 130.48 161.563 129.953 161.246 129.473C 160.93 129.004 160.484 128.629 159.934 128.371C 159.371 128.113 158.727 127.973 157.988 127.973C 157.273 127.973 156.629 128.09 156.043 128.324C 155.469 128.558 155.023 128.922 154.719 129.402C 154.402 129.871 154.25 130.41 154.25 130.996C 154.25 131.418 154.344 131.805 154.531 132.144C 154.707 132.484 154.941 132.754 155.234 132.965L155.234 132.965L151.684 132.965L151.684 132.965L151.684 134.172L151.684 134.172L161.563 134.172zM157.297 121.664L157.297 125.66C 156.699 125.601 156.254 125.449 155.949 125.203C 155.48 124.816 155.246 124.312 155.246 123.691C 155.246 123.14 155.422 122.672 155.797 122.308C 156.172 121.922 156.676 121.711 157.297 121.664zM159.242 125.637L159.406 126.89C 160.145 126.703 160.707 126.328 161.105 125.801C 161.504 125.273 161.715 124.594 161.715 123.762C 161.715 122.719 161.398 121.887 160.754 121.277C 160.098 120.656 159.207 120.363 158.047 120.363C 156.84 120.363 155.902 120.656 155.246 121.277C 154.578 121.898 154.25 122.707 154.25 123.691C 154.25 124.652 154.566 125.426 155.234 126.023C 155.879 126.633 156.793 126.937 157.977 126.937C 158.047 126.937 158.152 126.937 158.293 126.937L158.293 126.937L158.293 121.594C 159.078 121.64 159.676 121.863 160.098 122.262C 160.52 122.66 160.719 123.152 160.719 123.762C 160.719 124.207 160.602 124.582 160.367 124.898C 160.133 125.215 159.758 125.461 159.242 125.637zM157.297 114L157.297 117.996C 156.699 117.937 156.254 117.785 155.949 117.539C 155.48 117.152 155.246 116.648 155.246 116.027C 155.246 115.476 155.422 115.008 155.797 114.644C 156.172 114.258 156.676 114.047 157.297 114zM159.242 117.973L159.406 119.226C 160.145 119.039 160.707 118.664 161.105 118.137C 161.504 117.609 161.715 116.93 161.715 116.098C 161.715 115.055 161.398 114.223 160.754 113.613C 160.098 112.992 159.207 112.699 158.047 112.699C 156.84 112.699 155.902 112.992 155.246 113.613C 154.578 114.234 154.25 115.043 154.25 116.027C 154.25 116.988 154.566 117.762 155.234 118.359C 155.879 118.969 156.793 119.273 157.977 119.273C 158.047 119.273 158.152 119.273 158.293 119.273L158.293 119.273L158.293 113.93C 159.078 113.976 159.676 114.199 160.098 114.598C 160.52 114.996 160.719 115.488 160.719 116.098C 160.719 116.543 160.602 116.918 160.367 117.234C 160.133 117.551 159.758 117.797 159.242 117.973zM158.035 106.531C 158.938 106.531 159.617 106.719 160.063 107.082C 160.496 107.457 160.719 107.914 160.719 108.43C 160.719 108.969 160.484 109.437 160.027 109.812C 159.582 110.199 158.867 110.387 157.918 110.387C 157.016 110.387 156.336 110.211 155.879 109.824C 155.422 109.449 155.199 109.015 155.199 108.488C 155.199 107.973 155.434 107.527 155.926 107.117C 156.406 106.719 157.109 106.531 158.035 106.531zM164.305 105.43L154.402 105.43L154.402 105.43L154.402 106.531L154.402 106.531L155.34 106.531C 154.988 106.789 154.707 107.082 154.531 107.41C 154.344 107.738 154.25 108.148 154.25 108.594C 154.25 109.215 154.402 109.754 154.719 110.223C 155.035 110.68 155.48 111.043 156.043 111.277C 156.629 111.512 157.25 111.629 157.93 111.629C 158.656 111.629 159.313 111.512 159.91 111.242C 160.484 110.984 160.93 110.598 161.246 110.105C 161.563 109.59 161.715 109.062 161.715 108.512C 161.715 108.113 161.633 107.762 161.457 107.422C 161.281 107.105 161.082 106.848 160.813 106.637L160.813 106.637L164.305 106.637zM158.387 95.95303L158.281 97.18304C 158.773 97.24203 159.172 97.37103 159.512 97.59402C 159.828 97.80502 160.074 98.13303 160.285 98.59003C 160.473 99.03503 160.566 99.53903 160.566 100.09C 160.566 100.605 160.496 101.027 160.344 101.414C 160.191 101.801 159.992 102.082 159.723 102.269C 159.465 102.457 159.195 102.551 158.891 102.551C 158.586 102.551 158.305 102.469 158.07 102.281C 157.848 102.105 157.66 101.801 157.496 101.39C 157.402 101.133 157.227 100.535 157.016 99.63303C 156.793 98.73004 156.594 98.09802 156.406 97.72302C 156.16 97.25403 155.844 96.90204 155.48 96.66803C 155.105 96.43304 154.695 96.32803 154.25 96.32803C 153.746 96.32803 153.277 96.46902 152.844 96.75003C 152.422 97.03104 152.082 97.44104 151.848 97.99203C 151.637 98.53104 151.52 99.14005 151.52 99.80804C 151.52 100.535 151.637 101.18 151.883 101.73C 152.117 102.305 152.457 102.726 152.914 103.031C 153.371 103.336 153.898 103.488 154.473 103.512L154.473 103.512L154.566 102.258C 153.945 102.187 153.477 101.965 153.16 101.578C 152.832 101.18 152.68 100.617 152.68 99.85504C 152.68 99.05804 152.82 98.49603 153.102 98.12103C 153.395 97.75803 153.758 97.58203 154.156 97.58203C 154.52 97.58203 154.801 97.71103 155.035 97.96902C 155.258 98.21503 155.504 98.88303 155.738 99.93704C 155.973 101.004 156.195 101.73 156.371 102.117C 156.641 102.703 156.969 103.125 157.367 103.394C 157.789 103.664 158.258 103.805 158.773 103.805C 159.301 103.805 159.793 103.652 160.25 103.348C 160.719 103.055 161.082 102.621 161.34 102.07C 161.609 101.496 161.727 100.863 161.727 100.16C 161.727 99.26904 161.609 98.51904 161.34 97.91003C 161.082 97.30103 160.684 96.83203 160.156 96.49203C 159.641 96.15204 159.055 95.96503 158.387 95.95303z" stroke="none" fill="#00ADEF" fill-rule="nonzero" />
		</g>
		<g clip-path="url(#28)" >
    <path id=""  transform="matrix(1 0 0 -1 0 396)"  d="M5.137 254.816L141.879 254.816L141.879 254.816L141.879 53.43704L141.879 53.43704L5.137 53.43704z" stroke="#00ADEF" stroke-width="0.781653" stroke-linejoin="miter" stroke-dasharray="3.90826392173767,2.34496092796326" fill="none" />
		</g>
		<g clip-path="url(#29)" >
    <path id=""  transform="matrix(1 0 0 -1 0 396)"  d="M115.117 116.082C 114.621 115.902 114.152 115.566 113.84 115.125C 113.008 113.941 112.152 111.828 111.867 110.402C 111.301 107.566 111.203 105.051 111.227 102.078C 111.332 90.30502 111.211 78.21503 111.383 66.54703C 111.43 63.37103 111.836 59.84003 112.914 56.94904C 113.246 56.05502 113.945 54.77304 114.652 54.18704C 115.113 53.80502 115.535 53.50803 116.328 53.75803C 120.016 54.91803 120.27 64.40204 120.254 67.72604C 120.227 73.65204 120.258 79.56604 120.18 85.48004C 120.105 91.43002 120.207 97.40604 120.102 103.348C 120.059 105.824 119.816 108.996 119.07 111.191C 118.613 112.543 117.313 116.883 115.117 116.082M115.105 106.91C 116.082 106.922 116.555 106.742 116.773 105.691C 116.941 104.887 117.055 103.836 117.043 103.004C 117.02 100.996 117.027 99.01202 117.035 97.00803C 117.051 93.05103 117.082 89.09402 117.086 85.13303L117.086 85.13303L117.195 67.38303C 117.203 66.47302 117.273 65.28104 117.191 64.39804C 117.055 62.96103 115.824 61.01202 114.688 63.55103C 114.125 64.80804 114.379 70.64005 114.371 72.22302C 114.352 75.83603 114.031 102.808 114.309 104.793C 114.512 106.258 114.516 105.941 115.105 106.91z" stroke="none" fill="#FFFFFF" fill-rule="evenodd" />
		</g>
		<g clip-path="url(#30)" >
    <path id=""  transform="matrix(1 0 0 -1 0 396)"  d="M96.043 106.664L101.121 106.707L101.121 106.707L98.914 95.19104C 98.203 91.54303 97.902 90.42203 97.699 89.13303C 97.699 87.82404 97.766 86.33203 97.766 82.55103C 100.984 82.55502 101.09 82.93002 101.637 80.22302C 101.949 78.66003 101.898 67.51904 101.871 64.83203C 101.844 62.45703 100.242 61.25403 99.348 63.91003C 98.938 65.12503 99.156 65.69504 99.012 66.90204L99.012 66.90204L96.215 66.87103C 96.191 64.16803 96.352 62.15204 96.703 59.58203C 96.953 57.75803 97.957 55.62503 99.141 54.18304C 99.457 53.79303 100.805 53.17203 101.797 54.25803C 103.992 56.66003 104.465 59.59802 104.699 63.06604C 105 67.52304 105.133 81.13303 104.031 85.68704C 103.582 87.54303 103.156 90.00003 101.07 90.53104C 101.883 94.44104 102.68 98.41003 103.406 102.348C 103.84 104.832 104.012 105.992 104.355 108.094C 104.348 109.152 104.332 114.465 104.367 115.539C 103.23 115.539 97.129 115.531 96.02 115.527L96.02 115.527L96.043 106.664" stroke="none" fill="#FFFFFF" fill-rule="evenodd" />
		</g>
		<g clip-path="url(#31)" >
    <path id=""  transform="matrix(1 0 0 -1 0 396)"  d="M112.789 324.914C 112.293 324.73 111.824 324.394 111.512 323.953C 110.68 322.769 109.828 320.66 109.543 319.234C 108.973 316.394 108.875 313.879 108.902 310.906C 109.004 299.133 108.887 287.043 109.059 275.375C 109.105 272.203 109.512 268.668 110.586 265.777C 110.918 264.887 111.617 263.601 112.328 263.015C 112.789 262.633 113.207 262.336 114 262.586C 117.691 263.746 117.945 273.23 117.93 276.558C 117.898 282.48 117.93 288.394 117.855 294.312C 117.777 300.262 117.879 306.234 117.773 312.18C 117.73 314.652 117.488 317.82 116.742 320.019C 116.285 321.371 114.984 325.715 112.789 324.914M112.777 315.738C 113.754 315.75 114.227 315.57 114.445 314.519C 114.613 313.715 114.727 312.664 114.719 311.832C 114.695 309.824 114.703 307.844 114.711 305.836C 114.727 301.879 114.754 297.922 114.762 293.961L114.762 293.961L114.867 276.207C 114.875 275.297 114.949 274.109 114.863 273.23C 114.727 271.793 113.496 269.844 112.359 272.379C 111.797 273.637 112.051 279.473 112.043 281.051C 112.023 284.664 111.703 311.637 111.98 313.621C 112.184 315.09 112.188 314.769 112.777 315.738z" stroke="none" fill="#FFFFFF" fill-rule="evenodd" />
		</g>
		<g clip-path="url(#32)" >
    <path id=""  transform="matrix(1 0 0 -1 0 396)"  d="M93.719 315.715L98.793 315.758L98.793 315.758L96.59 304.129C 95.875 300.441 95.574 299.308 95.371 298.008C 95.371 296.687 95.441 295.18 95.441 291.359C 98.656 291.363 98.766 291.742 99.309 289.004C 99.621 287.43 99.57 276.176 99.543 273.465C 99.516 271.058 97.914 269.848 97.02 272.531C 96.609 273.758 96.832 274.332 96.684 275.551L96.684 275.551L93.887 275.519C 93.863 272.789 94.023 270.754 94.375 268.16C 94.625 266.316 95.633 264.16 96.813 262.703C 97.133 262.312 98.477 261.683 99.469 262.777C 101.668 265.207 102.137 268.176 102.371 271.68C 102.676 276.18 102.809 289.926 101.703 294.527C 101.254 296.402 100.828 298.883 98.742 299.418C 99.555 303.371 100.352 307.379 101.082 311.355C 101.512 313.863 101.684 315.039 102.027 317.16C 102.023 318.226 102.008 323.594 102.043 324.68C 100.902 324.68 94.805 324.672 93.691 324.668L93.691 324.668L93.719 315.715" stroke="none" fill="#FFFFFF" fill-rule="evenodd" />
		</g>
		<g clip-path="url(#33)" >
    <path id=""  transform="matrix(1 0 0 -1 0 396)"  d="M94.168 331.004L120.656 255.344" stroke="#FFFFFF" stroke-width="3.126617" stroke-linejoin="miter" fill="none" />
		</g>
		<g clip-path="url(#34)" >
    <path id=""  transform="matrix(1 0 0 -1 0 396)"  d="M119.582 331.14L93.242 255.32" stroke="#FFFFFF" stroke-width="3.126617" stroke-linejoin="miter" fill="none" />
		</g>
		<g clip-path="url(#35)" >
    <path id=""  transform="matrix(1 0 0 -1 0 396)"  d="M95.93 53.43704L159.34 53.43704" stroke="#ED1C24" stroke-width="0.312662" stroke-linejoin="miter" fill="none" />
		</g>
		<g clip-path="url(#36)" >
    <path id=""  transform="matrix(1 0 0 -1 0 396)"  d="M89.641 254.816L159.258 254.816" stroke="#ED1C24" stroke-width="0.312662" stroke-linejoin="miter" fill="none" />
		</g>
	</g>
</g>
</svg>