<?xml version="1.0" standalone="no"?>
<!DOCTYPE svg PUBLIC "-//W3C//DTD SVG 1.0//EN" "http://www.w3.org/TR/2001/REC-SVG-20010904/DTD/svg10.dtd">
<svg xmlns="http://www.w3.org/2000/svg" xmlns:xlink="http://www.w3.org/1999/xlink" id="body_1" width="571" height="291">

<defs>
    <clipPath  id="1">

    <path id=""  clip-rule="evenodd" transform="matrix(1 0 0 1 0 0)"  d="M0 218L0 -0.0553894L0 -0.0553894L428.5953 -0.0553894L428.5953 -0.0553894L428.5953 218L428.5953 218L0 218z" />    </clipPath>
    <clipPath  id="2">

    <path id=""  clip-rule="evenodd" transform="matrix(1 0 0 1 0 0)"  d="M0 -0.0553894L429 -0.0553894L429 -0.0553894L429 218.9446L429 218.9446L0 218.9446z" />    </clipPath>
    <clipPath  id="3">

    <path id=""  clip-rule="evenodd" transform="matrix(1 0 0 1 0 0)"  d="M0 -0.0553894L429 -0.0553894L429 -0.0553894L429 218.9446L429 218.9446L0 218.9446z" />    </clipPath>
    <clipPath  id="4">

    <path id=""  clip-rule="evenodd" transform="matrix(1 0 0 1 0 0)"  d="M0 -0.0553894L429 -0.0553894L429 -0.0553894L429 218.9446L429 218.9446L0 218.9446z" />    </clipPath>
    <clipPath  id="5">

    <path id=""  clip-rule="evenodd" transform="matrix(1 0 0 1 0 0)"  d="M0 -0.0553894L429 -0.0553894L429 -0.0553894L429 218.9446L429 218.9446L0 218.9446z" />    </clipPath>
    <clipPath  id="6">

    <path id=""  clip-rule="evenodd" transform="matrix(1 0 0 1 0 0)"  d="M0 -0.0553894L429 -0.0553894L429 -0.0553894L429 218.9446L429 218.9446L0 218.9446z" />    </clipPath>
    <clipPath  id="7">

    <path id=""  clip-rule="evenodd" transform="matrix(1 0 0 1 0 0)"  d="M0 -0.0553894L429 -0.0553894L429 -0.0553894L429 218.9446L429 218.9446L0 218.9446z" />    </clipPath>
    <clipPath  id="8">

    <path id=""  clip-rule="evenodd" transform="matrix(1 0 0 1 0 0)"  d="M0 -0.0553894L429 -0.0553894L429 -0.0553894L429 218.9446L429 218.9446L0 218.9446z" />    </clipPath>
    <clipPath  id="9">

    <path id=""  clip-rule="evenodd" transform="matrix(1 0 0 1 0 0)"  d="M0 -0.0553894L429 -0.0553894L429 -0.0553894L429 218.9446L429 218.9446L0 218.9446z" />    </clipPath>
    <clipPath  id="10">

    <path id=""  clip-rule="evenodd" transform="matrix(1 0 0 1 0 0)"  d="M0 -0.0553894L429 -0.0553894L429 -0.0553894L429 218.9446L429 218.9446L0 218.9446z" />    </clipPath>
    <clipPath  id="11">

    <path id=""  clip-rule="evenodd" transform="matrix(1 0 0 1 0 0)"  d="M0 -0.0553894L429 -0.0553894L429 -0.0553894L429 218.9446L429 218.9446L0 218.9446z" />    </clipPath>
    <clipPath  id="12">

    <path id=""  clip-rule="evenodd" transform="matrix(1 0 0 1 0 0)"  d="M0 -0.0553894L429 -0.0553894L429 -0.0553894L429 218.9446L429 218.9446L0 218.9446z" />    </clipPath>
    <clipPath  id="13">

    <path id=""  clip-rule="evenodd" transform="matrix(1 0 0 1 0 0)"  d="M0 -0.0553894L429 -0.0553894L429 -0.0553894L429 218.9446L429 218.9446L0 218.9446z" />    </clipPath>
    <clipPath  id="14">

    <path id=""  clip-rule="evenodd" transform="matrix(1 0 0 1 0 0)"  d="M0 -0.0553894L429 -0.0553894L429 -0.0553894L429 218.9446L429 218.9446L0 218.9446z" />    </clipPath>
    <clipPath  id="15">

    <path id=""  clip-rule="evenodd" transform="matrix(1 0 0 1 0 0)"  d="M0 -0.0553894L429 -0.0553894L429 -0.0553894L429 218.9446L429 218.9446L0 218.9446z" />    </clipPath>
    <clipPath  id="16">

    <path id=""  clip-rule="evenodd" transform="matrix(1 0 0 1 0 0)"  d="M0 -0.0553894L429 -0.0553894L429 -0.0553894L429 218.9446L429 218.9446L0 218.9446z" />    </clipPath>
    <clipPath  id="17">

    <path id=""  clip-rule="evenodd" transform="matrix(1 0 0 1 0 0)"  d="M0 -0.0553894L429 -0.0553894L429 -0.0553894L429 218.9446L429 218.9446L0 218.9446z" />    </clipPath>
    <clipPath  id="18">

    <path id=""  clip-rule="evenodd" transform="matrix(1 0 0 1 0 0)"  d="M0 -0.0553894L429 -0.0553894L429 -0.0553894L429 218.9446L429 218.9446L0 218.9446z" />    </clipPath>
    <clipPath  id="19">

    <path id=""  clip-rule="evenodd" transform="matrix(1 0 0 1 0 0)"  d="M0 -0.0553894L429 -0.0553894L429 -0.0553894L429 218.9446L429 218.9446L0 218.9446z" />    </clipPath>
    <clipPath  id="20">

    <path id=""  clip-rule="evenodd" transform="matrix(1 0 0 1 0 0)"  d="M0 -0.0553894L429 -0.0553894L429 -0.0553894L429 218.9446L429 218.9446L0 218.9446z" />    </clipPath>
    <clipPath  id="21">

    <path id=""  clip-rule="evenodd" transform="matrix(1 0 0 1 0 0)"  d="M0 -0.0553894L429 -0.0553894L429 -0.0553894L429 218.9446L429 218.9446L0 218.9446z" />    </clipPath>
    <clipPath  id="22">

    <path id=""  clip-rule="evenodd" transform="matrix(1 0 0 1 0 0)"  d="M0 -0.0553894L429 -0.0553894L429 -0.0553894L429 218.9446L429 218.9446L0 218.9446z" />    </clipPath>
    <clipPath  id="23">

    <path id=""  clip-rule="evenodd" transform="matrix(1 0 0 1 0 0)"  d="M0 -0.0553894L429 -0.0553894L429 -0.0553894L429 218.9446L429 218.9446L0 218.9446z" />    </clipPath>
    <clipPath  id="24">

    <path id=""  clip-rule="evenodd" transform="matrix(1 0 0 1 0 0)"  d="M0 -0.0553894L429 -0.0553894L429 -0.0553894L429 218.9446L429 218.9446L0 218.9446z" />    </clipPath>
    <clipPath  id="25">

    <path id=""  clip-rule="evenodd" transform="matrix(1 0 0 1 0 0)"  d="M0 -0.0553894L429 -0.0553894L429 -0.0553894L429 218.9446L429 218.9446L0 218.9446z" />    </clipPath>
    <clipPath  id="26">

    <path id=""  clip-rule="evenodd" transform="matrix(1 0 0 1 0 0)"  d="M0 -0.0553894L429 -0.0553894L429 -0.0553894L429 218.9446L429 218.9446L0 218.9446z" />    </clipPath>
    <clipPath  id="27">

    <path id=""  clip-rule="evenodd" transform="matrix(1 0 0 1 0 0)"  d="M0 -0.0553894L429 -0.0553894L429 -0.0553894L429 218.9446L429 218.9446L0 218.9446z" />    </clipPath>
    <clipPath  id="28">

    <path id=""  clip-rule="evenodd" transform="matrix(1 0 0 1 0 0)"  d="M0 -0.0553894L429 -0.0553894L429 -0.0553894L429 218.9446L429 218.9446L0 218.9446z" />    </clipPath>
    <clipPath  id="29">

    <path id=""  clip-rule="evenodd" transform="matrix(1 0 0 1 0 0)"  d="M0 -0.0553894L429 -0.0553894L429 -0.0553894L429 218.9446L429 218.9446L0 218.9446z" />    </clipPath>
    <clipPath  id="30">

    <path id=""  clip-rule="evenodd" transform="matrix(1 0 0 1 0 0)"  d="M0 -0.0553894L429 -0.0553894L429 -0.0553894L429 218.9446L429 218.9446L0 218.9446z" />    </clipPath>
    <clipPath  id="31">

    <path id=""  clip-rule="evenodd" transform="matrix(1 0 0 1 0 0)"  d="M0 -0.0553894L429 -0.0553894L429 -0.0553894L429 218.9446L429 218.9446L0 218.9446z" />    </clipPath>
    <clipPath  id="32">

    <path id=""  clip-rule="evenodd" transform="matrix(1 0 0 1 0 0)"  d="M0 -0.0553894L429 -0.0553894L429 -0.0553894L429 218.9446L429 218.9446L0 218.9446z" />    </clipPath>
    <clipPath  id="33">

    <path id=""  clip-rule="evenodd" transform="matrix(1 0 0 1 0 0)"  d="M0 -0.0553894L429 -0.0553894L429 -0.0553894L429 218.9446L429 218.9446L0 218.9446z" />    </clipPath>
    <clipPath  id="34">

    <path id=""  clip-rule="evenodd" transform="matrix(1 0 0 1 0 0)"  d="M0 -0.0553894L429 -0.0553894L429 -0.0553894L429 218.9446L429 218.9446L0 218.9446z" />    </clipPath>
    <clipPath  id="35">

    <path id=""  clip-rule="evenodd" transform="matrix(1 0 0 1 0 0)"  d="M0 -0.0553894L429 -0.0553894L429 -0.0553894L429 218.9446L429 218.9446L0 218.9446z" />    </clipPath>
    <clipPath  id="36">

    <path id=""  clip-rule="evenodd" transform="matrix(1 0 0 1 0 0)"  d="M0 -0.0553894L429 -0.0553894L429 -0.0553894L429 218.9446L429 218.9446L0 218.9446z" />    </clipPath>
    <clipPath  id="37">

    <path id=""  clip-rule="evenodd" transform="matrix(1 0 0 1 0 0)"  d="M0 -0.0553894L429 -0.0553894L429 -0.0553894L429 218.9446L429 218.9446L0 218.9446z" />    </clipPath>
    <clipPath  id="38">

    <path id=""  clip-rule="evenodd" transform="matrix(1 0 0 1 0 0)"  d="M0 -0.0553894L429 -0.0553894L429 -0.0553894L429 218.9446L429 218.9446L0 218.9446z" />    </clipPath>
    <clipPath  id="39">

    <path id=""  clip-rule="evenodd" transform="matrix(1 0 0 1 0 0)"  d="M0 -0.0553894L429 -0.0553894L429 -0.0553894L429 218.9446L429 218.9446L0 218.9446z" />    </clipPath>
    <clipPath  id="40">

    <path id=""  clip-rule="evenodd" transform="matrix(1 0 0 1 0 0)"  d="M0 -0.0553894L429 -0.0553894L429 -0.0553894L429 218.9446L429 218.9446L0 218.9446z" />    </clipPath>
    <clipPath  id="41">

    <path id=""  clip-rule="evenodd" transform="matrix(1 0 0 1 0 0)"  d="M0 -0.0553894L429 -0.0553894L429 -0.0553894L429 218.9446L429 218.9446L0 218.9446z" />    </clipPath>
    <clipPath  id="42">

    <path id=""  clip-rule="evenodd" transform="matrix(1 0 0 1 0 0)"  d="M0 -0.0553894L429 -0.0553894L429 -0.0553894L429 218.9446L429 218.9446L0 218.9446z" />    </clipPath>
    <clipPath  id="43">

    <path id=""  clip-rule="evenodd" transform="matrix(1 0 0 1 0 0)"  d="M0 -0.0553894L429 -0.0553894L429 -0.0553894L429 218.9446L429 218.9446L0 218.9446z" />    </clipPath>
    <clipPath  id="44">

    <path id=""  clip-rule="evenodd" transform="matrix(1 0 0 1 0 0)"  d="M0 -0.0553894L429 -0.0553894L429 -0.0553894L429 218.9446L429 218.9446L0 218.9446z" />    </clipPath>
    <clipPath  id="45">

    <path id=""  clip-rule="evenodd" transform="matrix(1 0 0 1 0 0)"  d="M0 -0.0553894L429 -0.0553894L429 -0.0553894L429 218.9446L429 218.9446L0 218.9446z" />    </clipPath>
    <clipPath  id="46">

    <path id=""  clip-rule="evenodd" transform="matrix(1 0 0 1 0 0)"  d="M0 -0.0553894L429 -0.0553894L429 -0.0553894L429 218.9446L429 218.9446L0 218.9446z" />    </clipPath>
    <clipPath  id="47">

    <path id=""  clip-rule="evenodd" transform="matrix(1 0 0 1 0 0)"  d="M0 -0.0553894L429 -0.0553894L429 -0.0553894L429 218.9446L429 218.9446L0 218.9446z" />    </clipPath>
    <clipPath  id="48">

    <path id=""  clip-rule="evenodd" transform="matrix(1 0 0 1 0 0)"  d="M0 -0.0553894L429 -0.0553894L429 -0.0553894L429 218.9446L429 218.9446L0 218.9446z" />    </clipPath>
    <clipPath  id="49">

    <path id=""  clip-rule="evenodd" transform="matrix(1 0 0 1 0 0)"  d="M0 -0.0553894L429 -0.0553894L429 -0.0553894L429 218.9446L429 218.9446L0 218.9446z" />    </clipPath>
    <clipPath  id="50">

    <path id=""  clip-rule="evenodd" transform="matrix(1 0 0 1 0 0)"  d="M0 -0.0553894L429 -0.0553894L429 -0.0553894L429 218.9446L429 218.9446L0 218.9446z" />    </clipPath>
    <clipPath  id="51">

    <path id=""  clip-rule="evenodd" transform="matrix(1 0 0 1 0 0)"  d="M0 -0.0553894L429 -0.0553894L429 -0.0553894L429 218.9446L429 218.9446L0 218.9446z" />    </clipPath>
    <clipPath  id="52">

    <path id=""  clip-rule="evenodd" transform="matrix(1 0 0 1 0 0)"  d="M0 -0.0553894L429 -0.0553894L429 -0.0553894L429 218.9446L429 218.9446L0 218.9446z" />    </clipPath>
    <clipPath  id="53">

    <path id=""  clip-rule="evenodd" transform="matrix(1 0 0 1 0 0)"  d="M0 -0.0553894L429 -0.0553894L429 -0.0553894L429 218.9446L429 218.9446L0 218.9446z" />    </clipPath>
    <clipPath  id="54">

    <path id=""  clip-rule="evenodd" transform="matrix(1 0 0 1 0 0)"  d="M0 -0.0553894L429 -0.0553894L429 -0.0553894L429 218.9446L429 218.9446L0 218.9446z" />    </clipPath>
</defs>

<g transform="matrix(1.3333 0 0 1.3333 0 0)">
	<g clip-path="url(#1)" >
		<g clip-path="url(#2)" >
    <path id=""  transform="matrix(1 0 0 -1 0 218)"  d="M88.402 217.6494L188.66 217.6494L188.66 217.6494L188.66 81.40652" stroke="#221F1F" stroke-width="0.809652" stroke-linejoin="miter" fill="none" />
		</g>
		<g clip-path="url(#3)" >
    <path id=""  transform="matrix(1 0 0 -1 0 218)"  d="M49.418 179.5204L149.672 179.5204L149.672 179.5204L149.672 43.27438L149.672 43.27438L49.418 43.27438z" stroke="none" fill="#FFFFFF" fill-rule="evenodd" />
		</g>
		<g clip-path="url(#4)" >
    <path id=""  transform="matrix(1 0 0 -1 0 218)"  d="M49.418 179.5204L149.672 179.5204L149.672 179.5204L149.672 43.27457L149.672 43.27457L49.418 43.27457z" stroke="#221F1F" stroke-width="0.809652" stroke-linejoin="miter" fill="none" />
		</g>
		<g clip-path="url(#5)" >
    <path id=""  transform="matrix(1 0 0 -1 0 218)"  d="M49.418 179.5204L88.402 217.6494" stroke="#221F1F" stroke-width="0.809652" stroke-linejoin="miter" fill="none" />
		</g>
		<g clip-path="url(#6)" >
    <path id=""  transform="matrix(1 0 0 -1 0 218)"  d="M149.672 179.5204L188.66 217.6494" stroke="#221F1F" stroke-width="0.809652" stroke-linejoin="miter" fill="none" />
		</g>
		<g clip-path="url(#7)" >
    <path id=""  transform="matrix(1 0 0 -1 0 218)"  d="M149.672 43.27457L188.66 81.40652" stroke="#221F1F" stroke-width="0.809652" stroke-linejoin="miter" fill="none" />
		</g>
		<g clip-path="url(#8)" >
    <path id=""  transform="matrix(1 0 0 -1 0 218)"  d="M71.48 57.56755L98.473 84.55952" stroke="#221F1F" stroke-width="13.35884" stroke-linejoin="miter" fill="none" />
		</g>
		<g clip-path="url(#9)" >
    <path id=""  transform="matrix(1 0 0 -1 0 218)"  d="M124.82 58.21156L97.828 85.19952" stroke="#221F1F" stroke-width="13.35884" stroke-linejoin="miter" fill="none" />
		</g>
		<g clip-path="url(#10)" >
    <path id=""  transform="matrix(1 0 0 -1 0 218)"  d="M97.828 85.19952L97.828 136.7505" stroke="#221F1F" stroke-width="13.35884" stroke-linejoin="miter" fill="none" />
		</g>
		<g clip-path="url(#11)" >
    <path id=""  transform="matrix(1 0 0 -1 0 218)"  d="M71.863 144.3245L98.852 117.3325" stroke="#221F1F" stroke-width="13.35884" stroke-linejoin="miter" fill="none" />
		</g>
		<g clip-path="url(#12)" >
    <path id=""  transform="matrix(1 0 0 -1 0 218)"  d="M125.203 143.6845L98.211 116.6925" stroke="#221F1F" stroke-width="13.35884" stroke-linejoin="miter" fill="none" />
		</g>
		<g clip-path="url(#13)" >
    <path id=""  transform="matrix(1 0 0 -1 0 218)"  d="M97.828 165.7464C 105.758 165.7464 112.184 159.3214 112.184 151.3954C 112.184 143.4694 105.758 137.0434 97.828 137.0434C 89.902 137.0434 83.477 143.4694 83.477 151.3954C 83.477 159.3214 89.902 165.7464 97.828 165.7464" stroke="none" fill="#221F1F" fill-rule="evenodd" />
		</g>
		<g clip-path="url(#14)" >
    <path id=""  transform="matrix(1 0 0 -1 0 218)"  d="M97.828 165.7464C 105.758 165.7464 112.184 159.3214 112.184 151.3954C 112.184 143.4695 105.758 137.0435 97.828 137.0435C 89.902 137.0435 83.477 143.4695 83.477 151.3954C 83.477 159.3214 89.902 165.7464 97.828 165.7464z" stroke="#221F1F" stroke-width="0.809652" stroke-linejoin="miter" fill="none" />
		</g>
		<g clip-path="url(#15)" >
    <path id=""  transform="matrix(1 0 0 -1 0 218)"  d="M327.738 57.56755L354.727 84.55952" stroke="#221F1F" stroke-width="13.35884" stroke-linejoin="miter" fill="none" />
		</g>
		<g clip-path="url(#16)" >
    <path id=""  transform="matrix(1 0 0 -1 0 218)"  d="M381.078 58.21156L354.086 85.19952" stroke="#221F1F" stroke-width="13.35884" stroke-linejoin="miter" fill="none" />
		</g>
		<g clip-path="url(#17)" >
    <path id=""  transform="matrix(1 0 0 -1 0 218)"  d="M354.086 85.19952L354.086 136.7505" stroke="#221F1F" stroke-width="13.35884" stroke-linejoin="miter" fill="none" />
		</g>
		<g clip-path="url(#18)" >
    <path id=""  transform="matrix(1 0 0 -1 0 218)"  d="M328.117 144.3245L355.109 117.3325" stroke="#221F1F" stroke-width="13.35884" stroke-linejoin="miter" fill="none" />
		</g>
		<g clip-path="url(#19)" >
    <path id=""  transform="matrix(1 0 0 -1 0 218)"  d="M381.457 143.6845L354.465 116.6925" stroke="#221F1F" stroke-width="13.35884" stroke-linejoin="miter" fill="none" />
		</g>
		<g clip-path="url(#20)" >
    <path id=""  transform="matrix(1 0 0 -1 0 218)"  d="M354.086 165.7464C 362.012 165.7464 368.438 159.3214 368.438 151.3954C 368.438 143.4694 362.012 137.0434 354.086 137.0434C 346.16 137.0434 339.73 143.4694 339.73 151.3954C 339.73 159.3214 346.16 165.7464 354.086 165.7464" stroke="none" fill="#221F1F" fill-rule="evenodd" />
		</g>
		<g clip-path="url(#21)" >
    <path id=""  transform="matrix(1 0 0 -1 0 218)"  d="M354.086 165.7464C 362.012 165.7464 368.438 159.3214 368.438 151.3954C 368.438 143.4695 362.012 137.0435 354.086 137.0435C 346.16 137.0435 339.73 143.4695 339.73 151.3954C 339.73 159.3214 346.16 165.7464 354.086 165.7464z" stroke="#221F1F" stroke-width="0.809652" stroke-linejoin="miter" fill="none" />
		</g>
		<g clip-path="url(#22)" >
    <path id=""  transform="matrix(1 0 0 -1 0 218)"  d="M385.531 63.67255L385.531 24.77458" stroke="#ED1C24" stroke-width="0.308477" stroke-linejoin="miter" fill="none" />
		</g>
		<g clip-path="url(#23)" >
    <path id=""  transform="matrix(1 0 0 -1 0 218)"  d="M322.871 62.60254L322.871 24.77458" stroke="#ED1C24" stroke-width="0.308477" stroke-linejoin="miter" fill="none" />
		</g>
		<g clip-path="url(#24)" >
    <path id=""  transform="matrix(1 0 0 -1 0 218)"  d="M330.426 34.89557L377.973 34.89557" stroke="#ED1C24" stroke-width="0.308477" stroke-linejoin="miter" fill="none" />
		</g>
		<g clip-path="url(#25)" >
    <path id=""  transform="matrix(1 0 0 -1 0 218)"  d="M337.984 30.84439L322.871 34.89539L322.871 34.89539L337.984 38.9464L337.984 38.9464L337.984 30.84439" stroke="none" fill="#ED1C24" fill-rule="evenodd" />
		</g>
		<g clip-path="url(#26)" >
    <path id=""  transform="matrix(1 0 0 -1 0 218)"  d="M370.418 30.84439L385.531 34.89539L385.531 34.89539L370.418 38.9464L370.418 38.9464L370.418 30.84439" stroke="none" fill="#ED1C24" fill-rule="evenodd" />
		</g>
		<g clip-path="url(#27)" >
    <path id=""  transform="matrix(1 0 0 -1 0 218)"  d="M355.656 20.77438L357.238 20.89139C 357.355 20.11739 357.637 19.55539 358.047 19.15739C 358.469 18.77039 358.984 18.58238 359.605 18.58238C 360.344 18.58238 360.941 18.85239 361.457 19.4034C 361.949 19.95338 362.184 20.6684 362.184 21.58238C 362.184 22.43839 361.949 23.11739 361.469 23.62138C 361.012 24.1144 360.367 24.34839 359.582 24.34839C 359.09 24.34839 358.656 24.25439 358.27 24.03239C 357.883 23.80939 357.578 23.51639 357.355 23.1534L357.355 23.1534L355.938 23.3644L355.938 23.3644L357.121 29.6684L357.121 29.6684L363.203 29.6684L363.203 29.6684L363.203 28.22739L363.203 28.22739L358.316 28.22739L358.316 28.22739L357.66 24.92239C 358.398 25.43839 359.172 25.68439 359.98 25.68439C 361.035 25.68439 361.949 25.30939 362.688 24.5714C 363.426 23.84439 363.777 22.88339 363.777 21.7114C 363.777 20.59839 363.461 19.63739 362.828 18.84039C 362.031 17.84439 360.953 17.34039 359.605 17.34039C 358.492 17.34039 357.578 17.65739 356.875 18.28938C 356.16 18.89938 355.762 19.74239 355.656 20.77438zM346.223 28.22739L346.223 29.6684L346.223 29.6684L354.156 29.6684L354.156 29.6684L354.156 28.49638C 353.383 27.67639 352.598 26.56339 351.836 25.19238C 351.063 23.80939 350.465 22.37939 350.055 20.92639C 349.75 19.89539 349.563 18.77039 349.469 17.55139L349.469 17.55139L347.934 17.55139C 347.945 18.51239 348.133 19.6964 348.496 21.0434C 348.859 22.41438 349.387 23.7394 350.055 25.01639C 350.746 26.2934 351.461 27.34839 352.211 28.22739z" stroke="none" fill="#ED1C24" fill-rule="nonzero" />
		</g>
		<g clip-path="url(#28)" >
    <path id=""  transform="matrix(1 0 0 -1 0 218)"  d="M332.512 53.49655L285.742 53.49655" stroke="#ED1C24" stroke-width="0.308477" stroke-linejoin="miter" fill="none" />
		</g>
		<g clip-path="url(#29)" >
    <path id=""  transform="matrix(1 0 0 -1 0 218)"  d="M343.965 165.7464L285.742 165.7464" stroke="#ED1C24" stroke-width="0.308477" stroke-linejoin="miter" fill="none" />
		</g>
		<g clip-path="url(#30)" >
    <path id=""  transform="matrix(1 0 0 -1 0 218)"  d="M295.859 158.1924L295.859 61.05154" stroke="#ED1C24" stroke-width="0.308477" stroke-linejoin="miter" fill="none" />
		</g>
		<g clip-path="url(#31)" >
    <path id=""  transform="matrix(1 0 0 -1 0 218)"  d="M291.813 150.6374L295.863 165.7464L295.863 165.7464L299.91 150.6374L299.91 150.6374L291.813 150.6374" stroke="none" fill="#ED1C24" fill-rule="evenodd" />
		</g>
		<g clip-path="url(#32)" >
    <path id=""  transform="matrix(1 0 0 -1 0 218)"  d="M291.813 68.61038L295.863 53.49638L295.863 53.49638L299.91 68.61038L299.91 68.61038L291.813 68.61038" stroke="none" fill="#ED1C24" fill-rule="evenodd" />
		</g>
		<g clip-path="url(#33)" >
    <path id=""  transform="matrix(1 0 0 -1 0 218)"  d="M284.59 117.9814C 286.605 117.9814 287.941 118.2154 288.609 118.6844C 289.289 119.1644 289.605 119.7504 289.605 120.4304C 289.605 121.1214 289.266 121.6964 288.609 122.1764C 287.941 122.6454 286.594 122.8794 284.59 122.8794C 282.563 122.8794 281.227 122.6454 280.559 122.1764C 279.891 121.7194 279.574 121.1214 279.574 120.4184C 279.574 119.7274 279.855 119.1644 280.441 118.7544C 281.191 118.2394 282.563 117.9814 284.59 117.9814zM284.59 116.4344C 283.137 116.4344 281.965 116.5984 281.074 116.8794C 280.184 117.1964 279.504 117.6174 279.035 118.2154C 278.555 118.8014 278.32 119.5394 278.32 120.4304C 278.32 121.0864 278.461 121.6604 278.707 122.1644C 278.988 122.6574 279.363 123.0674 279.855 123.3954C 280.359 123.7234 280.969 123.9574 281.672 124.1454C 282.398 124.3324 283.371 124.4264 284.59 124.4264C 286.031 124.4264 287.191 124.2744 288.07 123.9814C 288.961 123.6884 289.641 123.2424 290.121 122.6574C 290.602 122.0714 290.848 121.3214 290.848 120.4304C 290.848 119.2464 290.414 118.3214 289.57 117.6534C 288.551 116.8444 286.887 116.4344 284.59 116.4344zM289.191 114.8054L290.633 114.8054L290.633 114.8054L290.633 106.6844C 290.27 106.6724 289.918 106.7424 289.59 106.8604C 289.039 107.0824 288.488 107.4104 287.961 107.8674C 287.41 108.3364 286.801 108.9814 286.109 109.8364C 285.008 111.1604 284.141 112.0634 283.508 112.5434C 282.875 113.0124 282.254 113.2464 281.691 113.2464C 281.094 113.2464 280.59 113.0474 280.18 112.6144C 279.77 112.1924 279.57 111.6174 279.57 110.9384C 279.57 110.2004 279.793 109.6144 280.215 109.1924C 280.648 108.7464 281.246 108.5244 282.02 108.5244L282.02 108.5244L281.855 106.9774C 280.707 107.0824 279.816 107.4924 279.219 108.1844C 278.621 108.8644 278.316 109.8014 278.316 110.9734C 278.316 112.1334 278.645 113.0824 279.289 113.7624C 279.945 114.4534 280.766 114.7934 281.727 114.7934C 282.219 114.7934 282.699 114.6884 283.168 114.4894C 283.648 114.3014 284.141 113.9504 284.668 113.4924C 285.207 113.0244 285.922 112.2624 286.824 111.1724C 287.586 110.2704 288.102 109.6844 288.371 109.4264C 288.641 109.1684 288.922 108.9464 289.191 108.7934zM290.633 103.0354L290.633 101.5244L290.633 101.5244L281.035 101.5244C 281.387 101.1724 281.727 100.6924 282.066 100.1064C 282.406 99.50839 282.688 98.96939 282.852 98.51239L282.852 98.51239L281.398 98.51239C 281 99.35639 280.52 100.0824 279.957 100.7154C 279.395 101.3604 278.844 101.8054 278.316 102.0634L278.316 102.0634L278.316 103.0354z" stroke="none" fill="#ED1C24" fill-rule="nonzero" />
		</g>
		<g clip-path="url(#34)" >
    <path id=""  transform="matrix(1 0 0 -1 0 218)"  d="M410.113 173.1804L411.332 172.1494C 410.863 171.5164 410.664 170.9184 410.664 170.3564C 410.699 169.7824 410.922 169.2784 411.355 168.8444C 411.883 168.3174 412.492 168.0824 413.254 168.1174C 413.992 168.1534 414.66 168.4924 415.305 169.1374C 415.914 169.7464 416.23 170.3914 416.242 171.0824C 416.266 171.7624 415.973 172.3834 415.422 172.9344C 415.07 173.2854 414.695 173.5204 414.273 173.6374C 413.84 173.7664 413.418 173.7664 413.008 173.6604L413.008 173.6604L412.152 174.8214L412.152 174.8214L417.449 178.4304L417.449 178.4304L421.75 174.1294L421.75 174.1294L420.73 173.1104L420.73 173.1104L417.273 176.5674L417.273 176.5674L414.473 174.7034C 415.363 174.5394 416.078 174.1764 416.652 173.6024C 417.402 172.8524 417.777 171.9384 417.777 170.9074C 417.789 169.8644 417.355 168.9384 416.523 168.1064C 415.738 167.3214 414.836 166.8644 413.828 166.7464C 412.563 166.6064 411.438 167.0044 410.477 167.9654C 409.691 168.7504 409.27 169.6174 409.234 170.5674C 409.152 171.4924 409.457 172.3834 410.113 173.1804zM405.109 173.6374L404.031 174.7154L404.031 174.7154L410.816 181.5004C 410.324 181.5004 409.738 181.5944 409.094 181.7704C 408.426 181.9464 407.84 182.1334 407.418 182.3444L407.418 182.3444L408.438 183.3644C 409.316 183.0474 410.16 182.8834 411.016 182.8254C 411.871 182.7664 412.563 182.8484 413.125 183.0354L413.125 183.0354L413.816 182.3444z" stroke="none" fill="#ED1C24" fill-rule="nonzero" />
		</g>
		<g clip-path="url(#35)" >
    <path id=""  transform="matrix(1 0 0 -1 0 218)"  d="M387.656 140.5125L410.676 163.5324" stroke="#ED1C24" stroke-width="0.308477" stroke-linejoin="miter" fill="none" />
		</g>
		<g clip-path="url(#36)" >
    <path id=""  transform="matrix(1 0 0 -1 0 218)"  d="M378.281 149.8835L401.301 172.9034" stroke="#ED1C24" stroke-width="0.308477" stroke-linejoin="miter" fill="none" />
		</g>
		<g clip-path="url(#37)" >
    <path id=""  transform="matrix(1 0 0 -1 0 218)"  d="M430.234 129.6605L408.863 151.0315" stroke="#ED1C24" stroke-width="0.308477" stroke-linejoin="miter" fill="none" />
		</g>
		<g clip-path="url(#38)" >
    <path id=""  transform="matrix(1 0 0 -1 0 218)"  d="M417.066 148.5514L403.52 156.3754L403.52 156.3754L411.34 142.8254L411.34 142.8254L417.066 148.5514" stroke="none" fill="#ED1C24" fill-rule="evenodd" />
		</g>
		<g clip-path="url(#39)" >
    <path id=""  transform="matrix(1 0 0 -1 0 218)"  d="M388.805 171.0904L367.434 192.4614" stroke="#ED1C24" stroke-width="0.308477" stroke-linejoin="miter" fill="none" />
		</g>
		<g clip-path="url(#40)" >
    <path id=""  transform="matrix(1 0 0 -1 0 218)"  d="M386.324 179.2974L394.145 165.7464L394.145 165.7464L380.598 173.5714L380.598 173.5714L386.324 179.2974" stroke="none" fill="#ED1C24" fill-rule="evenodd" />
		</g>
		<g clip-path="url(#41)" >
    <path id=""  transform="matrix(1 0 0 -1 0 218)"  d="M39.297 43.27457L-1.746 43.27457" stroke="#ED1C24" stroke-width="0.308477" stroke-linejoin="miter" fill="none" />
		</g>
		<g clip-path="url(#42)" >
    <path id=""  transform="matrix(1 0 0 -1 0 218)"  d="M39.297 179.5204L-1.746 179.5204" stroke="#ED1C24" stroke-width="0.308477" stroke-linejoin="miter" fill="none" />
		</g>
		<g clip-path="url(#43)" >
    <path id=""  transform="matrix(1 0 0 -1 0 218)"  d="M8.371 95.06351L8.371 50.82855" stroke="#ED1C24" stroke-width="0.308477" stroke-linejoin="miter" fill="none" />
		</g>
		<g clip-path="url(#44)" >
    <path id=""  transform="matrix(1 0 0 -1 0 218)"  d="M4.324 58.38739L8.371 43.27438L8.371 43.27438L12.422 58.38739L12.422 58.38739L4.324 58.38739" stroke="none" fill="#ED1C24" fill-rule="evenodd" />
		</g>
		<g clip-path="url(#45)" >
    <path id=""  transform="matrix(1 0 0 -1 0 218)"  d="M8.371 171.9614L8.371 131.4345" stroke="#ED1C24" stroke-width="0.308477" stroke-linejoin="miter" fill="none" />
		</g>
		<g clip-path="url(#46)" >
    <path id=""  transform="matrix(1 0 0 -1 0 218)"  d="M4.324 164.4074L8.371 179.5204L8.371 179.5204L12.422 164.4074L12.422 164.4074L4.324 164.4074" stroke="none" fill="#ED1C24" fill-rule="evenodd" />
		</g>
		<g clip-path="url(#47)" >
    <path id=""  transform="matrix(1 0 0 -1 0 218)"  d="M8.484 119.7584C 10.5 119.7584 11.836 119.9924 12.504 120.4614C 13.184 120.9424 13.5 121.5284 13.5 122.2074C 13.5 122.8994 13.16 123.4734 12.504 123.9534C 11.836 124.4224 10.488 124.6574 8.484 124.6574C 6.457 124.6574 5.121 124.4224 4.453 123.9534C 3.785 123.4964 3.469 122.8994 3.469 122.1964C 3.469 121.5044 3.75 120.9424 4.336 120.5324C 5.086 120.0164 6.457 119.7584 8.484 119.7584zM8.484 118.2114C 7.031 118.2114 5.859 118.3754 4.969 118.6574C 4.078 118.9734 3.398 119.3954 2.93 119.9924C 2.449 120.5784 2.215 121.3174 2.215 122.2074C 2.215 122.8644 2.355 123.4384 2.602 123.9424C 2.883 124.4344 3.258 124.8444 3.75 125.1724C 4.254 125.5004 4.863 125.7354 5.566 125.9224C 6.293 126.1104 7.266 126.2034 8.484 126.2034C 9.926 126.2034 11.086 126.0514 11.965 125.7584C 12.855 125.4654 13.535 125.0204 14.016 124.4344C 14.496 123.8484 14.742 123.0984 14.742 122.2074C 14.742 121.0244 14.309 120.0984 13.465 119.4304C 12.445 118.6214 10.781 118.2114 8.484 118.2114zM11.309 108.6844L11.191 110.2664C 11.965 110.3834 12.527 110.6644 12.926 111.0754C 13.313 111.4964 13.5 112.0124 13.5 112.6334C 13.5 113.3714 13.23 113.9694 12.68 114.4854C 12.129 114.9774 11.414 115.2114 10.5 115.2114C 9.645 115.2114 8.965 114.9774 8.461 114.4964C 7.969 114.0394 7.734 113.3954 7.734 112.6104C 7.734 112.1174 7.828 111.6844 8.051 111.2974C 8.273 110.9104 8.566 110.6064 8.93 110.3834L8.93 110.3834L8.719 108.9654L8.719 108.9654L2.414 110.1494L2.414 110.1494L2.414 116.2314L2.414 116.2314L3.855 116.2314L3.855 116.2314L3.855 111.3444L3.855 111.3444L7.16 110.6884C 6.645 111.4264 6.398 112.2004 6.398 113.0084C 6.398 114.0634 6.773 114.9774 7.512 115.7154C 8.238 116.4534 9.199 116.8054 10.371 116.8054C 11.484 116.8054 12.445 116.4894 13.242 115.8564C 14.238 115.0594 14.742 113.9814 14.742 112.6334C 14.742 111.5204 14.426 110.6064 13.793 109.9034C 13.184 109.1884 12.34 108.7894 11.309 108.6844zM14.531 104.8134L14.531 103.3014L14.531 103.3014L4.934 103.3014C 5.285 102.9504 5.625 102.4694 5.965 101.8834C 6.305 101.2854 6.586 100.7464 6.75 100.2894L6.75 100.2894L5.297 100.2894C 4.898 101.1334 4.418 101.8604 3.855 102.4924C 3.293 103.1374 2.742 103.5824 2.215 103.8404L2.215 103.8404L2.215 104.8134z" stroke="none" fill="#ED1C24" fill-rule="nonzero" />
		</g>
		<g clip-path="url(#48)" >
    <path id=""  transform="matrix(1 0 0 -1 0 218)"  d="M149.672 33.15657L149.672 0.0006103516" stroke="#ED1C24" stroke-width="0.308477" stroke-linejoin="miter" fill="none" />
		</g>
		<g clip-path="url(#49)" >
    <path id=""  transform="matrix(1 0 0 -1 0 218)"  d="M49.418 33.15657L49.418 0.0006103516" stroke="#ED1C24" stroke-width="0.308477" stroke-linejoin="miter" fill="none" />
		</g>
		<g clip-path="url(#50)" >
    <path id=""  transform="matrix(1 0 0 -1 0 218)"  d="M119.582 10.1216L142.113 10.1216" stroke="#ED1C24" stroke-width="0.308477" stroke-linejoin="miter" fill="none" />
		</g>
		<g clip-path="url(#51)" >
    <path id=""  transform="matrix(1 0 0 -1 0 218)"  d="M134.559 6.071396L149.672 10.12138L149.672 10.12138L134.559 14.1684L134.559 14.1684L134.559 6.071396" stroke="none" fill="#ED1C24" fill-rule="evenodd" />
		</g>
		<g clip-path="url(#52)" >
    <path id=""  transform="matrix(1 0 0 -1 0 218)"  d="M56.973 10.1216L83.207 10.1216" stroke="#ED1C24" stroke-width="0.308477" stroke-linejoin="miter" fill="none" />
		</g>
		<g clip-path="url(#53)" >
    <path id=""  transform="matrix(1 0 0 -1 0 218)"  d="M64.527 6.071396L49.418 10.12138L49.418 10.12138L64.527 14.1684L64.527 14.1684L64.527 6.071396" stroke="none" fill="#ED1C24" fill-rule="evenodd" />
		</g>
		<g clip-path="url(#54)" >
    <path id=""  transform="matrix(1 0 0 -1 0 218)"  d="M107.902 10.00439C 107.902 7.989395 108.137 6.653397 108.605 5.985382C 109.086 5.305389 109.672 4.989395 110.352 4.989395C 111.043 4.989395 111.617 5.328384 112.098 5.985382C 112.566 6.653397 112.801 8.000397 112.801 10.00439C 112.801 12.03239 112.566 13.36739 112.098 14.03539C 111.641 14.70338 111.043 15.02039 110.34 15.02039C 109.648 15.02039 109.086 14.7394 108.676 14.1534C 108.16 13.4034 107.902 12.03239 107.902 10.00439zM106.355 10.00439C 106.355 11.45738 106.52 12.62939 106.801 13.52039C 107.117 14.41039 107.539 15.09039 108.137 15.55939C 108.723 16.03938 109.461 16.27438 110.352 16.27438C 111.008 16.27438 111.582 16.13339 112.086 15.88739C 112.578 15.60638 112.988 15.23138 113.316 14.7394C 113.645 14.23538 113.879 13.6254 114.066 12.92239C 114.254 12.1964 114.348 11.22339 114.348 10.00439C 114.348 8.563385 114.195 7.403397 113.902 6.524384C 113.609 5.633392 113.164 4.953384 112.578 4.473389C 111.992 3.992386 111.242 3.746384 110.352 3.746384C 109.168 3.746384 108.242 4.180389 107.574 5.024384C 106.766 6.043396 106.355 7.707382 106.355 10.00439zM98.375 10.00439C 98.375 7.989395 98.609 6.653397 99.078 5.985382C 99.559 5.305389 100.145 4.989395 100.824 4.989395C 101.516 4.989395 102.09 5.328384 102.57 5.985382C 103.039 6.653397 103.273 8.000397 103.273 10.00439C 103.273 12.03239 103.039 13.36739 102.57 14.03539C 102.113 14.70338 101.516 15.02039 100.813 15.02039C 100.121 15.02039 99.559 14.7394 99.148 14.1534C 98.633 13.4034 98.375 12.03239 98.375 10.00439zM96.828 10.00439C 96.828 11.45738 96.992 12.62939 97.273 13.52039C 97.59 14.41039 98.012 15.09039 98.609 15.55939C 99.195 16.03938 99.934 16.27438 100.824 16.27438C 101.48 16.27438 102.055 16.13339 102.559 15.88739C 103.051 15.60638 103.461 15.23138 103.789 14.7394C 104.117 14.23538 104.352 13.6254 104.539 12.92239C 104.727 12.1964 104.82 11.22339 104.82 10.00439C 104.82 8.563385 104.668 7.403397 104.375 6.524384C 104.082 5.633392 103.637 4.953384 103.051 4.473389C 102.465 3.992386 101.715 3.746384 100.824 3.746384C 99.641 3.746384 98.715 4.180389 98.047 5.024384C 97.238 6.043396 96.828 7.707382 96.828 10.00439zM92.961 3.957382L91.449 3.957382L91.449 3.957382L91.449 13.55539C 91.098 13.20338 90.617 12.8644 90.031 12.52438C 89.434 12.18439 88.895 11.9034 88.438 11.7394L88.438 11.7394L88.438 13.19238C 89.281 13.59039 90.008 14.0714 90.641 14.63339C 91.285 15.1964 91.73 15.74638 91.988 16.27438L91.988 16.27438L92.961 16.27438z" stroke="none" fill="#ED1C24" fill-rule="nonzero" />
		</g>
	</g>
</g>
</svg>