<?xml version="1.0" standalone="no"?>
<!DOCTYPE svg PUBLIC "-//W3C//DTD SVG 1.0//EN" "http://www.w3.org/TR/2001/REC-SVG-20010904/DTD/svg10.dtd">
<svg xmlns="http://www.w3.org/2000/svg" xmlns:xlink="http://www.w3.org/1999/xlink" id="body_1" width="312" height="727">

<defs>
    <clipPath  id="1">

    <path id=""  clip-rule="evenodd" transform="matrix(1 0 0 1 0 0)"  d="M0 545L0 0L0 0L234 0L234 0L234 545L234 545L0 545z" />    </clipPath>
    <clipPath  id="2">

    <path id=""  clip-rule="evenodd" transform="matrix(1 0 0 1 0 0)"  d="M0 0L234 0L234 0L234 545L234 545L0 545z" />    </clipPath>
    <clipPath  id="3">

    <path id=""  clip-rule="evenodd" transform="matrix(1 0 0 1 0 0)"  d="M0 0L234 0L234 0L234 545L234 545L0 545z" />    </clipPath>
    <clipPath  id="4">

    <path id=""  clip-rule="evenodd" transform="matrix(1 0 0 1 0 0)"  d="M0 0L234 0L234 0L234 545L234 545L0 545z" />    </clipPath>
    <clipPath  id="5">

    <path id=""  clip-rule="evenodd" transform="matrix(1 0 0 1 0 0)"  d="M0 0L234 0L234 0L234 545L234 545L0 545z" />    </clipPath>
    <clipPath  id="6">

    <path id=""  clip-rule="evenodd" transform="matrix(1 0 0 1 0 0)"  d="M0 0L234 0L234 0L234 545L234 545L0 545z" />    </clipPath>
    <clipPath  id="7">

    <path id=""  clip-rule="evenodd" transform="matrix(1 0 0 1 0 0)"  d="M0 0L234 0L234 0L234 545L234 545L0 545z" />    </clipPath>
    <clipPath  id="8">

    <path id=""  clip-rule="evenodd" transform="matrix(1 0 0 1 0 0)"  d="M0 0L234 0L234 0L234 545L234 545L0 545z" />    </clipPath>
    <clipPath  id="9">

    <path id=""  clip-rule="evenodd" transform="matrix(1 0 0 1 0 0)"  d="M0 0L234 0L234 0L234 545L234 545L0 545z" />    </clipPath>
    <clipPath  id="10">

    <path id=""  clip-rule="evenodd" transform="matrix(1 0 0 1 0 0)"  d="M0 0L234 0L234 0L234 545L234 545L0 545z" />    </clipPath>
    <clipPath  id="11">

    <path id=""  clip-rule="evenodd" transform="matrix(1 0 0 1 0 0)"  d="M0 0L234 0L234 0L234 545L234 545L0 545z" />    </clipPath>
    <clipPath  id="12">

    <path id=""  clip-rule="evenodd" transform="matrix(1 0 0 1 0 0)"  d="M0 0L234 0L234 0L234 545L234 545L0 545z" />    </clipPath>
    <clipPath  id="13">

    <path id=""  clip-rule="evenodd" transform="matrix(1 0 0 1 0 0)"  d="M0 0L234 0L234 0L234 545L234 545L0 545z" />    </clipPath>
    <clipPath  id="14">

    <path id=""  clip-rule="evenodd" transform="matrix(1 0 0 1 0 0)"  d="M0 0L234 0L234 0L234 545L234 545L0 545z" />    </clipPath>
    <clipPath  id="15">

    <path id=""  clip-rule="evenodd" transform="matrix(1 0 0 1 0 0)"  d="M0 0L234 0L234 0L234 545L234 545L0 545z" />    </clipPath>
    <clipPath  id="16">

    <path id=""  clip-rule="evenodd" transform="matrix(1 0 0 1 0 0)"  d="M0 0L234 0L234 0L234 545L234 545L0 545z" />    </clipPath>
    <clipPath  id="17">

    <path id=""  clip-rule="evenodd" transform="matrix(1 0 0 1 0 0)"  d="M0 0L234 0L234 0L234 545L234 545L0 545z" />    </clipPath>
    <clipPath  id="18">

    <path id=""  clip-rule="evenodd" transform="matrix(1 0 0 1 0 0)"  d="M0 0L234 0L234 0L234 545L234 545L0 545z" />    </clipPath>
    <clipPath  id="19">

    <path id=""  clip-rule="evenodd" transform="matrix(1 0 0 1 0 0)"  d="M0 0L234 0L234 0L234 545L234 545L0 545z" />    </clipPath>
    <clipPath  id="20">

    <path id=""  clip-rule="evenodd" transform="matrix(1 0 0 1 0 0)"  d="M0 0L234 0L234 0L234 545L234 545L0 545z" />    </clipPath>
    <clipPath  id="21">

    <path id=""  clip-rule="evenodd" transform="matrix(1 0 0 1 0 0)"  d="M0 0L234 0L234 0L234 545L234 545L0 545z" />    </clipPath>
    <clipPath  id="22">

    <path id=""  clip-rule="evenodd" transform="matrix(1 0 0 1 0 0)"  d="M0 0L234 0L234 0L234 545L234 545L0 545z" />    </clipPath>
    <clipPath  id="23">

    <path id=""  clip-rule="evenodd" transform="matrix(1 0 0 1 0 0)"  d="M0 0L234 0L234 0L234 545L234 545L0 545z" />    </clipPath>
    <clipPath  id="24">

    <path id=""  clip-rule="evenodd" transform="matrix(1 0 0 1 0 0)"  d="M0 0L234 0L234 0L234 545L234 545L0 545z" />    </clipPath>
    <clipPath  id="25">

    <path id=""  clip-rule="evenodd" transform="matrix(1 0 0 1 0 0)"  d="M0 0L234 0L234 0L234 545L234 545L0 545z" />    </clipPath>
    <clipPath  id="26">

    <path id=""  clip-rule="evenodd" transform="matrix(1 0 0 1 0 0)"  d="M0 0L234 0L234 0L234 545L234 545L0 545z" />    </clipPath>
    <clipPath  id="27">

    <path id=""  clip-rule="evenodd" transform="matrix(1 0 0 1 0 0)"  d="M0 0L234 0L234 0L234 545L234 545L0 545z" />    </clipPath>
    <clipPath  id="28">

    <path id=""  clip-rule="evenodd" transform="matrix(1 0 0 1 0 0)"  d="M0 0L234 0L234 0L234 545L234 545L0 545z" />    </clipPath>
    <clipPath  id="29">

    <path id=""  clip-rule="evenodd" transform="matrix(1 0 0 1 0 0)"  d="M0 0L234 0L234 0L234 545L234 545L0 545z" />    </clipPath>
    <clipPath  id="30">

    <path id=""  clip-rule="evenodd" transform="matrix(1 0 0 1 0 0)"  d="M0 0L234 0L234 0L234 545L234 545L0 545z" />    </clipPath>
    <clipPath  id="31">

    <path id=""  clip-rule="evenodd" transform="matrix(1 0 0 1 0 0)"  d="M0 0L234 0L234 0L234 545L234 545L0 545z" />    </clipPath>
    <clipPath  id="32">

    <path id=""  clip-rule="evenodd" transform="matrix(1 0 0 1 0 0)"  d="M0 0L234 0L234 0L234 545L234 545L0 545z" />    </clipPath>
    <clipPath  id="33">

    <path id=""  clip-rule="evenodd" transform="matrix(1 0 0 1 0 0)"  d="M0 0L234 0L234 0L234 545L234 545L0 545z" />    </clipPath>
    <clipPath  id="34">

    <path id=""  clip-rule="evenodd" transform="matrix(1 0 0 1 0 0)"  d="M0 0L234 0L234 0L234 545L234 545L0 545z" />    </clipPath>
    <clipPath  id="35">

    <path id=""  clip-rule="evenodd" transform="matrix(1 0 0 1 0 0)"  d="M0 0L234 0L234 0L234 545L234 545L0 545z" />    </clipPath>
    <clipPath  id="36">

    <path id=""  clip-rule="evenodd" transform="matrix(1 0 0 1 0 0)"  d="M0 0L234 0L234 0L234 545L234 545L0 545z" />    </clipPath>
    <clipPath  id="37">

    <path id=""  clip-rule="evenodd" transform="matrix(1 0 0 1 0 0)"  d="M0 0L234 0L234 0L234 545L234 545L0 545z" />    </clipPath>
    <clipPath  id="38">

    <path id=""  clip-rule="evenodd" transform="matrix(1 0 0 1 0 0)"  d="M0 0L234 0L234 0L234 545L234 545L0 545z" />    </clipPath>
    <clipPath  id="39">

    <path id=""  clip-rule="evenodd" transform="matrix(1 0 0 1 0 0)"  d="M0 0L234 0L234 0L234 545L234 545L0 545z" />    </clipPath>
    <clipPath  id="40">

    <path id=""  clip-rule="evenodd" transform="matrix(1 0 0 1 0 0)"  d="M0 0L234 0L234 0L234 545L234 545L0 545z" />    </clipPath>
    <clipPath  id="41">

    <path id=""  clip-rule="evenodd" transform="matrix(1 0 0 1 0 0)"  d="M0 0L234 0L234 0L234 545L234 545L0 545z" />    </clipPath>
    <clipPath  id="42">

    <path id=""  clip-rule="evenodd" transform="matrix(1 0 0 1 0 0)"  d="M0 0L234 0L234 0L234 545L234 545L0 545z" />    </clipPath>
    <clipPath  id="43">

    <path id=""  clip-rule="evenodd" transform="matrix(1 0 0 1 0 0)"  d="M0 0L234 0L234 0L234 545L234 545L0 545z" />    </clipPath>
    <clipPath  id="44">

    <path id=""  clip-rule="evenodd" transform="matrix(1 0 0 1 0 0)"  d="M0 0L234 0L234 0L234 545L234 545L0 545z" />    </clipPath>
    <clipPath  id="45">

    <path id=""  clip-rule="evenodd" transform="matrix(1 0 0 1 0 0)"  d="M0 0L234 0L234 0L234 545L234 545L0 545z" />    </clipPath>
    <clipPath  id="46">

    <path id=""  clip-rule="evenodd" transform="matrix(1 0 0 1 0 0)"  d="M0 0L234 0L234 0L234 545L234 545L0 545z" />    </clipPath>
    <clipPath  id="47">

    <path id=""  clip-rule="evenodd" transform="matrix(1 0 0 1 0 0)"  d="M0 0L234 0L234 0L234 545L234 545L0 545z" />    </clipPath>
    <clipPath  id="48">

    <path id=""  clip-rule="evenodd" transform="matrix(1 0 0 1 0 0)"  d="M0 0L234 0L234 0L234 545L234 545L0 545z" />    </clipPath>
    <clipPath  id="49">

    <path id=""  clip-rule="evenodd" transform="matrix(1 0 0 1 0 0)"  d="M0 0L234 0L234 0L234 545L234 545L0 545z" />    </clipPath>
    <clipPath  id="50">

    <path id=""  clip-rule="evenodd" transform="matrix(1 0 0 1 0 0)"  d="M0 0L234 0L234 0L234 545L234 545L0 545z" />    </clipPath>
    <clipPath  id="51">

    <path id=""  clip-rule="evenodd" transform="matrix(1 0 0 1 0 0)"  d="M0 0L234 0L234 0L234 545L234 545L0 545z" />    </clipPath>
    <clipPath  id="52">

    <path id=""  clip-rule="evenodd" transform="matrix(1 0 0 1 0 0)"  d="M0 0L234 0L234 0L234 545L234 545L0 545z" />    </clipPath>
    <clipPath  id="53">

    <path id=""  clip-rule="evenodd" transform="matrix(1 0 0 1 0 0)"  d="M0 0L234 0L234 0L234 545L234 545L0 545z" />    </clipPath>
    <clipPath  id="54">

    <path id=""  clip-rule="evenodd" transform="matrix(1 0 0 1 0 0)"  d="M0 0L234 0L234 0L234 545L234 545L0 545z" />    </clipPath>
    <clipPath  id="55">

    <path id=""  clip-rule="evenodd" transform="matrix(1 0 0 1 0 0)"  d="M0 0L234 0L234 0L234 545L234 545L0 545z" />    </clipPath>
    <clipPath  id="56">

    <path id=""  clip-rule="evenodd" transform="matrix(1 0 0 1 0 0)"  d="M0 0L234 0L234 0L234 545L234 545L0 545z" />    </clipPath>
    <clipPath  id="57">

    <path id=""  clip-rule="evenodd" transform="matrix(1 0 0 1 0 0)"  d="M0 0L234 0L234 0L234 545L234 545L0 545z" />    </clipPath>
    <clipPath  id="58">

    <path id=""  clip-rule="evenodd" transform="matrix(1 0 0 1 0 0)"  d="M0 0L234 0L234 0L234 545L234 545L0 545z" />    </clipPath>
    <clipPath  id="59">

    <path id=""  clip-rule="evenodd" transform="matrix(1 0 0 1 0 0)"  d="M0 0L234 0L234 0L234 545L234 545L0 545z" />    </clipPath>
    <clipPath  id="60">

    <path id=""  clip-rule="evenodd" transform="matrix(1 0 0 1 0 0)"  d="M0 0L234 0L234 0L234 545L234 545L0 545z" />    </clipPath>
    <clipPath  id="61">

    <path id=""  clip-rule="evenodd" transform="matrix(1 0 0 1 0 0)"  d="M0 0L234 0L234 0L234 545L234 545L0 545z" />    </clipPath>
    <clipPath  id="62">

    <path id=""  clip-rule="evenodd" transform="matrix(1 0 0 1 0 0)"  d="M0 0L234 0L234 0L234 545L234 545L0 545z" />    </clipPath>
    <clipPath  id="63">

    <path id=""  clip-rule="evenodd" transform="matrix(1 0 0 1 0 0)"  d="M0 0L234 0L234 0L234 545L234 545L0 545z" />    </clipPath>
    <clipPath  id="64">

    <path id=""  clip-rule="evenodd" transform="matrix(1 0 0 1 0 0)"  d="M0 0L234 0L234 0L234 545L234 545L0 545z" />    </clipPath>
    <clipPath  id="65">

    <path id=""  clip-rule="evenodd" transform="matrix(1 0 0 1 0 0)"  d="M0 0L234 0L234 0L234 545L234 545L0 545z" />    </clipPath>
    <clipPath  id="66">

    <path id=""  clip-rule="evenodd" transform="matrix(1 0 0 1 0 0)"  d="M0 0L234 0L234 0L234 545L234 545L0 545z" />    </clipPath>
    <clipPath  id="67">

    <path id=""  clip-rule="evenodd" transform="matrix(1 0 0 1 0 0)"  d="M0 0L234 0L234 0L234 545L234 545L0 545z" />    </clipPath>
    <clipPath  id="68">

    <path id=""  clip-rule="evenodd" transform="matrix(1 0 0 1 0 0)"  d="M0 0L234 0L234 0L234 545L234 545L0 545z" />    </clipPath>
    <clipPath  id="69">

    <path id=""  clip-rule="evenodd" transform="matrix(1 0 0 1 0 0)"  d="M0 0L234 0L234 0L234 545L234 545L0 545z" />    </clipPath>
    <clipPath  id="70">

    <path id=""  clip-rule="evenodd" transform="matrix(1 0 0 1 0 0)"  d="M0 0L234 0L234 0L234 545L234 545L0 545z" />    </clipPath>
    <clipPath  id="71">

    <path id=""  clip-rule="evenodd" transform="matrix(1 0 0 1 0 0)"  d="M0 0L234 0L234 0L234 545L234 545L0 545z" />    </clipPath>
    <clipPath  id="72">

    <path id=""  clip-rule="evenodd" transform="matrix(1 0 0 1 0 0)"  d="M0 0L234 0L234 0L234 545L234 545L0 545z" />    </clipPath>
    <clipPath  id="73">

    <path id=""  clip-rule="evenodd" transform="matrix(1 0 0 1 0 0)"  d="M0 0L234 0L234 0L234 545L234 545L0 545z" />    </clipPath>
    <clipPath  id="74">

    <path id=""  clip-rule="evenodd" transform="matrix(1 0 0 1 0 0)"  d="M0 0L234 0L234 0L234 545L234 545L0 545z" />    </clipPath>
    <clipPath  id="75">

    <path id=""  clip-rule="evenodd" transform="matrix(1 0 0 1 0 0)"  d="M0 0L234 0L234 0L234 545L234 545L0 545z" />    </clipPath>
    <clipPath  id="76">

    <path id=""  clip-rule="evenodd" transform="matrix(1 0 0 1 0 0)"  d="M0 0L234 0L234 0L234 545L234 545L0 545z" />    </clipPath>
    <clipPath  id="77">

    <path id=""  clip-rule="evenodd" transform="matrix(1 0 0 1 0 0)"  d="M0 0L234 0L234 0L234 545L234 545L0 545z" />    </clipPath>
    <clipPath  id="78">

    <path id=""  clip-rule="evenodd" transform="matrix(1 0 0 1 0 0)"  d="M0 0L234 0L234 0L234 545L234 545L0 545z" />    </clipPath>
    <clipPath  id="79">

    <path id=""  clip-rule="evenodd" transform="matrix(1 0 0 1 0 0)"  d="M0 0L234 0L234 0L234 545L234 545L0 545z" />    </clipPath>
    <clipPath  id="80">

    <path id=""  clip-rule="evenodd" transform="matrix(1 0 0 1 0 0)"  d="M0 0L234 0L234 0L234 545L234 545L0 545z" />    </clipPath>
</defs>

<g transform="matrix(1.3333 0 0 1.3333 0 0)">
	<g clip-path="url(#1)" >
		<g clip-path="url(#2)" >
    <path id=""  transform="matrix(1 0 0 -1 0 545)"  d="M34.551 545L161.875 545L161.875 545L161.875 0L161.875 0L34.551 0z" stroke="none" fill="#1A1A18" fill-rule="nonzero" />
		</g>
		<g clip-path="url(#3)" >
    <path id=""  transform="matrix(1 0 0 -1 0 545)"  d="M151.73 123.4764C 152.266 153.3249 160.598 184.2578 162.434 190.8051C 164.027 196.5043 172.086 217.6406 171.805 239.9649L171.805 239.9649L171.805 295.0002C 172.086 317.3245 164.027 338.4608 162.434 344.1599C 160.598 350.7073 152.266 381.6402 151.73 411.4847" stroke="#1A1A18" stroke-width="20.3175" stroke-linejoin="miter" fill="none" />
		</g>
		<g clip-path="url(#4)" >
    <path id=""  transform="matrix(1 0 0 -1 0 545)"  d="M44.879 411.4847C 44.344 381.6402 36.008 350.7073 34.176 344.1599C 32.578 338.4608 24.523 317.3245 24.805 295.0002L24.805 295.0002L24.805 239.9649C 24.523 217.6406 32.578 196.5043 34.176 190.8051C 36.008 184.2578 44.344 153.3249 44.879 123.4764" stroke="#1A1A18" stroke-width="20.3175" stroke-linejoin="miter" fill="none" />
		</g>
		<g clip-path="url(#5)" >
    <path id=""  transform="matrix(1 0 0 -1 0 545)"  d="M96.859 46.68399L99.566 46.68399L99.566 46.68399L99.566 19.68402L99.566 19.68402L96.859 19.68402zM96.859 100.684L99.566 100.684L99.566 100.684L99.566 73.68399L99.566 73.68399L96.859 73.68399zM96.859 439.996L99.566 439.996L99.566 439.996L99.566 412.992L99.566 412.992L96.859 412.992zM96.859 493.996L99.566 493.996L99.566 493.996L99.566 466.996L99.566 466.996L96.859 466.996zM96.859 545L99.566 545L99.566 545L99.566 520.996L99.566 520.996L96.859 520.996z" stroke="none" fill="#FFFFFF" fill-rule="nonzero" />
		</g>
		<g clip-path="url(#6)" >
    <path id=""  transform="matrix(1 0 0 -1 0 545)"  d="M94.6447 154.961L106.539 178.371" stroke="#FFFFFF" stroke-width="3.792603" stroke-linejoin="miter" fill="none" />
		</g>
		<g clip-path="url(#7)" >
    <path id=""  transform="matrix(1 0 0 -1 0 545)"  d="M42.633 0L39.934 0L39.934 0L39.965 123.484C 39.699 138.301 37.492 153.422 35.121 165.652C 32.75 177.902 30.223 187.223 29.309 190.477C 29.066 191.34 28.699 192.5 28.234 193.945C 25.5 202.5 19.652 220.781 19.891 239.992L19.891 239.992L19.887 295.027C 19.934 311.816 23.184 325.285 28.234 341.074C 28.699 342.52 29.066 343.68 29.309 344.547C 30.223 347.801 32.75 357.117 35.121 369.367C 37.492 381.598 39.699 396.719 39.965 411.535L39.965 411.535L40.02 545L40.02 545L42.719 545L42.719 545L42.664 411.516C 42.664 397.875 40.379 382.285 37.777 368.859C 35.391 356.547 32.836 347.121 31.914 343.828C 31.68 343 31.293 341.781 30.805 340.262C 28.113 331.836 22.352 313.832 22.59 295.043L22.59 295.043L22.59 239.977C 22.352 221.187 28.113 203.184 30.805 194.758C 31.293 193.238 31.68 192.023 31.914 191.191C 32.836 187.898 35.391 178.477 37.777 166.16C 40.168 153.828 42.395 138.559 42.664 123.527z" stroke="none" fill="#FFFFFF" fill-rule="nonzero" />
		</g>
		<g clip-path="url(#8)" >
    <path id=""  transform="matrix(1 0 0 -1 0 545)"  d="M156.441 123.453L156.41 0L156.41 0L153.711 0L153.711 0L153.742 123.473C 153.742 137.113 156.027 152.703 158.629 166.125C 161.012 178.441 163.57 187.867 164.492 191.16C 164.723 191.988 165.113 193.207 165.598 194.727C 168.293 203.148 174.051 221.156 173.816 239.945L173.816 239.945L173.816 295.012C 174.051 313.801 168.293 331.805 165.598 340.227C 165.113 341.746 164.723 342.965 164.492 343.793C 163.57 347.09 161.012 356.512 158.629 368.828C 156.238 381.16 154.012 396.43 153.742 411.461L153.742 411.461L154.047 545L154.047 545L156.742 545L156.742 545L156.461 410.547C 156.801 396.035 158.965 381.301 161.285 369.332C 163.656 357.082 166.184 347.766 167.094 344.512C 167.336 343.648 167.707 342.488 168.172 341.039C 170.906 332.484 176.754 314.207 176.512 294.996L176.512 294.996L176.512 239.961C 176.754 220.746 170.906 202.469 168.172 193.914C 167.707 192.465 167.336 191.305 167.094 190.441C 166.184 187.187 163.656 177.871 161.285 165.621C 158.914 153.387 156.707 138.27 156.441 123.453" stroke="none" fill="#FFFFFF" fill-rule="nonzero" />
		</g>
		<g clip-path="url(#9)" >
    <path id=""  transform="matrix(1 0 0 -1 0 545)"  d="M90.95336 177.043L118.7578 231.766" stroke="#FFFFFF" stroke-width="3.792603" stroke-linejoin="miter" fill="none" />
		</g>
		<g clip-path="url(#10)" >
    <path id=""  transform="matrix(1 0 0 -1 0 545)"  d="M85.94519 197L109.1643 242.695" stroke="#FFFFFF" stroke-width="3.792603" stroke-linejoin="miter" fill="none" />
		</g>
		<g clip-path="url(#11)" >
    <path id=""  transform="matrix(1 0 0 -1 0 545)"  d="M79.27325 213.75L93.22674 241.211" stroke="#FFFFFF" stroke-width="3.792603" stroke-linejoin="miter" fill="none" />
		</g>
		<g clip-path="url(#12)" >
    <path id=""  transform="matrix(1 0 0 -1 0 545)"  d="M103.5114 293.562L116.3945 318.91" stroke="#FFFFFF" stroke-width="3.792603" stroke-linejoin="miter" fill="none" />
		</g>
		<g clip-path="url(#13)" >
    <path id=""  transform="matrix(1 0 0 -1 0 545)"  d="M88.58588 293.676L111.1286 338.043" stroke="#FFFFFF" stroke-width="3.792603" stroke-linejoin="miter" fill="none" />
		</g>
		<g clip-path="url(#14)" >
    <path id=""  transform="matrix(1 0 0 -1 0 545)"  d="M77.66425 301.676L106.1247 357.684" stroke="#FFFFFF" stroke-width="3.792603" stroke-linejoin="miter" fill="none" />
		</g>
		<g clip-path="url(#15)" >
    <path id=""  transform="matrix(1 0 0 -1 0 545)"  d="M89.32822 354.121L102.1173 379.289" stroke="#FFFFFF" stroke-width="3.792603" stroke-linejoin="miter" fill="none" />
		</g>
		<g clip-path="url(#16)" >
    <path id=""  transform="matrix(1 0 0 -1 0 545)"  d="M100.613 123.3558C 101.152 153.1993 109.82 184.3794 111.676 190.9297C 113.289 196.6249 121.445 217.7622 121.16 240.0865" stroke="#1A1A18" stroke-width="2.708998" stroke-linejoin="miter" fill="none" />
		</g>
		<g clip-path="url(#17)" >
    <path id=""  transform="matrix(1 0 0 -1 0 545)"  d="M96.051 123.3558C 95.512 153.1993 86.844 184.3794 84.988 190.9297C 83.375 196.6249 75.219 217.7622 75.504 240.0865" stroke="#1A1A18" stroke-width="2.708998" stroke-linejoin="miter" fill="none" />
		</g>
		<g clip-path="url(#18)" >
    <path id=""  transform="matrix(1 0 0 -1 0 545)"  d="M100.613 412.914C 101.152 383.0705 109.82 351.8904 111.676 345.3441C 113.289 339.6448 121.445 318.5076 121.16 296.1833" stroke="#1A1A18" stroke-width="2.708998" stroke-linejoin="miter" fill="none" />
		</g>
		<g clip-path="url(#19)" >
    <path id=""  transform="matrix(1 0 0 -1 0 545)"  d="M96.051 412.914C 95.512 383.0705 86.844 351.8904 84.988 345.3441C 83.375 339.6448 75.219 318.5076 75.504 296.1833" stroke="#1A1A18" stroke-width="2.708998" stroke-linejoin="miter" fill="none" />
		</g>
		<g clip-path="url(#20)" >
    <path id=""  transform="matrix(1 0 0 -1 0 545)"  d="M98.203 123.3558C 97.668 153.1993 89.336 184.1372 87.504 190.6836C 85.906 196.3788 77.852 217.52 78.133 239.8443" stroke="#FFFFFF" stroke-width="2.708998" stroke-linejoin="miter" fill="none" />
		</g>
		<g clip-path="url(#21)" >
    <path id=""  transform="matrix(1 0 0 -1 0 545)"  d="M98.203 123.3558C 98.746 153.1993 107.41 184.3794 109.266 190.9297C 110.883 196.6249 119.035 217.7622 118.754 240.0865" stroke="#FFFFFF" stroke-width="2.708998" stroke-linejoin="miter" fill="none" />
		</g>
		<g clip-path="url(#22)" >
    <path id=""  transform="matrix(1 0 0 -1 0 545)"  d="M98.203 411.4847C 97.668 381.6402 89.336 350.7073 87.504 344.1599C 85.906 338.4608 77.852 317.3245 78.133 295.0002" stroke="#FFFFFF" stroke-width="2.708998" stroke-linejoin="miter" fill="none" />
		</g>
		<g clip-path="url(#23)" >
    <path id=""  transform="matrix(1 0 0 -1 0 545)"  d="M98.203 411.4847C 98.746 381.6402 107.41 350.4612 109.266 343.9138C 110.883 338.2146 119.035 317.0783 118.754 294.754" stroke="#FFFFFF" stroke-width="2.708998" stroke-linejoin="miter" fill="none" />
		</g>
		<g clip-path="url(#24)" >
    <path id=""  transform="matrix(1 0 0 -1 0 545)"  d="M173.645 289.9459L173.645 246.1295" stroke="#FFFFFF" stroke-width="5.418006" stroke-linejoin="miter" fill="none" />
		</g>
		<g clip-path="url(#25)" >
    <path id=""  transform="matrix(1 0 0 -1 0 545)"  d="M173.645 289.9459L173.645 246.1295" stroke="#FFFFFF" stroke-width="5.418006" stroke-linejoin="miter" fill="none" />
		</g>
		<g clip-path="url(#26)" >
    <path id=""  transform="matrix(1 0 0 -1 0 545)"  d="M173.645 295.0391L173.645 241.0393" stroke="#FFFFFF" stroke-width="5.418006" stroke-linejoin="miter" fill="none" />
		</g>
		<g clip-path="url(#27)" >
    <path id=""  transform="matrix(1 0 0 -1 0 545)"  d="M162.809 295.0391L162.809 241.0393" stroke="#FFFFFF" stroke-width="5.418006" stroke-linejoin="miter" fill="none" />
		</g>
		<g clip-path="url(#28)" >
    <path id=""  transform="matrix(1 0 0 -1 0 545)"  d="M151.973 295.0391L151.973 241.0393" stroke="#FFFFFF" stroke-width="5.418006" stroke-linejoin="miter" fill="none" />
		</g>
		<g clip-path="url(#29)" >
    <path id=""  transform="matrix(1 0 0 -1 0 545)"  d="M141.137 295.0391L141.137 241.0393" stroke="#FFFFFF" stroke-width="5.418006" stroke-linejoin="miter" fill="none" />
		</g>
		<g clip-path="url(#30)" >
    <path id=""  transform="matrix(1 0 0 -1 0 545)"  d="M130.301 295.0391L130.301 241.0393" stroke="#FFFFFF" stroke-width="5.418006" stroke-linejoin="miter" fill="none" />
		</g>
		<g clip-path="url(#31)" >
    <path id=""  transform="matrix(1 0 0 -1 0 545)"  d="M119.465 295.0391L119.465 241.0393" stroke="#FFFFFF" stroke-width="5.418006" stroke-linejoin="miter" fill="none" />
		</g>
		<g clip-path="url(#32)" >
    <path id=""  transform="matrix(1 0 0 -1 0 545)"  d="M108.629 295.0391L108.629 241.0393" stroke="#FFFFFF" stroke-width="5.418006" stroke-linejoin="miter" fill="none" />
		</g>
		<g clip-path="url(#33)" >
    <path id=""  transform="matrix(1 0 0 -1 0 545)"  d="M97.793 295.0391L97.793 241.0393" stroke="#FFFFFF" stroke-width="5.418006" stroke-linejoin="miter" fill="none" />
		</g>
		<g clip-path="url(#34)" >
    <path id=""  transform="matrix(1 0 0 -1 0 545)"  d="M98.473 289.9459L98.473 246.1295" stroke="#FFFFFF" stroke-width="5.418006" stroke-linejoin="miter" fill="none" />
		</g>
		<g clip-path="url(#35)" >
    <path id=""  transform="matrix(1 0 0 -1 0 545)"  d="M98.473 289.9459L98.473 246.1295" stroke="#FFFFFF" stroke-width="5.418006" stroke-linejoin="miter" fill="none" />
		</g>
		<g clip-path="url(#36)" >
    <path id=""  transform="matrix(1 0 0 -1 0 545)"  d="M98.473 295.0391L98.473 241.0393" stroke="#FFFFFF" stroke-width="5.418006" stroke-linejoin="miter" fill="none" />
		</g>
		<g clip-path="url(#37)" >
    <path id=""  transform="matrix(1 0 0 -1 0 545)"  d="M87.637 295.0391L87.637 241.0393" stroke="#FFFFFF" stroke-width="5.418006" stroke-linejoin="miter" fill="none" />
		</g>
		<g clip-path="url(#38)" >
    <path id=""  transform="matrix(1 0 0 -1 0 545)"  d="M76.801 295.0391L76.801 241.0393" stroke="#FFFFFF" stroke-width="5.418006" stroke-linejoin="miter" fill="none" />
		</g>
		<g clip-path="url(#39)" >
    <path id=""  transform="matrix(1 0 0 -1 0 545)"  d="M65.965 295.0391L65.965 241.0393" stroke="#FFFFFF" stroke-width="5.418006" stroke-linejoin="miter" fill="none" />
		</g>
		<g clip-path="url(#40)" >
    <path id=""  transform="matrix(1 0 0 -1 0 545)"  d="M55.129 295.0391L55.129 241.0393" stroke="#FFFFFF" stroke-width="5.418006" stroke-linejoin="miter" fill="none" />
		</g>
		<g clip-path="url(#41)" >
    <path id=""  transform="matrix(1 0 0 -1 0 545)"  d="M44.293 295.0391L44.293 241.0393" stroke="#FFFFFF" stroke-width="5.418006" stroke-linejoin="miter" fill="none" />
		</g>
		<g clip-path="url(#42)" >
    <path id=""  transform="matrix(1 0 0 -1 0 545)"  d="M33.457 295.0391L33.457 241.0393" stroke="#FFFFFF" stroke-width="5.418006" stroke-linejoin="miter" fill="none" />
		</g>
		<g clip-path="url(#43)" >
    <path id=""  transform="matrix(1 0 0 -1 0 545)"  d="M22.621 295.0391L22.621 241.0393" stroke="#FFFFFF" stroke-width="5.418006" stroke-linejoin="miter" fill="none" />
		</g>
		<g clip-path="url(#44)" >
    <path id=""  transform="matrix(1 0 0 -1 0 545)"  d="M78.125 294.9693L118.758 294.9693L118.758 294.9693L118.758 240.9656L118.758 240.9656L78.125 240.9656z" stroke="#FFFFFF" stroke-width="2.708998" stroke-linejoin="miter" fill="#1A1A18" fill-rule="evenodd" />
		</g>
		<g clip-path="url(#45)" >
    <path id=""  transform="matrix(1 0 0 -1 0 545)"  d="M90.609 165.934C 89.211 167.328 88.34 168.832 87.828 170.738C 87.316 172.645 87.313 174.383 87.828 176.289C 88.34 178.191 89.211 179.695 90.609 181.09C 92.012 182.484 93.516 183.352 95.43 183.863C 97.34 184.375 99.082 184.375 100.996 183.863C 102.906 183.352 104.414 182.484 105.816 181.09C 107.215 179.695 108.086 178.191 108.598 176.289C 109.109 174.383 109.109 172.645 108.598 170.738C 108.086 168.832 107.215 167.332 105.816 165.937C 104.414 164.539 102.906 163.672 100.996 163.16C 99.082 162.652 97.344 162.652 95.43 163.16C 93.516 163.672 92.012 164.539 90.609 165.934M90.598 165.922C 92 164.527 93.508 163.656 95.426 163.145C 97.34 162.633 99.086 162.633 101 163.145C 102.914 163.656 104.426 164.527 105.828 165.922C 107.23 167.32 108.102 168.824 108.617 170.734C 109.129 172.645 109.129 174.383 108.613 176.293C 108.102 178.199 107.23 179.707 105.828 181.102C 104.426 182.5 102.914 183.371 101 183.883C 99.086 184.395 97.34 184.395 95.426 183.883C 93.512 183.371 92 182.5 90.598 181.102C 89.195 179.707 88.324 178.199 87.809 176.293C 87.297 174.383 87.297 172.645 87.809 170.734C 88.324 168.824 89.195 167.32 90.598 165.922z" stroke="none" fill="#000000" fill-rule="evenodd" />
		</g>
		<g clip-path="url(#46)" >
    <path id=""  transform="matrix(1 0 0 -1 0 545)"  d="M90.609 181.09C 89.211 179.695 88.34 178.191 87.828 176.289C 87.313 174.383 87.316 172.645 87.828 170.738C 88.34 168.832 89.211 167.328 90.609 165.934C 92.012 164.539 93.516 163.672 95.43 163.16C 97.344 162.652 99.082 162.652 100.996 163.16C 102.906 163.672 104.414 164.539 105.816 165.937C 107.215 167.332 108.086 168.832 108.598 170.738C 109.109 172.645 109.109 174.383 108.598 176.289C 108.086 178.191 107.215 179.695 105.816 181.09C 104.414 182.484 102.906 183.352 100.996 183.863C 99.082 184.375 97.34 184.375 95.43 183.863C 93.516 183.352 92.012 182.484 90.609 181.09" stroke="none" fill="#FFFFFF" fill-rule="evenodd" />
		</g>
		<g clip-path="url(#47)" >
    <path id=""  transform="matrix(1 0 0 -1 0 545)"  d="M90.965 180.734C 89.633 179.406 88.801 177.973 88.313 176.156C 87.824 174.34 87.824 172.684 88.313 170.867C 88.801 169.051 89.633 167.617 90.965 166.289C 92.301 164.957 93.738 164.133 95.559 163.645C 97.383 163.16 99.043 163.16 100.867 163.645C 102.688 164.133 104.125 164.961 105.461 166.289C 106.793 167.617 107.625 169.051 108.113 170.867C 108.602 172.684 108.602 174.34 108.113 176.156C 107.625 177.973 106.793 179.406 105.461 180.734C 104.125 182.066 102.688 182.895 100.863 183.379C 99.043 183.867 97.383 183.867 95.559 183.379C 93.738 182.895 92.301 182.066 90.965 180.734" stroke="none" fill="#154889" fill-rule="evenodd" />
		</g>
		<g clip-path="url(#48)" >
    <path id=""  transform="matrix(1 0 0 -1 0 545)"  d="M94.906 169.809L100.336 169.812L100.336 169.812L91.688 178.43L91.688 178.43L93.277 180.016L93.277 180.016L101.934 171.387L101.934 171.387L101.934 176.801L101.934 176.801L103.938 174.805L103.938 174.805L103.945 167.805L103.945 167.805L103.602 168.156L103.602 168.156L103.934 167.809L103.934 167.809L96.906 167.812z" stroke="none" fill="#FFFFFF" fill-rule="nonzero" />
		</g>
		<g clip-path="url(#49)" >
    <path id=""  transform="matrix(1 0 0 -1 0 545)"  d="M106.023 367.535C 107.426 366.141 108.297 364.637 108.809 362.73C 109.32 360.824 109.32 359.09 108.809 357.184C 108.297 355.277 107.426 353.773 106.023 352.379C 104.625 350.984 103.117 350.117 101.207 349.605C 99.293 349.094 97.551 349.094 95.641 349.605C 93.727 350.117 92.219 350.984 90.82 352.379C 89.422 353.773 88.551 355.277 88.039 357.184C 87.523 359.09 87.527 360.824 88.035 362.73C 88.551 364.637 89.422 366.137 90.82 367.535C 92.219 368.93 93.727 369.797 95.641 370.309C 97.551 370.816 99.293 370.816 101.207 370.309C 103.117 369.797 104.625 368.93 106.023 367.535M106.039 367.547C 104.637 368.945 103.125 369.812 101.211 370.324C 99.297 370.836 97.551 370.836 95.633 370.324C 93.719 369.812 92.211 368.945 90.809 367.547C 89.406 366.148 88.535 364.645 88.02 362.734C 87.508 360.828 87.508 359.086 88.02 357.176C 88.535 355.27 89.406 353.766 90.809 352.367C 92.211 350.969 93.719 350.102 95.637 349.59C 97.551 349.078 99.297 349.078 101.211 349.59C 103.125 350.102 104.637 350.969 106.039 352.367C 107.438 353.762 108.313 355.27 108.824 357.18C 109.34 359.086 109.34 360.828 108.824 362.734C 108.313 364.645 107.438 366.148 106.039 367.547z" stroke="none" fill="#000000" fill-rule="evenodd" />
		</g>
		<g clip-path="url(#50)" >
    <path id=""  transform="matrix(1 0 0 -1 0 545)"  d="M106.023 352.379C 107.426 353.773 108.297 355.277 108.809 357.184C 109.32 359.09 109.32 360.824 108.809 362.73C 108.297 364.637 107.426 366.141 106.023 367.535C 104.625 368.93 103.117 369.797 101.207 370.309C 99.293 370.82 97.551 370.82 95.641 370.309C 93.727 369.797 92.219 368.93 90.82 367.535C 89.422 366.137 88.551 364.637 88.035 362.73C 87.527 360.824 87.523 359.09 88.039 357.184C 88.551 355.277 89.422 353.773 90.82 352.379C 92.219 350.984 93.727 350.117 95.641 349.605C 97.551 349.094 99.293 349.094 101.207 349.605C 103.117 350.117 104.625 350.984 106.023 352.379" stroke="none" fill="#FFFFFF" fill-rule="evenodd" />
		</g>
		<g clip-path="url(#51)" >
    <path id=""  transform="matrix(1 0 0 -1 0 545)"  d="M105.672 352.734C 107.004 354.062 107.836 355.496 108.32 357.312C 108.813 359.129 108.813 360.785 108.324 362.602C 107.836 364.418 107.004 365.852 105.668 367.18C 104.336 368.512 102.898 369.336 101.078 369.824C 99.254 370.309 97.594 370.309 95.77 369.824C 93.949 369.336 92.508 368.512 91.176 367.18C 89.84 365.852 89.012 364.418 88.523 362.602C 88.035 360.785 88.035 359.129 88.523 357.312C 89.012 355.496 89.84 354.062 91.176 352.734C 92.508 351.402 93.949 350.574 95.77 350.09C 97.594 349.602 99.254 349.602 101.074 350.09C 102.898 350.574 104.336 351.402 105.672 352.734" stroke="none" fill="#154889" fill-rule="evenodd" />
		</g>
		<g clip-path="url(#52)" >
    <path id=""  transform="matrix(1 0 0 -1 0 545)"  d="M101.73 363.66L96.301 363.656L96.301 363.656L104.949 355.039L104.949 355.039L103.359 353.457L103.359 353.457L94.703 362.082L94.703 362.082L94.699 356.668L94.699 356.668L92.699 358.664L92.699 358.664L92.691 365.664L92.691 365.664L93.035 365.312L93.035 365.312L92.703 365.664L92.703 365.664L99.73 365.656z" stroke="none" fill="#FFFFFF" fill-rule="nonzero" />
		</g>
		<g clip-path="url(#53)" >
    <path id=""  transform="matrix(1 0 0 -1 0 545)"  d="M177.754 179.5114C 177.156 179.5114 176.668 179.9958 176.668 180.5938L176.668 180.5938L176.668 198.6841C 176.668 199.2772 177.156 199.7616 177.754 199.7616L177.754 199.7616L195.902 199.7616C 196.5 199.7616 196.988 199.2772 196.988 198.6841L196.988 198.6841L196.988 180.5938C 196.988 179.9958 196.5 179.5114 195.902 179.5114z" stroke="#231F20" stroke-width="0.0103213" stroke-linejoin="miter" fill="#FFFFFF" fill-rule="nonzero" />
		</g>
		<g clip-path="url(#54)" >
    <path id=""  transform="matrix(1 0 0 -1 0 545)"  d="M178.359 182.73L195.297 182.73L195.297 182.73L186.828 197.352zM177.754 179.918C 177.379 179.918 177.074 180.219 177.074 180.594L177.074 180.594L177.074 198.684C 177.074 199.055 177.379 199.359 177.754 199.359L177.754 199.359L195.902 199.359C 196.277 199.359 196.582 199.055 196.582 198.684L196.582 198.684L196.582 180.594C 196.582 180.219 196.277 179.918 195.902 179.918z" stroke="none" fill="#154989" fill-rule="nonzero" />
		</g>
		<g clip-path="url(#55)" >
    <path id=""  transform="matrix(1 0 0 -1 0 545)"  d="M187.367 193.906C 187.367 193.473 187.012 193.121 186.578 193.121C 186.145 193.121 185.793 193.473 185.793 193.906C 185.793 194.34 186.145 194.687 186.578 194.687C 187.012 194.687 187.367 194.34 187.367 193.906M187.758 191.57L187.758 189.297L187.758 189.297L186.184 189.297L186.184 189.297L186.184 191.176L186.184 191.176L185.164 189.609C 185.035 189.414 184.816 189.297 184.586 189.297C 184.453 189.297 184.32 189.336 184.211 189.406L184.211 189.406L186.148 192.379C 186.328 192.656 186.641 192.824 186.973 192.824C 187.203 192.824 187.426 192.746 187.605 192.598L187.605 192.598L188.926 191.492C 189.059 191.379 189.137 191.215 189.137 191.039L189.137 191.039L189.137 190.082C 189.137 189.703 188.828 189.395 188.449 189.395L188.449 189.395L188.449 190.996zM186.973 188.703L185.113 185.293C 184.977 185.039 184.711 184.883 184.422 184.883C 184.289 184.883 184.16 184.914 184.047 184.977L184.047 184.977L186.137 188.816C 186.168 188.875 186.184 188.937 186.184 189.004L186.184 189.004L186.184 189.102L186.184 189.102L187.758 189.102L187.758 189.102L187.758 189.004C 187.758 188.937 187.777 188.875 187.809 188.816L187.809 188.816L189.371 185.945C 189.434 185.832 189.465 185.703 189.465 185.574C 189.465 185.285 189.309 185.02 189.055 184.883zM191.723 183.449L190.453 186.316L190.453 186.316L191.73 186.316L191.73 186.316L193.449 183.449zM188.844 183.449L188.469 185.508L188.469 185.508L188.969 184.59L188.969 184.59L189.156 184.695C 189.48 184.867 189.68 185.207 189.68 185.574C 189.68 185.738 189.641 185.902 189.559 186.051L189.559 186.051L189.414 186.316L189.414 186.316L189.598 186.316L189.598 186.316L190.57 183.449zM185.965 183.449L186.188 186.316L186.188 186.316L187.469 186.316L187.469 186.316L187.691 183.449zM183.086 183.449L184.059 186.316L184.059 186.316L184.531 186.316L184.531 186.316L183.754 184.891L183.754 184.891L183.945 184.789C 184.09 184.711 184.254 184.668 184.422 184.668C 184.664 184.668 184.898 184.754 185.078 184.914L185.078 184.914L184.813 183.449zM180.207 183.449L181.926 186.316L181.926 186.316L183.203 186.316L183.203 186.316L181.934 183.449z" stroke="none" fill="#231F20" fill-rule="nonzero" />
		</g>
		<g clip-path="url(#56)" >
    <path id=""  transform="matrix(1 0 0 -1 0 545)"  d="M19.238 356.0278C 19.836 356.0278 20.324 355.5474 20.324 354.9493L20.324 354.9493L20.324 336.859C 20.324 336.262 19.836 335.7776 19.238 335.7776L19.238 335.7776L1.09 335.7776C 0.492 335.7776 0.004 336.262 0.004 336.859L0.004 336.859L0.004 354.9493C 0.004 355.5474 0.492 356.0278 1.09 356.0278z" stroke="#231F20" stroke-width="0.0103213" stroke-linejoin="miter" fill="#FFFFFF" fill-rule="nonzero" />
		</g>
		<g clip-path="url(#57)" >
    <path id=""  transform="matrix(1 0 0 -1 0 545)"  d="M18.633 352.809L1.695 352.809L1.695 352.809L10.164 338.191zM19.238 355.625C 19.613 355.625 19.918 355.32 19.918 354.949L19.918 354.949L19.918 336.859C 19.918 336.484 19.613 336.184 19.238 336.184L19.238 336.184L1.09 336.184C 0.715 336.184 0.41 336.484 0.41 336.859L0.41 336.859L0.41 354.949C 0.41 355.32 0.715 355.625 1.09 355.625z" stroke="none" fill="#154989" fill-rule="nonzero" />
		</g>
		<g clip-path="url(#58)" >
    <path id=""  transform="matrix(1 0 0 -1 0 545)"  d="M9.625 341.637C 9.625 342.07 9.98 342.422 10.414 342.422C 10.848 342.422 11.199 342.07 11.199 341.637C 11.199 341.203 10.848 340.852 10.414 340.852C 9.98 340.852 9.625 341.203 9.625 341.637M9.234 343.969L9.234 346.246L9.234 346.246L10.809 346.246L10.809 346.246L10.809 344.363L10.809 344.363L11.828 345.934C 11.957 346.129 12.172 346.246 12.406 346.246C 12.539 346.246 12.672 346.207 12.781 346.133L12.781 346.133L10.844 343.16C 10.664 342.883 10.352 342.715 10.02 342.715C 9.789 342.715 9.566 342.797 9.387 342.945L9.387 342.945L8.066 344.051C 7.934 344.16 7.855 344.324 7.855 344.5L7.855 344.5L7.855 345.461C 7.855 345.84 8.164 346.148 8.543 346.148L8.543 346.148L8.543 344.547zM10.02 346.836L11.879 350.246C 12.016 350.5 12.281 350.656 12.57 350.656C 12.699 350.656 12.832 350.625 12.945 350.562L12.945 350.562L10.855 346.727C 10.824 346.668 10.809 346.602 10.809 346.539L10.809 346.539L10.809 346.441L10.809 346.441L9.234 346.441L9.234 346.441L9.234 346.539C 9.234 346.602 9.215 346.668 9.184 346.727L9.184 346.727L7.621 349.594C 7.559 349.707 7.527 349.836 7.527 349.969C 7.527 350.258 7.684 350.52 7.938 350.656zM5.27 352.094L6.539 349.223L6.539 349.223L5.262 349.223L5.262 349.223L3.539 352.094zM8.148 352.094L8.523 350.035L8.523 350.035L8.023 350.949L8.023 350.949L7.836 350.848C 7.512 350.672 7.313 350.336 7.313 349.969C 7.313 349.801 7.352 349.637 7.434 349.492L7.434 349.492L7.578 349.223L7.578 349.223L7.395 349.223L7.395 349.223L6.422 352.094zM11.027 352.094L10.805 349.223L10.805 349.223L9.523 349.223L9.523 349.223L9.301 352.094zM13.906 352.094L12.934 349.223L12.934 349.223L12.461 349.223L12.461 349.223L13.238 350.648L13.238 350.648L13.047 350.75C 12.902 350.832 12.738 350.875 12.57 350.875C 12.328 350.875 12.094 350.785 11.914 350.629L11.914 350.629L12.18 352.094zM16.785 352.094L15.066 349.223L15.066 349.223L13.789 349.223L13.789 349.223L15.059 352.094z" stroke="none" fill="#231F20" fill-rule="nonzero" />
		</g>
		<g clip-path="url(#59)" >
    <path id=""  transform="matrix(1 0 0 -1 0 545)"  d="M154.441 222.93L149.973 177.426L149.973 177.426L127.715 179.598L127.715 179.598L132.184 225.102z" stroke="none" fill="#009EE3" fill-rule="evenodd" />
		</g>
		<g clip-path="url(#60)" >
    <path id=""  transform="matrix(1 0 0 -1 0 545)"  d="M176.566 298.2305L203.66 298.2305L203.66 298.2305L203.66 237.508L203.66 237.508L176.566 237.508z" stroke="#E3000F" stroke-width="0.677248" stroke-linejoin="miter" stroke-dasharray="3.38643288612366,2.03176403045654" fill="none" />
		</g>
		<g clip-path="url(#61)" >
    <path id=""  transform="matrix(1 0 0 -1 0 545)"  d="M91.605 294.9693L118.699 294.9693L118.699 294.9693L118.699 240.6725L118.699 240.6725L91.605 240.6725z" stroke="#E3000F" stroke-width="0.677248" stroke-linejoin="miter" stroke-dasharray="3.38643288612366,2.03176403045654" fill="none" />
		</g>
		<g clip-path="url(#62)" >
    <path id=""  transform="matrix(1 0 0 -1 0 545)"  d="M99.23 273.6487L111.07 273.6487L111.07 273.6487L111.07 261.9922L111.07 261.9922L99.23 261.9922z" stroke="#FFFFFF" stroke-width="0.0270886" stroke-linejoin="miter" fill="#FFFFFF" fill-rule="evenodd" />
		</g>
		<g clip-path="url(#63)" >
    <path id=""  transform="matrix(1 0 0 -1 0 545)"  d="M77.457 311.219L86.918 311.219L86.918 311.219L86.918 310.812L86.918 310.812L77.457 310.812zM86.918 311.219L87.043 311.219L87.043 311.219L87.102 311.105zM87.102 311.105L104.145 276.027L104.145 276.027L103.777 275.852L103.777 275.852L86.734 310.926L86.734 310.926L86.918 311.219zM104.059 278.352L104.891 274.027L104.891 274.027L102.004 277.355z" stroke="none" fill="#00963F" fill-rule="nonzero" />
		</g>
		<g clip-path="url(#64)" >
    <path id=""  transform="matrix(1 0 0 -1 0 545)"  d="M73.066 306.816L73.066 312.996L73.066 312.996L74.008 312.996L74.008 312.996L74.008 312.117C 74.465 312.797 75.125 313.125 75.98 313.125C 76.348 313.125 76.699 313.055 77.004 312.926C 77.324 312.797 77.559 312.621 77.711 312.41C 77.863 312.187 77.98 311.93 78.039 311.625C 78.074 311.437 78.098 311.098 78.098 310.617L78.098 310.617L78.098 306.816L78.098 306.816L77.039 306.816L77.039 306.816L77.039 310.57C 77.039 311.004 77.004 311.32 76.922 311.531C 76.84 311.742 76.699 311.918 76.5 312.035C 76.277 312.164 76.039 312.223 75.758 312.223C 75.313 312.223 74.934 312.082 74.605 311.801C 74.289 311.52 74.113 310.992 74.113 310.195L74.113 310.195L74.113 306.816zM70.387 309.914C 70.012 309.762 69.434 309.633 68.672 309.527C 68.234 309.469 67.93 309.387 67.754 309.316C 67.578 309.234 67.438 309.129 67.332 308.977C 67.234 308.836 67.188 308.66 67.188 308.484C 67.188 308.203 67.297 307.98 67.52 307.781C 67.73 307.605 68.035 307.512 68.449 307.512C 68.848 307.512 69.211 307.594 69.516 307.77C 69.848 307.957 70.07 308.191 70.211 308.496C 70.328 308.73 70.387 309.082 70.387 309.539zM70.469 307.594C 70.082 307.266 69.707 307.031 69.352 306.887C 68.988 306.758 68.602 306.687 68.188 306.687C 67.52 306.687 66.988 306.852 66.613 307.184C 66.25 307.512 66.07 307.945 66.07 308.449C 66.07 308.754 66.145 309.035 66.273 309.281C 66.414 309.539 66.59 309.727 66.824 309.879C 67.047 310.031 67.297 310.137 67.578 310.23C 67.789 310.277 68.094 310.336 68.52 310.383C 69.363 310.477 69.988 310.594 70.387 310.734C 70.387 310.875 70.387 310.98 70.387 311.016C 70.387 311.437 70.293 311.742 70.094 311.906C 69.836 312.141 69.422 312.258 68.895 312.258C 68.398 312.258 68.035 312.176 67.801 312C 67.566 311.836 67.391 311.52 67.273 311.086L67.273 311.086L66.25 311.227C 66.344 311.672 66.496 312.023 66.707 312.281C 66.93 312.562 67.234 312.762 67.648 312.914C 68.047 313.055 68.52 313.125 69.059 313.125C 69.578 313.125 70.012 313.066 70.34 312.937C 70.68 312.82 70.918 312.668 71.07 312.48C 71.223 312.281 71.34 312.047 71.41 311.766C 71.445 311.578 71.457 311.262 71.457 310.793L71.457 310.793L71.457 309.41C 71.457 308.437 71.48 307.828 71.527 307.57C 71.563 307.312 71.645 307.055 71.773 306.816L71.773 306.816L70.68 306.816C 70.574 307.043 70.516 307.301 70.469 307.594zM63.773 306.816L63.773 312.996L63.773 312.996L64.82 312.996L64.82 312.996L64.82 306.816zM63.773 314.156L63.773 315.34L63.773 315.34L64.82 315.34L64.82 315.34L64.82 314.156zM59.785 306.816L59.785 312.996L59.785 312.996L60.727 312.996L60.727 312.996L60.727 312.059C 60.973 312.492 61.195 312.785 61.395 312.914C 61.594 313.055 61.828 313.125 62.078 313.125C 62.43 313.125 62.781 313.02 63.16 312.797L63.16 312.797L62.781 311.836C 62.523 311.977 62.266 312.047 62.02 312.047C 61.793 312.047 61.57 311.977 61.395 311.848C 61.219 311.707 61.09 311.508 61.02 311.273C 60.902 310.898 60.832 310.488 60.832 310.043L60.832 310.043L60.832 306.816zM58.754 307.758L58.895 306.828C 58.602 306.77 58.344 306.734 58.109 306.734C 57.73 306.734 57.426 306.793 57.227 306.91C 57.016 307.031 56.875 307.207 56.781 307.395C 56.695 307.594 56.648 308.004 56.648 308.625L56.648 308.625L56.648 312.187L56.648 312.187L55.875 312.187L55.875 312.187L55.875 312.996L55.875 312.996L56.648 312.996L56.648 312.996L56.648 314.52L56.648 314.52L57.707 315.152L57.707 315.152L57.707 312.996L57.707 312.996L58.754 312.996L58.754 312.996L58.754 312.187L58.754 312.187L57.707 312.187L57.707 312.187L57.707 308.566C 57.707 308.273 57.73 308.086 57.766 308.004C 57.801 307.898 57.859 307.84 57.945 307.781C 58.027 307.734 58.145 307.711 58.309 307.711C 58.414 307.711 58.566 307.723 58.754 307.758zM50.078 308.66L51.125 308.836C 51.184 308.414 51.348 308.109 51.617 307.875C 51.875 307.652 52.254 307.547 52.734 307.547C 53.215 307.547 53.57 307.641 53.805 307.84C 54.039 308.039 54.156 308.262 54.156 308.531C 54.156 308.766 54.051 308.953 53.852 309.082C 53.688 309.176 53.336 309.293 52.77 309.445C 51.992 309.633 51.465 309.797 51.172 309.937C 50.875 310.078 50.641 310.289 50.488 310.535C 50.348 310.77 50.266 311.062 50.266 311.355C 50.266 311.625 50.324 311.883 50.453 312.117C 50.582 312.352 50.746 312.551 50.969 312.703C 51.137 312.82 51.348 312.926 51.641 313.008C 51.922 313.09 52.219 313.125 52.547 313.125C 53.016 313.125 53.453 313.055 53.828 312.914C 54.191 312.785 54.453 312.598 54.641 312.352C 54.805 312.117 54.934 311.801 54.992 311.391L54.992 311.391L53.969 311.25C 53.922 311.566 53.781 311.824 53.559 312C 53.348 312.187 53.016 312.27 52.617 312.27C 52.133 312.27 51.793 312.187 51.594 312.035C 51.383 311.883 51.277 311.695 51.277 311.473C 51.277 311.344 51.324 311.227 51.406 311.109C 51.488 311.004 51.629 310.898 51.805 310.828C 51.91 310.793 52.219 310.699 52.734 310.57C 53.477 310.371 53.992 310.207 54.285 310.078C 54.594 309.949 54.816 309.773 54.98 309.539C 55.145 309.293 55.227 309 55.227 308.637C 55.227 308.297 55.133 307.969 54.922 307.652C 54.723 307.348 54.426 307.102 54.039 306.934C 53.652 306.77 53.227 306.687 52.734 306.687C 51.934 306.687 51.313 306.852 50.898 307.184C 50.465 307.523 50.207 308.016 50.078 308.66zM44.648 310.5L48.105 310.5C 48.059 311.027 47.918 311.402 47.703 311.672C 47.375 312.07 46.941 312.27 46.398 312.27C 45.93 312.27 45.516 312.117 45.199 311.801C 44.859 311.473 44.684 311.039 44.648 310.5zM48.094 308.824L49.176 308.672C 49.008 308.051 48.691 307.559 48.234 307.219C 47.762 306.863 47.188 306.687 46.469 306.687C 45.551 306.687 44.836 306.961 44.316 307.523C 43.777 308.086 43.52 308.859 43.52 309.855C 43.52 310.887 43.777 311.707 44.316 312.27C 44.848 312.844 45.539 313.125 46.398 313.125C 47.234 313.125 47.895 312.855 48.422 312.281C 48.949 311.73 49.211 310.945 49.211 309.914C 49.211 309.855 49.211 309.762 49.211 309.645L49.211 309.645L44.59 309.645C 44.625 308.965 44.813 308.449 45.164 308.086C 45.504 307.723 45.941 307.547 46.469 307.547C 46.848 307.547 47.164 307.652 47.445 307.852C 47.715 308.062 47.941 308.379 48.094 308.824zM37.898 309.902C 37.898 309.117 38.066 308.52 38.406 308.133C 38.734 307.734 39.137 307.547 39.594 307.547C 40.051 307.547 40.441 307.734 40.77 308.109C 41.086 308.473 41.238 309.047 41.238 309.82C 41.238 310.652 41.074 311.273 40.758 311.672C 40.43 312.07 40.027 312.258 39.547 312.258C 39.078 312.258 38.688 312.07 38.371 311.695C 38.055 311.32 37.898 310.711 37.898 309.902zM41.215 306.816L41.215 307.605C 40.828 306.996 40.254 306.687 39.488 306.687C 38.992 306.687 38.547 306.816 38.125 307.09C 37.723 307.371 37.395 307.746 37.172 308.227C 36.949 308.719 36.832 309.27 36.832 309.902C 36.832 310.523 36.938 311.086 37.137 311.578C 37.336 312.082 37.652 312.469 38.066 312.727C 38.477 312.996 38.934 313.125 39.441 313.125C 39.816 313.125 40.145 313.043 40.441 312.891C 40.734 312.738 40.969 312.539 41.145 312.281L41.145 312.281L41.145 315.34L41.145 315.34L42.203 315.34L42.203 315.34L42.203 306.816zM31.363 310.5L34.82 310.5C 34.773 311.027 34.633 311.402 34.418 311.672C 34.09 312.07 33.656 312.27 33.113 312.27C 32.645 312.27 32.234 312.117 31.914 311.801C 31.574 311.473 31.398 311.039 31.363 310.5zM34.809 308.824L35.891 308.672C 35.727 308.051 35.406 307.559 34.949 307.219C 34.477 306.863 33.902 306.687 33.184 306.687C 32.27 306.687 31.551 306.961 31.031 307.523C 30.492 308.086 30.234 308.859 30.234 309.855C 30.234 310.887 30.492 311.707 31.031 312.27C 31.563 312.844 32.258 313.125 33.113 313.125C 33.949 313.125 34.609 312.855 35.137 312.281C 35.668 311.73 35.926 310.945 35.926 309.914C 35.926 309.855 35.926 309.762 35.926 309.645L35.926 309.645L31.305 309.645C 31.34 308.965 31.527 308.449 31.879 308.086C 32.223 307.723 32.656 307.547 33.184 307.547C 33.563 307.547 33.879 307.652 34.16 307.852C 34.43 308.062 34.656 308.379 34.809 308.824zM23.879 311.297L26.09 311.297C 26.816 311.297 27.336 311.426 27.652 311.707C 27.945 311.977 28.098 312.352 28.098 312.855C 28.098 313.207 28.016 313.512 27.828 313.758C 27.652 314.027 27.406 314.191 27.125 314.273C 26.934 314.32 26.57 314.344 26.066 314.344L26.066 314.344L23.879 314.344zM22.738 306.816L22.738 315.34L22.738 315.34L25.973 315.34C 26.535 315.34 26.969 315.316 27.266 315.258C 27.699 315.187 28.039 315.059 28.336 314.871C 28.617 314.672 28.84 314.391 29.016 314.051C 29.191 313.687 29.273 313.312 29.273 312.879C 29.273 312.164 29.051 311.543 28.582 311.051C 28.109 310.547 27.277 310.301 26.078 310.301L26.078 310.301L23.879 310.301L23.879 310.301L23.879 306.816z" stroke="none" fill="#00AB5A" fill-rule="nonzero" />
		</g>
		<g clip-path="url(#65)" >
    <path id=""  transform="matrix(1 0 0 -1 0 545)"  d="M214.543 268.383L205.082 264.285L205.082 264.285L205.207 264.539L205.207 264.539L205.32 264.793L205.32 264.793L205.426 265.047L205.426 265.047L205.523 265.301L205.523 265.301L205.613 265.555L205.613 265.555L205.695 265.809L205.695 265.809L205.77 266.062L205.77 266.062L205.836 266.316L205.836 266.316L205.895 266.566L205.895 266.566L205.945 266.82L205.945 266.82L205.984 267.074L205.984 267.074L206.02 267.328L206.02 267.328L206.047 267.582L206.047 267.582L206.066 267.836L206.066 267.836L206.078 268.086L206.078 268.086L206.078 268.34L206.078 268.34L206.074 268.594L206.074 268.594L206.063 268.848L206.063 268.848L206.039 269.102L206.039 269.102L206.012 269.352L206.012 269.352L205.973 269.605L205.973 269.605L205.93 269.859L205.93 269.859L205.875 270.113L205.875 270.113L205.816 270.363L205.816 270.363L205.746 270.617L205.746 270.617L205.672 270.871L205.672 270.871L205.586 271.121L205.586 271.121L205.492 271.375L205.492 271.375L205.391 271.629L205.391 271.629L205.285 271.879L205.285 271.879L205.168 272.133L205.168 272.133L205.043 272.387zM209.777 269.035L209.781 267.684L209.781 267.684L208.867 267.68L208.867 267.68L208.859 269.031zM207.504 269.023L207.512 267.672L207.512 267.672L206.707 267.668L206.707 267.668L204.805 267.66L204.805 267.66L204.797 269.008L204.797 269.008L206.699 269.02zM203.441 269.004L203.449 267.652L203.449 267.652L200.738 267.641L200.738 267.641L200.734 268.988zM199.379 268.984L199.387 267.633L199.387 267.633L197.477 267.625L197.477 267.625L196.676 267.621L196.676 267.621L196.668 268.969L196.668 268.969L197.473 268.973zM195.316 268.965L195.32 267.613L195.32 267.613L194.402 267.609L194.402 267.609L192.613 267.602L192.613 267.602L192.605 268.949L192.605 268.949L194.395 268.957zM191.25 268.941L191.258 267.594L191.258 267.594L188.551 267.578L188.551 267.578L188.543 268.93zM187.188 268.922L187.195 267.574L187.195 267.574L185.172 267.562L185.172 267.562L184.484 267.559L184.484 267.559L184.48 268.91L184.48 268.91L185.168 268.914zM183.125 268.902L183.133 267.555L183.133 267.555L182.098 267.547L182.098 267.547L180.422 267.539L180.422 267.539L180.418 268.891L180.418 268.891L182.09 268.898zM179.063 268.883L179.066 267.535L179.066 267.535L179.02 267.535L179.02 267.535L176.359 267.52L176.359 267.52L176.352 268.871L176.352 268.871L179.016 268.883zM175 268.863L175.004 267.512L175.004 267.512L172.867 267.504L172.867 267.504L172.297 267.5L172.297 267.5L172.289 268.852L172.289 268.852L172.863 268.852zM170.934 268.844L170.941 267.492L170.941 267.492L169.793 267.488L169.793 267.488L168.23 267.48L168.23 267.48L168.227 268.832L168.227 268.832L169.785 268.836zM166.871 268.824L166.879 267.473L166.879 267.473L166.715 267.473L166.715 267.473L164.168 267.461L164.168 267.461L164.164 268.809L164.164 268.809L166.711 268.824zM162.809 268.805L162.816 267.453L162.816 267.453L160.563 267.441L160.563 267.441L160.105 267.441L160.105 267.441L160.098 268.789L160.098 268.789L160.559 268.793zM158.746 268.785L158.75 267.434L158.75 267.434L157.488 267.426L157.488 267.426L156.043 267.422L156.043 267.422L156.035 268.77L156.035 268.77L157.48 268.777zM154.68 268.766L154.688 267.414L154.688 267.414L154.41 267.414L154.41 267.414L151.98 267.402L151.98 267.402L151.973 268.75L151.973 268.75L154.406 268.762zM150.617 268.742L150.625 267.395L150.625 267.395L148.258 267.383L148.258 267.383L147.914 267.379L147.914 267.379L147.91 268.73L147.91 268.73L148.254 268.73zM146.555 268.723L146.563 267.375L146.563 267.375L145.184 267.367L145.184 267.367L143.852 267.359L143.852 267.359L143.844 268.711L143.844 268.711L145.176 268.719zM142.492 268.703L142.496 267.355L142.496 267.355L142.105 267.352L142.105 267.352L139.789 267.34L139.789 267.34L139.781 268.691L139.781 268.691L142.098 268.703zM138.426 268.684L138.434 267.336L138.434 267.336L135.953 267.32L135.953 267.32L135.727 267.32L135.727 267.32L135.719 268.672L135.719 268.672L135.945 268.672zM134.363 268.664L134.371 267.312L134.371 267.312L132.879 267.309L132.879 267.309L131.66 267.301L131.66 267.301L131.656 268.652L131.656 268.652L132.871 268.656zM130.301 268.645L130.309 267.293L130.309 267.293L129.801 267.293L129.801 267.293L127.598 267.281L127.598 267.281L127.59 268.633L127.59 268.633L129.793 268.641zM126.238 268.625L126.242 267.273L126.242 267.273L123.648 267.262L123.648 267.262L123.535 267.262L123.535 267.262L123.527 268.609L123.527 268.609L123.641 268.613zM122.172 268.605L122.18 267.254L122.18 267.254L120.574 267.246L120.574 267.246L119.473 267.242L119.473 267.242L119.465 268.59L119.465 268.59L120.566 268.598zM118.109 268.586L118.117 267.234L118.117 267.234L117.496 267.23L117.496 267.23L115.406 267.223L115.406 267.223L115.402 268.57L115.402 268.57L117.488 268.582zM114.047 268.566L114.055 267.215L114.055 267.215L111.344 267.203L111.344 267.203L111.336 268.551z" stroke="none" fill="#00963F" fill-rule="nonzero" />
		</g>
		<g clip-path="url(#66)" >
    <path id=""  transform="matrix(1 0 0 -1 0 545)"  d="M198.445 331.496L199.492 331.672C 199.551 331.25 199.715 330.945 199.988 330.711C 200.246 330.488 200.621 330.383 201.105 330.383C 201.586 330.383 201.938 330.477 202.176 330.676C 202.41 330.875 202.527 331.098 202.527 331.367C 202.527 331.602 202.422 331.789 202.223 331.918C 202.055 332.012 201.703 332.129 201.141 332.281C 200.363 332.469 199.836 332.633 199.539 332.773C 199.246 332.914 199.012 333.125 198.859 333.371C 198.719 333.605 198.633 333.898 198.633 334.191C 198.633 334.461 198.695 334.719 198.824 334.953C 198.953 335.187 199.117 335.387 199.34 335.539C 199.504 335.656 199.715 335.762 200.012 335.844C 200.293 335.926 200.586 335.961 200.914 335.961C 201.387 335.961 201.82 335.891 202.199 335.75C 202.563 335.621 202.82 335.434 203.008 335.187C 203.172 334.953 203.305 334.637 203.363 334.227L203.363 334.227L202.34 334.086C 202.293 334.402 202.152 334.66 201.926 334.836C 201.715 335.023 201.387 335.105 200.988 335.105C 200.504 335.105 200.164 335.023 199.965 334.871C 199.75 334.719 199.645 334.531 199.645 334.309C 199.645 334.18 199.691 334.062 199.773 333.945C 199.859 333.84 200 333.734 200.176 333.664C 200.281 333.629 200.586 333.535 201.105 333.406C 201.844 333.207 202.363 333.043 202.656 332.914C 202.961 332.785 203.184 332.609 203.352 332.375C 203.516 332.129 203.598 331.836 203.598 331.473C 203.598 331.133 203.504 330.805 203.293 330.488C 203.09 330.184 202.797 329.937 202.41 329.773C 202.02 329.609 201.598 329.527 201.105 329.527C 200.305 329.527 199.68 329.691 199.27 330.02C 198.836 330.359 198.574 330.852 198.445 331.496zM196.188 332.75C 195.813 332.598 195.234 332.469 194.473 332.363C 194.035 332.305 193.73 332.223 193.555 332.152C 193.379 332.07 193.238 331.965 193.133 331.812C 193.039 331.672 192.992 331.496 192.992 331.32C 192.992 331.039 193.098 330.816 193.32 330.617C 193.531 330.441 193.836 330.348 194.25 330.348C 194.648 330.348 195.012 330.43 195.32 330.605C 195.648 330.793 195.871 331.027 196.012 331.332C 196.129 331.566 196.188 331.918 196.188 332.375zM196.27 330.43C 195.883 330.102 195.508 329.867 195.152 329.727C 194.789 329.598 194.402 329.527 193.988 329.527C 193.32 329.527 192.789 329.691 192.414 330.02C 192.051 330.348 191.875 330.781 191.875 331.285C 191.875 331.59 191.945 331.871 192.074 332.117C 192.215 332.375 192.391 332.562 192.625 332.715C 192.848 332.867 193.098 332.973 193.379 333.066C 193.59 333.113 193.895 333.172 194.32 333.219C 195.164 333.312 195.789 333.43 196.188 333.57C 196.188 333.711 196.188 333.816 196.188 333.852C 196.188 334.273 196.094 334.578 195.895 334.742C 195.637 334.977 195.223 335.094 194.695 335.094C 194.203 335.094 193.836 335.012 193.602 334.836C 193.367 334.672 193.191 334.355 193.074 333.922L193.074 333.922L192.051 334.062C 192.145 334.508 192.297 334.859 192.508 335.117C 192.73 335.398 193.039 335.598 193.449 335.75C 193.848 335.891 194.32 335.961 194.859 335.961C 195.379 335.961 195.813 335.902 196.141 335.773C 196.484 335.656 196.719 335.504 196.871 335.316C 197.023 335.117 197.141 334.883 197.211 334.602C 197.246 334.414 197.258 334.098 197.258 333.629L197.258 333.629L197.258 332.246C 197.258 331.273 197.281 330.664 197.328 330.406C 197.363 330.148 197.445 329.891 197.578 329.656L197.578 329.656L196.484 329.656C 196.375 329.879 196.316 330.137 196.27 330.43zM186.371 333.336L189.828 333.336C 189.781 333.863 189.641 334.238 189.426 334.508C 189.098 334.906 188.664 335.105 188.121 335.105C 187.652 335.105 187.238 334.953 186.922 334.637C 186.582 334.309 186.406 333.875 186.371 333.336zM189.816 331.66L190.898 331.508C 190.734 330.887 190.414 330.395 189.957 330.055C 189.484 329.703 188.91 329.527 188.191 329.527C 187.277 329.527 186.559 329.797 186.039 330.359C 185.5 330.922 185.242 331.695 185.242 332.691C 185.242 333.723 185.5 334.543 186.039 335.105C 186.57 335.68 187.266 335.961 188.121 335.961C 188.957 335.961 189.617 335.691 190.145 335.117C 190.672 334.566 190.934 333.781 190.934 332.75C 190.934 332.691 190.934 332.598 190.934 332.48L190.934 332.48L186.313 332.48C 186.348 331.801 186.535 331.285 186.887 330.922C 187.227 330.559 187.664 330.383 188.191 330.383C 188.57 330.383 188.887 330.488 189.168 330.687C 189.438 330.898 189.664 331.215 189.816 331.66zM181.59 329.656L181.59 335.832L181.59 335.832L182.531 335.832L182.531 335.832L182.531 334.895C 182.777 335.328 183 335.621 183.199 335.75C 183.402 335.891 183.637 335.961 183.883 335.961C 184.234 335.961 184.59 335.855 184.965 335.633L184.965 335.633L184.59 334.672C 184.328 334.812 184.07 334.883 183.824 334.883C 183.602 334.883 183.379 334.812 183.199 334.684C 183.023 334.543 182.895 334.344 182.824 334.109C 182.707 333.734 182.637 333.324 182.637 332.879L182.637 332.879L182.637 329.656zM178.922 332.75C 178.543 332.598 177.969 332.469 177.203 332.363C 176.77 332.305 176.465 332.223 176.285 332.152C 176.109 332.07 175.969 331.965 175.863 331.812C 175.77 331.672 175.723 331.496 175.723 331.32C 175.723 331.039 175.828 330.816 176.051 330.617C 176.262 330.441 176.57 330.348 176.98 330.348C 177.379 330.348 177.746 330.43 178.051 330.605C 178.379 330.793 178.602 331.027 178.746 331.332C 178.863 331.566 178.922 331.918 178.922 332.375zM179.004 330.43C 178.613 330.102 178.238 329.867 177.887 329.727C 177.52 329.598 177.133 329.527 176.723 329.527C 176.051 329.527 175.523 329.691 175.145 330.02C 174.781 330.348 174.605 330.781 174.605 331.285C 174.605 331.59 174.676 331.871 174.805 332.117C 174.945 332.375 175.121 332.562 175.359 332.715C 175.582 332.867 175.828 332.973 176.109 333.066C 176.32 333.113 176.629 333.172 177.051 333.219C 177.898 333.312 178.52 333.43 178.922 333.57C 178.922 333.711 178.922 333.816 178.922 333.852C 178.922 334.273 178.828 334.578 178.625 334.742C 178.367 334.977 177.957 335.094 177.426 335.094C 176.934 335.094 176.57 335.012 176.332 334.836C 176.098 334.672 175.922 334.355 175.805 333.922L175.805 333.922L174.781 334.062C 174.875 334.508 175.027 334.859 175.238 335.117C 175.465 335.398 175.77 335.598 176.18 335.75C 176.582 335.891 177.051 335.961 177.594 335.961C 178.109 335.961 178.543 335.902 178.875 335.773C 179.215 335.656 179.449 335.504 179.602 335.316C 179.754 335.117 179.875 334.883 179.945 334.602C 179.98 334.414 179.992 334.098 179.992 333.629L179.992 333.629L179.992 332.246C 179.992 331.273 180.016 330.664 180.063 330.406C 180.098 330.148 180.18 329.891 180.309 329.656L180.309 329.656L179.215 329.656C 179.109 329.879 179.051 330.137 179.004 330.43zM170.594 330.594L170.738 329.668C 170.441 329.609 170.184 329.574 169.949 329.574C 169.57 329.574 169.266 329.633 169.066 329.75C 168.855 329.867 168.715 330.043 168.621 330.23C 168.539 330.43 168.492 330.84 168.492 331.461L168.492 331.461L168.492 335.023L168.492 335.023L167.715 335.023L167.715 335.023L167.715 335.832L167.715 335.832L168.492 335.832L168.492 335.832L168.492 337.355L168.492 337.355L169.547 337.988L169.547 337.988L169.547 335.832L169.547 335.832L170.594 335.832L170.594 335.832L170.594 335.023L170.594 335.023L169.547 335.023L169.547 335.023L169.547 331.402C 169.547 331.109 169.57 330.922 169.609 330.84C 169.645 330.734 169.703 330.676 169.785 330.617C 169.867 330.57 169.984 330.547 170.148 330.547C 170.254 330.547 170.406 330.559 170.594 330.594zM161.672 329.656L161.672 335.832L161.672 335.832L162.609 335.832L162.609 335.832L162.609 334.953C 163.07 335.633 163.727 335.961 164.586 335.961C 164.949 335.961 165.305 335.891 165.609 335.762C 165.926 335.633 166.16 335.457 166.316 335.246C 166.469 335.023 166.586 334.766 166.645 334.461C 166.68 334.273 166.703 333.934 166.703 333.453L166.703 333.453L166.703 329.656L166.703 329.656L165.645 329.656L165.645 329.656L165.645 333.406C 165.645 333.84 165.609 334.156 165.527 334.367C 165.445 334.578 165.305 334.754 165.105 334.871C 164.879 335 164.645 335.059 164.363 335.059C 163.918 335.059 163.539 334.918 163.211 334.637C 162.895 334.355 162.715 333.828 162.715 333.031L162.715 333.031L162.715 329.656zM158.988 332.75C 158.613 332.598 158.035 332.469 157.273 332.363C 156.836 332.305 156.531 332.223 156.355 332.152C 156.18 332.07 156.039 331.965 155.934 331.812C 155.836 331.672 155.789 331.496 155.789 331.32C 155.789 331.039 155.895 330.816 156.121 330.617C 156.332 330.441 156.637 330.348 157.051 330.348C 157.449 330.348 157.813 330.43 158.117 330.605C 158.449 330.793 158.672 331.027 158.813 331.332C 158.93 331.566 158.988 331.918 158.988 332.375zM159.07 330.43C 158.684 330.102 158.309 329.867 157.953 329.727C 157.59 329.598 157.203 329.527 156.789 329.527C 156.121 329.527 155.59 329.691 155.215 330.02C 154.852 330.348 154.672 330.781 154.672 331.285C 154.672 331.59 154.742 331.871 154.875 332.117C 155.016 332.375 155.191 332.562 155.426 332.715C 155.648 332.867 155.895 332.973 156.18 333.066C 156.391 333.113 156.695 333.172 157.121 333.219C 157.965 333.312 158.59 333.43 158.988 333.57C 158.988 333.711 158.988 333.816 158.988 333.852C 158.988 334.273 158.895 334.578 158.695 334.742C 158.438 334.977 158.023 335.094 157.496 335.094C 157 335.094 156.637 335.012 156.402 334.836C 156.168 334.672 155.992 334.355 155.871 333.922L155.871 333.922L154.852 334.062C 154.945 334.508 155.098 334.859 155.309 335.117C 155.531 335.398 155.836 335.598 156.25 335.75C 156.648 335.891 157.121 335.961 157.66 335.961C 158.176 335.961 158.613 335.902 158.941 335.773C 159.281 335.656 159.52 335.504 159.672 335.316C 159.824 335.117 159.941 334.883 160.012 334.602C 160.047 334.414 160.059 334.098 160.059 333.629L160.059 333.629L160.059 332.246C 160.059 331.273 160.082 330.664 160.129 330.406C 160.164 330.148 160.246 329.891 160.375 329.656L160.375 329.656L159.281 329.656C 159.176 329.879 159.117 330.137 159.07 330.43zM150.742 329.656L148.402 335.832L148.402 335.832L149.531 335.832L149.531 335.832L150.848 332.129C 151 331.742 151.133 331.32 151.262 330.898C 151.344 331.215 151.473 331.613 151.648 332.059L151.648 332.059L153.023 335.832L153.023 335.832L154.105 335.832L154.105 335.832L151.766 329.656zM143.195 333.336L146.652 333.336C 146.605 333.863 146.461 334.238 146.25 334.508C 145.922 334.906 145.488 335.105 144.945 335.105C 144.477 335.105 144.063 334.953 143.746 334.637C 143.406 334.309 143.23 333.875 143.195 333.336zM146.641 331.66L147.723 331.508C 147.555 330.887 147.238 330.395 146.781 330.055C 146.309 329.703 145.734 329.527 145.016 329.527C 144.098 329.527 143.383 329.797 142.863 330.359C 142.324 330.922 142.066 331.695 142.066 332.691C 142.066 333.723 142.324 334.543 142.863 335.105C 143.395 335.68 144.086 335.961 144.945 335.961C 145.781 335.961 146.438 335.691 146.969 335.117C 147.496 334.566 147.758 333.781 147.758 332.75C 147.758 332.691 147.758 332.598 147.758 332.48L147.758 332.48L143.137 332.48C 143.172 331.801 143.359 331.285 143.711 330.922C 144.051 330.559 144.488 330.383 145.016 330.383C 145.395 330.383 145.711 330.488 145.992 330.687C 146.262 330.898 146.484 331.215 146.641 331.66zM139.727 329.656L139.727 338.176L139.727 338.176L140.773 338.176L140.773 338.176L140.773 329.656zM133.895 333.336L137.352 333.336C 137.305 333.863 137.164 334.238 136.953 334.508C 136.625 334.906 136.188 335.105 135.648 335.105C 135.176 335.105 134.766 334.953 134.449 334.637C 134.105 334.309 133.93 333.875 133.895 333.336zM137.34 331.66L138.422 331.508C 138.258 330.887 137.941 330.395 137.48 330.055C 137.012 329.703 136.434 329.527 135.719 329.527C 134.801 329.527 134.082 329.797 133.566 330.359C 133.023 330.922 132.766 331.695 132.766 332.691C 132.766 333.723 133.023 334.543 133.566 335.105C 134.094 335.68 134.789 335.961 135.648 335.961C 136.48 335.961 137.141 335.691 137.672 335.117C 138.199 334.566 138.457 333.781 138.457 332.75C 138.457 332.691 138.457 332.598 138.457 332.48L138.457 332.48L133.836 332.48C 133.871 331.801 134.059 331.285 134.414 330.922C 134.754 330.559 135.188 330.383 135.719 330.383C 136.094 330.383 136.41 330.488 136.695 330.687C 136.965 330.898 137.188 331.215 137.34 331.66zM125.773 334.414L128.195 334.414C 128.723 334.414 129.113 334.473 129.418 334.59C 129.699 334.684 129.922 334.859 130.078 335.094C 130.23 335.328 130.301 335.586 130.301 335.855C 130.301 336.266 130.16 336.594 129.852 336.852C 129.57 337.109 129.102 337.238 128.465 337.238L128.465 337.238L125.773 337.238zM124.633 329.656L124.633 338.176L124.633 338.176L128.418 338.176C 129.184 338.176 129.77 338.105 130.172 337.953C 130.559 337.801 130.887 337.531 131.113 337.145C 131.348 336.758 131.465 336.324 131.465 335.855C 131.465 335.258 131.277 334.742 130.887 334.32C 130.488 333.922 129.875 333.652 129.066 333.535C 129.371 333.395 129.594 333.254 129.746 333.113C 130.078 332.809 130.395 332.434 130.676 331.977L130.676 331.977L132.156 329.656L132.156 329.656L130.746 329.656L130.746 329.656L129.617 331.426C 129.277 331.941 129.02 332.34 128.805 332.609C 128.594 332.879 128.395 333.078 128.23 333.184C 128.066 333.289 127.891 333.359 127.703 333.406C 127.582 333.43 127.371 333.441 127.09 333.441L127.09 333.441L125.773 333.441L125.773 333.441L125.773 329.656z" stroke="none" fill="#E63414" fill-rule="nonzero" />
    <path id=""  transform="matrix(1 0 0 -1 0 545)"  d="M197.121 318.187L198.168 318.363C 198.227 317.941 198.391 317.637 198.66 317.402C 198.918 317.18 199.297 317.074 199.777 317.074C 200.262 317.074 200.613 317.168 200.848 317.367C 201.082 317.566 201.199 317.789 201.199 318.059C 201.199 318.293 201.094 318.48 200.895 318.609C 200.73 318.703 200.379 318.82 199.813 318.973C 199.039 319.16 198.508 319.324 198.215 319.465C 197.922 319.605 197.684 319.816 197.531 320.062C 197.391 320.297 197.309 320.59 197.309 320.883C 197.309 321.152 197.367 321.41 197.496 321.645C 197.625 321.879 197.789 322.078 198.016 322.23C 198.18 322.348 198.391 322.453 198.684 322.535C 198.969 322.617 199.262 322.652 199.59 322.652C 200.059 322.652 200.496 322.582 200.871 322.441C 201.238 322.312 201.496 322.125 201.684 321.879C 201.848 321.645 201.977 321.328 202.035 320.918L202.035 320.918L201.012 320.777C 200.965 321.094 200.824 321.352 200.602 321.527C 200.391 321.715 200.059 321.797 199.66 321.797C 199.18 321.797 198.836 321.715 198.637 321.562C 198.426 321.41 198.32 321.223 198.32 321C 198.32 320.871 198.367 320.754 198.449 320.637C 198.531 320.531 198.672 320.426 198.848 320.355C 198.957 320.32 199.262 320.227 199.777 320.098C 200.52 319.898 201.035 319.734 201.332 319.605C 201.637 319.477 201.859 319.301 202.023 319.066C 202.188 318.82 202.27 318.527 202.27 318.164C 202.27 317.824 202.176 317.496 201.965 317.18C 201.766 316.875 201.473 316.629 201.082 316.465C 200.695 316.301 200.273 316.219 199.777 316.219C 198.98 316.219 198.355 316.383 197.945 316.711C 197.508 317.051 197.25 317.543 197.121 318.187zM190.898 316.348L190.898 322.523L190.898 322.523L191.84 322.523L191.84 322.523L191.84 321.645C 192.301 322.324 192.957 322.652 193.816 322.652C 194.18 322.652 194.535 322.582 194.84 322.453C 195.156 322.324 195.391 322.148 195.547 321.937C 195.699 321.715 195.816 321.457 195.875 321.152C 195.91 320.965 195.934 320.625 195.934 320.145L195.934 320.145L195.934 316.348L195.934 316.348L194.875 316.348L194.875 316.348L194.875 320.098C 194.875 320.531 194.84 320.848 194.758 321.059C 194.676 321.27 194.535 321.445 194.332 321.562C 194.109 321.691 193.875 321.75 193.594 321.75C 193.145 321.75 192.77 321.609 192.441 321.328C 192.125 321.047 191.945 320.52 191.945 319.723L191.945 319.723L191.945 316.348zM188.219 319.441C 187.844 319.289 187.266 319.16 186.504 319.055C 186.066 318.996 185.762 318.914 185.586 318.844C 185.41 318.762 185.27 318.656 185.16 318.504C 185.066 318.363 185.02 318.187 185.02 318.012C 185.02 317.73 185.125 317.508 185.352 317.309C 185.563 317.133 185.867 317.039 186.277 317.039C 186.68 317.039 187.043 317.121 187.348 317.297C 187.68 317.484 187.902 317.719 188.043 318.023C 188.16 318.258 188.219 318.609 188.219 319.066zM188.301 317.121C 187.914 316.793 187.535 316.559 187.184 316.418C 186.82 316.289 186.434 316.219 186.02 316.219C 185.352 316.219 184.82 316.383 184.445 316.711C 184.078 317.039 183.902 317.473 183.902 317.977C 183.902 318.281 183.973 318.562 184.102 318.809C 184.246 319.066 184.422 319.254 184.656 319.406C 184.879 319.559 185.125 319.664 185.41 319.758C 185.621 319.805 185.926 319.863 186.348 319.91C 187.195 320.004 187.82 320.121 188.219 320.262C 188.219 320.402 188.219 320.508 188.219 320.543C 188.219 320.965 188.125 321.27 187.926 321.434C 187.668 321.668 187.254 321.785 186.727 321.785C 186.23 321.785 185.867 321.703 185.633 321.527C 185.398 321.363 185.219 321.047 185.102 320.613L185.102 320.613L184.078 320.754C 184.176 321.199 184.328 321.551 184.539 321.809C 184.762 322.09 185.066 322.289 185.48 322.441C 185.879 322.582 186.348 322.652 186.891 322.652C 187.406 322.652 187.844 322.594 188.172 322.465C 188.512 322.348 188.75 322.195 188.902 322.008C 189.055 321.809 189.172 321.574 189.242 321.293C 189.277 321.105 189.289 320.789 189.289 320.32L189.289 320.32L189.289 318.937C 189.289 317.965 189.313 317.355 189.359 317.098C 189.395 316.84 189.477 316.582 189.605 316.348L189.605 316.348L188.512 316.348C 188.406 316.57 188.348 316.828 188.301 317.121zM181.602 316.348L181.602 322.523L181.602 322.523L182.648 322.523L182.648 322.523L182.648 316.348zM181.602 323.684L181.602 324.867L181.602 324.867L182.648 324.867L182.648 324.867L182.648 323.684zM177.613 316.348L177.613 322.523L177.613 322.523L178.555 322.523L178.555 322.523L178.555 321.586C 178.801 322.02 179.023 322.312 179.223 322.441C 179.422 322.582 179.66 322.652 179.906 322.652C 180.258 322.652 180.609 322.547 180.988 322.324L180.988 322.324L180.609 321.363C 180.352 321.504 180.094 321.574 179.848 321.574C 179.625 321.574 179.398 321.504 179.223 321.375C 179.047 321.234 178.918 321.035 178.848 320.801C 178.73 320.426 178.66 320.016 178.66 319.57L178.66 319.57L178.66 316.348zM176.582 317.285L176.723 316.359C 176.43 316.301 176.168 316.266 175.934 316.266C 175.559 316.266 175.25 316.324 175.051 316.441C 174.84 316.559 174.699 316.734 174.605 316.922C 174.523 317.121 174.477 317.531 174.477 318.152L174.477 318.152L174.477 321.715L174.477 321.715L173.699 321.715L173.699 321.715L173.699 322.523L173.699 322.523L174.477 322.523L174.477 322.523L174.477 324.047L174.477 324.047L175.535 324.68L175.535 324.68L175.535 322.523L175.535 322.523L176.582 322.523L176.582 322.523L176.582 321.715L176.582 321.715L175.535 321.715L175.535 321.715L175.535 318.094C 175.535 317.801 175.559 317.613 175.594 317.531C 175.629 317.426 175.688 317.367 175.77 317.309C 175.852 317.262 175.969 317.238 176.133 317.238C 176.238 317.238 176.391 317.25 176.582 317.285zM167.902 318.187L168.949 318.363C 169.008 317.941 169.172 317.637 169.441 317.402C 169.703 317.18 170.078 317.074 170.559 317.074C 171.043 317.074 171.395 317.168 171.629 317.367C 171.863 317.566 171.984 317.789 171.984 318.059C 171.984 318.293 171.879 318.48 171.676 318.609C 171.512 318.703 171.16 318.82 170.594 318.973C 169.82 319.16 169.289 319.324 168.996 319.465C 168.703 319.605 168.469 319.816 168.313 320.062C 168.172 320.297 168.09 320.59 168.09 320.883C 168.09 321.152 168.148 321.41 168.277 321.645C 168.406 321.879 168.574 322.078 168.797 322.23C 168.961 322.348 169.172 322.453 169.465 322.535C 169.75 322.617 170.043 322.652 170.371 322.652C 170.844 322.652 171.277 322.582 171.652 322.441C 172.02 322.312 172.277 322.125 172.465 321.879C 172.629 321.645 172.758 321.328 172.816 320.918L172.816 320.918L171.793 320.777C 171.746 321.094 171.605 321.352 171.383 321.527C 171.172 321.715 170.844 321.797 170.441 321.797C 169.961 321.797 169.621 321.715 169.418 321.562C 169.207 321.41 169.102 321.223 169.102 321C 169.102 320.871 169.148 320.754 169.23 320.637C 169.313 320.531 169.453 320.426 169.633 320.355C 169.738 320.32 170.043 320.227 170.559 320.098C 171.301 319.898 171.816 319.734 172.113 319.605C 172.418 319.477 172.641 319.301 172.805 319.066C 172.969 318.82 173.055 318.527 173.055 318.164C 173.055 317.824 172.957 317.496 172.746 317.18C 172.547 316.875 172.254 316.629 171.863 316.465C 171.477 316.301 171.055 316.219 170.559 316.219C 169.762 316.219 169.137 316.383 168.727 316.711C 168.289 317.051 168.031 317.543 167.902 318.187zM162.469 320.027L165.926 320.027C 165.879 320.555 165.738 320.93 165.527 321.199C 165.199 321.598 164.762 321.797 164.223 321.797C 163.75 321.797 163.34 321.645 163.023 321.328C 162.68 321 162.504 320.566 162.469 320.027zM165.914 318.352L166.996 318.199C 166.832 317.578 166.516 317.086 166.055 316.746C 165.586 316.395 165.008 316.219 164.293 316.219C 163.375 316.219 162.656 316.488 162.141 317.051C 161.598 317.613 161.34 318.387 161.34 319.383C 161.34 320.414 161.598 321.234 162.141 321.797C 162.668 322.371 163.363 322.652 164.223 322.652C 165.059 322.652 165.715 322.383 166.246 321.809C 166.773 321.258 167.031 320.473 167.031 319.441C 167.031 319.383 167.031 319.289 167.031 319.172L167.031 319.172L162.41 319.172C 162.445 318.492 162.633 317.977 162.988 317.613C 163.328 317.25 163.762 317.074 164.293 317.074C 164.668 317.074 164.984 317.18 165.27 317.379C 165.539 317.59 165.762 317.906 165.914 318.352zM155.719 319.43C 155.719 318.645 155.883 318.047 156.227 317.66C 156.555 317.262 156.953 317.074 157.414 317.074C 157.871 317.074 158.262 317.262 158.59 317.637C 158.906 318 159.059 318.574 159.059 319.348C 159.059 320.18 158.895 320.801 158.578 321.199C 158.25 321.598 157.848 321.785 157.367 321.785C 156.895 321.785 156.508 321.598 156.191 321.223C 155.871 320.848 155.719 320.238 155.719 319.43zM159.035 316.348L159.035 317.133C 158.648 316.523 158.07 316.219 157.309 316.219C 156.813 316.219 156.367 316.348 155.945 316.617C 155.543 316.898 155.215 317.273 154.992 317.754C 154.77 318.246 154.648 318.797 154.648 319.43C 154.648 320.051 154.754 320.613 154.957 321.105C 155.156 321.609 155.473 321.996 155.883 322.254C 156.297 322.523 156.754 322.652 157.262 322.652C 157.637 322.652 157.965 322.57 158.262 322.418C 158.555 322.266 158.789 322.066 158.965 321.809L158.965 321.809L158.965 324.867L158.965 324.867L160.023 324.867L160.023 324.867L160.023 316.348zM149.18 320.027L152.637 320.027C 152.59 320.555 152.449 320.93 152.238 321.199C 151.906 321.598 151.473 321.797 150.93 321.797C 150.461 321.797 150.051 321.645 149.73 321.328C 149.391 321 149.215 320.566 149.18 320.027zM152.625 318.352L153.707 318.199C 153.543 317.578 153.223 317.086 152.766 316.746C 152.297 316.395 151.719 316.219 151 316.219C 150.086 316.219 149.367 316.488 148.852 317.051C 148.309 317.613 148.051 318.387 148.051 319.383C 148.051 320.414 148.309 321.234 148.852 321.797C 149.379 322.371 150.074 322.652 150.93 322.652C 151.766 322.652 152.426 322.383 152.953 321.809C 153.484 321.258 153.742 320.473 153.742 319.441C 153.742 319.383 153.742 319.289 153.742 319.172L153.742 319.172L149.121 319.172C 149.156 318.492 149.344 317.977 149.695 317.613C 150.039 317.25 150.473 317.074 151 317.074C 151.379 317.074 151.695 317.18 151.977 317.379C 152.25 317.59 152.473 317.906 152.625 318.352zM142.699 319.395C 142.699 318.609 142.875 318.023 143.184 317.648C 143.5 317.262 143.898 317.074 144.359 317.074C 144.816 317.074 145.227 317.273 145.547 317.672C 145.887 318.059 146.051 318.668 146.051 319.488C 146.051 320.273 145.898 320.859 145.559 321.258C 145.238 321.645 144.852 321.832 144.406 321.832C 143.957 321.832 143.559 321.633 143.219 321.223C 142.875 320.801 142.699 320.191 142.699 319.395zM141.746 313.98L141.746 322.523L141.746 322.523L142.699 322.523L142.699 322.523L142.699 321.715C 142.934 322.031 143.184 322.266 143.465 322.418C 143.758 322.57 144.098 322.652 144.5 322.652C 145.027 322.652 145.5 322.523 145.91 322.254C 146.297 321.984 146.617 321.598 146.816 321.105C 147.016 320.613 147.121 320.074 147.121 319.477C 147.121 318.855 147.016 318.293 146.793 317.777C 146.57 317.273 146.227 316.898 145.793 316.617C 145.355 316.348 144.898 316.219 144.43 316.219C 144.074 316.219 143.77 316.289 143.477 316.441C 143.207 316.582 142.98 316.77 142.793 316.992L142.793 316.992L142.793 313.98zM134.438 316.348L134.438 322.523L134.438 322.523L135.375 322.523L135.375 322.523L135.375 321.586C 135.625 322.02 135.848 322.312 136.047 322.441C 136.246 322.582 136.48 322.652 136.73 322.652C 137.082 322.652 137.434 322.547 137.813 322.324L137.813 322.324L137.434 321.363C 137.176 321.504 136.918 321.574 136.672 321.574C 136.445 321.574 136.223 321.504 136.047 321.375C 135.871 321.234 135.742 321.035 135.672 320.801C 135.555 320.426 135.484 320.016 135.484 319.57L135.484 319.57L135.484 316.348zM128.484 319.43C 128.484 318.645 128.66 318.047 129.012 317.672C 129.352 317.273 129.789 317.074 130.305 317.074C 130.836 317.074 131.27 317.273 131.621 317.672C 131.977 318.059 132.141 318.656 132.141 319.465C 132.141 320.227 131.965 320.812 131.609 321.211C 131.27 321.598 130.836 321.785 130.305 321.785C 129.789 321.785 129.352 321.598 129.012 321.211C 128.66 320.812 128.484 320.227 128.484 319.43zM127.414 319.441C 127.414 320.578 127.73 321.422 128.367 321.984C 128.906 322.43 129.543 322.652 130.305 322.652C 131.176 322.652 131.859 322.383 132.398 321.82C 132.941 321.281 133.211 320.508 133.211 319.523C 133.211 318.727 133.094 318.105 132.859 317.66C 132.621 317.203 132.27 316.852 131.813 316.594C 131.352 316.336 130.859 316.219 130.305 316.219C 129.449 316.219 128.742 316.488 128.211 317.051C 127.672 317.602 127.414 318.398 127.414 319.441zM124.727 316.348L124.727 321.715L124.727 321.715L123.797 321.715L123.797 321.715L123.797 322.523L123.797 322.523L124.727 322.523L124.727 322.523L124.727 323.18C 124.727 323.602 124.762 323.906 124.844 324.105C 124.949 324.375 125.113 324.598 125.371 324.762C 125.633 324.937 125.984 325.02 126.441 325.02C 126.738 325.02 127.066 324.984 127.418 324.914L127.418 324.914L127.266 323.988C 127.043 324.023 126.844 324.047 126.645 324.047C 126.336 324.047 126.102 323.977 125.973 323.848C 125.844 323.719 125.773 323.473 125.773 323.098L125.773 323.098L125.773 322.523L125.773 322.523L126.973 322.523L126.973 322.523L126.973 321.715L126.973 321.715L125.785 321.715L125.785 321.715L125.785 316.348z" stroke="none" fill="#E63414" fill-rule="nonzero" />
		</g>
		<g clip-path="url(#67)" >
    <path id=""  transform="matrix(1 0 0 -1 0 545)"  d="M120.184 295.371L118.805 294.867L118.805 294.867L119.113 296.297zM119.473 295.84L134.563 313.141L134.563 313.141L134.77 312.961L134.77 312.961L119.68 295.66z" stroke="none" fill="#E3000F" fill-rule="nonzero" />
		</g>
		<g clip-path="url(#68)" >
    <path id=""  transform="matrix(1 0 0 -1 0 545)"  d="M134.711 313.176L175.504 298.75L175.504 298.75L175.414 298.496L175.414 298.496L134.621 312.922zM175.117 297.992L175.59 299.324L175.59 299.324L176.566 298.23z" stroke="none" fill="#E3000F" fill-rule="nonzero" />
		</g>
		<g clip-path="url(#69)" >
    <path id=""  transform="matrix(1 0 0 -1 0 545)"  d="M203.66 236.0199L203.66 229.5433" stroke="#E3000F" stroke-width="0.2709" stroke-linejoin="miter" fill="none" />
		</g>
		<g clip-path="url(#70)" >
    <path id=""  transform="matrix(1 0 0 -1 0 545)"  d="M176.566 236.0199L176.566 229.5433" stroke="#E3000F" stroke-width="0.2709" stroke-linejoin="miter" fill="none" />
		</g>
		<g clip-path="url(#71)" >
    <path id=""  transform="matrix(1 0 0 -1 0 545)"  d="M200.816 230.27L200.816 231.789L200.816 231.789L203.66 231.027zM202.238 230.895L177.988 230.895L177.988 230.895L177.988 231.164L177.988 231.164L202.238 231.164zM179.41 230.27L176.566 231.027L176.566 231.027L179.41 231.789z" stroke="none" fill="#E3000F" fill-rule="nonzero" />
		</g>
		<g clip-path="url(#72)" >
    <path id=""  transform="matrix(1 0 0 -1 0 545)"  d="M196.547 221.437C 196.547 219.75 196.746 218.637 197.137 218.086C 197.535 217.523 198.016 217.254 198.594 217.254C 199.168 217.254 199.652 217.547 200.063 218.086C 200.441 218.637 200.652 219.773 200.652 221.437C 200.652 223.125 200.441 224.238 200.063 224.801C 199.676 225.352 199.168 225.621 198.582 225.621C 198.004 225.621 197.535 225.387 197.195 224.895C 196.758 224.273 196.547 223.125 196.547 221.437zM195.254 221.437C 195.254 222.656 195.383 223.629 195.629 224.367C 195.891 225.117 196.242 225.68 196.746 226.066C 197.23 226.465 197.852 226.664 198.594 226.664C 199.145 226.664 199.629 226.559 200.039 226.336C 200.465 226.113 200.805 225.797 201.074 225.387C 201.344 224.965 201.547 224.461 201.711 223.875C 201.863 223.266 201.934 222.457 201.934 221.437C 201.934 220.242 201.805 219.27 201.57 218.543C 201.32 217.793 200.945 217.23 200.465 216.832C 199.969 216.422 199.348 216.223 198.594 216.223C 197.605 216.223 196.828 216.586 196.277 217.289C 195.594 218.145 195.254 219.527 195.254 221.437zM188.57 221.437C 188.57 219.75 188.773 218.637 189.16 218.086C 189.559 217.523 190.043 217.254 190.617 217.254C 191.195 217.254 191.676 217.547 192.086 218.086C 192.465 218.637 192.676 219.773 192.676 221.437C 192.676 223.125 192.465 224.238 192.086 224.801C 191.699 225.352 191.195 225.621 190.605 225.621C 190.031 225.621 189.559 225.387 189.219 224.895C 188.785 224.273 188.57 223.125 188.57 221.437zM187.277 221.437C 187.277 222.656 187.406 223.629 187.656 224.367C 187.914 225.117 188.266 225.68 188.773 226.066C 189.254 226.465 189.879 226.664 190.617 226.664C 191.172 226.664 191.652 226.559 192.063 226.336C 192.488 226.113 192.828 225.797 193.098 225.387C 193.371 224.965 193.57 224.461 193.734 223.875C 193.887 223.266 193.957 222.457 193.957 221.437C 193.957 220.242 193.828 219.27 193.594 218.543C 193.348 217.793 192.969 217.23 192.488 216.832C 191.992 216.422 191.371 216.223 190.617 216.223C 189.629 216.223 188.855 216.586 188.301 217.289C 187.621 218.145 187.277 219.527 187.277 221.437zM185.914 217.594L185.914 216.398L185.914 216.398L179.117 216.398C 179.105 216.703 179.164 216.996 179.27 217.266C 179.445 217.723 179.73 218.18 180.105 218.625C 180.492 219.082 181.047 219.598 181.762 220.172C 182.867 221.086 183.621 221.812 184.02 222.34C 184.41 222.867 184.609 223.383 184.609 223.852C 184.609 224.355 184.445 224.766 184.078 225.117C 183.727 225.457 183.246 225.621 182.68 225.621C 182.059 225.621 181.574 225.445 181.211 225.082C 180.848 224.73 180.656 224.227 180.656 223.582L180.656 223.582L179.363 223.711C 179.445 224.672 179.801 225.41 180.363 225.914C 180.941 226.418 181.727 226.664 182.703 226.664C 183.68 226.664 184.469 226.395 185.043 225.855C 185.621 225.316 185.902 224.625 185.902 223.828C 185.902 223.418 185.82 223.008 185.645 222.621C 185.492 222.223 185.195 221.812 184.809 221.367C 184.422 220.922 183.785 220.324 182.879 219.574C 182.117 218.941 181.633 218.508 181.41 218.285C 181.199 218.051 181.012 217.828 180.883 217.594z" stroke="none" fill="#E6330F" fill-rule="nonzero" />
		</g>
		<g clip-path="url(#73)" >
    <path id=""  transform="matrix(1 0 0 -1 0 545)"  d="M205.152 298.2305L220.633 298.2305" stroke="#E3000F" stroke-width="0.2709" stroke-linejoin="miter" fill="none" />
		</g>
		<g clip-path="url(#74)" >
    <path id=""  transform="matrix(1 0 0 -1 0 545)"  d="M205.152 237.508L220.633 237.508" stroke="#E3000F" stroke-width="0.2709" stroke-linejoin="miter" fill="none" />
		</g>
		<g clip-path="url(#75)" >
    <path id=""  transform="matrix(1 0 0 -1 0 545)"  d="M219.906 295.395L218.383 295.395L218.383 295.395L219.145 298.23zM219.281 296.812L219.281 238.922L219.281 238.922L219.008 238.922L219.008 238.922L219.008 296.812zM219.906 240.34L219.145 237.508L219.145 237.508L218.383 240.34z" stroke="none" fill="#E3000F" fill-rule="nonzero" />
		</g>
		<g clip-path="url(#76)" >
    <path id=""  transform="matrix(1 0 0 -1 0 545)"  d="M228.766 274.16C 230.461 274.16 231.578 274.359 232.129 274.746C 232.695 275.145 232.965 275.625 232.965 276.199C 232.965 276.773 232.672 277.254 232.129 277.664C 231.578 278.039 230.438 278.25 228.766 278.25C 227.074 278.25 225.957 278.039 225.391 277.664C 224.84 277.277 224.57 276.773 224.57 276.187C 224.57 275.613 224.805 275.145 225.297 274.805C 225.922 274.371 227.074 274.16 228.766 274.16zM228.766 272.871C 227.543 272.871 226.566 273 225.828 273.246C 225.074 273.504 224.512 273.855 224.121 274.359C 223.723 274.84 223.523 275.461 223.523 276.199C 223.523 276.75 223.629 277.23 223.852 277.641C 224.074 278.062 224.395 278.402 224.805 278.672C 225.227 278.941 225.734 279.141 226.32 279.305C 226.934 279.457 227.746 279.527 228.766 279.527C 229.965 279.527 230.941 279.398 231.672 279.164C 232.426 278.918 232.988 278.543 233.387 278.062C 233.801 277.57 234 276.949 234 276.199C 234 275.215 233.637 274.441 232.93 273.891C 232.07 273.211 230.684 272.871 228.766 272.871zM231.129 264.926L231.023 266.238C 231.672 266.344 232.141 266.566 232.473 266.918C 232.801 267.27 232.965 267.703 232.965 268.219C 232.965 268.828 232.73 269.332 232.27 269.754C 231.813 270.176 231.215 270.375 230.461 270.375C 229.742 270.375 229.168 270.176 228.742 269.766C 228.332 269.391 228.133 268.852 228.133 268.195C 228.133 267.785 228.215 267.434 228.402 267.094C 228.59 266.789 228.836 266.531 229.133 266.344L229.133 266.344L228.969 265.16L228.969 265.16L223.688 266.145L223.688 266.145L223.688 271.219L223.688 271.219L224.898 271.219L224.898 271.219L224.898 267.141L224.898 267.141L227.66 266.602C 227.227 267.211 227.016 267.855 227.016 268.523C 227.016 269.414 227.332 270.176 227.945 270.785C 228.566 271.395 229.367 271.699 230.344 271.699C 231.273 271.699 232.07 271.43 232.754 270.902C 233.578 270.246 234 269.344 234 268.219C 234 267.281 233.742 266.531 233.211 265.945C 232.695 265.348 231.988 265.02 231.129 264.926zM230.215 260.996L225.594 260.996L225.594 260.996L230.215 257.797zM233.824 260.996L231.379 260.996L231.379 260.996L231.379 256.555L231.379 256.555L230.215 256.555L230.215 256.555L223.559 261.219L223.559 261.219L223.559 262.25L223.559 262.25L230.215 262.25L230.215 262.25L230.215 263.633L230.215 263.633L231.379 263.633L231.379 263.633L231.379 262.25L231.379 262.25L233.824 262.25z" stroke="none" fill="#E6330F" fill-rule="nonzero" />
		</g>
		<g clip-path="url(#77)" >
    <path id=""  transform="matrix(1 0 0 -1 0 545)"  d="M118.699 239.1874L118.699 233.9069" stroke="#E3000F" stroke-width="0.2709" stroke-linejoin="miter" fill="none" />
		</g>
		<g clip-path="url(#78)" >
    <path id=""  transform="matrix(1 0 0 -1 0 545)"  d="M91.605 239.1874L91.605 233.9069" stroke="#E3000F" stroke-width="0.2709" stroke-linejoin="miter" fill="none" />
		</g>
		<g clip-path="url(#79)" >
    <path id=""  transform="matrix(1 0 0 -1 0 545)"  d="M115.855 234.633L115.855 236.152L115.855 236.152L118.699 235.391zM117.277 235.258L93.027 235.258L93.027 235.258L93.027 235.527L93.027 235.527L117.277 235.527zM94.449 234.633L91.605 235.391L91.605 235.391L94.449 236.152z" stroke="none" fill="#E3000F" fill-rule="nonzero" />
		</g>
		<g clip-path="url(#80)" >
    <path id=""  transform="matrix(1 0 0 -1 0 545)"  d="M111.582 225.801C 111.582 224.113 111.781 223 112.172 222.449C 112.57 221.887 113.051 221.617 113.629 221.617C 114.203 221.617 114.688 221.91 115.098 222.449C 115.477 223 115.688 224.137 115.688 225.801C 115.688 227.488 115.477 228.602 115.098 229.164C 114.711 229.715 114.203 229.984 113.617 229.984C 113.039 229.984 112.57 229.75 112.23 229.258C 111.793 228.637 111.582 227.488 111.582 225.801zM110.289 225.801C 110.289 227.02 110.418 227.992 110.664 228.73C 110.926 229.48 111.277 230.043 111.781 230.43C 112.266 230.828 112.887 231.027 113.629 231.027C 114.18 231.027 114.664 230.922 115.074 230.699C 115.5 230.477 115.84 230.16 116.109 229.75C 116.379 229.328 116.582 228.824 116.746 228.238C 116.898 227.629 116.969 226.82 116.969 225.801C 116.969 224.605 116.84 223.633 116.605 222.906C 116.355 222.156 115.98 221.594 115.5 221.195C 115.004 220.785 114.383 220.586 113.629 220.586C 112.641 220.586 111.863 220.949 111.313 221.652C 110.629 222.508 110.289 223.891 110.289 225.801zM103.609 225.801C 103.609 224.113 103.809 223 104.199 222.449C 104.598 221.887 105.078 221.617 105.656 221.617C 106.23 221.617 106.715 221.91 107.125 222.449C 107.504 223 107.715 224.137 107.715 225.801C 107.715 227.488 107.504 228.602 107.125 229.164C 106.738 229.715 106.23 229.984 105.645 229.984C 105.066 229.984 104.598 229.75 104.258 229.258C 103.82 228.637 103.609 227.488 103.609 225.801zM102.316 225.801C 102.316 227.02 102.445 227.992 102.691 228.73C 102.953 229.48 103.305 230.043 103.809 230.43C 104.293 230.828 104.914 231.027 105.656 231.027C 106.207 231.027 106.691 230.922 107.102 230.699C 107.527 230.477 107.867 230.16 108.137 229.75C 108.406 229.328 108.609 228.824 108.773 228.238C 108.926 227.629 108.996 226.82 108.996 225.801C 108.996 224.605 108.867 223.633 108.633 222.906C 108.383 222.156 108.008 221.594 107.527 221.195C 107.031 220.785 106.41 220.586 105.656 220.586C 104.668 220.586 103.891 220.949 103.34 221.652C 102.656 222.508 102.316 223.891 102.316 225.801zM100.953 221.957L100.953 220.762L100.953 220.762L94.156 220.762C 94.145 221.066 94.203 221.359 94.309 221.629C 94.484 222.086 94.766 222.543 95.145 222.988C 95.531 223.445 96.086 223.961 96.801 224.535C 97.906 225.449 98.66 226.176 99.059 226.703C 99.445 227.23 99.648 227.746 99.648 228.215C 99.648 228.719 99.484 229.129 99.117 229.48C 98.766 229.82 98.281 229.984 97.719 229.984C 97.094 229.984 96.613 229.809 96.25 229.445C 95.883 229.094 95.695 228.59 95.695 227.945L95.695 227.945L94.402 228.074C 94.484 229.035 94.836 229.773 95.402 230.277C 95.977 230.781 96.766 231.027 97.742 231.027C 98.719 231.027 99.508 230.758 100.082 230.219C 100.66 229.68 100.941 228.988 100.941 228.191C 100.941 227.781 100.859 227.371 100.684 226.984C 100.527 226.586 100.234 226.176 99.848 225.73C 99.457 225.285 98.824 224.687 97.918 223.937C 97.152 223.305 96.672 222.871 96.449 222.648C 96.238 222.414 96.047 222.191 95.918 221.957z" stroke="none" fill="#E6330F" fill-rule="nonzero" />
		</g>
	</g>
</g>
</svg>