<?xml version="1.0" standalone="no"?>
<!DOCTYPE svg PUBLIC "-//W3C//DTD SVG 1.0//EN" "http://www.w3.org/TR/2001/REC-SVG-20010904/DTD/svg10.dtd">
<svg xmlns="http://www.w3.org/2000/svg" xmlns:xlink="http://www.w3.org/1999/xlink" id="body_1" width="299" height="373">

<defs>
    <clipPath  id="1">

    <path id=""  clip-rule="evenodd" transform="matrix(1 0 0 1 0 0)"  d="M0 280L0 0L0 0L224 0L224 0L224 280L224 280L0 280z" />    </clipPath>
    <clipPath  id="2">

    <path id=""  clip-rule="evenodd" transform="matrix(1 0 0 1 0 0)"  d="M0 0L224 0L224 0L224 280L224 280L0 280z" />    </clipPath>
    <clipPath  id="3">

    <path id=""  clip-rule="evenodd" transform="matrix(1 0 0 1 0 0)"  d="M0 0L224 0L224 0L224 280L224 280L0 280z" />    </clipPath>
    <clipPath  id="4">

    <path id=""  clip-rule="evenodd" transform="matrix(1 0 0 1 0 0)"  d="M0 0L224 0L224 0L224 280L224 280L0 280z" />    </clipPath>
    <clipPath  id="5">

    <path id=""  clip-rule="evenodd" transform="matrix(1 0 0 1 0 0)"  d="M0 0L224 0L224 0L224 280L224 280L0 280z" />    </clipPath>
    <clipPath  id="6">

    <path id=""  clip-rule="evenodd" transform="matrix(1 0 0 1 0 0)"  d="M0 0L224 0L224 0L224 280L224 280L0 280z" />    </clipPath>
    <clipPath  id="7">

    <path id=""  clip-rule="evenodd" transform="matrix(1 0 0 1 0 0)"  d="M0 0L224 0L224 0L224 280L224 280L0 280z" />    </clipPath>
    <clipPath  id="8">

    <path id=""  clip-rule="evenodd" transform="matrix(1 0 0 1 0 0)"  d="M0 0L224 0L224 0L224 280L224 280L0 280z" />    </clipPath>
    <clipPath  id="9">

    <path id=""  clip-rule="evenodd" transform="matrix(1 0 0 1 0 0)"  d="M0 0L224 0L224 0L224 280L224 280L0 280z" />    </clipPath>
    <clipPath  id="10">

    <path id=""  clip-rule="evenodd" transform="matrix(1 0 0 1 0 0)"  d="M0 0L224 0L224 0L224 280L224 280L0 280z" />    </clipPath>
    <clipPath  id="11">

    <path id=""  clip-rule="evenodd" transform="matrix(1 0 0 1 0 0)"  d="M0 0L224 0L224 0L224 280L224 280L0 280z" />    </clipPath>
    <clipPath  id="12">

    <path id=""  clip-rule="evenodd" transform="matrix(1 0 0 1 0 0)"  d="M0 0L224 0L224 0L224 280L224 280L0 280z" />    </clipPath>
    <clipPath  id="13">

    <path id=""  clip-rule="evenodd" transform="matrix(1 0 0 1 0 0)"  d="M0 0L224 0L224 0L224 280L224 280L0 280z" />    </clipPath>
    <clipPath  id="14">

    <path id=""  clip-rule="evenodd" transform="matrix(1 0 0 1 0 0)"  d="M0 0L224 0L224 0L224 280L224 280L0 280z" />    </clipPath>
    <clipPath  id="15">

    <path id=""  clip-rule="evenodd" transform="matrix(1 0 0 1 0 0)"  d="M0 0L224 0L224 0L224 280L224 280L0 280z" />    </clipPath>
    <clipPath  id="16">

    <path id=""  clip-rule="evenodd" transform="matrix(1 0 0 1 0 0)"  d="M0 0L224 0L224 0L224 280L224 280L0 280z" />    </clipPath>
    <clipPath  id="17">

    <path id=""  clip-rule="evenodd" transform="matrix(1 0 0 1 0 0)"  d="M0 0L224 0L224 0L224 280L224 280L0 280z" />    </clipPath>
    <clipPath  id="18">

    <path id=""  clip-rule="evenodd" transform="matrix(1 0 0 1 0 0)"  d="M0 0L224 0L224 0L224 280L224 280L0 280z" />    </clipPath>
    <clipPath  id="19">

    <path id=""  clip-rule="evenodd" transform="matrix(1 0 0 1 0 0)"  d="M0 0L224 0L224 0L224 280L224 280L0 280z" />    </clipPath>
    <clipPath  id="20">

    <path id=""  clip-rule="evenodd" transform="matrix(1 0 0 1 0 0)"  d="M0 0L224 0L224 0L224 280L224 280L0 280z" />    </clipPath>
    <clipPath  id="21">

    <path id=""  clip-rule="evenodd" transform="matrix(1 0 0 1 0 0)"  d="M0 0L224 0L224 0L224 280L224 280L0 280z" />    </clipPath>
    <clipPath  id="22">

    <path id=""  clip-rule="evenodd" transform="matrix(1 0 0 1 0 0)"  d="M0 0L224 0L224 0L224 280L224 280L0 280z" />    </clipPath>
    <clipPath  id="23">

    <path id=""  clip-rule="evenodd" transform="matrix(1 0 0 1 0 0)"  d="M0 0L224 0L224 0L224 280L224 280L0 280z" />    </clipPath>
    <clipPath  id="24">

    <path id=""  clip-rule="evenodd" transform="matrix(1 0 0 1 0 0)"  d="M0 0L224 0L224 0L224 280L224 280L0 280z" />    </clipPath>
    <clipPath  id="25">

    <path id=""  clip-rule="evenodd" transform="matrix(1 0 0 1 0 0)"  d="M0 0L224 0L224 0L224 280L224 280L0 280z" />    </clipPath>
    <clipPath  id="26">

    <path id=""  clip-rule="evenodd" transform="matrix(1 0 0 1 0 0)"  d="M0 0L224 0L224 0L224 280L224 280L0 280z" />    </clipPath>
    <clipPath  id="27">

    <path id=""  clip-rule="evenodd" transform="matrix(1 0 0 1 0 0)"  d="M0 0L224 0L224 0L224 280L224 280L0 280z" />    </clipPath>
    <clipPath  id="28">

    <path id=""  clip-rule="evenodd" transform="matrix(1 0 0 1 0 0)"  d="M0 0L224 0L224 0L224 280L224 280L0 280z" />    </clipPath>
    <clipPath  id="29">

    <path id=""  clip-rule="evenodd" transform="matrix(1 0 0 1 0 0)"  d="M0 0L224 0L224 0L224 280L224 280L0 280z" />    </clipPath>
    <clipPath  id="30">

    <path id=""  clip-rule="evenodd" transform="matrix(1 0 0 1 0 0)"  d="M0 0L224 0L224 0L224 280L224 280L0 280z" />    </clipPath>
    <clipPath  id="31">

    <path id=""  clip-rule="evenodd" transform="matrix(1 0 0 1 0 0)"  d="M0 0L224 0L224 0L224 280L224 280L0 280z" />    </clipPath>
    <clipPath  id="32">

    <path id=""  clip-rule="evenodd" transform="matrix(1 0 0 1 0 0)"  d="M0 0L224 0L224 0L224 280L224 280L0 280z" />    </clipPath>
    <clipPath  id="33">

    <path id=""  clip-rule="evenodd" transform="matrix(1 0 0 1 0 0)"  d="M0 0L224 0L224 0L224 280L224 280L0 280z" />    </clipPath>
    <clipPath  id="34">

    <path id=""  clip-rule="evenodd" transform="matrix(1 0 0 1 0 0)"  d="M0 0L224 0L224 0L224 280L224 280L0 280z" />    </clipPath>
    <clipPath  id="35">

    <path id=""  clip-rule="evenodd" transform="matrix(1 0 0 1 0 0)"  d="M0 0L224 0L224 0L224 280L224 280L0 280z" />    </clipPath>
</defs>

<g transform="matrix(1.3333 0 0 1.3333 0 0)">
	<g clip-path="url(#1)" >
		<g clip-path="url(#2)" >
    <path id=""  transform="matrix(1 0 0 -1 0 280)"  d="M116.871 280L116.863 143.3948L116.863 143.3948L116.863 143.3908L116.863 143.3908L116.859 0.000213623M223.898 143.0701L116.863 143.3908L116.863 143.3908L0.102 143.7425" stroke="#231F20" stroke-width="68.33202" stroke-linejoin="miter" fill="none" />
		</g>
		<g clip-path="url(#3)" >
    <path id=""  transform="matrix(1 0 0 -1 0 280)"  d="M116.871 280L116.863 143.3948L116.863 143.3948L116.863 143.3908L116.863 143.3908L116.859 0.000213623M223.898 143.0701L116.863 143.3908L116.863 143.3908L0.102 143.7425" stroke="#FFFFFF" stroke-width="62.51645" stroke-linejoin="miter" fill="none" />
		</g>
		<g clip-path="url(#4)" >
    <path id=""  transform="matrix(1 0 0 -1 0 280)"  d="M116.871 280L116.863 143.3948L116.863 143.3948L116.863 143.3908L116.863 143.3908L116.859 0.000213623M223.898 143.0701L116.863 143.3908L116.863 143.3908L0.102 143.7425" stroke="#231F20" stroke-width="59.60886" stroke-linejoin="miter" fill="none" />
		</g>
		<g clip-path="url(#5)" >
    <path id=""  transform="matrix(1 0 0 -1 0 280)"  d="M116.871 280L116.863 143.3948L116.863 143.3948L116.863 143.3908L116.863 143.3908L116.859 0.000213623M223.898 143.0701L116.863 143.3908L116.863 143.3908L0.102 143.7425" stroke="#FFFFFF" stroke-width="1.453872" stroke-linejoin="miter" stroke-dasharray="10.0000019073486,10.0000019073486" fill="none" />
		</g>
		<g clip-path="url(#6)" >
    <path id=""  transform="matrix(1 0 0 -1 0 280)"  d="M116.934 113.4925L117.117 174.4961" stroke="#231F20" stroke-width="59.60886" stroke-linejoin="miter" fill="none" />
		</g>
		<g clip-path="url(#7)" >
    <path id=""  transform="matrix(1 0 0 -1 0 280)"  d="M151.457 112.051C 150.5 112.125 149.625 111.781 149.016 111.172C 148.355 110.512 148.063 109.613 148.133 108.73C 147.656 108.719 147.184 108.703 146.707 108.691C 146.609 109.969 147.031 111.258 147.977 112.207C 148.855 113.082 150.117 113.582 151.496 113.477C 151.48 113 151.496 113.477 151.457 112.051" stroke="none" fill="#FFFFFF" fill-rule="nonzero" />
		</g>
		<g clip-path="url(#8)" >
    <path id=""  transform="matrix(1 0 0 -1 0 280)"  d="M151.262 113.512C 149.938 113.617 148.723 113.137 147.879 112.289C 146.965 111.379 146.559 110.137 146.656 108.91C 146 108.891 145.34 108.875 144.684 108.859C 144.543 110.625 145.129 112.414 146.441 113.727C 147.66 114.941 149.406 115.633 151.313 115.484C 151.297 114.824 151.313 115.484 151.262 113.512" stroke="none" fill="#231F20" fill-rule="nonzero" />
		</g>
		<g clip-path="url(#9)" >
    <path id=""  transform="matrix(1 0 0 -1 0 280)"  d="M151.262 113.512C 149.938 113.617 148.723 113.137 147.879 112.289C 146.965 111.379 146.559 110.137 146.656 108.91C 146 108.891 145.34 108.875 144.684 108.859C 144.543 110.625 145.129 112.414 146.441 113.727C 147.66 114.941 149.406 115.633 151.313 115.484C 151.297 114.824 151.313 115.484 151.262 113.512" stroke="none" fill="#231F20" fill-rule="nonzero" />
		</g>
		<g clip-path="url(#10)" >
    <path id=""  transform="matrix(1 0 0 -1 0 280)"  d="M148.098 177.82C 148.023 176.863 148.371 175.988 148.98 175.379C 149.637 174.723 150.535 174.43 151.422 174.5C 151.434 174.023 151.445 173.551 151.461 173.074C 150.184 172.977 148.891 173.398 147.941 174.344C 147.066 175.223 146.563 176.48 146.672 177.859C 147.148 177.844 146.672 177.859 148.098 177.82" stroke="none" fill="#FFFFFF" fill-rule="nonzero" />
		</g>
		<g clip-path="url(#11)" >
    <path id=""  transform="matrix(1 0 0 -1 0 280)"  d="M146.637 177.625C 146.531 176.301 147.012 175.09 147.859 174.242C 148.77 173.332 150.016 172.926 151.242 173.023C 151.258 172.367 151.277 171.707 151.293 171.051C 149.527 170.914 147.734 171.496 146.422 172.809C 145.207 174.023 144.512 175.77 144.664 177.676C 145.32 177.66 144.664 177.676 146.637 177.625" stroke="none" fill="#231F20" fill-rule="nonzero" />
		</g>
		<g clip-path="url(#12)" >
    <path id=""  transform="matrix(1 0 0 -1 0 280)"  d="M82.301 174.711C 83.254 174.637 84.133 174.984 84.742 175.594C 85.398 176.25 85.695 177.148 85.625 178.031C 86.098 178.047 86.574 178.059 87.047 178.07C 87.148 176.797 86.727 175.504 85.777 174.555C 84.898 173.68 83.641 173.18 82.262 173.289C 82.273 173.762 82.262 173.289 82.301 174.711" stroke="none" fill="#FFFFFF" fill-rule="nonzero" />
		</g>
		<g clip-path="url(#13)" >
    <path id=""  transform="matrix(1 0 0 -1 0 280)"  d="M82.496 173.25C 83.82 173.148 85.031 173.629 85.879 174.473C 86.789 175.383 87.195 176.625 87.102 177.852C 87.758 177.871 88.414 177.887 89.074 177.906C 89.211 176.137 88.629 174.348 87.313 173.035C 86.098 171.82 84.352 171.129 82.441 171.277C 82.461 171.937 82.441 171.277 82.496 173.25" stroke="none" fill="#231F20" fill-rule="nonzero" />
		</g>
		<g clip-path="url(#14)" >
    <path id=""  transform="matrix(1 0 0 -1 0 280)"  d="M85.621 108.934C 85.695 109.891 85.348 110.766 84.738 111.375C 84.078 112.035 83.18 112.328 82.297 112.258C 82.281 112.73 82.27 113.207 82.258 113.68C 83.535 113.781 84.824 113.359 85.773 112.41C 86.652 111.535 87.152 110.273 87.043 108.898C 86.57 108.91 87.043 108.898 85.621 108.934" stroke="none" fill="#FFFFFF" fill-rule="nonzero" />
		</g>
		<g clip-path="url(#15)" >
    <path id=""  transform="matrix(1 0 0 -1 0 280)"  d="M87.082 109.129C 87.188 110.453 86.703 111.668 85.859 112.512C 84.945 113.422 83.703 113.828 82.477 113.734C 82.457 114.391 82.441 115.047 82.422 115.703C 84.191 115.844 85.98 115.258 87.297 113.945C 88.512 112.73 89.203 110.984 89.055 109.078C 88.398 109.098 89.055 109.078 87.082 109.129" stroke="none" fill="#231F20" fill-rule="nonzero" />
		</g>
		<g clip-path="url(#16)" >
    <path id=""  transform="matrix(1 0 0 -1 0 280)"  d="M148.09 112.0747L116.105 112.2105" stroke="#FFFFFF" stroke-width="2.907748" stroke-linejoin="miter" fill="none" />
		</g>
		<g clip-path="url(#17)" >
    <path id=""  transform="matrix(1 0 0 -1 0 280)"  d="M150.512 112.7931L147.723 112.8051" stroke="#FFFFFF" stroke-width="1.453872" stroke-linejoin="miter" fill="none" />
		</g>
		<g clip-path="url(#18)" >
    <path id=""  transform="matrix(1 0 0 -1 0 280)"  d="M117.617 174.578L85.152 174.7149" stroke="#FFFFFF" stroke-width="2.907748" stroke-linejoin="miter" fill="none" />
		</g>
		<g clip-path="url(#19)" >
    <path id=""  transform="matrix(1 0 0 -1 0 280)"  d="M85.98 173.9885L83.191 173.9965" stroke="#FFFFFF" stroke-width="1.453872" stroke-linejoin="miter" fill="none" />
		</g>
		<g clip-path="url(#20)" >
    <path id=""  transform="matrix(1 0 0 -1 0 280)"  d="M121.895 113.773L126.282 113.773L126.282 113.773L126.282 110.578L126.282 110.578L121.895 110.578z" stroke="none" fill="#231F20" fill-rule="evenodd" />
		</g>
		<g clip-path="url(#21)" >
    <path id=""  transform="matrix(1 0 0 -1 0 280)"  d="M132.105 113.844L136.492 113.844L136.492 113.844L136.492 110.649L136.492 110.649L132.105 110.649z" stroke="none" fill="#231F20" fill-rule="evenodd" />
		</g>
		<g clip-path="url(#22)" >
    <path id=""  transform="matrix(1 0 0 -1 0 280)"  d="M142.301 113.687L146.688 113.687L146.688 113.687L146.688 110.492L146.688 110.492L142.301 110.492z" stroke="none" fill="#231F20" fill-rule="evenodd" />
		</g>
		<g clip-path="url(#23)" >
    <path id=""  transform="matrix(1 0 0 -1 0 280)"  d="M87.063 176.184L91.45 176.184L91.45 176.184L91.45 172.989L91.45 172.989L87.063 172.989z" stroke="none" fill="#231F20" fill-rule="evenodd" />
		</g>
		<g clip-path="url(#24)" >
    <path id=""  transform="matrix(1 0 0 -1 0 280)"  d="M97.277 176.254L101.66 176.254L101.66 176.254L101.66 173.059L101.66 173.059L97.277 173.059z" stroke="none" fill="#231F20" fill-rule="evenodd" />
		</g>
		<g clip-path="url(#25)" >
    <path id=""  transform="matrix(1 0 0 -1 0 280)"  d="M107.469 176.094L111.856 176.094L111.856 176.094L111.856 172.899L111.856 172.899L107.469 172.899z" stroke="none" fill="#231F20" fill-rule="evenodd" />
		</g>
		<g clip-path="url(#26)" >
    <path id=""  transform="matrix(1 0 0 -1 0 280)"  d="M148.121 174.5231L147.984 142.5665" stroke="#FFFFFF" stroke-width="2.907748" stroke-linejoin="miter" fill="none" />
		</g>
		<g clip-path="url(#27)" >
    <path id=""  transform="matrix(1 0 0 -1 0 280)"  d="M147.402 176.9451L147.391 174.1564" stroke="#FFFFFF" stroke-width="1.453872" stroke-linejoin="miter" fill="none" />
		</g>
		<g clip-path="url(#28)" >
    <path id=""  transform="matrix(1 0 0 -1 0 280)"  d="M146.418 152.73L149.617 152.73L149.617 152.73L149.617 148.351L149.617 148.351L146.418 148.351z" stroke="none" fill="#231F20" fill-rule="evenodd" />
		</g>
		<g clip-path="url(#29)" >
    <path id=""  transform="matrix(1 0 0 -1 0 280)"  d="M146.348 162.937L149.547 162.937L149.547 162.937L149.547 158.554L149.547 158.554L146.348 158.554z" stroke="none" fill="#231F20" fill-rule="evenodd" />
		</g>
		<g clip-path="url(#30)" >
    <path id=""  transform="matrix(1 0 0 -1 0 280)"  d="M146.508 168.742L146.508 173.121L146.508 173.121L149.703 173.121L149.703 173.121L149.707 168.742L149.707 168.742L146.508 168.742" stroke="none" fill="#231F20" fill-rule="evenodd" />
		</g>
		<g clip-path="url(#31)" >
    <path id=""  transform="matrix(1 0 0 -1 0 280)"  d="M85.598 112.2655L85.734 144.2231" stroke="#FFFFFF" stroke-width="2.907748" stroke-linejoin="miter" fill="none" />
		</g>
		<g clip-path="url(#32)" >
    <path id=""  transform="matrix(1 0 0 -1 0 280)"  d="M86.316 109.8475L86.328 112.6332" stroke="#FFFFFF" stroke-width="1.453872" stroke-linejoin="miter" fill="none" />
		</g>
		<g clip-path="url(#33)" >
    <path id=""  transform="matrix(1 0 0 -1 0 280)"  d="M84.102 138.441L87.30099 138.441L87.30099 138.441L87.30099 134.058L87.30099 134.058L84.102 134.058z" stroke="none" fill="#231F20" fill-rule="evenodd" />
		</g>
		<g clip-path="url(#34)" >
    <path id=""  transform="matrix(1 0 0 -1 0 280)"  d="M84.172 128.234L87.37099 128.234L87.37099 128.234L87.37099 123.855L87.37099 123.855L84.172 123.855z" stroke="none" fill="#231F20" fill-rule="evenodd" />
		</g>
		<g clip-path="url(#35)" >
    <path id=""  transform="matrix(1 0 0 -1 0 280)"  d="M84.012 118.051L87.211 118.051L87.211 118.051L87.211 113.668L87.211 113.668L84.012 113.668z" stroke="none" fill="#231F20" fill-rule="evenodd" />
		</g>
	</g>
</g>
</svg>