<?xml version="1.0" standalone="no"?>
<!DOCTYPE svg PUBLIC "-//W3C//DTD SVG 1.0//EN" "http://www.w3.org/TR/2001/REC-SVG-20010904/DTD/svg10.dtd">
<svg xmlns="http://www.w3.org/2000/svg" xmlns:xlink="http://www.w3.org/1999/xlink" id="body_1" width="297" height="372">

<defs>
    <clipPath  id="1">

    <path id=""  clip-rule="evenodd" transform="matrix(1 0 0 1 0 0)"  d="M0 279L0 -0.9613037L0 -0.9613037L223.7844 -0.9613037L223.7844 -0.9613037L223.7844 279L223.7844 279L0 279z" />    </clipPath>
    <clipPath  id="2">

    <path id=""  clip-rule="evenodd" transform="matrix(1 0 0 1 0 0)"  d="M0 -0.9613037L224 -0.9613037L224 -0.9613037L224 279.0387L224 279.0387L0 279.0387z" />    </clipPath>
    <clipPath  id="3">

    <path id=""  clip-rule="evenodd" transform="matrix(1 0 0 1 0 0)"  d="M0 -0.9613037L224 -0.9613037L224 -0.9613037L224 279.0387L224 279.0387L0 279.0387z" />    </clipPath>
    <clipPath  id="4">

    <path id=""  clip-rule="evenodd" transform="matrix(1 0 0 1 0 0)"  d="M0 -0.9613037L224 -0.9613037L224 -0.9613037L224 279.0387L224 279.0387L0 279.0387z" />    </clipPath>
    <clipPath  id="5">

    <path id=""  clip-rule="evenodd" transform="matrix(1 0 0 1 0 0)"  d="M0 -0.9613037L224 -0.9613037L224 -0.9613037L224 279.0387L224 279.0387L0 279.0387z" />    </clipPath>
    <clipPath  id="6">

    <path id=""  clip-rule="evenodd" transform="matrix(1 0 0 1 0 0)"  d="M0 -0.9613037L224 -0.9613037L224 -0.9613037L224 279.0387L224 279.0387L0 279.0387z" />    </clipPath>
    <clipPath  id="7">

    <path id=""  clip-rule="evenodd" transform="matrix(1 0 0 1 0 0)"  d="M0 -0.9613037L224 -0.9613037L224 -0.9613037L224 279.0387L224 279.0387L0 279.0387z" />    </clipPath>
    <clipPath  id="8">

    <path id=""  clip-rule="evenodd" transform="matrix(1 0 0 1 0 0)"  d="M0 -0.9613037L224 -0.9613037L224 -0.9613037L224 279.0387L224 279.0387L0 279.0387z" />    </clipPath>
    <clipPath  id="9">

    <path id=""  clip-rule="evenodd" transform="matrix(1 0 0 1 0 0)"  d="M0 -0.9613037L224 -0.9613037L224 -0.9613037L224 279.0387L224 279.0387L0 279.0387z" />    </clipPath>
    <clipPath  id="10">

    <path id=""  clip-rule="evenodd" transform="matrix(1 0 0 1 0 0)"  d="M0 -0.9613037L224 -0.9613037L224 -0.9613037L224 279.0387L224 279.0387L0 279.0387z" />    </clipPath>
    <clipPath  id="11">

    <path id=""  clip-rule="evenodd" transform="matrix(1 0 0 1 0 0)"  d="M0 -0.9613037L224 -0.9613037L224 -0.9613037L224 279.0387L224 279.0387L0 279.0387z" />    </clipPath>
    <clipPath  id="12">

    <path id=""  clip-rule="evenodd" transform="matrix(1 0 0 1 0 0)"  d="M0 -0.9613037L224 -0.9613037L224 -0.9613037L224 279.0387L224 279.0387L0 279.0387z" />    </clipPath>
    <clipPath  id="13">

    <path id=""  clip-rule="evenodd" transform="matrix(1 0 0 1 0 0)"  d="M0 -0.9613037L224 -0.9613037L224 -0.9613037L224 279.0387L224 279.0387L0 279.0387z" />    </clipPath>
    <clipPath  id="14">

    <path id=""  clip-rule="evenodd" transform="matrix(1 0 0 1 0 0)"  d="M0 -0.9613037L224 -0.9613037L224 -0.9613037L224 279.0387L224 279.0387L0 279.0387z" />    </clipPath>
    <clipPath  id="15">

    <path id=""  clip-rule="evenodd" transform="matrix(1 0 0 1 0 0)"  d="M0 -0.9613037L224 -0.9613037L224 -0.9613037L224 279.0387L224 279.0387L0 279.0387z" />    </clipPath>
    <clipPath  id="16">

    <path id=""  clip-rule="evenodd" transform="matrix(1 0 0 1 0 0)"  d="M0 -0.9613037L224 -0.9613037L224 -0.9613037L224 279.0387L224 279.0387L0 279.0387z" />    </clipPath>
    <clipPath  id="17">

    <path id=""  clip-rule="evenodd" transform="matrix(1 0 0 1 0 0)"  d="M0 -0.9613037L224 -0.9613037L224 -0.9613037L224 279.0387L224 279.0387L0 279.0387z" />    </clipPath>
    <clipPath  id="18">

    <path id=""  clip-rule="evenodd" transform="matrix(1 0 0 1 0 0)"  d="M0 -0.9613037L224 -0.9613037L224 -0.9613037L224 279.0387L224 279.0387L0 279.0387z" />    </clipPath>
    <clipPath  id="19">

    <path id=""  clip-rule="evenodd" transform="matrix(1 0 0 1 0 0)"  d="M0 -0.9613037L224 -0.9613037L224 -0.9613037L224 279.0387L224 279.0387L0 279.0387z" />    </clipPath>
    <clipPath  id="20">

    <path id=""  clip-rule="evenodd" transform="matrix(1 0 0 1 0 0)"  d="M0 -0.9613037L224 -0.9613037L224 -0.9613037L224 279.0387L224 279.0387L0 279.0387z" />    </clipPath>
    <clipPath  id="21">

    <path id=""  clip-rule="evenodd" transform="matrix(1 0 0 1 0 0)"  d="M0 -0.9613037L224 -0.9613037L224 -0.9613037L224 279.0387L224 279.0387L0 279.0387z" />    </clipPath>
    <clipPath  id="22">

    <path id=""  clip-rule="evenodd" transform="matrix(1 0 0 1 0 0)"  d="M0 -0.9613037L224 -0.9613037L224 -0.9613037L224 279.0387L224 279.0387L0 279.0387z" />    </clipPath>
    <clipPath  id="23">

    <path id=""  clip-rule="evenodd" transform="matrix(1 0 0 1 0 0)"  d="M0 -0.9613037L224 -0.9613037L224 -0.9613037L224 279.0387L224 279.0387L0 279.0387z" />    </clipPath>
    <clipPath  id="24">

    <path id=""  clip-rule="evenodd" transform="matrix(1 0 0 1 0 0)"  d="M0 -0.9613037L224 -0.9613037L224 -0.9613037L224 279.0387L224 279.0387L0 279.0387z" />    </clipPath>
    <clipPath  id="25">

    <path id=""  clip-rule="evenodd" transform="matrix(1 0 0 1 0 0)"  d="M0 -0.9613037L224 -0.9613037L224 -0.9613037L224 279.0387L224 279.0387L0 279.0387z" />    </clipPath>
    <clipPath  id="26">

    <path id=""  clip-rule="evenodd" transform="matrix(1 0 0 1 0 0)"  d="M0 -0.9613037L224 -0.9613037L224 -0.9613037L224 279.0387L224 279.0387L0 279.0387z" />    </clipPath>
    <clipPath  id="27">

    <path id=""  clip-rule="evenodd" transform="matrix(1 0 0 1 0 0)"  d="M0 -0.9613037L224 -0.9613037L224 -0.9613037L224 279.0387L224 279.0387L0 279.0387z" />    </clipPath>
    <clipPath  id="28">

    <path id=""  clip-rule="evenodd" transform="matrix(1 0 0 1 0 0)"  d="M0 -0.9613037L224 -0.9613037L224 -0.9613037L224 279.0387L224 279.0387L0 279.0387z" />    </clipPath>
    <clipPath  id="29">

    <path id=""  clip-rule="evenodd" transform="matrix(1 0 0 1 0 0)"  d="M0 -0.9613037L224 -0.9613037L224 -0.9613037L224 279.0387L224 279.0387L0 279.0387z" />    </clipPath>
    <clipPath  id="30">

    <path id=""  clip-rule="evenodd" transform="matrix(1 0 0 1 0 0)"  d="M0 -0.9613037L224 -0.9613037L224 -0.9613037L224 279.0387L224 279.0387L0 279.0387z" />    </clipPath>
    <clipPath  id="31">

    <path id=""  clip-rule="evenodd" transform="matrix(1 0 0 1 0 0)"  d="M0 -0.9613037L224 -0.9613037L224 -0.9613037L224 279.0387L224 279.0387L0 279.0387z" />    </clipPath>
    <clipPath  id="32">

    <path id=""  clip-rule="evenodd" transform="matrix(1 0 0 1 0 0)"  d="M0 -0.9613037L224 -0.9613037L224 -0.9613037L224 279.0387L224 279.0387L0 279.0387z" />    </clipPath>
    <clipPath  id="33">

    <path id=""  clip-rule="evenodd" transform="matrix(1 0 0 1 0 0)"  d="M0 -0.9613037L224 -0.9613037L224 -0.9613037L224 279.0387L224 279.0387L0 279.0387z" />    </clipPath>
    <clipPath  id="34">

    <path id=""  clip-rule="evenodd" transform="matrix(1 0 0 1 0 0)"  d="M0 -0.9613037L224 -0.9613037L224 -0.9613037L224 279.0387L224 279.0387L0 279.0387z" />    </clipPath>
    <clipPath  id="35">

    <path id=""  clip-rule="evenodd" transform="matrix(1 0 0 1 0 0)"  d="M0 -0.9613037L224 -0.9613037L224 -0.9613037L224 279.0387L224 279.0387L0 279.0387z" />    </clipPath>
    <clipPath  id="36">

    <path id=""  clip-rule="evenodd" transform="matrix(1 0 0 1 0 0)"  d="M0 -0.9613037L224 -0.9613037L224 -0.9613037L224 279.0387L224 279.0387L0 279.0387z" />    </clipPath>
    <clipPath  id="37">

    <path id=""  clip-rule="evenodd" transform="matrix(1 0 0 1 0 0)"  d="M0 -0.9613037L224 -0.9613037L224 -0.9613037L224 279.0387L224 279.0387L0 279.0387z" />    </clipPath>
    <clipPath  id="38">

    <path id=""  clip-rule="evenodd" transform="matrix(1 0 0 1 0 0)"  d="M0 -0.9613037L224 -0.9613037L224 -0.9613037L224 279.0387L224 279.0387L0 279.0387z" />    </clipPath>
    <clipPath  id="39">

    <path id=""  clip-rule="evenodd" transform="matrix(1 0 0 1 0 0)"  d="M0 -0.9613037L224 -0.9613037L224 -0.9613037L224 279.0387L224 279.0387L0 279.0387z" />    </clipPath>
    <clipPath  id="40">

    <path id=""  clip-rule="evenodd" transform="matrix(1 0 0 1 0 0)"  d="M0 -0.9613037L224 -0.9613037L224 -0.9613037L224 279.0387L224 279.0387L0 279.0387z" />    </clipPath>
    <clipPath  id="41">

    <path id=""  clip-rule="evenodd" transform="matrix(1 0 0 1 0 0)"  d="M0 -0.9613037L224 -0.9613037L224 -0.9613037L224 279.0387L224 279.0387L0 279.0387z" />    </clipPath>
    <clipPath  id="42">

    <path id=""  clip-rule="evenodd" transform="matrix(1 0 0 1 0 0)"  d="M0 -0.9613037L224 -0.9613037L224 -0.9613037L224 279.0387L224 279.0387L0 279.0387z" />    </clipPath>
    <clipPath  id="43">

    <path id=""  clip-rule="evenodd" transform="matrix(1 0 0 1 0 0)"  d="M0 -0.9613037L224 -0.9613037L224 -0.9613037L224 279.0387L224 279.0387L0 279.0387z" />    </clipPath>
    <clipPath  id="44">

    <path id=""  clip-rule="evenodd" transform="matrix(1 0 0 1 0 0)"  d="M0 -0.9613037L224 -0.9613037L224 -0.9613037L224 279.0387L224 279.0387L0 279.0387z" />    </clipPath>
    <clipPath  id="45">

    <path id=""  clip-rule="evenodd" transform="matrix(1 0 0 1 0 0)"  d="M0 -0.9613037L224 -0.9613037L224 -0.9613037L224 279.0387L224 279.0387L0 279.0387z" />    </clipPath>
    <clipPath  id="46">

    <path id=""  clip-rule="evenodd" transform="matrix(1 0 0 1 0 0)"  d="M0 -0.9613037L224 -0.9613037L224 -0.9613037L224 279.0387L224 279.0387L0 279.0387z" />    </clipPath>
    <clipPath  id="47">

    <path id=""  clip-rule="evenodd" transform="matrix(1 0 0 1 0 0)"  d="M0 -0.9613037L224 -0.9613037L224 -0.9613037L224 279.0387L224 279.0387L0 279.0387z" />    </clipPath>
    <clipPath  id="48">

    <path id=""  clip-rule="evenodd" transform="matrix(1 0 0 1 0 0)"  d="M0 -0.9613037L224 -0.9613037L224 -0.9613037L224 279.0387L224 279.0387L0 279.0387z" />    </clipPath>
    <clipPath  id="49">

    <path id=""  clip-rule="evenodd" transform="matrix(1 0 0 1 0 0)"  d="M0 -0.9613037L224 -0.9613037L224 -0.9613037L224 279.0387L224 279.0387L0 279.0387z" />    </clipPath>
    <clipPath  id="50">

    <path id=""  clip-rule="evenodd" transform="matrix(1 0 0 1 0 0)"  d="M0 -0.9613037L224 -0.9613037L224 -0.9613037L224 279.0387L224 279.0387L0 279.0387z" />    </clipPath>
    <clipPath  id="51">

    <path id=""  clip-rule="evenodd" transform="matrix(1 0 0 1 0 0)"  d="M0 -0.9613037L224 -0.9613037L224 -0.9613037L224 279.0387L224 279.0387L0 279.0387z" />    </clipPath>
    <clipPath  id="52">

    <path id=""  clip-rule="evenodd" transform="matrix(1 0 0 1 0 0)"  d="M0 -0.9613037L224 -0.9613037L224 -0.9613037L224 279.0387L224 279.0387L0 279.0387z" />    </clipPath>
    <clipPath  id="53">

    <path id=""  clip-rule="evenodd" transform="matrix(1 0 0 1 0 0)"  d="M0 -0.9613037L224 -0.9613037L224 -0.9613037L224 279.0387L224 279.0387L0 279.0387z" />    </clipPath>
    <clipPath  id="54">

    <path id=""  clip-rule="evenodd" transform="matrix(1 0 0 1 0 0)"  d="M0 -0.9613037L224 -0.9613037L224 -0.9613037L224 279.0387L224 279.0387L0 279.0387z" />    </clipPath>
    <clipPath  id="55">

    <path id=""  clip-rule="evenodd" transform="matrix(1 0 0 1 0 0)"  d="M0 -0.9613037L224 -0.9613037L224 -0.9613037L224 279.0387L224 279.0387L0 279.0387z" />    </clipPath>
    <clipPath  id="56">

    <path id=""  clip-rule="evenodd" transform="matrix(1 0 0 1 0 0)"  d="M0 -0.9613037L224 -0.9613037L224 -0.9613037L224 279.0387L224 279.0387L0 279.0387z" />    </clipPath>
    <clipPath  id="57">

    <path id=""  clip-rule="evenodd" transform="matrix(1 0 0 1 0 0)"  d="M0 -0.9613037L224 -0.9613037L224 -0.9613037L224 279.0387L224 279.0387L0 279.0387z" />    </clipPath>
    <clipPath  id="58">

    <path id=""  clip-rule="evenodd" transform="matrix(1 0 0 1 0 0)"  d="M0 -0.9613037L224 -0.9613037L224 -0.9613037L224 279.0387L224 279.0387L0 279.0387z" />    </clipPath>
    <clipPath  id="59">

    <path id=""  clip-rule="evenodd" transform="matrix(1 0 0 1 0 0)"  d="M0 -0.9613037L224 -0.9613037L224 -0.9613037L224 279.0387L224 279.0387L0 279.0387z" />    </clipPath>
    <clipPath  id="60">

    <path id=""  clip-rule="evenodd" transform="matrix(1 0 0 1 0 0)"  d="M0 -0.9613037L224 -0.9613037L224 -0.9613037L224 279.0387L224 279.0387L0 279.0387z" />    </clipPath>
    <clipPath  id="61">

    <path id=""  clip-rule="evenodd" transform="matrix(1 0 0 1 0 0)"  d="M0 -0.9613037L224 -0.9613037L224 -0.9613037L224 279.0387L224 279.0387L0 279.0387z" />    </clipPath>
    <clipPath  id="62">

    <path id=""  clip-rule="evenodd" transform="matrix(1 0 0 1 0 0)"  d="M0 -0.9613037L224 -0.9613037L224 -0.9613037L224 279.0387L224 279.0387L0 279.0387z" />    </clipPath>
    <clipPath  id="63">

    <path id=""  clip-rule="evenodd" transform="matrix(1 0 0 1 0 0)"  d="M0 -0.9613037L224 -0.9613037L224 -0.9613037L224 279.0387L224 279.0387L0 279.0387z" />    </clipPath>
    <clipPath  id="64">

    <path id=""  clip-rule="evenodd" transform="matrix(1 0 0 1 0 0)"  d="M0 -0.9613037L224 -0.9613037L224 -0.9613037L224 279.0387L224 279.0387L0 279.0387z" />    </clipPath>
    <clipPath  id="65">

    <path id=""  clip-rule="evenodd" transform="matrix(1 0 0 1 0 0)"  d="M0 -0.9613037L224 -0.9613037L224 -0.9613037L224 279.0387L224 279.0387L0 279.0387z" />    </clipPath>
    <clipPath  id="66">

    <path id=""  clip-rule="evenodd" transform="matrix(1 0 0 1 0 0)"  d="M0 -0.9613037L224 -0.9613037L224 -0.9613037L224 279.0387L224 279.0387L0 279.0387z" />    </clipPath>
    <clipPath  id="67">

    <path id=""  clip-rule="evenodd" transform="matrix(1 0 0 1 0 0)"  d="M0 -0.9613037L224 -0.9613037L224 -0.9613037L224 279.0387L224 279.0387L0 279.0387z" />    </clipPath>
    <clipPath  id="68">

    <path id=""  clip-rule="evenodd" transform="matrix(1 0 0 1 0 0)"  d="M0 -0.9613037L224 -0.9613037L224 -0.9613037L224 279.0387L224 279.0387L0 279.0387z" />    </clipPath>
    <clipPath  id="69">

    <path id=""  clip-rule="evenodd" transform="matrix(1 0 0 1 0 0)"  d="M0 -0.9613037L224 -0.9613037L224 -0.9613037L224 279.0387L224 279.0387L0 279.0387z" />    </clipPath>
    <clipPath  id="70">

    <path id=""  clip-rule="evenodd" transform="matrix(1 0 0 1 0 0)"  d="M0 -0.9613037L224 -0.9613037L224 -0.9613037L224 279.0387L224 279.0387L0 279.0387z" />    </clipPath>
    <clipPath  id="71">

    <path id=""  clip-rule="evenodd" transform="matrix(1 0 0 1 0 0)"  d="M0 -0.9613037L224 -0.9613037L224 -0.9613037L224 279.0387L224 279.0387L0 279.0387z" />    </clipPath>
    <clipPath  id="72">

    <path id=""  clip-rule="evenodd" transform="matrix(1 0 0 1 0 0)"  d="M0 -0.9613037L224 -0.9613037L224 -0.9613037L224 279.0387L224 279.0387L0 279.0387z" />    </clipPath>
    <clipPath  id="73">

    <path id=""  clip-rule="evenodd" transform="matrix(1 0 0 1 0 0)"  d="M0 -0.9613037L224 -0.9613037L224 -0.9613037L224 279.0387L224 279.0387L0 279.0387z" />    </clipPath>
    <clipPath  id="74">

    <path id=""  clip-rule="evenodd" transform="matrix(1 0 0 1 0 0)"  d="M0 -0.9613037L224 -0.9613037L224 -0.9613037L224 279.0387L224 279.0387L0 279.0387z" />    </clipPath>
    <clipPath  id="75">

    <path id=""  clip-rule="evenodd" transform="matrix(1 0 0 1 0 0)"  d="M0 -0.9613037L224 -0.9613037L224 -0.9613037L224 279.0387L224 279.0387L0 279.0387z" />    </clipPath>
    <clipPath  id="76">

    <path id=""  clip-rule="evenodd" transform="matrix(1 0 0 1 0 0)"  d="M0 -0.9613037L224 -0.9613037L224 -0.9613037L224 279.0387L224 279.0387L0 279.0387z" />    </clipPath>
</defs>

<g transform="matrix(1.3333 0 0 1.3333 0 0)">
	<g clip-path="url(#1)" >
		<g clip-path="url(#2)" >
    <path id=""  transform="matrix(1 0 0 -1 0 279)"  d="M116.758 279.9613L116.754 143.3753L116.754 143.3753L116.754 143.3713L116.754 143.3713L116.746 0.0003051758M223.68 143.0513L116.754 143.3713L116.754 143.3713L116.75 143.3713L116.75 143.3713L0.102 143.7233" stroke="#231F20" stroke-width="68.26624" stroke-linejoin="miter" fill="none" />
		</g>
		<g clip-path="url(#3)" >
    <path id=""  transform="matrix(1 0 0 -1 0 279)"  d="M116.758 279.9613L116.754 143.3753L116.754 143.3753L116.754 143.3713L116.754 143.3713L116.746 0.0003051758M223.68 143.0513L116.754 143.3713L116.754 143.3713L116.75 143.3713L116.75 143.3713L0.102 143.7233" stroke="#FFFFFF" stroke-width="62.45627" stroke-linejoin="miter" fill="none" />
		</g>
		<g clip-path="url(#4)" >
    <path id=""  transform="matrix(1 0 0 -1 0 279)"  d="M116.758 279.9613L116.754 143.3753L116.754 143.3753L116.754 143.3713L116.754 143.3713L116.746 0.0003051758M223.68 143.0513L116.754 143.3713L116.754 143.3713L116.75 143.3713L116.75 143.3713L0.102 143.7233" stroke="#231F20" stroke-width="59.55148" stroke-linejoin="miter" fill="none" />
		</g>
		<g clip-path="url(#5)" >
    <path id=""  transform="matrix(1 0 0 -1 0 279)"  d="M116.758 279.9613L116.754 172.1483M0.102 143.7233L85.426 143.4653C 106.121 142.3793 115.539 131.7733 116.75 114.3483L116.75 114.3483L116.746 0.0003051758M223.68 143.0513L149.781 143.2733" stroke="#FFFFFF" stroke-width="1.452473" stroke-linejoin="miter" stroke-dasharray="9.99999713897705,9.99999713897705" fill="none" />
		</g>
		<g clip-path="url(#6)" >
    <path id=""  transform="matrix(1 0 0 -1 0 279)"  d="M151.313 112.0353C 150.355 112.1093 149.48 111.7663 148.871 111.1563C 148.215 110.4963 147.922 109.5983 147.988 108.7153C 147.516 108.7033 147.043 108.6883 146.566 108.6763C 146.469 109.9533 146.887 111.2423 147.836 112.1913C 148.715 113.0663 149.973 113.5663 151.348 113.4573C 151.336 112.9843 151.348 113.4573 151.313 112.0353" stroke="none" fill="#FFFFFF" fill-rule="nonzero" />
		</g>
		<g clip-path="url(#7)" >
    <path id=""  transform="matrix(1 0 0 -1 0 279)"  d="M151.117 113.4963C 149.793 113.6023 148.582 113.1173 147.734 112.2733C 146.824 111.3633 146.418 110.1213 146.516 108.8953C 145.859 108.8753 145.199 108.8593 144.543 108.8443C 144.406 110.6093 144.988 112.3983 146.301 113.7113C 147.516 114.9263 149.262 115.6173 151.168 115.4693C 151.152 114.8093 151.168 115.4693 151.117 113.4963" stroke="none" fill="#231F20" fill-rule="nonzero" />
		</g>
		<g clip-path="url(#8)" >
    <path id=""  transform="matrix(1 0 0 -1 0 279)"  d="M151.117 113.4963C 149.793 113.6023 148.582 113.1173 147.734 112.2733C 146.824 111.3633 146.418 110.1213 146.516 108.8953C 145.859 108.8753 145.199 108.8593 144.543 108.8443C 144.406 110.6093 144.988 112.3983 146.301 113.7113C 147.516 114.9263 149.262 115.6173 151.168 115.4693C 151.152 114.8093 151.168 115.4693 151.117 113.4963" stroke="none" fill="#231F20" fill-rule="nonzero" />
		</g>
		<g clip-path="url(#9)" >
    <path id=""  transform="matrix(1 0 0 -1 0 279)"  d="M147.953 177.7973C 147.879 176.8403 148.227 175.9653 148.836 175.3563C 149.496 174.6953 150.391 174.4063 151.277 174.4733C 151.289 174.0003 151.301 173.5233 151.313 173.0513C 150.039 172.9493 148.746 173.3713 147.801 174.3203C 146.922 175.1953 146.422 176.4573 146.531 177.8323C 147.008 177.8203 146.531 177.8323 147.953 177.7973" stroke="none" fill="#FFFFFF" fill-rule="nonzero" />
		</g>
		<g clip-path="url(#10)" >
    <path id=""  transform="matrix(1 0 0 -1 0 279)"  d="M146.496 177.6023C 146.391 176.2773 146.871 175.0633 147.715 174.2193C 148.629 173.3093 149.871 172.9023 151.098 173.0003C 151.113 172.3403 151.129 171.6843 151.148 171.0273C 149.383 170.8873 147.594 171.4733 146.281 172.7853C 145.066 174.0003 144.375 175.7463 144.523 177.6523C 145.18 177.6333 144.523 177.6523 146.496 177.6023" stroke="none" fill="#231F20" fill-rule="nonzero" />
		</g>
		<g clip-path="url(#11)" >
    <path id=""  transform="matrix(1 0 0 -1 0 279)"  d="M82.219 174.6883C 83.176 174.6093 84.051 174.9573 84.66 175.5663C 85.316 176.2273 85.609 177.1213 85.543 178.0083C 86.016 178.0203 86.488 178.0313 86.965 178.0473C 87.066 176.7703 86.645 175.4813 85.695 174.5313C 84.816 173.6563 83.559 173.1563 82.184 173.2623C 82.195 173.7383 82.184 173.2623 82.219 174.6883" stroke="none" fill="#FFFFFF" fill-rule="nonzero" />
		</g>
		<g clip-path="url(#12)" >
    <path id=""  transform="matrix(1 0 0 -1 0 279)"  d="M82.414 173.2273C 83.738 173.1213 84.953 173.6023 85.797 174.4493C 86.707 175.3593 87.113 176.6023 87.016 177.8283C 87.672 177.8443 88.332 177.8633 88.988 177.8793C 89.125 176.1133 88.543 174.3243 87.23 173.0123C 86.016 171.7973 84.27 171.1063 82.363 171.2543C 82.379 171.9103 82.363 171.2543 82.414 173.2273" stroke="none" fill="#231F20" fill-rule="nonzero" />
		</g>
		<g clip-path="url(#13)" >
    <path id=""  transform="matrix(1 0 0 -1 0 279)"  d="M85.539 108.9183C 85.613 109.8753 85.266 110.7503 84.656 111.3593C 84 112.0203 83.102 112.3133 82.215 112.2423C 82.203 112.7153 82.191 113.1913 82.18 113.6643C 83.453 113.7663 84.746 113.3443 85.691 112.3953C 86.57 111.5203 87.07 110.2583 86.961 108.8833C 86.488 108.8953 86.961 108.8833 85.539 108.9183" stroke="none" fill="#FFFFFF" fill-rule="nonzero" />
		</g>
		<g clip-path="url(#14)" >
    <path id=""  transform="matrix(1 0 0 -1 0 279)"  d="M86.996 109.1133C 87.102 110.4383 86.621 111.6523 85.777 112.4963C 84.863 113.4063 83.621 113.8133 82.395 113.7153C 82.379 114.3753 82.363 115.0313 82.344 115.6883C 84.109 115.8283 85.898 115.2423 87.211 113.9303C 88.426 112.7153 89.117 110.9693 88.969 109.0633C 88.313 109.0823 88.969 109.0633 86.996 109.1133" stroke="none" fill="#231F20" fill-rule="nonzero" />
		</g>
		<g clip-path="url(#15)" >
    <path id=""  transform="matrix(1 0 0 -1 0 279)"  d="M147.949 112.0593L115.996 112.1953" stroke="#FFFFFF" stroke-width="2.904949" stroke-linejoin="miter" fill="none" />
		</g>
		<g clip-path="url(#16)" >
    <path id=""  transform="matrix(1 0 0 -1 0 279)"  d="M150.367 112.7773L147.578 112.7893" stroke="#FFFFFF" stroke-width="1.452473" stroke-linejoin="miter" fill="none" />
		</g>
		<g clip-path="url(#17)" >
    <path id=""  transform="matrix(1 0 0 -1 0 279)"  d="M117.504 174.5513L85.07 174.6913" stroke="#FFFFFF" stroke-width="2.904949" stroke-linejoin="miter" fill="none" />
		</g>
		<g clip-path="url(#18)" >
    <path id=""  transform="matrix(1 0 0 -1 0 279)"  d="M85.898 173.9613L83.109 173.9733" stroke="#FFFFFF" stroke-width="1.452473" stroke-linejoin="miter" fill="none" />
		</g>
		<g clip-path="url(#19)" >
    <path id=""  transform="matrix(1 0 0 -1 0 279)"  d="M121.777 113.7583L126.156 113.7583L126.156 113.7583L126.156 110.5633L126.156 110.5633L121.777 110.5633z" stroke="none" fill="#231F20" fill-rule="evenodd" />
		</g>
		<g clip-path="url(#20)" >
    <path id=""  transform="matrix(1 0 0 -1 0 279)"  d="M131.98 113.8283L136.359 113.8283L136.359 113.8283L136.359 110.6333L136.359 110.6333L131.98 110.6333z" stroke="none" fill="#231F20" fill-rule="evenodd" />
		</g>
		<g clip-path="url(#21)" >
    <path id=""  transform="matrix(1 0 0 -1 0 279)"  d="M142.164 113.6723L146.547 113.6723L146.547 113.6723L146.547 110.4773L146.547 110.4773L142.164 110.4773z" stroke="none" fill="#231F20" fill-rule="evenodd" />
		</g>
		<g clip-path="url(#22)" >
    <path id=""  transform="matrix(1 0 0 -1 0 279)"  d="M86.977 176.1563L91.36 176.1563L91.36 176.1563L91.36 172.9613L91.36 172.9613L86.977 172.9613z" stroke="none" fill="#231F20" fill-rule="evenodd" />
		</g>
		<g clip-path="url(#23)" >
    <path id=""  transform="matrix(1 0 0 -1 0 279)"  d="M97.184 176.2273L101.563 176.2273L101.563 176.2273L101.563 173.0323L101.563 173.0323L97.184 173.0323z" stroke="none" fill="#231F20" fill-rule="evenodd" />
		</g>
		<g clip-path="url(#24)" >
    <path id=""  transform="matrix(1 0 0 -1 0 279)"  d="M107.367 176.0703L111.746 176.0703L111.746 176.0703L111.746 172.8753L111.746 172.8753L107.367 172.8753z" stroke="none" fill="#231F20" fill-rule="evenodd" />
		</g>
		<g clip-path="url(#25)" >
    <path id=""  transform="matrix(1 0 0 -1 0 279)"  d="M86.813 173.9573C 126.043 172.4023 145.633 149.5393 147.27 113.0663" stroke="#FFFFFF" stroke-width="1.452473" stroke-linejoin="miter" stroke-dasharray="9.99999713897705,9.99999713897705" fill="none" />
		</g>
		<g clip-path="url(#26)" >
    <path id=""  transform="matrix(1 0 0 -1 0 279)"  d="M133.133 55.5983C 133.133 55.5983 133.445 75.7933 133.57 78.2113C 133.629 80.70331 132.418 81.5863 131.914 81.5863C 131.863 80.9883 131.914 74.78931 131.914 74.78931L131.914 74.78931L129.359 82.9843L129.359 82.9843L131.914 93.5943L131.914 93.5943L131.969 85.3403C 131.969 85.3403 133.555 85.4263 134.461 82.48131C 135.238 80.66031 134.672 64.5233 135.164 55.5983L135.164 55.5983L133.133 55.5983" stroke="none" fill="#FFFFFF" fill-rule="nonzero" />
		</g>
		<g clip-path="url(#27)" >
    <path id=""  transform="matrix(1 0 0 -1 0 279)"  d="M133.133 55.5983C 133.133 55.5983 133.445 75.7933 133.57 78.2113C 133.629 80.70331 132.418 81.5863 131.914 81.5863C 131.863 80.9883 131.914 74.78931 131.914 74.78931L131.914 74.78931L129.359 82.9843L129.359 82.9843L131.914 93.5943L131.914 93.5943L131.969 85.3403C 131.969 85.3403 133.555 85.4263 134.461 82.48131C 135.238 80.66031 134.672 64.5233 135.164 55.5983z" stroke="#000000" stroke-width="0.0576485" stroke-linejoin="miter" fill="none" />
		</g>
		<g clip-path="url(#28)" >
    <path id=""  transform="matrix(1 0 0 -1 0 279)"  d="M131.117 93.5943L79.68 93.5943" stroke="#ED1C24" stroke-width="0.145247" stroke-linejoin="miter" fill="none" />
		</g>
		<g clip-path="url(#29)" >
    <path id=""  transform="matrix(1 0 0 -1 0 279)"  d="M147.551 110.7193L79.68 110.7193" stroke="#ED1C24" stroke-width="0.145247" stroke-linejoin="miter" fill="none" />
		</g>
		<g clip-path="url(#30)" >
    <path id=""  transform="matrix(1 0 0 -1 0 279)"  d="M80.477 109.9573L80.477 94.35631" stroke="#ED1C24" stroke-width="0.145247" stroke-linejoin="miter" fill="none" />
		</g>
		<g clip-path="url(#31)" >
    <path id=""  transform="matrix(1 0 0 -1 0 279)"  d="M80.07 109.1953L80.477 110.7193L80.477 110.7193L80.887 109.1953L80.887 109.1953L80.07 109.1953" stroke="none" fill="#ED1C24" fill-rule="evenodd" />
		</g>
		<g clip-path="url(#32)" >
    <path id=""  transform="matrix(1 0 0 -1 0 279)"  d="M80.07 95.11731L80.477 93.5943L80.477 93.5943L80.887 95.11731L80.887 95.11731L80.07 95.11731" stroke="none" fill="#ED1C24" fill-rule="evenodd" />
		</g>
		<g clip-path="url(#33)" >
    <path id=""  transform="matrix(1 0 0 -1 0 279)"  d="M80.477 77.5083L80.477 93.5943" stroke="#ED1C24" stroke-width="0.145247" stroke-linejoin="miter" fill="none" />
		</g>
		<g clip-path="url(#34)" >
    <path id=""  transform="matrix(1 0 0 -1 0 279)"  d="M73.488 84.2583C 73.488 83.03931 73.641 82.24231 73.91 81.8443C 74.203 81.4453 74.543 81.24631 74.953 81.24631C 75.363 81.24631 75.715 81.45731 75.996 81.8443C 76.277 82.24231 76.418 83.0513 76.418 84.2583C 76.418 85.4653 76.277 86.2623 75.996 86.66031C 75.727 87.05931 75.363 87.2583 74.941 87.2583C 74.543 87.2583 74.203 87.08231 73.957 86.73131C 73.641 86.28531 73.488 85.4653 73.488 84.2583zM72.574 84.2583C 72.574 85.12531 72.668 85.8163 72.832 86.35631C 73.02 86.8833 73.277 87.2933 73.641 87.57431C 73.98 87.85631 74.426 87.99631 74.953 87.99631C 75.352 87.99631 75.691 87.91431 75.996 87.7623C 76.289 87.5983 76.535 87.37531 76.734 87.08231C 76.922 86.7773 77.063 86.41431 77.18 85.99231C 77.297 85.55931 77.344 84.9843 77.344 84.2583C 77.344 83.3913 77.25 82.69931 77.074 82.1723C 76.898 81.64531 76.641 81.2343 76.289 80.9413C 75.938 80.66031 75.492 80.52031 74.953 80.52031C 74.25 80.52031 73.699 80.7663 73.301 81.27031C 72.82 81.8913 72.574 82.87531 72.574 84.2583zM66.879 82.55931L67.816 82.6293C 67.887 82.1723 68.051 81.83231 68.297 81.5983C 68.555 81.3633 68.859 81.24631 69.234 81.24631C 69.668 81.24631 70.031 81.41031 70.336 81.7383C 70.629 82.0663 70.781 82.50031 70.781 83.03931C 70.781 83.5553 70.629 83.9653 70.348 84.2583C 70.066 84.56331 69.691 84.70331 69.223 84.70331C 68.93 84.70331 68.672 84.64531 68.438 84.5043C 68.203 84.37531 68.027 84.19931 67.887 83.9883L67.887 83.9883L67.043 84.10631L67.043 84.10631L67.746 87.8793L67.746 87.8793L71.379 87.8793L71.379 87.8793L71.379 87.0123L71.379 87.0123L68.461 87.0123L68.461 87.0123L68.074 85.0433C 68.52 85.3483 68.977 85.50031 69.457 85.50031C 70.09 85.50031 70.629 85.2773 71.074 84.83231C 71.52 84.3983 71.73 83.82431 71.73 83.12131C 71.73 82.4653 71.531 81.8913 71.156 81.41031C 70.688 80.81331 70.043 80.52031 69.234 80.52031C 68.566 80.52031 68.027 80.6953 67.605 81.08231C 67.172 81.4453 66.938 81.94931 66.879 82.55931zM65.902 81.49231L65.902 80.6373L65.902 80.6373L61.039 80.6373C 61.027 80.8483 61.074 81.0703 61.145 81.2583C 61.273 81.5863 61.473 81.91431 61.754 82.23131C 62.023 82.55931 62.41 82.93431 62.926 83.3443C 63.711 84.00031 64.262 84.5163 64.543 84.9023C 64.824 85.2773 64.965 85.6413 64.965 85.98131C 64.965 86.3443 64.848 86.6373 64.59 86.8833C 64.332 87.1293 63.992 87.2583 63.582 87.2583C 63.148 87.2583 62.797 87.11731 62.539 86.8593C 62.27 86.6133 62.141 86.25031 62.141 85.7933L62.141 85.7933L61.215 85.87531C 61.273 86.5663 61.52 87.0943 61.93 87.45731C 62.34 87.8203 62.902 87.99631 63.605 87.99631C 64.297 87.99631 64.859 87.80931 65.27 87.4223C 65.68 87.0233 65.891 86.53131 65.891 85.95731C 65.891 85.66431 65.832 85.3833 65.703 85.10231C 65.586 84.8203 65.387 84.5163 65.105 84.19931C 64.836 83.8833 64.367 83.44931 63.723 82.91031C 63.184 82.4653 62.832 82.1483 62.68 81.9843C 62.527 81.8203 62.398 81.65631 62.305 81.49231zM54.801 82.8403L54.801 83.74231L54.801 83.74231L57.59 83.74231L57.59 83.74231L57.59 82.8403zM47.285 84.2583C 47.285 83.03931 47.438 82.24231 47.707 81.8443C 48 81.4453 48.34 81.24631 48.75 81.24631C 49.16 81.24631 49.512 81.45731 49.793 81.8443C 50.074 82.24231 50.215 83.0513 50.215 84.2583C 50.215 85.4653 50.074 86.2623 49.793 86.66031C 49.523 87.05931 49.16 87.2583 48.738 87.2583C 48.34 87.2583 48 87.08231 47.754 86.73131C 47.438 86.28531 47.285 85.4653 47.285 84.2583zM46.371 84.2583C 46.371 85.12531 46.465 85.8163 46.629 86.35631C 46.816 86.8833 47.074 87.2933 47.438 87.57431C 47.777 87.85631 48.223 87.99631 48.75 87.99631C 49.148 87.99631 49.488 87.91431 49.793 87.7623C 50.086 87.5983 50.332 87.37531 50.531 87.08231C 50.719 86.7773 50.859 86.41431 50.977 85.99231C 51.094 85.55931 51.141 84.9843 51.141 84.2583C 51.141 83.3913 51.047 82.69931 50.871 82.1723C 50.695 81.64531 50.438 81.2343 50.086 80.9413C 49.734 80.66031 49.289 80.52031 48.75 80.52031C 48.047 80.52031 47.496 80.7663 47.098 81.27031C 46.617 81.8913 46.371 82.87531 46.371 84.2583zM40.672 82.55931L41.609 82.6293C 41.68 82.1723 41.844 81.83231 42.09 81.5983C 42.348 81.3633 42.652 81.24631 43.027 81.24631C 43.461 81.24631 43.824 81.41031 44.129 81.7383C 44.422 82.0663 44.574 82.50031 44.574 83.03931C 44.574 83.5553 44.422 83.9653 44.141 84.2583C 43.859 84.56331 43.484 84.70331 43.016 84.70331C 42.723 84.70331 42.465 84.64531 42.23 84.5043C 41.996 84.37531 41.82 84.19931 41.68 83.9883L41.68 83.9883L40.836 84.10631L40.836 84.10631L41.539 87.8793L41.539 87.8793L45.172 87.8793L45.172 87.8793L45.172 87.0123L45.172 87.0123L42.254 87.0123L42.254 87.0123L41.867 85.0433C 42.313 85.3483 42.77 85.50031 43.25 85.50031C 43.883 85.50031 44.422 85.2773 44.867 84.83231C 45.313 84.3983 45.523 83.82431 45.523 83.12131C 45.523 82.4653 45.324 81.8913 44.949 81.41031C 44.48 80.81331 43.836 80.52031 43.027 80.52031C 42.359 80.52031 41.82 80.6953 41.398 81.08231C 40.965 81.4453 40.73 81.94931 40.672 82.55931z" stroke="none" fill="#EF3221" fill-rule="nonzero" />
		</g>
		<g clip-path="url(#35)" >
    <path id=""  transform="matrix(1 0 0 -1 0 279)"  d="M156.258 93.7623C 156.258 90.95331 158.531 88.6763 161.34 88.6763C 164.148 88.6763 166.426 90.95331 166.426 93.7623C 166.426 96.5663 164.148 98.8443 161.34 98.8443C 158.531 98.8443 156.258 96.5663 156.258 93.7623" stroke="none" fill="#FFFFFF" fill-rule="evenodd" />
		</g>
		<g clip-path="url(#36)" >
    <path id=""  transform="matrix(1 0 0 -1 0 279)"  d="M156.258 93.7623C 156.258 90.95331 158.531 88.6763 161.34 88.6763C 164.148 88.6763 166.426 90.95331 166.426 93.7623C 166.426 96.5663 164.148 98.8443 161.34 98.8443C 158.531 98.8443 156.258 96.5663 156.258 93.7623z" stroke="#000000" stroke-width="0.0363089" stroke-linejoin="miter" fill="none" />
		</g>
		<g clip-path="url(#37)" >
    <path id=""  transform="matrix(1 0 0 -1 0 279)"  d="M156.574 93.7623C 156.574 91.1293 158.707 88.99631 161.34 88.99631C 163.973 88.99631 166.105 91.1293 166.105 93.7623C 166.105 96.39531 163.973 98.5273 161.34 98.5273C 158.707 98.5273 156.574 96.39531 156.574 93.7623" stroke="none" fill="#154889" fill-rule="evenodd" />
		</g>
		<g clip-path="url(#38)" >
    <path id=""  transform="matrix(1 0 0 -1 0 279)"  d="M161.035 97.0163L159.73 95.7153L159.73 95.7153L161.078 95.70731C 162.746 95.6373 163.156 94.18431 163.223 93.7623L163.223 93.7623L163.223 90.3793L163.223 90.3793L162.301 90.3793L162.301 90.3793L162.301 93.62131C 162.301 93.7773 162.164 94.6333 161.129 94.81331L161.129 94.81331L159.707 94.80931L159.707 94.80931L161.035 93.48131L161.035 93.48131L159.891 93.48131L159.891 93.48131L158.125 95.24631L158.125 95.24631L158.121 95.24631L158.121 95.24631L158.125 95.25031L158.125 95.25031L158.121 95.25031L158.121 95.25031L158.125 95.25031L158.125 95.25031L159.891 97.0163L159.891 97.0163L161.035 97.0163" stroke="none" fill="#FFFFFF" fill-rule="evenodd" />
		</g>
		<g clip-path="url(#39)" >
    <path id=""  transform="matrix(1 0 0 -1 0 279)"  d="M159.031 98.82431L162.188 98.82431" stroke="#ED1C24" stroke-width="0.145247" stroke-linejoin="miter" fill="none" />
		</g>
		<g clip-path="url(#40)" >
    <path id=""  transform="matrix(1 0 0 -1 0 279)"  d="M147.551 110.7193L162.188 110.7193" stroke="#ED1C24" stroke-width="0.145247" stroke-linejoin="miter" fill="none" />
		</g>
		<g clip-path="url(#41)" >
    <path id=""  transform="matrix(1 0 0 -1 0 279)"  d="M161.391 109.9573L161.391 99.5863" stroke="#ED1C24" stroke-width="0.145247" stroke-linejoin="miter" fill="none" />
		</g>
		<g clip-path="url(#42)" >
    <path id=""  transform="matrix(1 0 0 -1 0 279)"  d="M160.98 109.1953L161.391 110.7193L161.391 110.7193L161.801 109.1953L161.801 109.1953L160.98 109.1953" stroke="none" fill="#ED1C24" fill-rule="evenodd" />
		</g>
		<g clip-path="url(#43)" >
    <path id=""  transform="matrix(1 0 0 -1 0 279)"  d="M160.98 100.3483L161.391 98.82431L161.391 98.82431L161.801 100.3483L161.801 100.3483L160.98 100.3483" stroke="none" fill="#ED1C24" fill-rule="evenodd" />
		</g>
		<g clip-path="url(#44)" >
    <path id=""  transform="matrix(1 0 0 -1 0 279)"  d="M202.355 102.5633C 202.355 101.3443 202.508 100.5473 202.777 100.1483C 203.07 99.75031 203.41 99.5513 203.82 99.5513C 204.23 99.5513 204.582 99.7623 204.863 100.1483C 205.145 100.5473 205.285 101.3563 205.285 102.5633C 205.285 103.7703 205.145 104.5663 204.863 104.9653C 204.594 105.3633 204.23 105.5633 203.809 105.5633C 203.41 105.5633 203.07 105.3873 202.824 105.0353C 202.508 104.5903 202.355 103.7703 202.355 102.5633zM201.441 102.5633C 201.441 103.4303 201.535 104.1213 201.699 104.6603C 201.887 105.1883 202.145 105.5983 202.508 105.8793C 202.848 106.1603 203.293 106.3013 203.82 106.3013C 204.219 106.3013 204.559 106.2193 204.863 106.0663C 205.156 105.9023 205.402 105.6803 205.602 105.3873C 205.789 105.0823 205.93 104.7193 206.047 104.2973C 206.164 103.8633 206.211 103.2893 206.211 102.5633C 206.211 101.6953 206.117 101.0043 205.941 100.4773C 205.766 99.94931 205.508 99.53931 205.156 99.24631C 204.805 98.9653 204.359 98.82431 203.82 98.82431C 203.117 98.82431 202.566 99.0703 202.168 99.57431C 201.688 100.1953 201.441 101.1803 201.441 102.5633zM195.746 100.8633L196.684 100.9343C 196.754 100.4773 196.918 100.1373 197.164 99.9023C 197.422 99.6683 197.727 99.5513 198.102 99.5513C 198.535 99.5513 198.898 99.7153 199.203 100.0433C 199.496 100.3713 199.648 100.8053 199.648 101.3443C 199.648 101.8593 199.496 102.2703 199.215 102.5633C 198.934 102.8673 198.559 103.0083 198.09 103.0083C 197.797 103.0083 197.539 102.9493 197.305 102.8093C 197.07 102.6803 196.895 102.5043 196.754 102.2933L196.754 102.2933L195.91 102.4103L195.91 102.4103L196.613 106.1843L196.613 106.1843L200.246 106.1843L200.246 106.1843L200.246 105.3163L200.246 105.3163L197.328 105.3163L197.328 105.3163L196.941 103.3483C 197.387 103.6523 197.844 103.8053 198.324 103.8053C 198.957 103.8053 199.496 103.5823 199.941 103.1373C 200.387 102.7033 200.598 102.1293 200.598 101.4263C 200.598 100.7703 200.398 100.1953 200.023 99.7153C 199.555 99.11731 198.91 98.82431 198.102 98.82431C 197.434 98.82431 196.895 99.00031 196.473 99.3873C 196.039 99.75031 195.805 100.2543 195.746 100.8633zM194.77 99.7973L194.77 98.9413L194.77 98.9413L189.906 98.9413C 189.895 99.1523 189.941 99.37531 190.012 99.56331C 190.141 99.8913 190.34 100.2193 190.621 100.5353C 190.891 100.8633 191.277 101.2383 191.793 101.6483C 192.578 102.3053 193.129 102.8203 193.41 103.2073C 193.691 103.5823 193.832 103.9453 193.832 104.2853C 193.832 104.6483 193.715 104.9413 193.457 105.1883C 193.199 105.4343 192.859 105.5633 192.449 105.5633C 192.016 105.5633 191.664 105.4223 191.406 105.1643C 191.137 104.9183 191.008 104.5553 191.008 104.0983L191.008 104.0983L190.082 104.1803C 190.141 104.8713 190.387 105.3983 190.797 105.7623C 191.207 106.1253 191.77 106.3013 192.473 106.3013C 193.164 106.3013 193.727 106.1133 194.137 105.7273C 194.547 105.3283 194.758 104.8363 194.758 104.2623C 194.758 103.9693 194.699 103.6883 194.57 103.4063C 194.453 103.1253 194.254 102.8203 193.973 102.5043C 193.703 102.1883 193.234 101.7543 192.59 101.2153C 192.051 100.7703 191.699 100.4533 191.547 100.2893C 191.395 100.1253 191.266 99.9613 191.172 99.7973zM183.668 101.1453L183.668 102.0473L183.668 102.0473L186.457 102.0473L186.457 102.0473L186.457 101.1453zM176.152 102.5633C 176.152 101.3443 176.305 100.5473 176.574 100.1483C 176.867 99.75031 177.207 99.5513 177.617 99.5513C 178.027 99.5513 178.379 99.7623 178.66 100.1483C 178.941 100.5473 179.082 101.3563 179.082 102.5633C 179.082 103.7703 178.941 104.5663 178.66 104.9653C 178.391 105.3633 178.027 105.5633 177.605 105.5633C 177.207 105.5633 176.867 105.3873 176.621 105.0353C 176.305 104.5903 176.152 103.7703 176.152 102.5633zM175.238 102.5633C 175.238 103.4303 175.332 104.1213 175.496 104.6603C 175.684 105.1883 175.941 105.5983 176.305 105.8793C 176.645 106.1603 177.09 106.3013 177.617 106.3013C 178.016 106.3013 178.355 106.2193 178.66 106.0663C 178.953 105.9023 179.199 105.6803 179.398 105.3873C 179.586 105.0823 179.727 104.7193 179.844 104.2973C 179.961 103.8633 180.008 103.2893 180.008 102.5633C 180.008 101.6953 179.914 101.0043 179.738 100.4773C 179.563 99.94931 179.305 99.53931 178.953 99.24631C 178.602 98.9653 178.156 98.82431 177.617 98.82431C 176.914 98.82431 176.363 99.0703 175.965 99.57431C 175.484 100.1953 175.238 101.1803 175.238 102.5633zM169.539 100.8633L170.477 100.9343C 170.547 100.4773 170.711 100.1373 170.957 99.9023C 171.215 99.6683 171.52 99.5513 171.895 99.5513C 172.328 99.5513 172.691 99.7153 172.996 100.0433C 173.289 100.3713 173.441 100.8053 173.441 101.3443C 173.441 101.8593 173.289 102.2703 173.008 102.5633C 172.727 102.8673 172.352 103.0083 171.883 103.0083C 171.59 103.0083 171.332 102.9493 171.098 102.8093C 170.863 102.6803 170.688 102.5043 170.547 102.2933L170.547 102.2933L169.703 102.4103L169.703 102.4103L170.406 106.1843L170.406 106.1843L174.039 106.1843L174.039 106.1843L174.039 105.3163L174.039 105.3163L171.121 105.3163L171.121 105.3163L170.734 103.3483C 171.18 103.6523 171.637 103.8053 172.117 103.8053C 172.75 103.8053 173.289 103.5823 173.734 103.1373C 174.18 102.7033 174.391 102.1293 174.391 101.4263C 174.391 100.7703 174.191 100.1953 173.816 99.7153C 173.348 99.11731 172.703 98.82431 171.895 98.82431C 171.227 98.82431 170.688 99.00031 170.266 99.3873C 169.832 99.75031 169.598 100.2543 169.539 100.8633zM167.219 98.9413L166.316 98.9413L166.316 98.9413L166.316 104.6723C 166.105 104.4733 165.813 104.2623 165.473 104.0633C 165.109 103.8633 164.793 103.6993 164.512 103.5943L164.512 103.5943L164.512 104.4613C 165.016 104.6953 165.461 104.9883 165.836 105.3163C 166.211 105.6563 166.48 105.9843 166.633 106.3013L166.633 106.3013L167.219 106.3013z" stroke="none" fill="#EF3221" fill-rule="nonzero" />
		</g>
		<g clip-path="url(#45)" >
    <path id=""  transform="matrix(1 0 0 -1 0 279)"  d="M189.566 183.0083L184.969 187.6063C 184.758 187.8163 184.828 188.1293 184.973 188.2813L184.973 188.2813L189.555 192.8593C 189.789 193.0943 190.109 193.0123 190.262 192.8633L190.262 192.8633L194.824 188.3133C 195.043 188.0943 195.047 187.8013 194.832 187.5903L194.832 187.5903L190.254 183.0043C 189.91 182.6603 189.566 183.0083 189.566 183.0083" stroke="none" fill="#FFFFFF" fill-rule="evenodd" />
		</g>
		<g clip-path="url(#46)" >
    <path id=""  transform="matrix(1 0 0 -1 0 279)"  d="M194.824 188.3133C 195.043 188.0943 195.047 187.8013 194.832 187.5903C 193.309 186.0633 191.781 184.5313 190.254 183.0043C 189.91 182.6603 189.566 183.0083 189.566 183.0083L189.566 183.0083L184.969 187.6063C 184.758 187.8163 184.828 188.1293 184.973 188.2813L184.973 188.2813L189.555 192.8593C 189.789 193.0943 190.109 193.0123 190.262 192.8633L190.262 192.8633L194.824 188.3133" stroke="none" fill="#FFFFFF" fill-rule="evenodd" />
		</g>
		<g clip-path="url(#47)" >
    <path id=""  transform="matrix(1 0 0 -1 0 279)"  d="M194.824 188.3133C 195.043 188.0943 195.047 187.8013 194.832 187.5903C 193.309 186.0633 191.781 184.5313 190.254 183.0043C 189.91 182.6603 189.566 183.0083 189.566 183.0083L189.566 183.0083L184.969 187.6063C 184.758 187.8163 184.828 188.1293 184.973 188.2813L184.973 188.2813L189.555 192.8593C 189.789 193.0943 190.109 193.0123 190.262 192.8633L190.262 192.8633L194.824 188.3133" stroke="none" fill="#FFFFFF" fill-rule="evenodd" />
		</g>
		<g clip-path="url(#48)" >
    <path id=""  transform="matrix(1 0 0 -1 0 279)"  d="M190 192.6213C 189.914 192.7113 189.824 192.6213 189.824 192.6213C 188.293 191.0903 186.762 189.5593 185.23 188.0273C 185.23 188.0273 185.137 187.9413 185.227 187.8523L185.227 187.8523L189.824 183.2623C 189.918 183.1683 189.996 183.2623 189.996 183.2623C 191.531 184.7893 193.063 186.3243 194.594 187.8563C 194.594 187.8563 194.688 187.9343 194.594 188.0273L194.594 188.0273L190 192.6213M190.133 192.7543L194.727 188.1603C 194.953 187.9343 194.73 187.7233 194.73 187.7233L194.73 187.7233L190.129 183.1253C 190.129 183.1253 189.918 182.9063 189.691 183.1293L189.691 183.1293L185.098 187.7233C 184.871 187.9453 185.098 188.1603 185.098 188.1603C 186.629 189.6913 188.16 191.2233 189.695 192.7543C 189.695 192.7543 189.906 192.9773 190.133 192.7543z" stroke="none" fill="#000000" fill-rule="evenodd" />
		</g>
		<g clip-path="url(#49)" >
    <path id=""  transform="matrix(1 0 0 -1 0 279)"  d="M189.914 185.1253L192.73 187.9413L192.73 187.9413L189.914 190.7583L189.914 190.7583L187.094 187.9413L187.094 187.9413L189.914 185.1253" stroke="none" fill="#F7BA0B" fill-rule="evenodd" />
		</g>
		<g clip-path="url(#50)" >
    <path id=""  transform="matrix(1 0 0 -1 0 279)"  d="M189.914 185.2153L192.641 187.9413L192.641 187.9413L189.914 190.6683L189.914 190.6683L187.184 187.9413L187.184 187.9413L189.914 185.2153M189.914 185.0393L189.867 185.0823L189.867 185.0823L187.008 187.9413L187.008 187.9413L189.914 190.8443L189.914 190.8443L192.816 187.9413z" stroke="none" fill="#000000" fill-rule="evenodd" />
		</g>
		<g clip-path="url(#51)" >
    <path id=""  transform="matrix(1 0 0 -1 0 279)"  d="M194.824 188.3133L190.262 192.8633C 190.109 193.0123 189.789 193.0943 189.555 192.8593L189.555 192.8593L184.973 188.2813C 184.828 188.1293 184.758 187.8163 184.969 187.6063L184.969 187.6063L189.566 183.0083C 189.566 183.0083 189.91 182.6603 190.254 183.0043C 191.781 184.5313 193.309 186.0633 194.832 187.5903C 195.047 187.8013 195.043 188.0943 194.824 188.3133M194.828 188.3163C 194.938 188.2073 194.996 188.0783 194.996 187.9493C 195 187.8203 194.945 187.6913 194.836 187.5863C 193.313 186.0593 191.785 184.5273 190.258 183.0003C 190.086 182.8283 189.91 182.8283 189.781 182.8713C 189.648 182.9143 189.563 183.0003 189.563 183.0003L189.563 183.0003L184.965 187.6023C 184.867 187.6993 184.828 187.8163 184.828 187.9303C 184.828 187.9413 184.828 187.9533 184.828 187.9653C 184.84 188.0903 184.895 188.2073 184.969 188.2893L184.969 188.2893L189.547 192.8633C 189.668 192.9843 189.809 193.0233 189.938 193.0123C 190.07 193.0003 190.191 192.9413 190.266 192.8673z" stroke="none" fill="#000000" fill-rule="evenodd" />
		</g>
		<g clip-path="url(#52)" >
    <path id=""  transform="matrix(1 0 0 -1 0 279)"  d="M43.473 93.8403L38.871 98.4413C 38.66 98.6523 38.73 98.9653 38.875 99.11731L38.875 99.11731L43.457 103.6953C 43.691 103.9303 44.016 103.8483 44.164 103.6953L44.164 103.6953L48.727 99.1483C 48.945 98.9303 48.949 98.6373 48.738 98.4263L48.738 98.4263L44.16 93.8403C 43.813 93.49631 43.473 93.8403 43.473 93.8403" stroke="none" fill="#FFFFFF" fill-rule="evenodd" />
		</g>
		<g clip-path="url(#53)" >
    <path id=""  transform="matrix(1 0 0 -1 0 279)"  d="M48.727 99.1483C 48.945 98.9303 48.949 98.6373 48.738 98.4263C 47.211 96.89531 45.684 95.36731 44.16 93.8403C 43.813 93.49631 43.473 93.8403 43.473 93.8403L43.473 93.8403L38.871 98.4413C 38.66 98.6523 38.73 98.9653 38.875 99.11731L38.875 99.11731L43.457 103.6953C 43.691 103.9303 44.016 103.8483 44.164 103.6953L44.164 103.6953L48.727 99.1483" stroke="none" fill="#FFFFFF" fill-rule="evenodd" />
		</g>
		<g clip-path="url(#54)" >
    <path id=""  transform="matrix(1 0 0 -1 0 279)"  d="M48.727 99.1483C 48.945 98.9303 48.949 98.6373 48.738 98.4263C 47.211 96.89531 45.684 95.36731 44.16 93.8403C 43.813 93.49631 43.473 93.8403 43.473 93.8403L43.473 93.8403L38.871 98.4413C 38.66 98.6523 38.73 98.9653 38.875 99.11731L38.875 99.11731L43.457 103.6953C 43.691 103.9303 44.016 103.8483 44.164 103.6953L44.164 103.6953L48.727 99.1483" stroke="none" fill="#FFFFFF" fill-rule="evenodd" />
		</g>
		<g clip-path="url(#55)" >
    <path id=""  transform="matrix(1 0 0 -1 0 279)"  d="M43.906 103.4573C 43.816 103.5473 43.727 103.4533 43.727 103.4533C 42.195 101.9263 40.664 100.3953 39.133 98.8633C 39.133 98.8633 39.043 98.7733 39.133 98.68831L39.133 98.68831L43.727 94.0983C 43.824 94.0043 43.902 94.0983 43.902 94.0983C 45.438 95.62531 46.969 97.15631 48.496 98.6913C 48.496 98.6913 48.59 98.77031 48.5 98.8633L48.5 98.8633L43.906 103.4573M44.035 103.5903L48.629 98.99231C 48.855 98.77031 48.633 98.55931 48.633 98.55931L48.633 98.55931L44.031 93.9613C 44.031 93.9613 43.82 93.7383 43.598 93.9653L43.598 93.9653L39 98.5553C 38.773 98.78131 39 98.99231 39 98.99231C 40.531 100.5273 42.063 102.0593 43.598 103.5903C 43.598 103.5903 43.809 103.8133 44.035 103.5903z" stroke="none" fill="#000000" fill-rule="evenodd" />
		</g>
		<g clip-path="url(#56)" >
    <path id=""  transform="matrix(1 0 0 -1 0 279)"  d="M43.816 95.9613L46.633 98.7773L46.633 98.7773L43.816 101.5903L43.816 101.5903L41 98.7773L41 98.7773L43.816 95.9613" stroke="none" fill="#F7BA0B" fill-rule="evenodd" />
		</g>
		<g clip-path="url(#57)" >
    <path id=""  transform="matrix(1 0 0 -1 0 279)"  d="M43.816 96.0473L46.547 98.7773L46.547 98.7773L43.816 101.5043L43.816 101.5043L41.086 98.7773L41.086 98.7773L43.816 96.0473M43.816 95.87131L43.773 95.9183L43.773 95.9183L40.91 98.7773L40.91 98.7773L43.816 101.6803L43.816 101.6803L46.723 98.7773z" stroke="none" fill="#000000" fill-rule="evenodd" />
		</g>
		<g clip-path="url(#58)" >
    <path id=""  transform="matrix(1 0 0 -1 0 279)"  d="M48.727 99.1483L44.164 103.6953C 44.016 103.8483 43.691 103.9303 43.457 103.6953L43.457 103.6953L38.875 99.11731C 38.73 98.9653 38.66 98.6523 38.871 98.4413L38.871 98.4413L43.473 93.8403C 43.473 93.8403 43.813 93.49631 44.16 93.8403C 45.684 95.36731 47.211 96.89531 48.738 98.4263C 48.949 98.6373 48.945 98.9303 48.727 99.1483M48.73 99.1523C 48.84 99.03931 48.898 98.91031 48.898 98.78131C 48.902 98.65631 48.848 98.5273 48.742 98.4183C 47.215 96.8913 45.688 95.3633 44.164 93.8363C 43.988 93.66031 43.813 93.66031 43.684 93.70331C 43.555 93.75031 43.469 93.8363 43.469 93.8363L43.469 93.8363L38.867 98.43831C 38.77 98.53531 38.73 98.6523 38.73 98.7663C 38.73 98.7773 38.734 98.78931 38.734 98.8013C 38.742 98.9263 38.797 99.0433 38.871 99.12131L38.871 99.12131L43.453 103.6993C 43.57 103.8163 43.711 103.8563 43.844 103.8483C 43.973 103.8363 44.094 103.7773 44.168 103.6993z" stroke="none" fill="#000000" fill-rule="evenodd" />
		</g>
		<g clip-path="url(#59)" >
    <path id=""  transform="matrix(1 0 0 -1 0 279)"  d="M184.148 188.7583L184.148 192.7273" stroke="#ED1C24" stroke-width="0.145247" stroke-linejoin="miter" fill="none" />
		</g>
		<g clip-path="url(#60)" >
    <path id=""  transform="matrix(1 0 0 -1 0 279)"  d="M146.281 173.5823L146.281 192.7273" stroke="#ED1C24" stroke-width="0.145247" stroke-linejoin="miter" fill="none" />
		</g>
		<g clip-path="url(#61)" >
    <path id=""  transform="matrix(1 0 0 -1 0 279)"  d="M147.043 191.9303L183.387 191.9303" stroke="#ED1C24" stroke-width="0.145247" stroke-linejoin="miter" fill="none" />
		</g>
		<g clip-path="url(#62)" >
    <path id=""  transform="matrix(1 0 0 -1 0 279)"  d="M147.805 191.5203L146.281 191.9303L146.281 191.9303L147.805 192.3363L147.805 192.3363L147.805 191.5203" stroke="none" fill="#ED1C24" fill-rule="evenodd" />
		</g>
		<g clip-path="url(#63)" >
    <path id=""  transform="matrix(1 0 0 -1 0 279)"  d="M182.625 191.5203L184.148 191.9303L184.148 191.9303L182.625 192.3363L182.625 192.3363L182.625 191.5203" stroke="none" fill="#ED1C24" fill-rule="evenodd" />
		</g>
		<g clip-path="url(#64)" >
    <path id=""  transform="matrix(1 0 0 -1 0 279)"  d="M193.34 198.6763C 193.34 197.4573 193.492 196.6603 193.762 196.2623C 194.055 195.8633 194.395 195.6643 194.805 195.6643C 195.215 195.6643 195.566 195.8753 195.848 196.2623C 196.129 196.6603 196.27 197.4693 196.27 198.6763C 196.27 199.8833 196.129 200.6803 195.848 201.0783C 195.578 201.4773 195.215 201.6763 194.793 201.6763C 194.395 201.6763 194.055 201.5003 193.809 201.1483C 193.492 200.7033 193.34 199.8833 193.34 198.6763zM192.426 198.6763C 192.426 199.5433 192.52 200.2343 192.684 200.7733C 192.871 201.3013 193.129 201.7113 193.492 201.9923C 193.832 202.2733 194.277 202.4143 194.805 202.4143C 195.203 202.4143 195.543 202.3323 195.848 202.1803C 196.141 202.0163 196.387 201.7933 196.586 201.5003C 196.773 201.1953 196.914 200.8323 197.031 200.4103C 197.148 199.9773 197.195 199.4023 197.195 198.6763C 197.195 197.8093 197.102 197.1173 196.926 196.5903C 196.75 196.0633 196.492 195.6523 196.141 195.3593C 195.789 195.0783 195.344 194.9383 194.805 194.9383C 194.102 194.9383 193.551 195.1843 193.152 195.6883C 192.672 196.3093 192.426 197.2933 192.426 198.6763zM187.645 198.6763C 187.645 197.4573 187.797 196.6603 188.066 196.2623C 188.359 195.8633 188.699 195.6643 189.109 195.6643C 189.52 195.6643 189.871 195.8753 190.152 196.2623C 190.434 196.6603 190.574 197.4693 190.574 198.6763C 190.574 199.8833 190.434 200.6803 190.152 201.0783C 189.883 201.4773 189.52 201.6763 189.098 201.6763C 188.699 201.6763 188.359 201.5003 188.113 201.1483C 187.797 200.7033 187.645 199.8833 187.645 198.6763zM186.73 198.6763C 186.73 199.5433 186.824 200.2343 186.988 200.7733C 187.176 201.3013 187.434 201.7113 187.797 201.9923C 188.137 202.2733 188.582 202.4143 189.109 202.4143C 189.508 202.4143 189.848 202.3323 190.152 202.1803C 190.445 202.0163 190.691 201.7933 190.891 201.5003C 191.078 201.1953 191.219 200.8323 191.336 200.4103C 191.453 199.9773 191.5 199.4023 191.5 198.6763C 191.5 197.8093 191.406 197.1173 191.23 196.5903C 191.055 196.0633 190.797 195.6523 190.445 195.3593C 190.094 195.0783 189.648 194.9383 189.109 194.9383C 188.406 194.9383 187.855 195.1843 187.457 195.6883C 186.977 196.3093 186.73 197.2933 186.73 198.6763zM181.031 196.9773L181.969 197.0473C 182.039 196.5903 182.203 196.2503 182.449 196.0163C 182.707 195.7813 183.012 195.6643 183.387 195.6643C 183.82 195.6643 184.184 195.8283 184.488 196.1563C 184.781 196.4843 184.934 196.9183 184.934 197.4573C 184.934 197.9733 184.781 198.3833 184.5 198.6763C 184.219 198.9813 183.844 199.1213 183.375 199.1213C 183.082 199.1213 182.824 199.0633 182.59 198.9223C 182.355 198.7933 182.18 198.6173 182.039 198.4063L182.039 198.4063L181.195 198.5233L181.195 198.5233L181.898 202.2973L181.898 202.2973L185.531 202.2973L185.531 202.2973L185.531 201.4303L185.531 201.4303L182.613 201.4303L182.613 201.4303L182.227 199.4613C 182.672 199.7663 183.129 199.9183 183.609 199.9183C 184.242 199.9183 184.781 199.6953 185.227 199.2503C 185.672 198.8163 185.883 198.2423 185.883 197.5393C 185.883 196.8833 185.684 196.3093 185.309 195.8283C 184.84 195.2313 184.195 194.9383 183.387 194.9383C 182.719 194.9383 182.18 195.1133 181.758 195.5003C 181.324 195.8633 181.09 196.3673 181.031 196.9773zM174.656 197.2583L174.656 198.1603L174.656 198.1603L177.445 198.1603L177.445 198.1603L177.445 197.2583zM167.137 198.6763C 167.137 197.4573 167.289 196.6603 167.559 196.2623C 167.852 195.8633 168.191 195.6643 168.602 195.6643C 169.012 195.6643 169.363 195.8753 169.645 196.2623C 169.926 196.6603 170.066 197.4693 170.066 198.6763C 170.066 199.8833 169.926 200.6803 169.645 201.0783C 169.375 201.4773 169.012 201.6763 168.59 201.6763C 168.191 201.6763 167.852 201.5003 167.605 201.1483C 167.289 200.7033 167.137 199.8833 167.137 198.6763zM166.223 198.6763C 166.223 199.5433 166.316 200.2343 166.48 200.7733C 166.668 201.3013 166.926 201.7113 167.289 201.9923C 167.629 202.2733 168.074 202.4143 168.602 202.4143C 169 202.4143 169.34 202.3323 169.645 202.1803C 169.938 202.0163 170.184 201.7933 170.383 201.5003C 170.57 201.1953 170.711 200.8323 170.828 200.4103C 170.945 199.9773 170.992 199.4023 170.992 198.6763C 170.992 197.8093 170.898 197.1173 170.723 196.5903C 170.547 196.0633 170.289 195.6523 169.938 195.3593C 169.586 195.0783 169.141 194.9383 168.602 194.9383C 167.898 194.9383 167.348 195.1843 166.949 195.6883C 166.469 196.3093 166.223 197.2933 166.223 198.6763zM161.438 198.6763C 161.438 197.4573 161.59 196.6603 161.859 196.2623C 162.152 195.8633 162.492 195.6643 162.902 195.6643C 163.313 195.6643 163.664 195.8753 163.945 196.2623C 164.227 196.6603 164.367 197.4693 164.367 198.6763C 164.367 199.8833 164.227 200.6803 163.945 201.0783C 163.676 201.4773 163.313 201.6763 162.891 201.6763C 162.492 201.6763 162.152 201.5003 161.906 201.1483C 161.59 200.7033 161.438 199.8833 161.438 198.6763zM160.523 198.6763C 160.523 199.5433 160.617 200.2343 160.781 200.7733C 160.969 201.3013 161.227 201.7113 161.59 201.9923C 161.93 202.2733 162.375 202.4143 162.902 202.4143C 163.301 202.4143 163.641 202.3323 163.945 202.1803C 164.238 202.0163 164.484 201.7933 164.684 201.5003C 164.871 201.1953 165.012 200.8323 165.129 200.4103C 165.246 199.9773 165.293 199.4023 165.293 198.6763C 165.293 197.8093 165.199 197.1173 165.023 196.5903C 164.848 196.0633 164.59 195.6523 164.238 195.3593C 163.887 195.0783 163.441 194.9383 162.902 194.9383C 162.199 194.9383 161.648 195.1843 161.25 195.6883C 160.77 196.3093 160.523 197.2933 160.523 198.6763zM154.828 197.0003L155.73 197.1293C 155.824 196.6133 156 196.2383 156.246 196.0163C 156.504 195.7933 156.797 195.6763 157.16 195.6763C 157.594 195.6763 157.945 195.8283 158.25 196.1213C 158.531 196.4143 158.672 196.7773 158.672 197.2113C 158.672 197.6213 158.543 197.9613 158.262 198.2423C 158.004 198.5123 157.664 198.6413 157.242 198.6413C 157.066 198.6413 156.855 198.6063 156.609 198.5353L156.609 198.5353L156.703 199.3203C 156.762 199.3203 156.809 199.3203 156.855 199.3203C 157.23 199.3203 157.582 199.4143 157.887 199.6133C 158.191 199.8133 158.344 200.1293 158.344 200.5393C 158.344 200.8673 158.238 201.1373 158.016 201.3593C 157.781 201.5823 157.5 201.6763 157.148 201.6763C 156.797 201.6763 156.504 201.5703 156.27 201.3593C 156.035 201.1253 155.895 200.7853 155.813 200.3523L155.813 200.3523L154.922 200.5163C 155.027 201.1133 155.273 201.5943 155.66 201.9223C 156.059 202.2503 156.551 202.4143 157.125 202.4143C 157.523 202.4143 157.898 202.3323 158.227 202.1683C 158.566 201.9923 158.824 201.7583 159 201.4653C 159.176 201.1723 159.27 200.8563 159.27 200.5163C 159.27 200.2113 159.188 199.9183 159.012 199.6483C 158.848 199.4023 158.59 199.1913 158.25 199.0393C 158.695 198.9343 159.035 198.7343 159.27 198.4183C 159.504 198.1023 159.633 197.7033 159.633 197.2233C 159.633 196.5903 159.398 196.0513 158.93 195.5943C 158.461 195.1603 157.863 194.9383 157.16 194.9383C 156.516 194.9383 155.977 195.1253 155.555 195.5003C 155.133 195.8983 154.887 196.3913 154.828 197.0003z" stroke="none" fill="#EF3221" fill-rule="nonzero" />
		</g>
		<g clip-path="url(#65)" >
    <path id=""  transform="matrix(1 0 0 -1 0 279)"  d="M161.148 65.2773C 161.262 65.2773 161.375 65.3203 161.461 65.40631C 161.488 65.43431 161.512 65.4653 161.531 65.49631L161.531 65.49631L161.762 65.8913L161.762 65.8913L166.16 73.5123C 166.16 73.5123 166.16 73.5163 166.16 73.5163C 166.184 73.5513 166.199 73.5943 166.211 73.6373C 166.273 73.87131 166.137 74.1093 165.902 74.1763C 165.863 74.18431 165.824 74.18831 165.785 74.18831L165.785 74.18831L156.512 74.18831C 156.27 74.18831 156.07 73.99231 156.07 73.75031C 156.07 73.6683 156.094 73.5943 156.129 73.53131C 156.129 73.53131 156.133 73.5273 156.133 73.5273L156.133 73.5273L160.699 65.60231C 160.754 65.50031 160.781 65.4613 160.84 65.40631C 160.926 65.3203 161.039 65.2773 161.148 65.2773" stroke="none" fill="#FFFFFF" fill-rule="evenodd" />
		</g>
		<g clip-path="url(#66)" >
    <path id=""  transform="matrix(1 0 0 -1 0 279)"  d="M161.156 66.98131L157.617 73.1093L157.617 73.1093L164.695 73.1093L164.695 73.1093L161.156 66.98131M165.781 74.0703L165.805 74.0703zM161.148 65.3873C 161.258 65.3873 161.375 65.4413 161.434 65.5433L161.434 65.5433L166.07 73.58231C 166.098 73.6373 166.109 73.68431 166.109 73.7383C 166.109 73.8363 166.066 73.9303 165.992 73.99231C 165.926 74.0433 165.863 74.0703 165.781 74.0703L165.781 74.0703L156.512 74.0703C 156.453 74.0703 156.398 74.0553 156.348 74.0233C 156.25 73.9653 156.191 73.8593 156.191 73.74631C 156.191 73.68831 156.207 73.62531 156.234 73.58231L156.234 73.58231L160.871 65.5433C 160.871 65.53931 160.871 65.53931 160.871 65.53931C 160.871 65.53931 160.871 65.53931 160.875 65.53931C 160.891 65.5123 160.91 65.4883 160.934 65.4693C 160.988 65.4223 161.055 65.39531 161.125 65.3873C 161.133 65.3873 161.141 65.3873 161.148 65.3873z" stroke="none" fill="#C1121C" fill-rule="evenodd" />
		</g>
		<g clip-path="url(#67)" >
    <path id=""  transform="matrix(1 0 0 -1 0 279)"  d="M161.148 65.2773C 161.039 65.2773 160.926 65.3203 160.84 65.40631C 160.781 65.4613 160.754 65.50031 160.699 65.60231L160.699 65.60231L156.133 73.5273C 156.133 73.5273 156.129 73.53131 156.129 73.53131C 156.094 73.5943 156.07 73.6683 156.07 73.75031C 156.07 73.99231 156.27 74.18831 156.512 74.18831L156.512 74.18831L165.785 74.18831C 165.824 74.18831 165.863 74.18431 165.902 74.1763C 166.137 74.1093 166.273 73.87131 166.211 73.6373C 166.199 73.5943 166.184 73.5513 166.16 73.5163C 166.16 73.5163 166.16 73.5123 166.16 73.5123L166.16 73.5123L161.762 65.8913L161.762 65.8913L161.531 65.49631C 161.512 65.4653 161.488 65.43431 161.461 65.40631C 161.375 65.3203 161.262 65.2773 161.148 65.2773M161.148 65.27031C 161.266 65.27031 161.379 65.31331 161.465 65.4023C 161.492 65.4303 161.52 65.4613 161.535 65.49631L161.535 65.49631L161.766 65.8833L161.766 65.8833L166.164 73.5083C 166.164 73.5123 166.164 73.5123 166.168 73.5123C 166.188 73.5513 166.207 73.5903 166.219 73.6333C 166.281 73.87131 166.141 74.11731 165.902 74.1803C 165.863 74.1913 165.824 74.1953 165.785 74.1953L165.785 74.1953L156.512 74.1953C 156.266 74.1953 156.066 73.99631 156.066 73.75031C 156.066 73.6683 156.086 73.5943 156.125 73.5273L156.125 73.5273L160.691 65.5983C 160.75 65.50031 160.777 65.45731 160.836 65.4023C 160.922 65.31331 161.035 65.27031 161.148 65.27031z" stroke="none" fill="#000000" fill-rule="evenodd" />
		</g>
		<g clip-path="url(#68)" >
    <path id=""  transform="matrix(1 0 0 -1 0 279)"  d="M71.512 221.2733C 71.625 221.2733 71.734 221.2313 71.824 221.1453C 71.852 221.1173 71.875 221.0863 71.895 221.0513L71.895 221.0513L72.121 220.6603L72.121 220.6603L76.52 213.0393C 76.52 213.0353 76.52 213.0353 76.523 213.0353C 76.543 212.9963 76.563 212.9573 76.574 212.9143C 76.637 212.6803 76.496 212.4383 76.262 212.3753C 76.223 212.3673 76.184 212.3593 76.145 212.3593L76.145 212.3593L66.875 212.3593C 66.629 212.3593 66.434 212.5593 66.434 212.8013C 66.434 212.8833 66.453 212.9573 66.492 213.0203L66.492 213.0203L71.059 220.9493C 71.117 221.0473 71.145 221.0903 71.199 221.1453C 71.285 221.2313 71.398 221.2733 71.512 221.2733" stroke="none" fill="#FFFFFF" fill-rule="evenodd" />
		</g>
		<g clip-path="url(#69)" >
    <path id=""  transform="matrix(1 0 0 -1 0 279)"  d="M71.516 219.5703L67.98 213.4413L67.98 213.4413L75.059 213.4413L75.059 213.4413L71.516 219.5703M76.141 212.4813L76.164 212.4813zM71.512 221.1643C 71.617 221.1643 71.734 221.1093 71.793 221.0083L71.793 221.0083L76.434 212.9693C 76.461 212.9143 76.473 212.8633 76.473 212.8133C 76.473 212.7153 76.43 212.6213 76.352 212.5593C 76.289 212.5083 76.227 212.4813 76.141 212.4813L76.141 212.4813L66.871 212.4813C 66.816 212.4813 66.758 212.4923 66.707 212.5273C 66.609 212.5863 66.551 212.6913 66.551 212.8053C 66.555 212.8633 66.566 212.9223 66.594 212.9693L66.594 212.9693L71.23 221.0083C 71.23 221.0083 71.23 221.0083 71.234 221.0123C 71.25 221.0393 71.27 221.0633 71.293 221.0823C 71.348 221.1293 71.414 221.1563 71.488 221.1603C 71.496 221.1643 71.504 221.1643 71.512 221.1643z" stroke="none" fill="#C1121C" fill-rule="evenodd" />
		</g>
		<g clip-path="url(#70)" >
    <path id=""  transform="matrix(1 0 0 -1 0 279)"  d="M71.512 221.2733C 71.398 221.2733 71.285 221.2313 71.199 221.1453C 71.145 221.0903 71.117 221.0473 71.059 220.9493L71.059 220.9493L66.492 213.0203C 66.453 212.9573 66.434 212.8833 66.434 212.8013C 66.434 212.5593 66.629 212.3593 66.875 212.3593L66.875 212.3593L76.145 212.3593C 76.184 212.3593 76.223 212.3673 76.262 212.3753C 76.496 212.4383 76.637 212.6803 76.574 212.9143C 76.563 212.9573 76.543 212.9963 76.523 213.0353C 76.52 213.0353 76.52 213.0353 76.52 213.0393L76.52 213.0393L72.121 220.6603L72.121 220.6603L71.895 221.0513C 71.875 221.0863 71.852 221.1173 71.824 221.1453C 71.734 221.2313 71.625 221.2733 71.512 221.2733M71.512 221.2813C 71.625 221.2813 71.738 221.2343 71.828 221.1483C 71.855 221.1213 71.879 221.0903 71.898 221.0553L71.898 221.0553L72.125 220.6643L72.125 220.6643L76.523 213.0433C 76.527 213.0393 76.527 213.0393 76.527 213.0353C 76.551 213.0003 76.566 212.9613 76.578 212.9143C 76.645 212.6803 76.5 212.4343 76.262 212.3713C 76.223 212.3593 76.184 212.3563 76.145 212.3563L76.145 212.3563L66.875 212.3563C 66.629 212.3563 66.426 212.5553 66.426 212.8013C 66.426 212.8833 66.449 212.9573 66.488 213.0233L66.488 213.0233L71.055 220.9533C 71.113 221.0513 71.141 221.0943 71.195 221.1483C 71.281 221.2343 71.398 221.2813 71.512 221.2813z" stroke="none" fill="#000000" fill-rule="evenodd" />
		</g>
		<g clip-path="url(#71)" >
    <path id=""  transform="matrix(1 0 0 -1 0 279)"  d="M160.352 74.62531L152.242 74.62531" stroke="#ED1C24" stroke-width="0.145247" stroke-linejoin="miter" fill="none" />
		</g>
		<g clip-path="url(#72)" >
    <path id=""  transform="matrix(1 0 0 -1 0 279)"  d="M147.551 110.7193L153.84 110.7193" stroke="#ED1C24" stroke-width="0.145247" stroke-linejoin="miter" fill="none" />
		</g>
		<g clip-path="url(#73)" >
    <path id=""  transform="matrix(1 0 0 -1 0 279)"  d="M153.039 109.9573L153.039 75.3913" stroke="#ED1C24" stroke-width="0.145247" stroke-linejoin="miter" fill="none" />
		</g>
		<g clip-path="url(#74)" >
    <path id=""  transform="matrix(1 0 0 -1 0 279)"  d="M152.633 109.1953L153.039 110.7193L153.039 110.7193L153.449 109.1953L153.449 109.1953L152.633 109.1953" stroke="none" fill="#ED1C24" fill-rule="evenodd" />
		</g>
		<g clip-path="url(#75)" >
    <path id=""  transform="matrix(1 0 0 -1 0 279)"  d="M152.633 76.1523L153.039 74.62531L153.039 74.62531L153.449 76.1523L153.449 76.1523L152.633 76.1523" stroke="none" fill="#ED1C24" fill-rule="evenodd" />
		</g>
		<g clip-path="url(#76)" >
    <path id=""  transform="matrix(1 0 0 -1 0 279)"  d="M194.684 80.31331C 194.684 79.0943 194.836 78.2973 195.105 77.8983C 195.398 77.50031 195.738 77.3013 196.148 77.3013C 196.559 77.3013 196.91 77.5123 197.191 77.8983C 197.473 78.2973 197.613 79.10631 197.613 80.31331C 197.613 81.52031 197.473 82.3163 197.191 82.7153C 196.922 83.1133 196.559 83.31331 196.137 83.31331C 195.738 83.31331 195.398 83.1373 195.152 82.78531C 194.836 82.3403 194.684 81.52031 194.684 80.31331zM193.77 80.31331C 193.77 81.1803 193.863 81.87131 194.027 82.41031C 194.215 82.93831 194.473 83.3483 194.836 83.6293C 195.176 83.91031 195.621 84.0513 196.148 84.0513C 196.547 84.0513 196.887 83.9693 197.191 83.8163C 197.484 83.6523 197.73 83.4303 197.93 83.1373C 198.117 82.83231 198.258 82.4693 198.375 82.0473C 198.492 81.6133 198.539 81.03931 198.539 80.31331C 198.539 79.4453 198.445 78.7543 198.27 78.22731C 198.094 77.69931 197.836 77.28931 197.484 76.99631C 197.133 76.7153 196.688 76.57431 196.148 76.57431C 195.445 76.57431 194.895 76.8203 194.496 77.32431C 194.016 77.9453 193.77 78.9303 193.77 80.31331zM188.984 80.31331C 188.984 79.0943 189.137 78.2973 189.406 77.8983C 189.699 77.50031 190.039 77.3013 190.449 77.3013C 190.859 77.3013 191.211 77.5123 191.492 77.8983C 191.773 78.2973 191.914 79.10631 191.914 80.31331C 191.914 81.52031 191.773 82.3163 191.492 82.7153C 191.223 83.1133 190.859 83.31331 190.438 83.31331C 190.039 83.31331 189.699 83.1373 189.453 82.78531C 189.137 82.3403 188.984 81.52031 188.984 80.31331zM188.07 80.31331C 188.07 81.1803 188.164 81.87131 188.328 82.41031C 188.516 82.93831 188.773 83.3483 189.137 83.6293C 189.477 83.91031 189.922 84.0513 190.449 84.0513C 190.848 84.0513 191.188 83.9693 191.492 83.8163C 191.785 83.6523 192.031 83.4303 192.23 83.1373C 192.418 82.83231 192.559 82.4693 192.676 82.0473C 192.793 81.6133 192.84 81.03931 192.84 80.31331C 192.84 79.4453 192.746 78.7543 192.57 78.22731C 192.395 77.69931 192.137 77.28931 191.785 76.99631C 191.434 76.7153 190.988 76.57431 190.449 76.57431C 189.746 76.57431 189.195 76.8203 188.797 77.32431C 188.316 77.9453 188.07 78.9303 188.07 80.31331zM182.371 78.6133L183.309 78.68431C 183.379 78.22731 183.543 77.8873 183.789 77.6523C 184.047 77.4183 184.352 77.3013 184.727 77.3013C 185.16 77.3013 185.523 77.4653 185.828 77.7933C 186.121 78.12131 186.273 78.5553 186.273 79.0943C 186.273 79.6093 186.121 80.02031 185.84 80.31331C 185.559 80.61731 185.184 80.7583 184.715 80.7583C 184.422 80.7583 184.164 80.69931 183.93 80.55931C 183.695 80.4303 183.52 80.2543 183.379 80.0433L183.379 80.0433L182.535 80.16031L182.535 80.16031L183.238 83.93431L183.238 83.93431L186.871 83.93431L186.871 83.93431L186.871 83.0663L186.871 83.0663L183.953 83.0663L183.953 83.0663L183.566 81.0983C 184.012 81.4023 184.469 81.5553 184.949 81.5553C 185.582 81.5553 186.121 81.33231 186.566 80.8873C 187.012 80.45331 187.223 79.8793 187.223 79.1763C 187.223 78.52031 187.023 77.9453 186.648 77.4653C 186.18 76.86731 185.535 76.57431 184.727 76.57431C 184.059 76.57431 183.52 76.75031 183.098 77.1373C 182.664 77.50031 182.43 78.0043 182.371 78.6133zM175.992 78.89531L175.992 79.7973L175.992 79.7973L178.781 79.7973L178.781 79.7973L178.781 78.89531zM168.48 80.31331C 168.48 79.0943 168.633 78.2973 168.902 77.8983C 169.195 77.50031 169.535 77.3013 169.945 77.3013C 170.355 77.3013 170.707 77.5123 170.988 77.8983C 171.27 78.2973 171.41 79.10631 171.41 80.31331C 171.41 81.52031 171.27 82.3163 170.988 82.7153C 170.719 83.1133 170.355 83.31331 169.934 83.31331C 169.535 83.31331 169.195 83.1373 168.949 82.78531C 168.633 82.3403 168.48 81.52031 168.48 80.31331zM167.566 80.31331C 167.566 81.1803 167.66 81.87131 167.824 82.41031C 168.012 82.93831 168.27 83.3483 168.633 83.6293C 168.973 83.91031 169.418 84.0513 169.945 84.0513C 170.344 84.0513 170.684 83.9693 170.988 83.8163C 171.281 83.6523 171.527 83.4303 171.727 83.1373C 171.914 82.83231 172.055 82.4693 172.172 82.0473C 172.289 81.6133 172.336 81.03931 172.336 80.31331C 172.336 79.4453 172.242 78.7543 172.066 78.22731C 171.891 77.69931 171.633 77.28931 171.281 76.99631C 170.93 76.7153 170.484 76.57431 169.945 76.57431C 169.242 76.57431 168.691 76.8203 168.293 77.32431C 167.813 77.9453 167.566 78.9303 167.566 80.31331zM162.781 80.31331C 162.781 79.0943 162.934 78.2973 163.203 77.8983C 163.496 77.50031 163.836 77.3013 164.246 77.3013C 164.656 77.3013 165.008 77.5123 165.289 77.8983C 165.57 78.2973 165.711 79.10631 165.711 80.31331C 165.711 81.52031 165.57 82.3163 165.289 82.7153C 165.02 83.1133 164.656 83.31331 164.234 83.31331C 163.836 83.31331 163.496 83.1373 163.25 82.78531C 162.934 82.3403 162.781 81.52031 162.781 80.31331zM161.867 80.31331C 161.867 81.1803 161.961 81.87131 162.125 82.41031C 162.313 82.93831 162.57 83.3483 162.934 83.6293C 163.273 83.91031 163.719 84.0513 164.246 84.0513C 164.645 84.0513 164.984 83.9693 165.289 83.8163C 165.582 83.6523 165.828 83.4303 166.027 83.1373C 166.215 82.83231 166.355 82.4693 166.473 82.0473C 166.59 81.6133 166.637 81.03931 166.637 80.31331C 166.637 79.4453 166.543 78.7543 166.367 78.22731C 166.191 77.69931 165.934 77.28931 165.582 76.99631C 165.23 76.7153 164.785 76.57431 164.246 76.57431C 163.543 76.57431 162.992 76.8203 162.594 77.32431C 162.113 77.9453 161.867 78.9303 161.867 80.31331zM156.168 78.6373L157.07 78.7663C 157.164 78.25031 157.34 77.87531 157.586 77.6523C 157.844 77.4303 158.137 77.31331 158.5 77.31331C 158.934 77.31331 159.285 77.4653 159.59 77.7583C 159.871 78.0513 160.012 78.41431 160.012 78.8483C 160.012 79.2583 159.883 79.5983 159.602 79.8793C 159.344 80.1483 159.004 80.2773 158.582 80.2773C 158.406 80.2773 158.195 80.24231 157.949 80.1723L157.949 80.1723L158.043 80.95731C 158.102 80.95731 158.148 80.95731 158.195 80.95731C 158.57 80.95731 158.922 81.0513 159.227 81.25031C 159.531 81.44931 159.684 81.7663 159.684 82.1763C 159.684 82.5043 159.578 82.7733 159.355 82.99631C 159.121 83.2193 158.84 83.31331 158.488 83.31331C 158.137 83.31331 157.844 83.20731 157.609 82.99631C 157.375 82.7623 157.234 82.4223 157.152 81.9883L157.152 81.9883L156.262 82.1523C 156.367 82.75031 156.613 83.23131 157 83.55931C 157.398 83.8873 157.891 84.0513 158.465 84.0513C 158.863 84.0513 159.238 83.9693 159.566 83.8053C 159.906 83.6293 160.164 83.39531 160.34 83.10231C 160.516 82.80931 160.609 82.49231 160.609 82.1523C 160.609 81.8483 160.527 81.5553 160.352 81.28531C 160.188 81.03931 159.93 80.82831 159.59 80.6763C 160.035 80.5703 160.375 80.37131 160.609 80.0553C 160.844 79.7383 160.973 79.3403 160.973 78.8593C 160.973 78.22731 160.738 77.68831 160.27 77.23131C 159.801 76.7973 159.203 76.57431 158.5 76.57431C 157.855 76.57431 157.316 76.7623 156.895 77.1373C 156.473 77.53531 156.227 78.0273 156.168 78.6373z" stroke="none" fill="#EF3221" fill-rule="nonzero" />
		</g>
	</g>
</g>
</svg>