<?xml version="1.0" standalone="no"?>
<!DOCTYPE svg PUBLIC "-//W3C//DTD SVG 1.0//EN" "http://www.w3.org/TR/2001/REC-SVG-20010904/DTD/svg10.dtd">
<svg xmlns="http://www.w3.org/2000/svg" xmlns:xlink="http://www.w3.org/1999/xlink" id="body_1" width="560" height="281">

<defs>
    <clipPath  id="1">

    <path id=""  clip-rule="evenodd" transform="matrix(1 0 0 1 0 0)"  d="M0 211L0 0L0 0L420 0L420 0L420 211L420 211L0 211z" />    </clipPath>
    <clipPath  id="2">

    <path id=""  clip-rule="evenodd" transform="matrix(1 0 0 1 0 0)"  d="M0 0L420 0L420 0L420 211L420 211L0 211z" />    </clipPath>
    <clipPath  id="3">

    <path id=""  clip-rule="evenodd" transform="matrix(1 0 0 1 0 0)"  d="M0 0L420 0L420 0L420 211L420 211L0 211z" />    </clipPath>
    <clipPath  id="4">

    <path id=""  clip-rule="evenodd" transform="matrix(1 0 0 1 0 0)"  d="M0 0L420 0L420 0L420 211L420 211L0 211z" />    </clipPath>
    <clipPath  id="5">

    <path id=""  clip-rule="evenodd" transform="matrix(1 0 0 1 0 0)"  d="M0 0L420 0L420 0L420 211L420 211L0 211z" />    </clipPath>
    <clipPath  id="6">

    <path id=""  clip-rule="evenodd" transform="matrix(1 0 0 1 0 0)"  d="M0 0L420 0L420 0L420 211L420 211L0 211z" />    </clipPath>
    <clipPath  id="7">

    <path id=""  clip-rule="evenodd" transform="matrix(1 0 0 1 0 0)"  d="M0 0L420 0L420 0L420 211L420 211L0 211z" />    </clipPath>
    <clipPath  id="8">

    <path id=""  clip-rule="evenodd" transform="matrix(1 0 0 1 0 0)"  d="M0 0L420 0L420 0L420 211L420 211L0 211z" />    </clipPath>
    <clipPath  id="9">

    <path id=""  clip-rule="evenodd" transform="matrix(1 0 0 1 0 0)"  d="M0 0L420 0L420 0L420 211L420 211L0 211z" />    </clipPath>
    <clipPath  id="10">

    <path id=""  clip-rule="evenodd" transform="matrix(1 0 0 1 0 0)"  d="M0 0L420 0L420 0L420 211L420 211L0 211z" />    </clipPath>
    <clipPath  id="11">

    <path id=""  clip-rule="evenodd" transform="matrix(1 0 0 1 0 0)"  d="M0 0L420 0L420 0L420 211L420 211L0 211z" />    </clipPath>
    <clipPath  id="12">

    <path id=""  clip-rule="evenodd" transform="matrix(1 0 0 1 0 0)"  d="M0 0L420 0L420 0L420 211L420 211L0 211z" />    </clipPath>
    <clipPath  id="13">

    <path id=""  clip-rule="evenodd" transform="matrix(1 0 0 1 0 0)"  d="M0 0L420 0L420 0L420 211L420 211L0 211z" />    </clipPath>
    <clipPath  id="14">

    <path id=""  clip-rule="evenodd" transform="matrix(1 0 0 1 0 0)"  d="M0 0L420 0L420 0L420 211L420 211L0 211z" />    </clipPath>
    <clipPath  id="15">

    <path id=""  clip-rule="evenodd" transform="matrix(1 0 0 1 0 0)"  d="M0 0L420 0L420 0L420 211L420 211L0 211z" />    </clipPath>
    <clipPath  id="16">

    <path id=""  clip-rule="evenodd" transform="matrix(1 0 0 1 0 0)"  d="M0 0L420 0L420 0L420 211L420 211L0 211z" />    </clipPath>
    <clipPath  id="17">

    <path id=""  clip-rule="evenodd" transform="matrix(1 0 0 1 0 0)"  d="M0 0L420 0L420 0L420 211L420 211L0 211z" />    </clipPath>
    <clipPath  id="18">

    <path id=""  clip-rule="evenodd" transform="matrix(1 0 0 1 0 0)"  d="M0 0L420 0L420 0L420 211L420 211L0 211z" />    </clipPath>
    <clipPath  id="19">

    <path id=""  clip-rule="evenodd" transform="matrix(1 0 0 1 0 0)"  d="M0 0L420 0L420 0L420 211L420 211L0 211z" />    </clipPath>
    <clipPath  id="20">

    <path id=""  clip-rule="evenodd" transform="matrix(1 0 0 1 0 0)"  d="M0 0L420 0L420 0L420 211L420 211L0 211z" />    </clipPath>
    <clipPath  id="21">

    <path id=""  clip-rule="evenodd" transform="matrix(1 0 0 1 0 0)"  d="M0 0L420 0L420 0L420 211L420 211L0 211z" />    </clipPath>
    <clipPath  id="22">

    <path id=""  clip-rule="evenodd" transform="matrix(1 0 0 1 0 0)"  d="M0 0L420 0L420 0L420 211L420 211L0 211z" />    </clipPath>
    <clipPath  id="23">

    <path id=""  clip-rule="evenodd" transform="matrix(1 0 0 1 0 0)"  d="M0 0L420 0L420 0L420 211L420 211L0 211z" />    </clipPath>
    <clipPath  id="24">

    <path id=""  clip-rule="evenodd" transform="matrix(1 0 0 1 0 0)"  d="M0 0L420 0L420 0L420 211L420 211L0 211z" />    </clipPath>
    <clipPath  id="25">

    <path id=""  clip-rule="evenodd" transform="matrix(1 0 0 1 0 0)"  d="M0 0L420 0L420 0L420 211L420 211L0 211z" />    </clipPath>
    <clipPath  id="26">

    <path id=""  clip-rule="evenodd" transform="matrix(1 0 0 1 0 0)"  d="M0 0L420 0L420 0L420 211L420 211L0 211z" />    </clipPath>
    <clipPath  id="27">

    <path id=""  clip-rule="evenodd" transform="matrix(1 0 0 1 0 0)"  d="M0 0L420 0L420 0L420 211L420 211L0 211z" />    </clipPath>
    <clipPath  id="28">

    <path id=""  clip-rule="evenodd" transform="matrix(1 0 0 1 0 0)"  d="M0 0L420 0L420 0L420 211L420 211L0 211z" />    </clipPath>
    <clipPath  id="29">

    <path id=""  clip-rule="evenodd" transform="matrix(1 0 0 1 0 0)"  d="M0 0L420 0L420 0L420 211L420 211L0 211z" />    </clipPath>
</defs>

<g transform="matrix(1.3333 0 0 1.3333 0 0)">
	<g clip-path="url(#1)" >
		<g clip-path="url(#2)" >
    <path id=""  transform="matrix(1 0 0 -1 0 211)"  d="M45.266 0.5785217L45.266 209.0551" stroke="#1A1A18" stroke-width="90.53419" stroke-linejoin="miter" fill="none" />
		</g>
		<g clip-path="url(#3)" >
    <path id=""  transform="matrix(1 0 0 -1 0 211)"  d="M45.266 0.5785217L45.266 209.0551" stroke="#FFFFFF" stroke-width="82.82922" stroke-linejoin="miter" fill="none" />
		</g>
		<g clip-path="url(#4)" >
    <path id=""  transform="matrix(1 0 0 -1 0 211)"  d="M45.266 0.5785217L45.266 209.0551" stroke="#1A1A18" stroke-width="78.97656" stroke-linejoin="miter" fill="none" />
		</g>
		<g clip-path="url(#5)" >
    <path id=""  transform="matrix(1 0 0 -1 0 211)"  d="M45.266 0.5785217L45.266 209.0551" stroke="#FFFFFF" stroke-width="1.926257" stroke-linejoin="miter" stroke-dasharray="10.0000162124634,10.0000162124634" fill="none" />
		</g>
		<g clip-path="url(#6)" >
    <path id=""  transform="matrix(1 0 0 -1 0 211)"  d="M80.926 182.738L76.52 182.738L76.52 182.738L76.52 183.406L76.52 183.406L77.141 183.406C 76.66 183.734 76.426 184.203 76.426 184.812C 76.426 185.07 76.473 185.316 76.566 185.539C 76.66 185.762 76.789 185.926 76.941 186.043C 77.094 186.148 77.281 186.23 77.492 186.266C 77.633 186.301 77.879 186.312 78.219 186.312L78.219 186.312L80.926 186.312L80.926 186.312L80.926 185.562L80.926 185.562L78.254 185.562C 77.949 185.562 77.715 185.539 77.563 185.48C 77.422 185.422 77.293 185.316 77.199 185.176C 77.105 185.023 77.07 184.848 77.07 184.648C 77.07 184.332 77.176 184.062 77.375 183.828C 77.574 183.605 77.949 183.488 78.523 183.488L78.523 183.488L80.926 183.488zM78.723 178.496C 79.285 178.496 79.707 178.625 79.988 178.871C 80.258 179.117 80.41 179.422 80.41 179.797C 80.41 180.172 80.258 180.477 79.988 180.738C 79.707 180.984 79.273 181.102 78.699 181.102C 78.16 181.102 77.738 180.973 77.457 180.727C 77.176 180.477 77.047 180.172 77.047 179.797C 77.047 179.422 77.176 179.117 77.457 178.871C 77.738 178.625 78.16 178.496 78.723 178.496zM78.711 177.734C 77.914 177.734 77.305 177.969 76.906 178.414C 76.59 178.801 76.426 179.258 76.426 179.797C 76.426 180.406 76.613 180.902 77.012 181.289C 77.41 181.676 77.961 181.863 78.652 181.863C 79.227 181.863 79.672 181.781 79.988 181.617C 80.316 181.441 80.574 181.195 80.75 180.867C 80.938 180.535 81.02 180.184 81.02 179.797C 81.02 179.187 80.82 178.684 80.422 178.309C 80.035 177.922 79.461 177.734 78.711 177.734zM80.926 176.129L76.52 176.129L76.52 176.129L76.52 176.879L76.52 176.879L80.926 176.879zM75.688 176.129L74.844 176.129L74.844 176.129L74.844 176.879L74.844 176.879L75.688 176.879zM80.258 175.387L80.914 175.492C 80.961 175.281 80.984 175.094 80.984 174.93C 80.984 174.66 80.938 174.449 80.855 174.309C 80.773 174.145 80.656 174.051 80.516 173.992C 80.375 173.934 80.082 173.898 79.637 173.898L79.637 173.898L77.094 173.898L77.094 173.898L77.094 173.348L77.094 173.348L76.52 173.348L76.52 173.348L76.52 173.898L76.52 173.898L75.43 173.898L75.43 173.898L74.973 174.648L74.973 174.648L76.52 174.648L76.52 174.648L76.52 175.387L76.52 175.387L77.094 175.387L77.094 175.387L77.094 174.648L77.094 174.648L79.672 174.648C 79.895 174.648 80.023 174.66 80.082 174.684C 80.152 174.707 80.199 174.754 80.234 174.812C 80.27 174.871 80.293 174.953 80.293 175.07C 80.293 175.141 80.281 175.258 80.258 175.387zM79.309 172.406L79.414 173.133C 79.918 173.051 80.305 172.852 80.598 172.523C 80.879 172.195 81.02 171.785 81.02 171.305C 81.02 170.707 80.82 170.215 80.422 169.852C 80.035 169.488 79.473 169.301 78.734 169.301C 78.254 169.301 77.855 169.383 77.492 169.535C 77.141 169.687 76.859 169.934 76.684 170.262C 76.508 170.578 76.426 170.93 76.426 171.305C 76.426 171.785 76.543 172.184 76.789 172.477C 77.023 172.781 77.375 172.98 77.82 173.062L77.82 173.062L77.926 172.348C 77.633 172.277 77.41 172.16 77.258 171.973C 77.105 171.797 77.035 171.586 77.035 171.34C 77.035 170.953 77.176 170.648 77.434 170.426C 77.703 170.18 78.125 170.062 78.711 170.062C 79.309 170.062 79.73 170.18 80.012 170.402C 80.27 170.637 80.41 170.93 80.41 171.293C 80.41 171.586 80.316 171.832 80.141 172.031C 79.953 172.219 79.684 172.348 79.309 172.406zM80.926 164.801L76.52 164.801L76.52 164.801L76.52 165.469L76.52 165.469L77.141 165.469C 76.66 165.797 76.426 166.266 76.426 166.875C 76.426 167.133 76.473 167.379 76.566 167.602C 76.66 167.824 76.789 167.988 76.941 168.105C 77.094 168.211 77.281 168.293 77.492 168.328C 77.633 168.363 77.879 168.375 78.219 168.375L78.219 168.375L80.926 168.375L80.926 168.375L80.926 167.625L80.926 167.625L78.254 167.625C 77.949 167.625 77.715 167.602 77.563 167.543C 77.422 167.484 77.293 167.379 77.199 167.238C 77.105 167.086 77.07 166.91 77.07 166.711C 77.07 166.395 77.176 166.125 77.375 165.891C 77.574 165.668 77.949 165.551 78.523 165.551L78.523 165.551L80.926 165.551zM80.926 162.961L80.27 162.961C 80.773 162.621 81.02 162.152 81.02 161.566C 81.02 161.297 80.973 161.062 80.867 160.828C 80.773 160.617 80.645 160.441 80.492 160.336C 80.34 160.23 80.164 160.148 79.941 160.102C 79.801 160.078 79.555 160.055 79.238 160.055L79.238 160.055L76.52 160.055L76.52 160.055L76.52 160.805L76.52 160.805L78.957 160.805C 79.344 160.805 79.613 160.828 79.742 160.852C 79.941 160.898 80.094 161.004 80.199 161.156C 80.316 161.297 80.375 161.484 80.375 161.719C 80.375 161.941 80.316 162.152 80.199 162.34C 80.082 162.539 79.93 162.68 79.73 162.762C 79.531 162.832 79.25 162.879 78.875 162.879L78.875 162.879L76.52 162.879L76.52 162.879L76.52 163.629L76.52 163.629L80.926 163.629zM82.637 157.242L81.992 157.371C 82.039 157.523 82.051 157.641 82.051 157.734C 82.051 157.887 82.004 157.992 81.898 158.074C 81.805 158.145 81.559 158.191 81.148 158.191L81.148 158.191L76.52 158.191L76.52 158.191L76.52 158.941L76.52 158.941L81.16 158.941C 81.711 158.941 82.086 158.859 82.297 158.73C 82.578 158.543 82.707 158.238 82.707 157.828C 82.707 157.617 82.684 157.43 82.637 157.242zM75.711 158.191L74.844 158.191L74.844 158.191L74.844 158.941L74.844 158.941L75.711 158.941zM78.723 151.586C 79.285 151.586 79.707 151.703 79.988 151.949C 80.27 152.184 80.41 152.469 80.41 152.797C 80.41 153.125 80.27 153.406 80.012 153.629C 79.742 153.863 79.332 153.969 78.781 153.969C 78.195 153.969 77.75 153.852 77.469 153.617C 77.176 153.395 77.047 153.102 77.047 152.762C 77.047 152.422 77.176 152.148 77.445 151.914C 77.715 151.703 78.148 151.586 78.723 151.586zM80.926 153.957L80.363 153.957C 80.797 153.676 81.02 153.266 81.02 152.727C 81.02 152.375 80.926 152.043 80.727 151.75C 80.539 151.457 80.258 151.234 79.918 151.07C 79.578 150.906 79.18 150.824 78.723 150.824C 78.289 150.824 77.879 150.895 77.527 151.047C 77.176 151.187 76.895 151.41 76.707 151.703C 76.52 151.996 76.426 152.328 76.426 152.691C 76.426 152.949 76.484 153.184 76.59 153.406C 76.707 153.605 76.848 153.781 77.023 153.898L77.023 153.898L74.844 153.898L74.844 153.898L74.844 154.648L74.844 154.648L80.926 154.648zM78.711 149.211C 78.828 148.93 78.922 148.531 78.992 147.98C 79.039 147.676 79.086 147.453 79.145 147.324C 79.203 147.195 79.273 147.102 79.391 147.031C 79.484 146.961 79.613 146.926 79.73 146.926C 79.941 146.926 80.105 147.008 80.234 147.16C 80.363 147.312 80.434 147.535 80.434 147.816C 80.434 148.109 80.375 148.367 80.246 148.59C 80.117 148.812 79.953 148.977 79.73 149.082C 79.566 149.164 79.309 149.211 78.992 149.211zM80.375 149.27C 80.609 148.988 80.773 148.719 80.879 148.461C 80.973 148.215 81.02 147.934 81.02 147.641C 81.02 147.16 80.902 146.785 80.668 146.516C 80.434 146.258 80.129 146.129 79.766 146.129C 79.555 146.129 79.344 146.176 79.168 146.27C 78.992 146.375 78.852 146.504 78.746 146.668C 78.629 146.832 78.559 147.008 78.5 147.195C 78.465 147.359 78.418 147.57 78.383 147.875C 78.313 148.473 78.23 148.918 78.125 149.211C 78.031 149.211 77.961 149.211 77.938 149.211C 77.633 149.211 77.422 149.141 77.293 148.988C 77.129 148.801 77.047 148.52 77.047 148.145C 77.047 147.781 77.105 147.535 77.234 147.359C 77.352 147.195 77.574 147.078 77.879 146.984L77.879 146.984L77.785 146.258C 77.469 146.328 77.211 146.434 77.023 146.586C 76.836 146.738 76.684 146.961 76.578 147.254C 76.473 147.535 76.426 147.875 76.426 148.25C 76.426 148.625 76.461 148.93 76.555 149.176C 76.648 149.41 76.754 149.574 76.895 149.691C 77.023 149.797 77.199 149.879 77.398 149.926C 77.527 149.949 77.762 149.961 78.09 149.961L78.09 149.961L79.074 149.961C 79.766 149.961 80.199 149.984 80.387 150.008C 80.574 150.043 80.75 150.102 80.926 150.195L80.926 150.195L80.926 149.41C 80.762 149.328 80.586 149.293 80.375 149.27zM78.723 142.145C 79.285 142.145 79.707 142.273 79.988 142.52C 80.258 142.766 80.41 143.07 80.41 143.445C 80.41 143.82 80.258 144.125 79.988 144.383C 79.707 144.629 79.273 144.746 78.699 144.746C 78.16 144.746 77.738 144.617 77.457 144.371C 77.176 144.125 77.047 143.82 77.047 143.445C 77.047 143.07 77.176 142.766 77.457 142.52C 77.738 142.273 78.16 142.145 78.723 142.145zM78.711 141.383C 77.914 141.383 77.305 141.617 76.906 142.062C 76.59 142.449 76.426 142.906 76.426 143.445C 76.426 144.055 76.613 144.547 77.012 144.934C 77.41 145.32 77.961 145.508 78.652 145.508C 79.227 145.508 79.672 145.426 79.988 145.262C 80.316 145.086 80.574 144.84 80.75 144.512C 80.938 144.184 81.02 143.832 81.02 143.445C 81.02 142.836 80.82 142.332 80.422 141.957C 80.035 141.57 79.461 141.383 78.711 141.383zM80.926 138.824L76.52 138.824L76.52 138.824L76.52 139.492L76.52 139.492L77.188 139.492C 76.883 139.668 76.672 139.832 76.578 139.973C 76.473 140.113 76.426 140.277 76.426 140.453C 76.426 140.699 76.496 140.957 76.66 141.227L76.66 141.227L77.352 140.957C 77.246 140.77 77.199 140.594 77.199 140.418C 77.199 140.254 77.246 140.102 77.34 139.973C 77.445 139.844 77.574 139.75 77.75 139.703C 78.008 139.621 78.313 139.574 78.629 139.574L78.629 139.574L80.926 139.574zM78.301 132.312L78.301 134.762C 77.926 134.727 77.656 134.633 77.469 134.48C 77.176 134.246 77.035 133.941 77.035 133.555C 77.035 133.215 77.141 132.934 77.375 132.699C 77.609 132.465 77.914 132.336 78.301 132.312zM79.496 134.762L79.602 135.523C 80.047 135.406 80.398 135.184 80.645 134.855C 80.891 134.527 81.02 134.105 81.02 133.602C 81.02 132.957 80.82 132.441 80.422 132.066C 80.023 131.691 79.473 131.504 78.758 131.504C 78.02 131.504 77.445 131.691 77.035 132.066C 76.625 132.453 76.426 132.945 76.426 133.555C 76.426 134.141 76.613 134.621 77.023 134.996C 77.422 135.371 77.984 135.559 78.711 135.559C 78.758 135.559 78.828 135.559 78.91 135.559L78.91 135.559L78.91 132.266C 79.391 132.289 79.766 132.43 80.023 132.676C 80.281 132.922 80.41 133.227 80.41 133.602C 80.41 133.871 80.328 134.105 80.188 134.293C 80.047 134.492 79.813 134.645 79.496 134.762zM78.723 127.508C 79.285 127.508 79.707 127.625 79.988 127.871C 80.27 128.105 80.41 128.387 80.41 128.715C 80.41 129.043 80.27 129.324 80.012 129.547C 79.742 129.781 79.332 129.887 78.781 129.887C 78.195 129.887 77.75 129.77 77.469 129.535C 77.176 129.312 77.047 129.02 77.047 128.68C 77.047 128.34 77.176 128.07 77.445 127.836C 77.715 127.625 78.148 127.508 78.723 127.508zM80.926 129.875L80.363 129.875C 80.797 129.594 81.02 129.184 81.02 128.645C 81.02 128.293 80.926 127.965 80.727 127.672C 80.539 127.379 80.258 127.156 79.918 126.992C 79.578 126.828 79.18 126.746 78.723 126.746C 78.289 126.746 77.879 126.816 77.527 126.969C 77.176 127.109 76.895 127.332 76.707 127.625C 76.52 127.918 76.426 128.246 76.426 128.609C 76.426 128.867 76.484 129.102 76.59 129.324C 76.707 129.523 76.848 129.699 77.023 129.816L77.023 129.816L74.844 129.816L74.844 129.816L74.844 130.566L74.844 130.566L80.926 130.566zM80.926 125.145L76.52 125.145L76.52 125.145L76.52 125.895L76.52 125.895L80.926 125.895zM75.688 125.145L74.844 125.145L74.844 125.145L74.844 125.895L74.844 125.895L75.688 125.895zM78.969 119.301L78.898 120.062C 79.215 120.098 79.461 120.18 79.66 120.32C 79.859 120.449 80.012 120.648 80.141 120.93C 80.258 121.199 80.316 121.516 80.316 121.855C 80.316 122.172 80.27 122.43 80.176 122.664C 80.082 122.91 79.953 123.074 79.801 123.191C 79.637 123.309 79.461 123.367 79.273 123.367C 79.086 123.367 78.922 123.32 78.781 123.203C 78.641 123.098 78.523 122.91 78.418 122.652C 78.359 122.488 78.254 122.125 78.125 121.574C 77.984 121.012 77.867 120.625 77.75 120.391C 77.598 120.109 77.398 119.887 77.176 119.746C 76.953 119.605 76.695 119.535 76.426 119.535C 76.109 119.535 75.816 119.617 75.559 119.793C 75.289 119.969 75.09 120.227 74.949 120.566C 74.809 120.895 74.738 121.27 74.738 121.68C 74.738 122.125 74.809 122.523 74.961 122.863C 75.102 123.215 75.313 123.473 75.594 123.66C 75.875 123.848 76.203 123.941 76.555 123.965L76.555 123.965L76.613 123.191C 76.238 123.145 75.945 123.004 75.746 122.77C 75.547 122.523 75.453 122.172 75.453 121.715C 75.453 121.211 75.535 120.871 75.723 120.637C 75.898 120.414 76.121 120.309 76.367 120.309C 76.59 120.309 76.766 120.379 76.906 120.543C 77.047 120.695 77.199 121.105 77.34 121.762C 77.48 122.418 77.621 122.863 77.727 123.098C 77.891 123.461 78.102 123.719 78.348 123.883C 78.594 124.059 78.887 124.141 79.215 124.141C 79.531 124.141 79.836 124.047 80.117 123.859C 80.41 123.684 80.633 123.414 80.785 123.074C 80.949 122.723 81.031 122.324 81.031 121.891C 81.031 121.34 80.949 120.883 80.785 120.508C 80.633 120.133 80.387 119.852 80.059 119.641C 79.742 119.43 79.379 119.312 78.969 119.301z" stroke="none" fill="#FFFFFF" fill-rule="nonzero" />
		</g>
		<g clip-path="url(#7)" >
    <path id=""  transform="matrix(1 0 0 -1 0 211)"  d="M219.855 1.140488L219.855 209.6171" stroke="#1A1A18" stroke-width="90.53419" stroke-linejoin="miter" fill="none" />
		</g>
		<g clip-path="url(#8)" >
    <path id=""  transform="matrix(1 0 0 -1 0 211)"  d="M219.855 1.140488L219.855 209.6171" stroke="#FFFFFF" stroke-width="82.82922" stroke-linejoin="miter" fill="none" />
		</g>
		<g clip-path="url(#9)" >
    <path id=""  transform="matrix(1 0 0 -1 0 211)"  d="M219.855 1.140488L219.855 209.6171" stroke="#1A1A18" stroke-width="78.97656" stroke-linejoin="miter" fill="none" />
		</g>
		<g clip-path="url(#10)" >
    <path id=""  transform="matrix(1 0 0 -1 0 211)"  d="M221.855 109.668L221.855 211" stroke="#FFFFFF" stroke-width="1.926257" stroke-linejoin="miter" fill="none" />
		</g>
		<g clip-path="url(#11)" >
    <path id=""  transform="matrix(1 0 0 -1 0 211)"  d="M217.898 109.668L217.898 211" stroke="#FFFFFF" stroke-width="1.926257" stroke-linejoin="miter" fill="none" />
		</g>
		<g clip-path="url(#12)" >
    <path id=""  transform="matrix(1 0 0 -1 0 211)"  d="M84.672 192.121L86.78899 192.121L86.78899 192.121L86.78899 187.305L86.78899 187.305L84.672 187.305z" stroke="none" fill="#1A1A18" fill-rule="evenodd" />
		</g>
		<g clip-path="url(#13)" >
    <path id=""  transform="matrix(1 0 0 -1 0 211)"  d="M84.672 177.676L86.78899 177.676L86.78899 177.676L86.78899 172.86L86.78899 172.86L84.672 172.86z" stroke="none" fill="#1A1A18" fill-rule="evenodd" />
		</g>
		<g clip-path="url(#14)" >
    <path id=""  transform="matrix(1 0 0 -1 0 211)"  d="M84.672 163.23L86.78899 163.23L86.78899 163.23L86.78899 158.414L86.78899 158.414L84.672 158.414z" stroke="none" fill="#1A1A18" fill-rule="evenodd" />
		</g>
		<g clip-path="url(#15)" >
    <path id=""  transform="matrix(1 0 0 -1 0 211)"  d="M84.672 148.781L86.78899 148.781L86.78899 148.781L86.78899 143.968L86.78899 143.968L84.672 143.968z" stroke="none" fill="#1A1A18" fill-rule="evenodd" />
		</g>
		<g clip-path="url(#16)" >
    <path id=""  transform="matrix(1 0 0 -1 0 211)"  d="M84.672 134.336L86.78899 134.336L86.78899 134.336L86.78899 129.523L86.78899 129.523L84.672 129.523z" stroke="none" fill="#1A1A18" fill-rule="evenodd" />
		</g>
		<g clip-path="url(#17)" >
    <path id=""  transform="matrix(1 0 0 -1 0 211)"  d="M84.672 119.891L86.78899 119.891L86.78899 119.891L86.78899 115.075L86.78899 115.075L84.672 115.075z" stroke="none" fill="#1A1A18" fill-rule="evenodd" />
		</g>
		<g clip-path="url(#18)" >
    <path id=""  transform="matrix(1 0 0 -1 0 211)"  d="M374.734 -0.0004272461L374.734 208.4762" stroke="#1A1A18" stroke-width="90.53419" stroke-linejoin="miter" fill="none" />
		</g>
		<g clip-path="url(#19)" >
    <path id=""  transform="matrix(1 0 0 -1 0 211)"  d="M374.734 -0.0004272461L374.734 208.4762" stroke="#FFFFFF" stroke-width="82.82922" stroke-linejoin="miter" fill="none" />
		</g>
		<g clip-path="url(#20)" >
    <path id=""  transform="matrix(1 0 0 -1 0 211)"  d="M374.734 -0.0004272461L374.734 208.4762" stroke="#1A1A18" stroke-width="78.97656" stroke-linejoin="miter" fill="none" />
		</g>
		<g clip-path="url(#21)" >
    <path id=""  transform="matrix(1 0 0 -1 0 211)"  d="M372.777 -0.0004272461L372.777 114.5427" stroke="#FFFFFF" stroke-width="1.926257" stroke-linejoin="miter" stroke-dasharray="10.0000162124634,10.0000162124634" fill="none" />
		</g>
		<g clip-path="url(#22)" >
    <path id=""  transform="matrix(1 0 0 -1 0 211)"  d="M376.445 -0.0004272461L376.445 208.4762" stroke="#FFFFFF" stroke-width="1.926257" stroke-linejoin="miter" fill="none" />
		</g>
		<g clip-path="url(#23)" >
    <path id=""  transform="matrix(1 0 0 -1 0 211)"  d="M372.777 109.519L372.777 210.855" stroke="#FFFFFF" stroke-width="1.926257" stroke-linejoin="miter" fill="none" />
		</g>
		<g clip-path="url(#24)" >
    <path id=""  transform="matrix(1 0 0 -1 0 211)"  d="M219.855 1.140488L219.855 109.133" stroke="#FFFFFF" stroke-width="1.926257" stroke-linejoin="miter" stroke-dasharray="10.0000162124634,10.0000162124634" fill="none" />
		</g>
		<g clip-path="url(#25)" >
    <path id=""  transform="matrix(1 0 0 -1 0 211)"  d="M281.18 103.41C 281.18 99.687 278.16 96.668 274.438 96.668C 270.715 96.668 267.695 99.687 267.695 103.41C 267.695 107.133 270.715 110.152 274.438 110.152C 278.16 110.152 281.18 107.133 281.18 103.41" stroke="none" fill="#FFFFFF" fill-rule="evenodd" />
		</g>
		<g clip-path="url(#26)" >
    <path id=""  transform="matrix(1 0 0 -1 0 211)"  d="M281.18 103.4104C 281.18 99.68768 278.16 96.66789 274.438 96.66789C 270.715 96.66789 267.695 99.68768 267.695 103.4104C 267.695 107.1332 270.715 110.152 274.438 110.152C 278.16 110.152 281.18 107.1332 281.18 103.4104z" stroke="#000000" stroke-width="0.0481515" stroke-linejoin="miter" fill="none" />
		</g>
		<g clip-path="url(#27)" >
    <path id=""  transform="matrix(1 0 0 -1 0 211)"  d="M280.023 103.4104C 280.023 100.3246 277.523 97.82381 274.438 97.82381C 271.352 97.82381 268.852 100.3246 268.852 103.4104C 268.852 106.4922 271.352 108.996 274.438 108.996C 277.523 108.996 280.023 106.4922 280.023 103.4104z" stroke="#C1121C" stroke-width="1.80586" stroke-linejoin="miter" fill="none" />
		</g>
		<g clip-path="url(#28)" >
    <path id=""  transform="matrix(1 0 0 -1 0 211)"  d="M273.371 102.574L273.91 102.574C 273.906 101.898 273.957 101.945 273.652 101.941C 273.336 101.945 273.375 101.898 273.371 102.574M270.602 102.578L271.141 102.582C 271.137 101.906 271.191 101.941 270.898 101.937C 270.551 101.941 270.605 101.906 270.602 102.578zM270.805 103.84L271.094 104.504C 271.148 104.621 271.129 104.605 271.258 104.605L271.258 104.605L273.27 104.605C 273.379 104.605 273.363 104.613 273.406 104.508L273.406 104.508L273.691 103.848zM270.383 103.168C 270.371 103.863 270.332 103.266 270.754 104.297C 271.059 105 270.75 104.812 272.324 104.836C 273.723 104.809 273.441 105.012 273.762 104.266C 274.164 103.309 274.133 103.809 274.129 103.187C 274.117 102.504 274.367 102.68 272.25 102.656C 270.148 102.684 270.395 102.508 270.383 103.168z" stroke="none" fill="#C1121C" fill-rule="evenodd" />
		</g>
		<g clip-path="url(#29)" >
    <path id=""  transform="matrix(1 0 0 -1 0 211)"  d="M277.715 102.574L278.258 102.574C 278.254 101.898 278.301 101.945 277.996 101.941C 277.68 101.945 277.723 101.898 277.715 102.574M274.945 102.578L275.484 102.582C 275.48 101.906 275.539 101.941 275.246 101.937C 274.895 101.941 274.949 101.906 274.945 102.578zM275.152 103.84L275.438 104.504C 275.492 104.621 275.477 104.605 275.602 104.605L275.602 104.605L277.613 104.605C 277.723 104.605 277.707 104.613 277.75 104.508L277.75 104.508L278.035 103.848zM274.727 103.168C 274.715 103.863 274.68 103.266 275.098 104.297C 275.402 105 275.094 104.812 276.668 104.836C 278.066 104.809 277.785 105.012 278.105 104.266C 278.508 103.309 278.477 103.809 278.477 103.187C 278.461 102.504 278.711 102.68 276.594 102.656C 274.492 102.684 274.742 102.508 274.727 103.168z" stroke="none" fill="#000000" fill-rule="evenodd" />
		</g>
	</g>
</g>
</svg>