<?xml version="1.0" standalone="no"?>
<!DOCTYPE svg PUBLIC "-//W3C//DTD SVG 1.0//EN" "http://www.w3.org/TR/2001/REC-SVG-20010904/DTD/svg10.dtd">
<svg xmlns="http://www.w3.org/2000/svg" xmlns:xlink="http://www.w3.org/1999/xlink" id="body_1" width="476" height="283">

<defs>
    <clipPath  id="1">

    <path id=""  clip-rule="evenodd" transform="matrix(1 0 0 1 0 0)"  d="M0 212L0 -0.797699L0 -0.797699L357.0706 -0.797699L357.0706 -0.797699L357.0706 212L357.0706 212L0 212z" />    </clipPath>
    <clipPath  id="2">

    <path id=""  clip-rule="evenodd" transform="matrix(1 0 0 1 0 0)"  d="M0 -0.797699L358 -0.797699L358 -0.797699L358 212.2023L358 212.2023L0 212.2023z" />    </clipPath>
    <clipPath  id="3">

    <path id=""  clip-rule="evenodd" transform="matrix(1 0 0 1 0 0)"  d="M0 -0.797699L358 -0.797699L358 -0.797699L358 212.2023L358 212.2023L0 212.2023z" />    </clipPath>
    <clipPath  id="4">

    <path id=""  clip-rule="evenodd" transform="matrix(1 0 0 1 0 0)"  d="M0 -0.797699L358 -0.797699L358 -0.797699L358 212.2023L358 212.2023L0 212.2023z" />    </clipPath>
    <clipPath  id="5">

    <path id=""  clip-rule="evenodd" transform="matrix(1 0 0 1 0 0)"  d="M0 -0.797699L358 -0.797699L358 -0.797699L358 212.2023L358 212.2023L0 212.2023z" />    </clipPath>
    <clipPath  id="6">

    <path id=""  clip-rule="evenodd" transform="matrix(1 0 0 1 0 0)"  d="M0 -0.797699L358 -0.797699L358 -0.797699L358 212.2023L358 212.2023L0 212.2023z" />    </clipPath>
    <clipPath  id="7">

    <path id=""  clip-rule="evenodd" transform="matrix(1 0 0 1 0 0)"  d="M0 -0.797699L358 -0.797699L358 -0.797699L358 212.2023L358 212.2023L0 212.2023z" />    </clipPath>
    <clipPath  id="8">

    <path id=""  clip-rule="evenodd" transform="matrix(1 0 0 1 0 0)"  d="M0 -0.797699L358 -0.797699L358 -0.797699L358 212.2023L358 212.2023L0 212.2023z" />    </clipPath>
    <clipPath  id="9">

    <path id=""  clip-rule="evenodd" transform="matrix(1 0 0 1 0 0)"  d="M0 -0.797699L358 -0.797699L358 -0.797699L358 212.2023L358 212.2023L0 212.2023z" />    </clipPath>
    <clipPath  id="10">

    <path id=""  clip-rule="evenodd" transform="matrix(1 0 0 1 0 0)"  d="M0 -0.797699L358 -0.797699L358 -0.797699L358 212.2023L358 212.2023L0 212.2023z" />    </clipPath>
    <clipPath  id="11">

    <path id=""  clip-rule="evenodd" transform="matrix(1 0 0 1 0 0)"  d="M0 -0.797699L358 -0.797699L358 -0.797699L358 212.2023L358 212.2023L0 212.2023z" />    </clipPath>
    <clipPath  id="12">

    <path id=""  clip-rule="evenodd" transform="matrix(1 0 0 1 0 0)"  d="M0 -0.797699L358 -0.797699L358 -0.797699L358 212.2023L358 212.2023L0 212.2023z" />    </clipPath>
    <clipPath  id="13">

    <path id=""  clip-rule="evenodd" transform="matrix(1 0 0 1 0 0)"  d="M0 -0.797699L358 -0.797699L358 -0.797699L358 212.2023L358 212.2023L0 212.2023z" />    </clipPath>
    <clipPath  id="14">

    <path id=""  clip-rule="evenodd" transform="matrix(1 0 0 1 0 0)"  d="M0 -0.797699L358 -0.797699L358 -0.797699L358 212.2023L358 212.2023L0 212.2023z" />    </clipPath>
    <clipPath  id="15">

    <path id=""  clip-rule="evenodd" transform="matrix(1 0 0 1 0 0)"  d="M0 -0.797699L358 -0.797699L358 -0.797699L358 212.2023L358 212.2023L0 212.2023z" />    </clipPath>
    <clipPath  id="16">

    <path id=""  clip-rule="evenodd" transform="matrix(1 0 0 1 0 0)"  d="M0 -0.797699L358 -0.797699L358 -0.797699L358 212.2023L358 212.2023L0 212.2023z" />    </clipPath>
    <clipPath  id="17">

    <path id=""  clip-rule="evenodd" transform="matrix(1 0 0 1 0 0)"  d="M0 -0.797699L358 -0.797699L358 -0.797699L358 212.2023L358 212.2023L0 212.2023z" />    </clipPath>
    <clipPath  id="18">

    <path id=""  clip-rule="evenodd" transform="matrix(1 0 0 1 0 0)"  d="M0 -0.797699L358 -0.797699L358 -0.797699L358 212.2023L358 212.2023L0 212.2023z" />    </clipPath>
    <clipPath  id="19">

    <path id=""  clip-rule="evenodd" transform="matrix(1 0 0 1 0 0)"  d="M0 -0.797699L358 -0.797699L358 -0.797699L358 212.2023L358 212.2023L0 212.2023z" />    </clipPath>
    <clipPath  id="20">

    <path id=""  clip-rule="evenodd" transform="matrix(1 0 0 1 0 0)"  d="M0 -0.797699L358 -0.797699L358 -0.797699L358 212.2023L358 212.2023L0 212.2023z" />    </clipPath>
    <clipPath  id="21">

    <path id=""  clip-rule="evenodd" transform="matrix(1 0 0 1 0 0)"  d="M0 -0.797699L358 -0.797699L358 -0.797699L358 212.2023L358 212.2023L0 212.2023z" />    </clipPath>
    <clipPath  id="22">

    <path id=""  clip-rule="evenodd" transform="matrix(1 0 0 1 0 0)"  d="M0 -0.797699L358 -0.797699L358 -0.797699L358 212.2023L358 212.2023L0 212.2023z" />    </clipPath>
    <clipPath  id="23">

    <path id=""  clip-rule="evenodd" transform="matrix(1 0 0 1 0 0)"  d="M0 -0.797699L358 -0.797699L358 -0.797699L358 212.2023L358 212.2023L0 212.2023z" />    </clipPath>
    <clipPath  id="24">

    <path id=""  clip-rule="evenodd" transform="matrix(1 0 0 1 0 0)"  d="M0 -0.797699L358 -0.797699L358 -0.797699L358 212.2023L358 212.2023L0 212.2023z" />    </clipPath>
    <clipPath  id="25">

    <path id=""  clip-rule="evenodd" transform="matrix(1 0 0 1 0 0)"  d="M0 -0.797699L358 -0.797699L358 -0.797699L358 212.2023L358 212.2023L0 212.2023z" />    </clipPath>
    <clipPath  id="26">

    <path id=""  clip-rule="evenodd" transform="matrix(1 0 0 1 0 0)"  d="M0 -0.797699L358 -0.797699L358 -0.797699L358 212.2023L358 212.2023L0 212.2023z" />    </clipPath>
    <clipPath  id="27">

    <path id=""  clip-rule="evenodd" transform="matrix(1 0 0 1 0 0)"  d="M0 -0.797699L358 -0.797699L358 -0.797699L358 212.2023L358 212.2023L0 212.2023z" />    </clipPath>
    <clipPath  id="28">

    <path id=""  clip-rule="evenodd" transform="matrix(1 0 0 1 0 0)"  d="M0 -0.797699L358 -0.797699L358 -0.797699L358 212.2023L358 212.2023L0 212.2023z" />    </clipPath>
    <clipPath  id="29">

    <path id=""  clip-rule="evenodd" transform="matrix(1 0 0 1 0 0)"  d="M0 -0.797699L358 -0.797699L358 -0.797699L358 212.2023L358 212.2023L0 212.2023z" />    </clipPath>
    <clipPath  id="30">

    <path id=""  clip-rule="evenodd" transform="matrix(1 0 0 1 0 0)"  d="M0 -0.797699L358 -0.797699L358 -0.797699L358 212.2023L358 212.2023L0 212.2023z" />    </clipPath>
    <clipPath  id="31">

    <path id=""  clip-rule="evenodd" transform="matrix(1 0 0 1 0 0)"  d="M0 -0.797699L358 -0.797699L358 -0.797699L358 212.2023L358 212.2023L0 212.2023z" />    </clipPath>
    <clipPath  id="32">

    <path id=""  clip-rule="evenodd" transform="matrix(1 0 0 1 0 0)"  d="M0 -0.797699L358 -0.797699L358 -0.797699L358 212.2023L358 212.2023L0 212.2023z" />    </clipPath>
</defs>

<g transform="matrix(1.3333 0 0 1.3333 0 0)">
	<g clip-path="url(#1)" >
		<g clip-path="url(#2)" >
    <path id=""  transform="matrix(1 0 0 -1 0 212)"  d="M315.391 108.3797L320.11 108.3797L320.11 108.3797L320.11 49.7317L320.11 49.7317L315.391 49.7317z" stroke="none" fill="#7E7E7C" fill-rule="evenodd" />
		</g>
		<g clip-path="url(#3)" >
    <path id=""  transform="matrix(1 0 0 -1 0 212)"  d="M297.871 96.9817C 296.133 96.9817 294.723 98.3877 294.723 100.1257L294.723 100.1257L294.723 141.0477C 294.723 142.7857 296.133 144.1957 297.871 144.1957L297.871 144.1957L338.793 144.1957C 340.531 144.1957 341.938 142.7857 341.938 141.0477L341.938 141.0477L341.938 100.1257C 341.938 98.3877 340.531 96.9817 338.793 96.9817L338.793 96.9817L297.871 96.9817" stroke="none" fill="#FFFFFF" fill-rule="nonzero" />
		</g>
		<g clip-path="url(#4)" >
    <path id=""  transform="matrix(1 0 0 -1 0 212)"  d="M297.871 96.9817C 296.133 96.9817 294.723 98.3877 294.723 100.1257L294.723 100.1257L294.723 141.0477C 294.723 142.7857 296.133 144.1957 297.871 144.1957L297.871 144.1957L338.793 144.1957C 340.531 144.1957 341.938 142.7857 341.938 141.0477L341.938 141.0477L341.938 100.1257C 341.938 98.3877 340.531 96.9817 338.793 96.9817z" stroke="#231F20" stroke-width="0.0242676" stroke-linejoin="miter" fill="none" />
		</g>
		<g clip-path="url(#5)" >
    <path id=""  transform="matrix(1 0 0 -1 0 212)"  d="M297.871 97.7667C 296.566 97.7667 295.512 98.8247 295.512 100.1257L295.512 100.1257L295.512 141.0477C 295.512 142.3527 296.566 143.4107 297.871 143.4107L297.871 143.4107L338.793 143.4107C 340.098 143.4107 341.152 142.3527 341.152 141.0477L341.152 141.0477L341.152 100.1257C 341.152 98.8247 340.098 97.7667 338.793 97.7667L338.793 97.7667L297.871 97.7667" stroke="none" fill="#231F20" fill-rule="nonzero" />
		</g>
		<g clip-path="url(#6)" >
    <path id=""  transform="matrix(1 0 0 -1 0 212)"  d="M297.871 98.9457C 297.219 98.9457 296.691 99.4737 296.691 100.1257L296.691 100.1257L296.691 141.0477C 296.691 141.6997 297.219 142.2277 297.871 142.2277L297.871 142.2277L338.793 142.2277C 339.445 142.2277 339.973 141.6997 339.973 141.0477L339.973 141.0477L339.973 100.1257C 339.973 99.4737 339.445 98.9457 338.793 98.9457L338.793 98.9457L297.871 98.9457" stroke="none" fill="#FFFFFF" fill-rule="nonzero" />
		</g>
		<g clip-path="url(#7)" >
    <path id=""  transform="matrix(1 0 0 -1 0 212)"  d="M333.285 125.0597C 333.285 116.8017 326.59 110.1097 318.332 110.1097C 310.074 110.1097 303.379 116.8017 303.379 125.0597C 303.379 133.3177 310.074 140.0127 318.332 140.0127C 326.59 140.0127 333.285 133.3177 333.285 125.0597" stroke="none" fill="#C12026" fill-rule="nonzero" />
		</g>
		<g clip-path="url(#8)" >
    <path id=""  transform="matrix(1 0 0 -1 0 212)"  d="M329.352 125.0597C 329.352 118.9777 324.418 114.0437 318.332 114.0437C 312.246 114.0437 307.313 118.9777 307.313 125.0597C 307.313 131.1457 312.246 136.0787 318.332 136.0787C 324.418 136.0787 329.352 131.1457 329.352 125.0597" stroke="none" fill="#FFFFFF" fill-rule="nonzero" />
		</g>
		<g clip-path="url(#9)" >
    <path id=""  transform="matrix(1 0 0 -1 0 212)"  d="M309.867 121.8487L311.73 121.8487C 311.941 120.9737 312.727 120.3567 313.629 120.3567C 314.703 120.3567 315.578 121.2277 315.578 122.3057L315.578 122.3057L315.578 122.5357C 315.578 123.6137 314.703 124.4847 313.629 124.4847L313.629 124.4847L312.824 124.4847L312.824 124.4847L312.824 126.0947L312.824 126.0947L313.629 126.0947C 314.641 126.0947 315.461 126.9147 315.461 127.9307C 315.461 128.9427 314.641 129.7667 313.629 129.7667C 312.746 129.7667 311.988 129.1377 311.824 128.2747L311.824 128.2747L309.969 128.2747C 310.148 130.1607 311.734 131.6027 313.629 131.6027C 315.656 131.6027 317.297 129.9577 317.297 127.9307C 317.297 126.8837 316.789 125.9027 315.934 125.3017C 316.859 124.6847 317.414 123.6457 317.414 122.5357L317.414 122.5357L317.414 122.3057C 317.414 120.2157 315.719 118.5207 313.629 118.5207C 311.715 118.5207 310.098 119.9457 309.867 121.8487" stroke="none" fill="#231F20" fill-rule="nonzero" />
		</g>
		<g clip-path="url(#10)" >
    <path id=""  transform="matrix(1 0 0 -1 0 212)"  d="M321.086 122.1927C 321.086 121.1767 321.906 120.3567 322.922 120.3567C 323.934 120.3567 324.758 121.1767 324.758 122.1927L324.758 122.1927L324.758 127.9307C 324.758 128.9427 323.934 129.7667 322.922 129.7667C 321.906 129.7667 321.086 128.9427 321.086 127.9307L321.086 127.9307L321.086 122.1927M319.25 122.1927L319.25 127.9307C 319.25 129.9577 320.895 131.6027 322.922 131.6027C 324.949 131.6027 326.594 129.9577 326.594 127.9307L326.594 127.9307L326.594 122.1927C 326.594 120.1647 324.949 118.5207 322.922 118.5207C 320.895 118.5207 319.25 120.1647 319.25 122.1927z" stroke="none" fill="#231F20" fill-rule="nonzero" />
		</g>
		<g clip-path="url(#11)" >
    <path id=""  transform="matrix(1 0 0 -1 0 212)"  d="M325.059 101.1647L325.059 107.7747L325.059 107.7747L329.309 107.7747L329.309 107.7747L329.309 106.8287L329.309 106.8287L326.063 106.8287L326.063 106.8287L326.063 104.9427L326.063 104.9427L328.84 104.9427L328.84 104.9427L328.84 104.0557L328.84 104.0557L326.063 104.0557L326.063 104.0557L326.063 102.1067L326.063 102.1067L329.309 102.1067L329.309 102.1067L329.309 101.1647L329.309 101.1647L325.059 101.1647M318.566 101.1647L318.566 107.7747L318.566 107.7747L319.512 107.7747L319.512 107.7747L322.523 103.0517L322.523 103.0517L322.523 107.7747L322.523 107.7747L323.527 107.7747L323.527 107.7747L323.527 101.1647L323.527 101.1647L322.582 101.1647L322.582 101.1647L319.574 105.8837L319.574 105.8837L319.574 101.1647zM313.551 103.4657C 313.551 102.7157 314.156 102.1067 314.906 102.1067C 315.656 102.1067 316.266 102.7157 316.266 103.4657L316.266 103.4657L316.266 105.4737C 316.266 106.2237 315.656 106.8287 314.906 106.8287C 314.156 106.8287 313.551 106.2237 313.551 105.4737zM312.547 103.4657L312.547 105.4737C 312.547 106.7747 313.605 107.8327 314.906 107.8327C 316.211 107.8327 317.27 106.7747 317.27 105.4737L317.27 105.4737L317.27 103.4657C 317.27 102.1607 316.211 101.1067 314.906 101.1067C 313.605 101.1067 312.547 102.1607 312.547 103.4657zM307.352 101.1647L307.352 101.9887L307.352 101.9887L310.363 106.8877L310.363 106.8877L307.473 106.8877L307.473 106.8877L307.473 107.7747L307.473 107.7747L311.605 107.7747L311.605 107.7747L311.605 107.0087L311.605 107.0087L308.594 102.1067L308.594 102.1067L311.605 102.1067L311.605 102.1067L311.605 101.1647z" stroke="none" fill="#231F20" fill-rule="nonzero" />
		</g>
		<g clip-path="url(#12)" >
    <path id=""  transform="matrix(1 0 0 -1 0 212)"  d="M178.148 81.98869C 180.867 81.98869 183.586 81.98869 186.324 81.98869C 185.852 79.6377 185.352 77.28169 184.82 74.93069C 184.242 72.72369 183.949 72.0047 183.816 71.2347C 184.043 70.40669 184.398 69.5047 185.043 67.2077C 190.641 67.2077 190.785 67.39169 192.309 65.51669C 193.203 64.39571 195.645 56.3757 196.191 54.4847C 196.668 52.7897 193.973 51.89169 191.746 53.8017C 190.727 54.7037 191.016 55.0907 190.488 55.99271C 188.789 55.93469 187.098 55.93469 185.406 55.93469C 185.863 54.0247 186.551 52.57069 187.707 50.7157C 188.539 49.39169 190.949 47.51669 193.551 46.32069C 194.27 45.98869 196.977 45.4537 198.598 46.39169C 202.082 48.4537 202.207 50.7157 201.813 53.1767C 201.273 56.43469 198.203 66.14169 195.293 69.11771C 194.152 70.22369 192.926 71.76669 189.289 72.09869C 189.93 74.48869 190.484 76.89571 190.875 79.3447C 191.086 80.8877 191.125 81.5477 191.289 82.7627C 191.07 83.35269 190.102 86.1647 189.992 86.6957C 188.172 86.6957 178.602 86.7157 176.875 86.7157C 177.293 85.1337 177.711 83.55569 178.148 81.98869M206.746 86.9927C 205.996 86.8997 205.328 86.7347 204.949 86.4967C 203.91 85.8717 203.016 84.7467 202.848 83.9967C 202.535 82.4697 202.98 80.9817 203.719 79.16071C 206.762 71.94969 209.629 64.06371 213.23 55.7157C 214.215 53.4187 215.977 50.8997 218.891 48.65269C 219.828 47.9187 221.605 46.7977 223.141 46.32069C 224.152 45.98869 225.078 45.7317 226.508 45.93469C 233.055 46.9267 230.125 54.18871 229 56.5437C 226.953 60.80969 225.043 65.02071 223.063 68.97369C 221.238 72.61369 219.691 76.30969 217.797 79.9697C 217.035 81.4577 215.82 83.2587 214.09 84.4187C 213.047 85.1177 209.949 87.4497 206.746 86.9927zM208.789 82.11771C 210.348 82.11771 211.145 82.02769 211.77 81.40269C 212.262 80.86771 212.727 80.24271 212.938 79.72769C 213.461 78.47769 213.988 77.28169 214.563 76.03169C 215.645 73.6257 216.77 71.18069 217.828 68.7897C 219.637 64.78169 221.598 60.53169 223.563 56.32069C 223.859 55.66071 224.367 54.81371 224.477 54.18871C 224.703 53.14169 223.023 51.72369 220.141 53.5827C 218.762 54.4847 217.457 58.6217 216.938 59.7977C 215.836 62.3717 208.098 79.6377 208.051 80.8327C 208.004 81.7317 208.086 81.5477 208.789 82.11771zM131.855 212.7627C 132.406 212.7627 132.949 212.7627 133.484 212.7627C 133.563 212.1177 133.641 211.4737 133.715 210.8137C 133.164 210.8137 132.605 210.8137 132.039 210.8137C 131.98 211.4737 131.918 212.1177 131.855 212.7627zM132.223 208.7707C 132.809 208.7707 133.383 208.7707 133.953 208.7707C 134.043 208.0707 134.125 207.3367 134.211 206.6027C 133.613 206.6027 133.02 206.6027 132.422 206.6027C 132.355 207.3367 132.285 208.0707 132.223 208.7707zM132.625 204.2667C 133.238 204.2667 133.855 204.2667 134.473 204.2667C 134.563 203.4577 134.656 202.6297 134.754 201.7667C 134.113 201.7667 133.477 201.7817 132.84 201.7817C 132.766 202.6497 132.695 203.4577 132.625 204.2667zM133.07 199.0987C 133.73 199.0987 134.391 199.0987 135.055 199.0987C 135.156 198.1807 135.262 197.2237 135.367 196.2507C 134.684 196.2507 133.996 196.2507 133.313 196.2667C 133.23 197.2237 133.148 198.1807 133.07 199.0987zM133.574 193.1417C 134.297 193.1417 135.008 193.1417 135.711 193.1417C 135.832 192.0397 135.953 190.9347 136.082 189.7777C 135.352 189.7777 134.609 189.7777 133.855 189.7777C 133.758 190.9347 133.664 192.0397 133.574 193.1417zM134.16 186.1527C 134.945 186.1527 135.719 186.1527 136.48 186.1527C 136.621 184.8677 136.77 183.5437 136.918 182.1997C 136.121 182.1997 135.313 182.1997 134.492 182.1997C 134.379 183.5437 134.27 184.8677 134.16 186.1527zM134.859 177.8597C 135.715 177.8597 136.563 177.8597 137.395 177.8447C 137.566 176.3177 137.738 174.7347 137.914 173.0987C 137.039 173.0987 136.152 173.0987 135.254 173.0987C 135.121 174.7347 134.988 176.3177 134.859 177.8597zM135.684 167.8957C 136.629 167.8957 137.559 167.8757 138.48 167.8757C 138.684 165.9657 138.895 164.0517 139.121 162.0477C 138.141 162.0477 137.156 162.0677 136.176 162.0677C 135.996 164.0707 135.84 165.9847 135.684 167.8957zM136.703 155.5747C 137.742 155.5747 138.781 155.5747 139.82 155.5747C 140.07 153.2777 140.332 150.8327 140.602 148.3327C 139.5 148.3327 138.398 148.3327 137.297 148.3327C 137.094 150.8327 136.891 153.2777 136.703 155.5747zM137.961 140.1887C 139.133 140.1887 140.305 140.1687 141.48 140.1687C 141.809 137.1137 142.133 134.0827 142.488 130.7707C 141.234 130.7707 139.98 130.7707 138.727 130.7707C 138.457 134.0827 138.211 137.1137 137.961 140.1887zM139.602 120.0317C 140.949 120.0317 142.297 120.0317 143.645 120.0317C 144.055 116.2077 144.512 111.9617 144.969 107.6957C 143.516 107.7157 142.059 107.7157 140.605 107.7157C 140.258 111.9617 139.914 116.2277 139.602 120.0317zM141.793 93.0787C 143.375 93.0787 144.957 93.0787 146.539 93.0787C 147.141 87.5087 147.738 81.9537 148.426 75.55569C 146.691 75.55569 144.957 75.55569 143.223 75.55569C 142.703 81.9537 142.25 87.5087 141.793 93.0787zM144.941 54.52071C 146.859 54.52071 148.777 54.52071 150.691 54.52071C 151.555 46.5947 152.52 37.7507 153.488 28.9267C 151.348 28.9267 149.211 28.9267 147.07 28.9267C 146.336 37.7507 145.598 46.57469 144.941 54.52071zM99.34 212.7977C 110.426 212.7977 121.531 212.7977 132.672 212.7977C 143.719 212.7977 154.828 212.7977 165.934 212.7977C 171.594 203.8057 179.055 191.9657 189.441 175.4737C 204.953 150.8327 230.641 110.0317 281.328 29.5127C 237.691 29.5127 193.934 29.5127 150.207 29.5127C 106.598 29.5127 62.902 29.5127 19.176 29.5127C 54.48 110.1767 72.387 151.1257 83.195 175.8207C 90.371 192.2237 95.508 203.9887 99.34 212.7977zM97.695 212.7627C 109.32 212.7627 120.965 212.7627 132.66 212.7627C 144.246 212.7627 155.906 212.7627 167.57 212.7627C 173.457 203.7897 181.227 191.9267 192.055 175.4147C 208.219 150.7587 234.965 109.9027 287.816 29.2547C 242.023 29.2547 196.082 29.2547 150.172 29.2547C 104.383 29.2547 58.5 29.2547 12.559 29.2547C 50.059 110.0677 69.098 151.0517 80.566 175.7857C 88.18 192.2037 93.629 203.9737 97.695 212.7627zM94.523 212.7977C 100.875 212.7977 107.25 212.7977 113.625 212.7977C 119.953 212.7977 126.297 212.7977 132.664 212.7977C 138.887 212.7977 145.176 212.7977 151.551 212.7977C 157.879 212.7977 164.309 212.7977 170.867 212.7977C 173.91 208.4777 177.316 203.6607 181.203 198.1607C 185.727 191.7627 191.02 184.2977 197.289 175.4347C 205.027 164.4927 214.656 150.9067 226.934 133.5477C 243.398 110.2707 266.301 77.89169 300.535 29.5127C 275.707 29.5127 250.676 29.5127 225.668 29.5127C 200.547 29.5127 175.332 29.5127 150.176 29.5127C 124.781 29.5127 99.508 29.5127 74.504 29.5127C 49.379 29.5127 24.523 29.5127 0 29.5127C 24.406 76.82469 41.234 109.4617 53.422 133.0907C 62.52 150.7237 69.695 164.6417 75.461 175.8207C 80.078 184.7747 83.949 192.2777 87.23 198.6417C 90.016 204.0437 92.43 208.7347 94.523 212.7977z" stroke="none" fill="#231F20" fill-rule="evenodd" />
		</g>
		<g clip-path="url(#13)" >
    <path id=""  transform="matrix(1 0 0 -1 0 212)"  d="M314.379 53.4427L321.121 53.4427L321.121 53.4427L321.121 46.0247L321.121 46.0247L314.379 46.0247z" stroke="none" fill="#231F20" fill-rule="evenodd" />
		</g>
		<g clip-path="url(#14)" >
    <path id=""  transform="matrix(1 0 0 -1 0 212)"  d="M276.73 42.6687L276.73 13.9577" stroke="#ED1C24" stroke-width="0.636945" stroke-linejoin="miter" fill="none" />
		</g>
		<g clip-path="url(#15)" >
    <path id=""  transform="matrix(1 0 0 -1 0 212)"  d="M317.75 42.52071L317.75 13.9577" stroke="#ED1C24" stroke-width="0.636945" stroke-linejoin="miter" fill="none" />
		</g>
		<g clip-path="url(#16)" >
    <path id=""  transform="matrix(1 0 0 -1 0 212)"  d="M314.41 17.4617L280.074 17.4617" stroke="#ED1C24" stroke-width="0.636945" stroke-linejoin="miter" fill="none" />
		</g>
		<g clip-path="url(#17)" >
    <path id=""  transform="matrix(1 0 0 -1 0 212)"  d="M311.063 19.2507L317.75 17.4617L317.75 17.4617L311.063 15.6687L311.063 15.6687L311.063 19.2507" stroke="none" fill="#ED1C24" fill-rule="evenodd" />
		</g>
		<g clip-path="url(#18)" >
    <path id=""  transform="matrix(1 0 0 -1 0 212)"  d="M283.414 19.2507L276.73 17.4617L276.73 17.4617L283.414 15.6687L283.414 15.6687L283.414 19.2507" stroke="none" fill="#ED1C24" fill-rule="evenodd" />
		</g>
		<g clip-path="url(#19)" >
    <path id=""  transform="matrix(1 0 0 -1 0 212)"  d="M267.848 10.69969L267.848 12.11771L267.848 12.11771L275.648 12.11771L275.648 12.11771L275.648 10.9697C 274.883 10.15269 274.117 9.067703 273.367 7.7117C 272.609 6.352692 272.027 4.957703 271.613 3.520706C 271.32 2.512695 271.129 1.402695 271.047 0.2037048L271.047 0.2037048L269.531 0.2037048C 269.547 1.152695 269.734 2.301697 270.09 3.645706C 270.449 4.992706 270.957 6.289703 271.621 7.539703C 272.285 8.789703 272.996 9.844696 273.746 10.69969L273.746 10.69969L267.848 10.69969" stroke="none" fill="#EF3221" fill-rule="nonzero" />
		</g>
		<g clip-path="url(#20)" >
    <path id=""  transform="matrix(1 0 0 -1 0 212)"  d="M277.133 3.371704L278.684 3.488693C 278.801 2.731705 279.066 2.164703 279.484 1.781693C 279.898 1.402695 280.406 1.2117 281.004 1.2117C 281.727 1.2117 282.332 1.481705 282.824 2.020706C 283.313 2.559692 283.559 3.270706 283.559 4.160706C 283.559 5.0047 283.324 5.672699 282.852 6.160706C 282.387 6.649704 281.766 6.891693 280.992 6.891693C 280.512 6.891693 280.082 6.781693 279.699 6.563705C 279.32 6.344696 279.023 6.059692 278.805 5.7117L278.805 5.7117L277.406 5.914703L277.406 5.914703L278.566 12.11771L278.566 12.11771L284.551 12.11771L284.551 12.11771L284.551 10.69969L284.551 10.69969L279.75 10.69969L279.75 10.69969L279.105 7.445694C 279.828 7.953705 280.586 8.207703 281.379 8.207703C 282.43 8.207703 283.316 7.840698 284.039 7.109695C 284.762 6.3797 285.121 5.442703 285.121 4.297699C 285.121 3.203705 284.805 2.262695 284.172 1.465698C 283.398 0.4886932 282.344 0.0007019043 281.004 0.0007019043C 279.91 0.0007019043 279.016 0.3096924 278.324 0.922699C 277.629 1.539703 277.234 2.352692 277.133 3.371704" stroke="none" fill="#EF3221" fill-rule="nonzero" />
		</g>
		<g clip-path="url(#21)" >
    <path id=""  transform="matrix(1 0 0 -1 0 212)"  d="M291.004 5.309692L295.59 5.309692L295.59 5.309692L295.59 3.825699L295.59 3.825699L291.004 3.825699z" stroke="none" fill="#EF3221" fill-rule="nonzero" />
		</g>
		<g clip-path="url(#22)" >
    <path id=""  transform="matrix(1 0 0 -1 0 212)"  d="M307.047 0.2037048L305.563 0.2037048L305.563 0.2037048L305.563 9.645706C 305.207 9.301697 304.738 8.9617 304.16 8.621704C 303.578 8.281693 303.059 8.027695 302.594 7.859695L302.594 7.859695L302.594 9.289703C 303.426 9.680695 304.148 10.1497 304.77 10.7077C 305.391 11.2587 305.832 11.7977 306.094 12.3177L306.094 12.3177L307.047 12.3177L307.047 12.3177L307.047 0.2037048" stroke="none" fill="#EF3221" fill-rule="nonzero" />
		</g>
		<g clip-path="url(#23)" >
    <path id=""  transform="matrix(1 0 0 -1 0 212)"  d="M318.625 1.617706L318.625 0.2037048L318.625 0.2037048L310.637 0.2037048C 310.629 0.5596924 310.688 0.9026947 310.813 1.231705C 311.016 1.774704 311.348 2.313705 311.797 2.8367C 312.25 3.359695 312.898 3.969696 313.738 4.656693C 315.043 5.731705 315.93 6.582703 316.395 7.2117C 316.859 7.840698 317.09 8.438705 317.09 9.000702C 317.09 9.5867 316.883 10.0787 316.461 10.4847C 316.039 10.8877 315.488 11.0907 314.813 11.0907C 314.098 11.0907 313.523 10.8757 313.094 10.44969C 312.664 10.0247 312.445 9.434692 312.441 8.680695L312.441 8.680695L310.926 8.828705C 311.027 9.965698 311.422 10.8287 312.102 11.4267C 312.785 12.02071 313.699 12.3177 314.848 12.3177C 316.004 12.3177 316.922 12.0007 317.594 11.3567C 318.273 10.7117 318.609 9.914703 318.609 8.965698C 318.609 8.481705 318.512 8.008698 318.313 7.539703C 318.113 7.070694 317.785 6.582703 317.328 6.063705C 316.867 5.551697 316.109 4.840698 315.043 3.942703C 314.156 3.192703 313.582 2.688705 313.328 2.422699C 313.078 2.152695 312.867 1.887695 312.703 1.617706L312.703 1.617706L318.625 1.617706" stroke="none" fill="#EF3221" fill-rule="nonzero" />
		</g>
		<g clip-path="url(#24)" >
    <path id=""  transform="matrix(1 0 0 -1 0 212)"  d="M320.23 3.371704L321.781 3.488693C 321.895 2.731705 322.164 2.164703 322.578 1.781693C 322.992 1.402695 323.5 1.2117 324.102 1.2117C 324.82 1.2117 325.426 1.481705 325.918 2.020706C 326.406 2.559692 326.648 3.270706 326.648 4.160706C 326.648 5.0047 326.418 5.672699 325.949 6.160706C 325.48 6.649704 324.859 6.891693 324.086 6.891693C 323.605 6.891693 323.176 6.781693 322.793 6.563705C 322.418 6.344696 322.117 6.059692 321.898 5.7117L321.898 5.7117L320.5 5.914703L320.5 5.914703L321.664 12.11771L321.664 12.11771L327.645 12.11771L327.645 12.11771L327.645 10.69969L327.645 10.69969L322.844 10.69969L322.844 10.69969L322.203 7.445694C 322.926 7.953705 323.684 8.207703 324.473 8.207703C 325.523 8.207703 326.41 7.840698 327.133 7.109695C 327.855 6.3797 328.219 5.442703 328.219 4.297699C 328.219 3.203705 327.902 2.262695 327.266 1.465698C 326.492 0.4886932 325.438 0.0007019043 324.102 0.0007019043C 323.004 0.0007019043 322.113 0.3096924 321.418 0.922699C 320.723 1.539703 320.328 2.352692 320.23 3.371704" stroke="none" fill="#EF3221" fill-rule="nonzero" />
		</g>
		<g clip-path="url(#25)" >
    <path id=""  transform="matrix(1 0 0 -1 0 212)"  d="M339.613 96.9817L343.117 96.9817" stroke="#ED1C24" stroke-width="0.636945" stroke-linejoin="miter" fill="none" />
		</g>
		<g clip-path="url(#26)" >
    <path id=""  transform="matrix(1 0 0 -1 0 212)"  d="M321.254 46.0247L343.117 46.0247" stroke="#ED1C24" stroke-width="0.636945" stroke-linejoin="miter" fill="none" />
		</g>
		<g clip-path="url(#27)" >
    <path id=""  transform="matrix(1 0 0 -1 0 212)"  d="M339.613 49.36771L339.613 93.6377" stroke="#ED1C24" stroke-width="0.636945" stroke-linejoin="miter" fill="none" />
		</g>
		<g clip-path="url(#28)" >
    <path id=""  transform="matrix(1 0 0 -1 0 212)"  d="M341.402 52.7117L339.613 46.0247L339.613 46.0247L337.82 52.7117L337.82 52.7117L341.402 52.7117" stroke="none" fill="#ED1C24" fill-rule="evenodd" />
		</g>
		<g clip-path="url(#29)" >
    <path id=""  transform="matrix(1 0 0 -1 0 212)"  d="M341.402 90.2937L339.613 96.9817L339.613 96.9817L337.82 90.2937L337.82 90.2937L341.402 90.2937" stroke="none" fill="#ED1C24" fill-rule="evenodd" />
		</g>
		<g clip-path="url(#30)" >
    <path id=""  transform="matrix(1 0 0 -1 0 212)"  d="M356.867 65.02769L356.867 63.5437L356.867 63.5437L347.426 63.5437C 347.77 63.18871 348.109 62.7197 348.445 62.14169C 348.789 61.56371 349.043 61.0397 349.211 60.5787L349.211 60.5787L347.781 60.5787C 347.395 61.40669 346.922 62.1337 346.363 62.7547C 345.809 63.3757 345.273 63.81371 344.75 64.07469L344.75 64.07469L344.75 65.02769L344.75 65.02769L356.867 65.02769" stroke="none" fill="#EF3221" fill-rule="nonzero" />
		</g>
		<g clip-path="url(#31)" >
    <path id=""  transform="matrix(1 0 0 -1 0 212)"  d="M353.699 68.8407L353.582 70.39169C 354.34 70.5047 354.906 70.77071 355.285 71.18871C 355.664 71.60269 355.859 72.1097 355.859 72.7117C 355.859 73.43069 355.59 74.03571 355.051 74.52769C 354.512 75.01669 353.797 75.2587 352.91 75.2587C 352.066 75.2587 351.398 75.02769 350.91 74.55969C 350.422 74.0907 350.18 73.4697 350.18 72.69569C 350.18 72.2157 350.289 71.78571 350.508 71.40269C 350.727 71.0247 351.008 70.72769 351.359 70.5087L351.359 70.5087L351.156 69.1097L351.156 69.1097L344.953 70.27071L344.953 70.27071L344.953 76.2547L344.953 76.2547L346.371 76.2547L346.371 76.2547L346.371 71.4537L346.371 71.4537L349.625 70.81371C 349.117 71.53169 348.863 72.2897 348.863 73.0827C 348.863 74.1337 349.23 75.02071 349.961 75.74271C 350.691 76.4657 351.625 76.8287 352.773 76.8287C 353.867 76.8287 354.809 76.5087 355.605 75.8757C 356.582 75.10269 357.07 74.0477 357.07 72.7117C 357.07 71.61369 356.762 70.72369 356.148 70.02769C 355.531 69.3327 354.715 68.93871 353.699 68.8407" stroke="none" fill="#EF3221" fill-rule="nonzero" />
		</g>
		<g clip-path="url(#32)" >
    <path id=""  transform="matrix(1 0 0 -1 0 212)"  d="M350.922 79.72769C 352.906 79.72769 354.223 79.9577 354.879 80.4227C 355.531 80.8877 355.859 81.4577 355.859 82.1377C 355.859 82.8177 355.531 83.39169 354.875 83.8567C 354.219 84.3177 352.898 84.5477 350.922 84.5477C 348.934 84.5477 347.613 84.3177 346.961 83.8567C 346.309 83.39571 345.98 82.8177 345.98 82.1217C 345.98 81.4427 346.27 80.8997 346.848 80.48869C 347.582 79.9817 348.938 79.72769 350.922 79.72769M350.914 78.2117C 349.488 78.2117 348.336 78.3597 347.469 78.6497C 346.594 78.94569 345.922 79.3797 345.453 79.9577C 344.984 80.53571 344.75 81.2627 344.75 82.1377C 344.75 82.78571 344.879 83.35269 345.141 83.8447C 345.402 84.3327 345.777 84.73869 346.27 85.0517C 346.762 85.3677 347.359 85.6137 348.063 85.7937C 348.77 85.9777 349.719 86.0677 350.914 86.0677C 352.332 86.0677 353.477 85.9187 354.348 85.6297C 355.219 85.3407 355.891 84.9067 356.363 84.3287C 356.836 83.7507 357.07 83.02071 357.07 82.1377C 357.07 80.97769 356.656 80.0677 355.828 79.40269C 354.82 78.6097 353.18 78.2117 350.914 78.2117z" stroke="none" fill="#EF3221" fill-rule="nonzero" />
		</g>
	</g>
</g>
</svg>