<?xml version="1.0" standalone="no"?>
<!DOCTYPE svg PUBLIC "-//W3C//DTD SVG 1.0//EN" "http://www.w3.org/TR/2001/REC-SVG-20010904/DTD/svg10.dtd">
<svg xmlns="http://www.w3.org/2000/svg" xmlns:xlink="http://www.w3.org/1999/xlink" id="body_1" width="316" height="344">

<defs>
    <clipPath  id="1">

    <path id=""  clip-rule="evenodd" transform="matrix(1 0 0 1 0 0)"  d="M0 258L0 -0.638916L0 -0.638916L237.0705 -0.638916L237.0705 -0.638916L237.0705 258L237.0705 258L0 258z" />    </clipPath>
    <clipPath  id="2">

    <path id=""  clip-rule="evenodd" transform="matrix(1 0 0 1 0 0)"  d="M0 -0.638916L238 -0.638916L238 -0.638916L238 258.3611L238 258.3611L0 258.3611z" />    </clipPath>
    <clipPath  id="3">

    <path id=""  clip-rule="evenodd" transform="matrix(1 0 0 1 0 0)"  d="M0 -0.638916L238 -0.638916L238 -0.638916L238 258.3611L238 258.3611L0 258.3611z" />    </clipPath>
    <clipPath  id="4">

    <path id=""  clip-rule="evenodd" transform="matrix(1 0 0 1 0 0)"  d="M0 -0.638916L238 -0.638916L238 -0.638916L238 258.3611L238 258.3611L0 258.3611z" />    </clipPath>
    <clipPath  id="5">

    <path id=""  clip-rule="evenodd" transform="matrix(1 0 0 1 0 0)"  d="M0 -0.638916L238 -0.638916L238 -0.638916L238 258.3611L238 258.3611L0 258.3611z" />    </clipPath>
    <clipPath  id="6">

    <path id=""  clip-rule="evenodd" transform="matrix(1 0 0 1 0 0)"  d="M0 -0.638916L238 -0.638916L238 -0.638916L238 258.3611L238 258.3611L0 258.3611z" />    </clipPath>
    <clipPath  id="7">

    <path id=""  clip-rule="evenodd" transform="matrix(1 0 0 1 0 0)"  d="M0 -0.638916L238 -0.638916L238 -0.638916L238 258.3611L238 258.3611L0 258.3611z" />    </clipPath>
    <clipPath  id="8">

    <path id=""  clip-rule="evenodd" transform="matrix(1 0 0 1 0 0)"  d="M0 -0.638916L238 -0.638916L238 -0.638916L238 258.3611L238 258.3611L0 258.3611z" />    </clipPath>
    <clipPath  id="9">

    <path id=""  clip-rule="evenodd" transform="matrix(1 0 0 1 0 0)"  d="M0 -0.638916L238 -0.638916L238 -0.638916L238 258.3611L238 258.3611L0 258.3611z" />    </clipPath>
    <clipPath  id="10">

    <path id=""  clip-rule="evenodd" transform="matrix(1 0 0 1 0 0)"  d="M0 -0.638916L238 -0.638916L238 -0.638916L238 258.3611L238 258.3611L0 258.3611z" />    </clipPath>
    <clipPath  id="11">

    <path id=""  clip-rule="evenodd" transform="matrix(1 0 0 1 0 0)"  d="M0 -0.638916L238 -0.638916L238 -0.638916L238 258.3611L238 258.3611L0 258.3611z" />    </clipPath>
    <clipPath  id="12">

    <path id=""  clip-rule="evenodd" transform="matrix(1 0 0 1 0 0)"  d="M0 -0.638916L238 -0.638916L238 -0.638916L238 258.3611L238 258.3611L0 258.3611z" />    </clipPath>
    <clipPath  id="13">

    <path id=""  clip-rule="evenodd" transform="matrix(1 0 0 1 0 0)"  d="M0 -0.638916L238 -0.638916L238 -0.638916L238 258.3611L238 258.3611L0 258.3611z" />    </clipPath>
    <clipPath  id="14">

    <path id=""  clip-rule="evenodd" transform="matrix(1 0 0 1 0 0)"  d="M0 -0.638916L238 -0.638916L238 -0.638916L238 258.3611L238 258.3611L0 258.3611z" />    </clipPath>
    <clipPath  id="15">

    <path id=""  clip-rule="evenodd" transform="matrix(1 0 0 1 0 0)"  d="M0 -0.638916L238 -0.638916L238 -0.638916L238 258.3611L238 258.3611L0 258.3611z" />    </clipPath>
    <clipPath  id="16">

    <path id=""  clip-rule="evenodd" transform="matrix(1 0 0 1 0 0)"  d="M0 -0.638916L238 -0.638916L238 -0.638916L238 258.3611L238 258.3611L0 258.3611z" />    </clipPath>
    <clipPath  id="17">

    <path id=""  clip-rule="evenodd" transform="matrix(1 0 0 1 0 0)"  d="M0 -0.638916L238 -0.638916L238 -0.638916L238 258.3611L238 258.3611L0 258.3611z" />    </clipPath>
    <clipPath  id="18">

    <path id=""  clip-rule="evenodd" transform="matrix(1 0 0 1 0 0)"  d="M0 -0.638916L238 -0.638916L238 -0.638916L238 258.3611L238 258.3611L0 258.3611z" />    </clipPath>
    <clipPath  id="19">

    <path id=""  clip-rule="evenodd" transform="matrix(1 0 0 1 0 0)"  d="M0 -0.638916L238 -0.638916L238 -0.638916L238 258.3611L238 258.3611L0 258.3611z" />    </clipPath>
    <clipPath  id="20">

    <path id=""  clip-rule="evenodd" transform="matrix(1 0 0 1 0 0)"  d="M0 -0.638916L238 -0.638916L238 -0.638916L238 258.3611L238 258.3611L0 258.3611z" />    </clipPath>
    <clipPath  id="21">

    <path id=""  clip-rule="evenodd" transform="matrix(1 0 0 1 0 0)"  d="M0 -0.638916L238 -0.638916L238 -0.638916L238 258.3611L238 258.3611L0 258.3611z" />    </clipPath>
    <clipPath  id="22">

    <path id=""  clip-rule="evenodd" transform="matrix(1 0 0 1 0 0)"  d="M0 -0.638916L238 -0.638916L238 -0.638916L238 258.3611L238 258.3611L0 258.3611z" />    </clipPath>
    <clipPath  id="23">

    <path id=""  clip-rule="evenodd" transform="matrix(1 0 0 1 0 0)"  d="M0 -0.638916L238 -0.638916L238 -0.638916L238 258.3611L238 258.3611L0 258.3611z" />    </clipPath>
</defs>

<g transform="matrix(1.3333 0 0 1.3333 0 0)">
	<g clip-path="url(#1)" >
		<g clip-path="url(#2)" >
    <path id=""  transform="matrix(1 0 0 -1 0 258)"  d="M37.746 161.7719L136.609 161.7719L136.609 161.7719L136.609 37.74492L136.609 37.74492L37.746 37.74492z" stroke="#231F20" stroke-width="3.196136" stroke-linejoin="miter" fill="none" />
		</g>
		<g clip-path="url(#3)" >
    <path id=""  transform="matrix(1 0 0 -1 0 258)"  d="M136.609 161.7719L235.473 257.0409" stroke="#231F20" stroke-width="3.196136" stroke-linejoin="miter" fill="none" />
		</g>
		<g clip-path="url(#4)" >
    <path id=""  transform="matrix(1 0 0 -1 0 258)"  d="M37.746 161.7719L153.688 257.0409" stroke="#231F20" stroke-width="3.196136" stroke-linejoin="miter" fill="none" />
		</g>
		<g clip-path="url(#5)" >
    <path id=""  transform="matrix(1 0 0 -1 0 258)"  d="M136.609 37.74391L235.473 143.7989" stroke="#231F20" stroke-width="3.196136" stroke-linejoin="miter" fill="none" />
		</g>
		<g clip-path="url(#6)" >
    <path id=""  transform="matrix(1 0 0 -1 0 258)"  d="M235.473 143.7989L235.473 257.0409L235.473 257.0409L153.688 257.0409" stroke="#231F20" stroke-width="3.196136" stroke-linejoin="miter" fill="none" />
		</g>
		<g clip-path="url(#7)" >
    <path id=""  transform="matrix(1 0 0 -1 0 258)"  d="M37.746 161.7719L0 161.7719" stroke="#ED1C24" stroke-width="1.598184" stroke-linejoin="miter" fill="none" />
		</g>
		<g clip-path="url(#8)" >
    <path id=""  transform="matrix(1 0 0 -1 0 258)"  d="M37.824 0.001922607L37.746 37.74391" stroke="#ED1C24" stroke-width="1.598184" stroke-linejoin="miter" fill="none" />
		</g>
		<g clip-path="url(#9)" >
    <path id=""  transform="matrix(1 0 0 -1 0 258)"  d="M136.688 0.001922607L136.609 37.74391" stroke="#ED1C24" stroke-width="1.598184" stroke-linejoin="miter" fill="none" />
		</g>
		<g clip-path="url(#10)" >
    <path id=""  transform="matrix(1 0 0 -1 0 258)"  d="M153.688 257.0409L115.938 257.0409" stroke="#ED1C24" stroke-width="1.598184" stroke-linejoin="miter" fill="none" />
		</g>
		<g clip-path="url(#11)" >
    <path id=""  transform="matrix(1 0 0 -1 0 258)"  d="M37.746 37.74391L0 37.74391" stroke="#ED1C24" stroke-width="1.598184" stroke-linejoin="miter" fill="none" />
		</g>
		<g clip-path="url(#12)" >
    <path id=""  transform="matrix(1 0 0 -1 0 258)"  d="M18.875 43.36891L18.875 156.1509" stroke="#ED1C24" stroke-width="1.598184" stroke-linejoin="miter" fill="none" />
		</g>
		<g clip-path="url(#13)" >
    <path id=""  transform="matrix(1 0 0 -1 0 258)"  d="M18.875 37.74391L14.078 48.93192C 17.277 47.33392 20.473 47.33392 23.668 48.93192L23.668 48.93192L18.875 37.74391" stroke="none" fill="#ED1C24" fill-rule="evenodd" />
		</g>
		<g clip-path="url(#14)" >
    <path id=""  transform="matrix(1 0 0 -1 0 258)"  d="M18.875 161.7719L14.078 150.5879C 17.277 152.1859 20.473 152.1859 23.668 150.5879L23.668 150.5879L18.875 161.7719" stroke="none" fill="#ED1C24" fill-rule="evenodd" />
		</g>
		<g clip-path="url(#15)" >
    <path id=""  transform="matrix(1 0 0 -1 0 258)"  d="M43.387 18.87291L131.051 18.87291" stroke="#ED1C24" stroke-width="1.598184" stroke-linejoin="miter" fill="none" />
		</g>
		<g clip-path="url(#16)" >
    <path id=""  transform="matrix(1 0 0 -1 0 258)"  d="M37.785 18.87291L48.93 23.65091C 47.336 20.46692 47.336 17.28392 48.93 14.09991L48.93 14.09991L37.785 18.87291" stroke="none" fill="#ED1C24" fill-rule="evenodd" />
		</g>
		<g clip-path="url(#17)" >
    <path id=""  transform="matrix(1 0 0 -1 0 258)"  d="M136.648 18.87291L125.508 23.65091C 127.098 20.46692 127.098 17.28392 125.508 14.09991L125.508 14.09991L136.648 18.87291" stroke="none" fill="#ED1C24" fill-rule="evenodd" />
		</g>
		<g clip-path="url(#18)" >
    <path id=""  transform="matrix(1 0 0 -1 0 258)"  d="M130.484 253.4829L23.203 165.3299" stroke="#ED1C24" stroke-width="1.598184" stroke-linejoin="miter" fill="none" />
		</g>
		<g clip-path="url(#19)" >
    <path id=""  transform="matrix(1 0 0 -1 0 258)"  d="M134.813 257.0409L129.234 246.2719C 128.441 249.7439 126.418 252.2049 123.168 253.6549L123.168 253.6549L134.813 257.0409" stroke="none" fill="#ED1C24" fill-rule="evenodd" />
		</g>
		<g clip-path="url(#20)" >
    <path id=""  transform="matrix(1 0 0 -1 0 258)"  d="M18.875 161.7719L30.52 165.1589C 27.27 166.6079 25.246 169.0689 24.453 172.5409L24.453 172.5409L18.875 161.7719" stroke="none" fill="#ED1C24" fill-rule="evenodd" />
		</g>
		<g clip-path="url(#21)" >
    <path id=""  transform="matrix(1 0 0 -1 0 258)"  d="M102.293 245.5299C 103.348 244.2049 104.191 243.4669 104.848 243.2559C 105.516 243.0799 106.066 243.1739 106.512 243.5259C 106.969 243.9009 107.168 244.4159 107.145 245.0959C 107.086 245.7869 106.547 246.7839 105.504 248.0959C 104.438 249.4199 103.57 250.1819 102.938 250.3689C 102.27 250.5689 101.707 250.4749 101.238 250.0999C 100.793 249.7369 100.582 249.2559 100.605 248.6589C 100.676 247.8849 101.227 246.8539 102.293 245.5299zM101.285 244.7209C 100.523 245.6699 99.996 246.5259 99.715 247.2639C 99.469 248.0019 99.375 248.6819 99.527 249.3029C 99.668 249.9239 100.02 250.4629 100.594 250.9199C 101.027 251.2719 101.484 251.4829 101.941 251.5759C 102.41 251.6469 102.879 251.6229 103.359 251.4829C 103.816 251.3189 104.309 251.0369 104.801 250.6739C 105.293 250.2989 105.867 249.7009 106.512 248.9049C 107.262 247.9669 107.766 247.1229 108.035 246.3969C 108.316 245.6699 108.387 244.9789 108.246 244.3579C 108.117 243.7369 107.742 243.1739 107.156 242.7049C 106.395 242.0959 105.563 241.8969 104.695 242.0959C 103.605 242.3539 102.48 243.2209 101.285 244.7209zM96.043 240.5339C 97.098 239.2089 97.941 238.4709 98.598 238.2599C 99.266 238.0839 99.816 238.1779 100.262 238.5299C 100.719 238.9049 100.918 239.4199 100.895 240.0999C 100.836 240.7909 100.297 241.7869 99.254 243.0999C 98.188 244.4239 97.32 245.1859 96.688 245.3729C 96.02 245.5729 95.457 245.4789 94.988 245.1039C 94.543 244.7409 94.332 244.2599 94.355 243.6619C 94.426 242.8889 94.977 241.8579 96.043 240.5339zM95.035 239.7249C 94.273 240.6739 93.746 241.5299 93.465 242.2679C 93.219 243.0059 93.125 243.6859 93.277 244.3069C 93.418 244.9279 93.77 245.4669 94.344 245.9239C 94.777 246.2759 95.234 246.4869 95.691 246.5799C 96.16 246.6509 96.629 246.6269 97.109 246.4869C 97.566 246.3229 98.059 246.0409 98.551 245.6779C 99.043 245.3029 99.617 244.7049 100.262 243.9089C 101.012 242.9709 101.516 242.1269 101.785 241.4009C 102.066 240.6739 102.137 239.9829 101.996 239.3619C 101.867 238.7409 101.492 238.1779 100.906 237.7089C 100.145 237.0999 99.313 236.9009 98.445 237.0999C 97.355 237.3579 96.23 238.2249 95.035 239.7249zM95.648 233.7369L94.664 232.9399L94.664 232.9399L89.637 239.2329C 89.578 238.8339 89.449 238.3419 89.25 237.8259C 89.027 237.2759 88.84 236.8189 88.617 236.4669L88.617 236.4669L87.855 237.4159C 88.195 238.1309 88.418 238.8109 88.547 239.5259C 88.652 240.2289 88.664 240.8149 88.559 241.3069L88.559 241.3069L89.191 241.8109zM86.242 226.2089L85.34 227.3339L85.34 227.3339L86.465 228.2369L86.465 228.2369L87.367 227.1119zM82.48 230.9089L81.578 232.0339L81.578 232.0339L82.703 232.9359L82.703 232.9359L83.605 231.8109zM79.727 221.0019L73.293 229.0409L73.293 229.0409L74.289 229.8259L74.289 229.8259L76.609 226.9319C 76.633 227.8339 76.996 228.5729 77.699 229.1349C 78.133 229.4749 78.555 229.6859 79.023 229.7679C 79.48 229.8619 79.891 229.7909 80.254 229.6039C 80.641 229.4279 81.063 229.0409 81.508 228.4909L81.508 228.4909L84.461 224.7869L84.461 224.7869L83.477 223.9909L83.477 223.9909L80.535 227.6699C 80.137 228.1619 79.738 228.4439 79.34 228.4909C 78.953 228.5609 78.566 228.4199 78.168 228.1039C 77.887 227.8809 77.676 227.5759 77.523 227.2249C 77.406 226.8619 77.371 226.5099 77.488 226.1699C 77.57 225.8299 77.805 225.4319 78.18 224.9629L78.18 224.9629L80.723 221.7869zM78.031 221.1079L78.875 220.3339C 78.641 220.0529 78.418 219.8189 78.207 219.6549C 77.855 219.3619 77.516 219.1979 77.234 219.1619C 76.941 219.1039 76.684 219.1509 76.461 219.2799C 76.227 219.3969 75.875 219.7369 75.395 220.3459L75.395 220.3459L72.723 223.6979L72.723 223.6979L72.008 223.1119L72.008 223.1119L71.387 223.8729L71.387 223.8729L72.102 224.4589L72.102 224.4589L70.953 225.9009L70.953 225.9009L71.469 227.2839L71.469 227.2839L73.098 225.2439L73.098 225.2439L74.082 226.0409L74.082 226.0409L74.703 225.2799L74.703 225.2799L73.719 224.4829L73.719 224.4829L76.449 221.0729C 76.66 220.7909 76.836 220.6389 76.918 220.5689C 77.023 220.5219 77.129 220.5099 77.258 220.5099C 77.363 220.5219 77.516 220.6039 77.656 220.7209C 77.762 220.8029 77.891 220.9319 78.031 221.1079zM68.586 217.0259C 69.184 216.2759 69.781 215.8189 70.355 215.7129C 70.953 215.6189 71.469 215.7369 71.926 216.0999C 72.383 216.4749 72.617 216.9439 72.652 217.5409C 72.664 218.1269 72.406 218.8069 71.797 219.5569C 71.234 220.2719 70.637 220.6819 70.039 220.7869C 69.43 220.8689 68.914 220.7639 68.469 220.4119C 68.035 220.0609 67.789 219.5689 67.766 218.9829C 67.742 218.3729 68.012 217.7289 68.586 217.0259zM70.566 212.8769L71.633 213.5219C 71.891 213.2519 72.184 213.1119 72.488 213.1119C 72.875 213.1469 73.273 213.3229 73.707 213.6619C 74.164 214.0259 74.434 214.4009 74.551 214.7639C 74.645 215.1509 74.621 215.5489 74.434 215.9479C 74.328 216.1819 74.012 216.6269 73.496 217.2719C 73.473 216.4159 73.145 215.7249 72.488 215.2089C 71.691 214.5759 70.848 214.3769 69.945 214.5879C 69.031 214.8109 68.258 215.3259 67.625 216.1349C 67.168 216.6979 66.863 217.2839 66.688 217.9279C 66.512 218.5489 66.523 219.1469 66.699 219.7209C 66.875 220.2719 67.227 220.7639 67.742 221.1739C 68.434 221.7249 69.219 221.8889 70.109 221.6899L70.109 221.6899L69.535 222.4049L69.535 222.4049L70.449 223.1309L70.449 223.1309L74.48 218.1039C 75.195 217.2009 75.617 216.4869 75.723 215.9359C 75.875 215.4199 75.816 214.8929 75.582 214.3539C 75.359 213.8259 74.949 213.3109 74.363 212.8419C 73.672 212.2909 72.98 211.9979 72.313 211.9749C 71.633 211.9279 71.059 212.2439 70.566 212.8769zM64.109 208.5139L59.445 214.3379L59.445 214.3379L60.336 215.0409L60.336 215.0409L61.004 214.2089C 60.922 215.2049 61.285 216.0019 62.094 216.6469C 62.434 216.9279 62.82 217.1269 63.219 217.2329C 63.605 217.3499 63.945 217.3619 64.273 217.2679C 64.578 217.1859 64.871 217.0099 65.152 216.7759C 65.34 216.6349 65.621 216.3299 65.984 215.8729L65.984 215.8729L68.844 212.2989L68.844 212.2989L67.859 211.5019L67.859 211.5019L65.023 215.0409C 64.707 215.4509 64.426 215.7209 64.18 215.8619C 63.945 215.9909 63.688 216.0489 63.406 215.9909C 63.102 215.9669 62.832 215.8499 62.563 215.6269C 62.152 215.2989 61.883 214.8659 61.813 214.3619C 61.707 213.8689 61.965 213.2249 62.563 212.4749L62.563 212.4749L65.105 209.2989zM55.836 207.5729L59.082 210.1739C 58.648 210.6309 58.227 210.8889 57.828 210.9709C 57.207 211.0999 56.656 210.9829 56.141 210.5729C 55.695 210.2089 55.438 209.7519 55.367 209.2129C 55.297 208.6619 55.473 208.1119 55.836 207.5729zM60.324 208.5799L61.473 209.2599C 61.777 208.5339 61.859 207.8299 61.684 207.1619C 61.496 206.4939 61.086 205.8969 60.406 205.3459C 59.551 204.6659 58.684 204.3969 57.77 204.5139C 56.832 204.6429 56 205.1699 55.25 206.1079C 54.465 207.0919 54.102 208.0529 54.184 209.0019C 54.254 209.9399 54.688 210.7369 55.496 211.3809C 56.27 212.0019 57.113 212.2479 58.039 212.1079C 58.953 211.9669 59.797 211.4279 60.57 210.4549C 60.617 210.3969 60.688 210.3149 60.77 210.1979L60.77 210.1979L56.422 206.7169C 56.973 206.1189 57.535 205.7679 58.145 205.6859C 58.73 205.6039 59.27 205.7679 59.762 206.1549C 60.125 206.4479 60.348 206.7869 60.453 207.1859C 60.559 207.5839 60.512 208.0529 60.324 208.5799zM55.359 201.4979L48.926 209.5369L48.926 209.5369L49.91 210.3339L49.91 210.3339L56.344 202.2949zM49.406 196.7519L48.504 197.8769L48.504 197.8769L49.629 198.7679L49.629 198.7679L50.531 197.6429zM42.875 191.5299L38.211 197.3539L38.211 197.3539L39.102 198.0569L39.102 198.0569L39.77 197.2249C 39.688 198.2209 40.051 199.0179 40.859 199.6619C 41.199 199.9439 41.586 200.1429 41.984 200.2479C 42.371 200.3659 42.711 200.3769 43.039 200.2839C 43.344 200.2009 43.637 200.0259 43.918 199.7909C 44.105 199.6509 44.387 199.3459 44.75 198.8889L44.75 198.8889L47.609 195.3149L47.609 195.3149L46.625 194.5179L46.625 194.5179L43.789 198.0569C 43.473 198.4669 43.191 198.7369 42.945 198.8769C 42.711 199.0059 42.453 199.0649 42.172 199.0059C 41.867 198.9829 41.598 198.8659 41.328 198.6429C 40.918 198.3149 40.648 197.8809 40.578 197.3769C 40.473 196.8849 40.73 196.2409 41.328 195.4909L41.328 195.4909L43.871 192.3149zM40.383 189.5369L35.719 195.3619L35.719 195.3619L36.715 196.1469L36.715 196.1469L41.379 190.3229zM34.852 196.4509L33.949 197.5759L33.949 197.5759L34.945 198.3619L34.945 198.3619L35.848 197.2369zM31.027 182.0569L26.363 187.8809L26.363 187.8809L27.254 188.5839L27.254 188.5839L27.91 187.7639C 27.875 188.1979 27.934 188.6429 28.098 189.0409C 28.262 189.4509 28.543 189.8149 28.93 190.1309C 29.352 190.4589 29.773 190.6589 30.195 190.7049C 30.629 190.7409 30.992 190.6349 31.379 190.4239C 31.297 191.4789 31.625 192.2869 32.363 192.8849C 32.949 193.3539 33.535 193.5409 34.074 193.4709C 34.66 193.4119 35.211 193.0369 35.738 192.3689L35.738 192.3689L38.938 188.3729L38.938 188.3729L37.953 187.5879L37.953 187.5879L35.023 191.2559C 34.707 191.6549 34.438 191.9009 34.227 192.0299C 34.039 192.1589 33.793 192.1819 33.547 192.1699C 33.301 192.1229 33.055 192.0299 32.832 191.8539C 32.422 191.5259 32.176 191.1039 32.129 190.6349C 32.094 190.1309 32.293 189.5919 32.785 188.9829L32.785 188.9829L35.48 185.6079L35.48 185.6079L34.484 184.8229L34.484 184.8229L31.449 188.6079C 31.109 189.0409 30.77 189.2989 30.441 189.3929C 30.102 189.4869 29.75 189.3929 29.375 189.0879C 29.117 188.8769 28.895 188.6079 28.777 188.2679C 28.66 187.9399 28.66 187.5759 28.789 187.2129C 28.906 186.8379 29.188 186.3929 29.609 185.8659L29.609 185.8659L32.023 182.8419z" stroke="none" fill="#EF3221" fill-rule="nonzero" />
		</g>
		<g clip-path="url(#22)" >
    <path id=""  transform="matrix(1 0 0 -1 0 258)"  d="M111.922 6.978912C 111.922 5.279922 112.121 4.165909 112.508 3.603912C 112.918 3.040909 113.398 2.771912 113.973 2.771912C 114.559 2.771912 115.039 3.052917 115.449 3.603912C 115.836 4.165909 116.035 5.302917 116.035 6.978912C 116.035 8.677917 115.836 9.802917 115.449 10.35391C 115.051 10.91591 114.559 11.19792 113.961 11.19792C 113.387 11.19792 112.918 10.95091 112.566 10.45892C 112.133 9.825912 111.922 8.677917 111.922 6.978912zM110.633 6.978912C 110.633 8.197922 110.762 9.181915 110.996 9.931915C 111.266 10.66992 111.617 11.25592 112.121 11.64291C 112.613 12.04091 113.234 12.24092 113.973 12.24092C 114.523 12.24092 115.016 12.12291 115.426 11.91191C 115.848 11.67792 116.188 11.36192 116.469 10.95091C 116.738 10.52992 116.938 10.01392 117.102 9.427917C 117.254 8.818909 117.324 7.99791 117.324 6.978912C 117.324 5.771912 117.195 4.79892 116.949 4.060913C 116.715 3.310913 116.34 2.736923 115.848 2.337921C 115.355 1.927917 114.723 1.728912 113.973 1.728912C 112.988 1.728912 112.215 2.091919 111.652 2.794922C 110.973 3.661911 110.633 5.056915 110.633 6.978912zM103.926 6.978912C 103.926 5.279922 104.125 4.165909 104.512 3.603912C 104.922 3.040909 105.402 2.771912 105.977 2.771912C 106.563 2.771912 107.043 3.052917 107.453 3.603912C 107.84 4.165909 108.039 5.302917 108.039 6.978912C 108.039 8.677917 107.84 9.802917 107.453 10.35391C 107.055 10.91591 106.563 11.19792 105.965 11.19792C 105.391 11.19792 104.922 10.95091 104.57 10.45892C 104.137 9.825912 103.926 8.677917 103.926 6.978912zM102.637 6.978912C 102.637 8.197922 102.766 9.181915 103 9.931915C 103.27 10.66992 103.621 11.25592 104.125 11.64291C 104.617 12.04091 105.238 12.24092 105.977 12.24092C 106.527 12.24092 107.02 12.12291 107.43 11.91191C 107.852 11.67792 108.191 11.36192 108.473 10.95091C 108.742 10.52992 108.941 10.01392 109.105 9.427917C 109.258 8.818909 109.328 7.99791 109.328 6.978912C 109.328 5.771912 109.199 4.79892 108.953 4.060913C 108.719 3.310913 108.344 2.736923 107.852 2.337921C 107.359 1.927917 106.727 1.728912 105.977 1.728912C 104.992 1.728912 104.219 2.091919 103.656 2.794922C 102.977 3.661911 102.637 5.056915 102.637 6.978912zM98.672 5.525909L98.672 10.15492L98.672 10.15492L95.449 5.525909zM98.672 1.904907L98.672 4.365921L98.672 4.365921L94.207 4.365921L94.207 4.365921L94.207 5.525909L94.207 5.525909L98.906 12.20491L98.906 12.20491L99.938 12.20491L99.938 12.20491L99.938 5.525909L99.938 5.525909L101.332 5.525909L101.332 5.525909L101.332 4.365921L101.332 4.365921L99.938 4.365921L99.938 4.365921L99.938 1.904907zM85.691 4.99791L85.691 6.263916L85.691 6.263916L89.605 6.263916L89.605 6.263916L89.605 4.99791zM75.145 6.978912C 75.145 5.279922 75.344 4.165909 75.73 3.603912C 76.141 3.040909 76.621 2.771912 77.195 2.771912C 77.781 2.771912 78.262 3.052917 78.672 3.603912C 79.059 4.165909 79.258 5.302917 79.258 6.978912C 79.258 8.677917 79.059 9.802917 78.672 10.35391C 78.273 10.91591 77.781 11.19792 77.184 11.19792C 76.609 11.19792 76.141 10.95091 75.789 10.45892C 75.355 9.825912 75.145 8.677917 75.145 6.978912zM73.855 6.978912C 73.855 8.197922 73.984 9.181915 74.219 9.931915C 74.488 10.66992 74.84 11.25592 75.344 11.64291C 75.836 12.04091 76.457 12.24092 77.195 12.24092C 77.746 12.24092 78.238 12.12291 78.648 11.91191C 79.07 11.67792 79.41 11.36192 79.691 10.95091C 79.961 10.52992 80.16 10.01392 80.324 9.427917C 80.477 8.818909 80.547 7.99791 80.547 6.978912C 80.547 5.771912 80.418 4.79892 80.172 4.060913C 79.938 3.310913 79.563 2.736923 79.07 2.337921C 78.578 1.927917 77.945 1.728912 77.195 1.728912C 76.211 1.728912 75.438 2.091919 74.875 2.794922C 74.195 3.661911 73.855 5.056915 73.855 6.978912zM67.152 6.978912C 67.152 5.279922 67.352 4.165909 67.738 3.603912C 68.148 3.040909 68.629 2.771912 69.203 2.771912C 69.789 2.771912 70.27 3.052917 70.68 3.603912C 71.066 4.165909 71.266 5.302917 71.266 6.978912C 71.266 8.677917 71.066 9.802917 70.68 10.35391C 70.281 10.91591 69.789 11.19792 69.191 11.19792C 68.617 11.19792 68.148 10.95091 67.797 10.45892C 67.363 9.825912 67.152 8.677917 67.152 6.978912zM65.863 6.978912C 65.863 8.197922 65.992 9.181915 66.227 9.931915C 66.496 10.66992 66.848 11.25592 67.352 11.64291C 67.844 12.04091 68.465 12.24092 69.203 12.24092C 69.754 12.24092 70.246 12.12291 70.656 11.91191C 71.078 11.67792 71.418 11.36192 71.699 10.95091C 71.969 10.52992 72.168 10.01392 72.332 9.427917C 72.484 8.818909 72.555 7.99791 72.555 6.978912C 72.555 5.771912 72.426 4.79892 72.18 4.060913C 71.945 3.310913 71.57 2.736923 71.078 2.337921C 70.586 1.927917 69.953 1.728912 69.203 1.728912C 68.219 1.728912 67.445 2.091919 66.883 2.794922C 66.203 3.661911 65.863 5.056915 65.863 6.978912zM62.598 1.904907L61.332 1.904907L61.332 1.904907L61.332 9.95491C 61.039 9.67392 60.629 9.38092 60.148 9.099915C 59.645 8.806915 59.199 8.572922 58.813 8.431915L58.813 8.431915L58.813 9.650909C 59.516 9.990921 60.125 10.38892 60.664 10.85791C 61.191 11.33792 61.566 11.79492 61.789 12.24092L61.789 12.24092L62.598 12.24092z" stroke="none" fill="#EF3221" fill-rule="nonzero" />
		</g>
		<g clip-path="url(#23)" >
    <path id=""  transform="matrix(1 0 0 -1 0 258)"  d="M8.629 121.4509C 10.328 121.4629 11.43 121.6739 11.992 122.0729C 12.555 122.4829 12.813 122.9629 12.813 123.5369C 12.801 124.1229 12.52 124.6039 11.969 125.0139C 11.406 125.3889 10.258 125.5759 8.582 125.5649C 6.883 125.5529 5.77 125.3419 5.219 124.9439C 4.656 124.5449 4.375 124.0529 4.387 123.4549C 4.387 122.8809 4.645 122.4119 5.137 122.0609C 5.77 121.6389 6.93 121.4399 8.629 121.4509zM8.641 120.1619C 7.422 120.1509 6.426 120.2679 5.676 120.5019C 4.938 120.7599 4.352 121.1119 3.953 121.6039C 3.555 122.0959 3.355 122.7169 3.344 123.4549C 3.344 124.0059 3.449 124.4979 3.66 124.9089C 3.883 125.3299 4.199 125.6819 4.609 125.9629C 5.031 126.2329 5.547 126.4439 6.133 126.6079C 6.73 126.7719 7.551 126.8419 8.57 126.8539C 9.777 126.8659 10.75 126.7479 11.5 126.5019C 12.25 126.2799 12.824 125.9049 13.223 125.4239C 13.645 124.9319 13.844 124.2989 13.855 123.5489C 13.867 122.5649 13.504 121.7909 12.813 121.2169C 11.945 120.5369 10.563 120.1859 8.641 120.1619zM10.117 116.2089L5.488 116.1739L5.488 116.1739L10.152 112.9869zM13.738 116.2439L11.277 116.2209L11.277 116.2209L11.324 111.7559L11.324 111.7559L10.164 111.7439L10.164 111.7439L3.438 116.3849L3.438 116.3849L3.426 117.4159L3.426 117.4159L10.105 117.4749L10.105 117.4749L10.094 118.8689L10.094 118.8689L11.254 118.8809L11.254 118.8809L11.266 117.4869L11.266 117.4869L13.727 117.5099zM12.582 110.8229L13.789 110.8339L13.789 110.8339L13.859 104.0259C 13.555 104.0019 13.25 104.0609 12.98 104.1549C 12.512 104.3419 12.055 104.6119 11.609 104.9869C 11.141 105.3729 10.613 105.9239 10.039 106.6269C 9.113 107.7289 8.363 108.4909 7.836 108.8769C 7.297 109.2639 6.77 109.4749 6.301 109.4629C 5.797 109.4629 5.387 109.2759 5.047 108.9119C 4.695 108.5489 4.52 108.0799 4.531 107.5059C 4.531 106.8849 4.73 106.3929 5.094 106.0409C 5.457 105.6779 5.961 105.4909 6.605 105.4909L6.605 105.4909L6.488 104.1899C 5.527 104.2839 4.777 104.6119 4.273 105.1859C 3.758 105.7479 3.5 106.5449 3.488 107.5179C 3.477 108.5019 3.746 109.2869 4.285 109.8729C 4.824 110.4479 5.504 110.7519 6.313 110.7519C 6.734 110.7639 7.133 110.6819 7.531 110.5059C 7.93 110.3419 8.352 110.0729 8.797 109.6859C 9.254 109.2989 9.863 108.6549 10.637 107.7639C 11.27 107.0019 11.703 106.5099 11.938 106.3109C 12.172 106.0879 12.395 105.9119 12.629 105.7839zM10.844 95.24092L9.578 95.22891L9.578 95.22891L9.543 99.14291L9.543 99.14291L10.809 99.15492zM8.961 84.67392C 10.66 84.68591 11.762 84.89691 12.324 85.29492C 12.887 85.70491 13.145 86.18591 13.145 86.75992C 13.133 87.34592 12.852 87.82591 12.301 88.23692C 11.738 88.61192 10.59 88.79892 8.914 88.78691C 7.215 88.77591 6.102 88.56491 5.551 88.16591C 4.988 87.76791 4.707 87.27591 4.719 86.67792C 4.719 86.10391 4.977 85.63492 5.469 85.28392C 6.102 84.86192 7.262 84.66191 8.961 84.67392zM8.973 83.38492C 7.754 83.37291 6.758 83.49092 6.008 83.72491C 5.27 83.98291 4.684 84.33392 4.285 84.82591C 3.887 85.31891 3.688 85.93991 3.676 86.67792C 3.676 87.22891 3.781 87.72092 3.992 88.13092C 4.215 88.55292 4.531 88.90492 4.941 89.18591C 5.363 89.45491 5.879 89.66591 6.465 89.82991C 7.063 89.99391 7.883 90.06491 8.902 90.07591C 10.109 90.08792 11.082 89.97092 11.832 89.72491C 12.582 89.50192 13.156 89.12692 13.555 88.64691C 13.977 88.15492 14.176 87.52191 14.188 86.77191C 14.199 85.78691 13.836 85.01392 13.145 84.43991C 12.277 83.75992 10.895 83.40892 8.973 83.38492zM9.035 76.67792C 10.734 76.68991 11.836 76.90091 12.398 77.29892C 12.961 77.70892 13.219 78.18991 13.219 78.76392C 13.207 79.34991 12.926 79.82991 12.375 80.24092C 11.813 80.61592 10.664 80.80292 8.988 80.79091C 7.289 80.77992 6.176 80.56891 5.625 80.16992C 5.063 79.77191 4.781 79.27992 4.793 78.68192C 4.793 78.10791 5.051 77.63892 5.543 77.28691C 6.176 76.86592 7.336 76.66591 9.035 76.67792zM9.047 75.38892C 7.828 75.37692 6.832 75.49391 6.082 75.72891C 5.344 75.98692 4.758 76.33792 4.359 76.82991C 3.961 77.32292 3.762 77.94391 3.75 78.68192C 3.75 79.23291 3.855 79.72491 4.066 80.13492C 4.289 80.55692 4.605 80.90892 5.016 81.18991C 5.438 81.45892 5.953 81.66992 6.539 81.83392C 7.137 81.99791 7.957 82.06891 8.977 82.07991C 10.184 82.09192 11.156 81.97491 11.906 81.72891C 12.656 81.50592 13.23 81.13092 13.629 80.65091C 14.051 80.15892 14.25 79.52591 14.262 78.77591C 14.273 77.79091 13.91 77.01791 13.219 76.44391C 12.352 75.76392 10.969 75.41191 9.047 75.38892zM14.148 72.16992L14.16 70.90492L14.16 70.90492L6.109 70.83392C 6.391 70.54091 6.684 70.13092 6.977 69.65091C 7.27 69.15892 7.504 68.71292 7.656 68.32591L7.656 68.32591L6.438 68.31491C 6.086 69.01791 5.688 69.61592 5.207 70.15492C 4.727 70.68192 4.27 71.04492 3.813 71.26791L3.813 71.26791L3.813 72.07591z" stroke="none" fill="#EF3221" fill-rule="nonzero" />
		</g>
	</g>
</g>
</svg>